<?xml version="1.0" standalone="no"?>
<!DOCTYPE svg PUBLIC "-//W3C//DTD SVG 1.1//EN" "http://www.w3.org/Graphics/SVG/1.1/DTD/svg11.dtd" >
<svg xmlns="http://www.w3.org/2000/svg" xmlns:xlink="http://www.w3.org/1999/xlink" version="1.1">
<metadata>
Created by FontForge 20170731 at Mon Feb  3 21:55:01 2003
 By Aleksey,,,
(c) 1997, 1998, 1999, 2003 Adobe Systems Incorporated. All Rights Reserved.
</metadata>
<defs>
<font id="BickhamScriptStd-Regular" horiz-adv-x="307" >
  <font-face 
    font-family="Bickham Script Std Regular"
    font-weight="400"
    font-style="italic"
    font-stretch="normal"
    units-per-em="1000"
    panose-1="3 3 4 2 4 7 7 13 13 6"
    ascent="680"
    descent="-320"
    x-height="171"
    cap-height="432"
    bbox="-2225.39 -953.568 3480.31 1254"
    underline-thickness="30"
    underline-position="-240"
    slope="-39"
    unicode-range="U+0020-F6C3"
  />
<missing-glyph horiz-adv-x="500" 
d="M0 0v700h500v-700h-500zM250 395l170 255h-340zM280 350l170 -255v510zM80 50h340l-170 255zM50 605v-510l170 255z" />
    <glyph glyph-name="f_l" unicode="fl" horiz-adv-x="349" 
d="M505 569q35 0 28 -35q-11 -47 -210 -212q-146 -122 -192 -163q-65 -81 -118 -155q22 5 42 14q36 18 63 36q37 24 64 48q50 41 106 94q20 25 90 102q67 72 104 102q21 17 36 17q14 0 18 -7q-62 -58 -137 -144q-136 -159 -165 -219q-11 -21 -3 -28q9 -6 31 6q5 3 39 27
q20 15 49 41q11 8 13 6q2 -1 -8 -14q-32 -30 -61 -51q-50 -40 -90 -40q-15 0 -23.5 7t-7.5 20q2 38 85 137h-1q-12 -12 -43.5 -41t-36.5 -34q-33 -26 -65 -44q-45 -28 -80 -41q-20 -9 -25 -16q-7 -10 -14 -32q-29 -94 -85 -190q-66 -113 -115 -148q-27 -20 -43 -16
q-23 4 -16 38q8 39 51 115.5t98 151.5q80 109 173 228h-1q-38 -32 -50 -44q-8 -7 -11 -3q-2 2 7 11q25 23 77 65q91 113 114 141q59 69 126 136.5t105 94.5q54 39 82 39zM148 185v-1q54 48 102 92t62 57q188 172 195 206q3 19 -14 19q-22 0 -62 -40q-52 -49 -130 -142
q-73 -86 -153 -191zM-10 -25h-1q-55 -71 -125 -176q-79 -120 -96 -159q-9 -21 0 -24q8 -4 25 9q47 36 109 144q53 91 88 206z" />
    <glyph glyph-name="f_t" unicode="&#xe043;t" horiz-adv-x="339" 
d="M223 309v1q-24 -6 -52 -6q-53 0 -90 17.5t-36 58.5q2 32 35.5 61t83.5 30q11 0 20 -1.5t13 -3.5t3 -4q-1 -1 -2 -1t-3.5 0.5t-6 1t-9 1t-11.5 0.5q-42 -3 -67.5 -25.5t-28.5 -48.5q-3 -37 27.5 -56t72.5 -19q37 0 58 5q62 70 114 122q131 127 193 127q16 0 24.5 -8.5
t7.5 -21.5q-4 -48 -113 -124q-87 -61 -177 -96q-92 -109 -128 -154q21 1 54 1q16 1 47 1q46 59 93 105q43 41 64 41q11 0 15 -6q-19 -17 -61 -65q-31 -35 -61 -74q23 1 57 1q6 0 10.5 -1.5t3.5 -4.5q-2 -5 -18 -5q-38 0 -61 -1q-40 -48 -72 -110q-12 -21 -1 -29q7 -4 25 4
q25 13 45 30q20 16 48 41q11 8 13 6q3 -2 -8 -13q-31 -31 -60 -52q-55 -41 -92 -41q-16 0 -23.5 8t-6.5 20q2 31 54 100q15 20 28 36q-6 0 -22.5 -0.5t-24.5 -0.5q-10 0 -27.5 -0.5t-26.5 -1.5l-111 -142q-41 -136 -111 -253q-64 -109 -117 -147q-27 -20 -43 -17
q-23 5 -16 39q8 39 51 115t98 152q98 131 139 179q3 10 6.5 23.5t6.5 23.5t8 18q10 17 47 19q78 95 122 145zM290 334v-1q88 37 171 104q31 25 57.5 56.5t29.5 50.5q2 16 -11 16q-26 0 -111 -79q-40 -38 -136 -147zM47 96l46 57q-22 -2 -30 -11q-6 -8 -10.5 -24.5
t-6.5 -21.5h1zM16 -6h-1q-65 -85 -140 -195q-82 -127 -96 -159q-8 -20 0 -25q9 -3 25 10q48 37 111 144q52 87 101 225z" />
    <glyph glyph-name="l_l" unicode="l&#xe06f;" horiz-adv-x="328" 
d="M46 121v1q-8 -7 -22.5 -20t-19.5 -17q-7 -7 -10 -4q-2 4 5 10q47 43 70 62q72 91 102 124q81 92 152 144q40 29 89 51.5t89 21.5q32 0 46 -11q13 11 36 29q108 82 228 135t226 54q116 1 185.5 -50.5t64.5 -131.5q0 -9 -3.5 -18.5t-7 -14.5t-5.5 -3q-2 1 0 4.5t5 12
t3 19.5q2 70 -59.5 111.5t-180.5 41.5q-215 0 -421 -150q-44 -32 -95 -83t-83.5 -89t-83.5 -100q-101 -125 -144 -203q-11 -21 -2 -28q8 -6 30 6q20 10 40 27q30 23 48 41q12 7 13 6q3 -2 -8 -13q-25 -25 -60 -52q-50 -40 -90 -40q-15 0 -23.5 7t-7.5 20q1 31 56 103h-1
q-17 -17 -43 -40q-24 -22 -58 -50q-48 -40 -86 -40q-14 0 -22 7t-7 20q1 30 55 100zM496 484q-39 0 -76 -15.5t-86 -61.5q-33 -31 -124 -141q-121 -150 -158 -218q-11 -22 -4 -28q4 -5 27 3q18 10 82 67q14 12 27.5 24t27 25t20.5 19q46 63 118 141q95 103 182 172
q-6 13 -36 13z" />
    <glyph glyph-name=".notdef" horiz-adv-x="500" 
d="M0 0v700h500v-700h-500zM250 395l170 255h-340zM280 350l170 -255v510zM80 50h340l-170 255zM50 605v-510l170 255z" />
    <glyph glyph-name=".null" horiz-adv-x="0" 
 />
    <glyph glyph-name="nonmarkingreturn" horiz-adv-x="333" 
 />
    <glyph glyph-name="space" unicode=" " horiz-adv-x="153" 
 />
    <glyph glyph-name="exclam" unicode="!" horiz-adv-x="239" 
d="M305 339q12 0 12 -5q-2 -7 -19 -30q-34 -45 -101 -118.5t-105 -111.5q-8 -9 -13 -7q-4 2 6 16q97 128 160 224q22 32 60 32zM66 44q12 0 15.5 -7.5t-5.5 -18.5q-8 -11 -23 -19t-24 -8q-10 13 -1 34q8 19 38 19z" />
    <glyph glyph-name="quotedbl" unicode="&#x22;" horiz-adv-x="190" 
d="M266 340q32 0 6 -23q-12 -10 -40 -34.5t-38 -31.5q-8 -6 -11 -5q-3 3 4 11q8 11 22 34t19 30q11 19 38 19zM186 340q14 0 16.5 -6t-10.5 -17q-48 -43 -78 -66q-9 -7 -11 -5q-3 1 4 11q15 23 40 64q11 19 39 19z" />
    <glyph glyph-name="numbersign" unicode="#" horiz-adv-x="356" 
d="M246 281q11 0 11 -4q1 -7 -17 -28q-11 -13 -30 -35.5t-22 -26.5q26 0 92 -2l57 76q8 11 11.5 15t10.5 8t16 4q11 0 12 -4q0 -6 -18 -28q-15 -19 -59 -71h51q16 0 16 -4t-16 -4h-58q-52 -63 -55 -67q42 0 65 -1q15 0 16 -3q0 -5 -16 -5h-72q-53 -67 -88 -108
q-9 -13 -16 -9q-5 3 5 15q15 21 75 102q-17 -1 -49.5 -1.5t-49.5 -0.5q-49 -60 -93 -113q-11 -14 -17 -9q-2 3 5 15q9 12 36.5 48.5t43.5 58.5h-41q-23 0 -24 6q0 7 21 7h53q5 7 15 20t18 23.5t15 19.5h-50q-23 0 -24 5q0 3 3.5 5t7.5 2.5t10 0.5q11 0 31.5 -0.5t30.5 -0.5
q18 24 50 66q2 3 6.5 9t6.5 8t6 5.5t8 4.5t10 1zM179 175l-52 -64q63 0 97 -1q14 19 49 66q-33 -1 -94 -1z" />
    <glyph glyph-name="dollar" unicode="$" horiz-adv-x="245" 
d="M248 272l-66 -100q19 -60 10 -86q-11 -32 -41 -49.5t-61 -17.5q-6 0 -10 1q-20 -30 -27 -41q-7 -8 -11 -7q-4 4 2 13l23 36q-23 6 -34.5 21.5t-7.5 34.5q3 15 13 23t22 6q8 -2 13 -9t2 -15q-2 -8 -10 -16.5t-8 -13.5q-2 -15 17 -21l74 113q-16 40 -4 74q11 29 36.5 45.5
t56.5 17.5l13 18q17 25 23 22q6 -2 -9 -25l-11 -16q18 -4 28 -16t5 -30q-3 -10 -11.5 -16.5t-16.5 -5.5q-21 4 -12 25q3 6 8.5 13t5.5 11q-1 8 -12 11zM176 187l57 86q-18 0 -34 -11.5t-24 -28.5q-7 -23 1 -46zM154 130l-68 -101q3 -1 7 -1q43 0 63 39q13 25 -2 63z" />
    <glyph glyph-name="percent" unicode="%" horiz-adv-x="392" 
d="M240 -6q-18 0 -28 11t-7 28q4 32 38 67q33 35 76 43q12 3 12 -1q0 -1 -2 -2t-6.5 -3t-7.5 -5q-22 -14 -46 -45q-30 -38 -34 -64q-3 -17 10 -20q25 -3 57 43q30 41 38 69q4 14 0 22q-1 1 -3.5 2.5t-2.5 2.5q2 3 14 1q23 -7 16 -37q-7 -33 -41 -69q-18 -19 -42 -31t-41 -12
zM307 250v1q-28 -17 -59 -20q-22 -2 -43 6q4 -12 1 -25q-8 -31 -42 -66q-18 -19 -41.5 -31.5t-40.5 -12.5t-27 11t-8 28q4 33 38 68q32 35 76 43q11 0 11 -1t-2 -2t-6.5 -3t-7.5 -4q-19 -13 -45 -47q-30 -41 -34 -63q-5 -19 10 -19q25 -3 58 42q28 37 37 69q4 10 0 21
q-1 1 -2.5 2t-2.5 2t-1 2q2 3 14 1q4 -2 8 -5q19 -10 50 -8q39 5 80 34q25 27 43 27q11 0 6 -7q-4 -6 -23 -25q-136 -133 -283 -302q-11 -11 -16 -8q-3 3 7 15q123 147 245 277z" />
    <glyph glyph-name="ampersand" unicode="&#x26;" horiz-adv-x="452" 
d="M506 299q22 0 33 -11.5t7 -29.5q-3 -14 -14.5 -25t-23.5 -8q-14 3 -10 31q4 20 -14 20q-30 4 -110 -66q-19 -17 -60 -57t-61 -58q54 -77 40 -143q-12 -54 -59.5 -90t-104.5 -36q-46 0 -60 28q-6 14 -2 17q1 0 2 -1.5t2.5 -5t3.5 -6.5q16 -20 54 -20q40 0 71.5 25t43.5 65
q19 68 -18 143q-92 -76 -155 -76q-18 0 -29 11.5t-7 32.5q9 42 85 86q11 7 33 18.5t31 16.5q-9 34 -4 60q7 28 27.5 50.5t47.5 22.5q16 0 24 -14t0 -35q-14 -39 -69 -77q4 -11 37 -63q21 19 61 59t59 58q87 78 139 78zM252 277q-15 0 -29 -17t-19 -39q-4 -24 3 -46
q47 35 60 70q5 13 0.5 22.5t-15.5 9.5zM105 22q40 0 115 59q-23 40 -33 71q-58 -40 -60 -42q-39 -29 -45 -62q-3 -13 4.5 -19.5t18.5 -6.5z" />
    <glyph glyph-name="quotesingle" unicode="'" horiz-adv-x="109" 
d="M188 340q13 0 15 -6t-10 -17q-55 -47 -79 -66q-8 -7 -10 -5q-4 1 3 11q5 8 19.5 31t21.5 33q11 19 40 19z" />
    <glyph glyph-name="parenleft" unicode="(" horiz-adv-x="239" 
d="M72 -92q-3 0 -5 5q-27 179 78 324q43 60 93 104.5t97 68.5t81.5 35.5t65.5 16.5q9 2 9 -1q0 -1 -1 -2t-4 -1.5t-4 -1.5q-71 -21 -152.5 -75.5t-150.5 -152.5q-61 -86 -83.5 -170.5t-21.5 -140.5q0 -9 -2 -9z" />
    <glyph glyph-name="parenright" unicode=")" horiz-adv-x="239" 
d="M-107 -85q0 1 9 3q67 22 141 80t137 156q55 85 71.5 166t11.5 138q-2 7 1 8q2 0 5 -7q43 -163 -54 -315q-38 -60 -84 -105.5t-89.5 -70.5t-76.5 -38t-63 -18q-9 0 -9 3z" />
    <glyph glyph-name="asterisk" unicode="*" horiz-adv-x="231" 
d="M302 340q0 -4 -17 -4q-35 0 -57 1q15 -32 19 -48q4 -14 1 -15t-9 7q-16 21 -32 48q-41 -39 -54 -50q-13 -13 -16 -8q-2 2 7 16q38 46 45 53q-9 2 -25.5 5.5t-22.5 4.5q-13 5 -13 9q1 5 16 5q19 0 46 -3q-13 27 -19 45q-5 13 0 17q5 3 12 -10q10 -10 30 -46q27 27 51 47
q15 12 18 10q4 -4 -7 -17q-19 -26 -41 -51q50 -8 53 -9q15 -3 15 -7z" />
    <glyph glyph-name="plus" unicode="+" horiz-adv-x="356" 
d="M287 250q5 0 8 -0.5t5 -1.5t2.5 -3t-1 -5.5t-5 -9t-9.5 -12.5q-20 -24 -71 -84q65 -2 113 -3q16 0 16 -5t-16 -5q-59 -2 -127 -3q-95 -109 -103 -118q-11 -14 -16 -11q-3 2 5 15q11 15 39.5 53.5t44.5 59.5q-15 0 -50 -0.5t-55 -0.5q-11 0 -16.5 1.5t-6.5 3.5t0 5
q3 13 21 13q19 0 59.5 -1.5t60.5 -2.5q15 21 35 47.5t30 39.5q1 2 6 9t6.5 8.5t6 5t8.5 4.5t10 1z" />
    <glyph glyph-name="comma" unicode="," horiz-adv-x="126" 
d="M78 35q0 -8 -8 -17q-33 -41 -87 -73q-12 -6 -13 -5q-2 2 9 12q26 28 35 49q3 5 2 11t1 11q6 19 46 21q15 0 15 -9z" />
    <glyph glyph-name="hyphen" unicode="-" horiz-adv-x="245" 
d="M150 117q23 0 34.5 -15.5t10.5 -36.5q0 -5 -2 -5t-4 3q-10 16 -40 16q-12 0 -35 -4.5t-40 -4.5q-25 0 -35 13q-2 3 0 5h4q8 -4 16 -4q18 0 50 19q20 14 41 14z" />
    <glyph glyph-name="period" unicode="." horiz-adv-x="126" 
d="M60 44q12 0 15 -7.5t-6 -18.5q-8 -11 -23 -19t-24 -8q-8 12 -1 34q9 19 39 19z" />
    <glyph glyph-name="slash" unicode="/" horiz-adv-x="239" 
d="M371 380q12 0 12 -4q0 -7 -23 -31q-115 -123 -393 -424q-10 -10 -15 -6q-3 3 8 16q53 60 125 144l144 168t92 107q25 30 50 30z" />
    <glyph glyph-name="zero" unicode="0" horiz-adv-x="273" 
d="M65 -9q-29 0 -44 16.5t-12 48.5q6 62 66 126q27 30 64 52.5t67 28.5q3 0 6 0.5t7 0.5t6 -1t2 -2l-3 -1q-2 -1 -7 -3t-10 -6q-39 -28 -88 -88q-59 -76 -69 -124q-6 -36 18 -36q40 -4 108 81q52 63 72 134q7 24 -3 34q-3 4 -10 7l-2 2q2 6 23 -1q15 -7 22.5 -26t0.5 -44
q-15 -57 -75 -120q-33 -36 -71 -57.5t-68 -21.5z" />
    <glyph glyph-name="one" unicode="1" horiz-adv-x="273" 
d="M208 222v1q-25 -17 -66 -40q-10 -5 -22 -8.5t-18 -4t-8 1.5q-1 2 4 4q0 1 2 2q19 7 42 19q62 33 87 50q30 19 41 19q12 0 -7 -22q-77 -93 -157 -205q-19 -27 -28.5 -33t-43.5 -13q-15 -2 -16 3q0 6 21 33q39 51 97.5 118.5t71.5 74.5z" />
    <glyph glyph-name="two" unicode="2" horiz-adv-x="273" 
d="M32 40v-1q15 5 34 4q12 -1 33.5 -8t29.5 -7q35 0 71 38q6 6 7 5q4 -2 0 -8q-27 -34 -50 -51.5t-51 -17.5t-56 14q-18 9 -41 9q-16 0 -32 -10q-2 -1 -7 -4.5t-9 -6t-6 -2.5q-2 -1 -2.5 1t0.5 5q3 8 17 15q7 5 40.5 22t52.5 29q53 31 96 71t53 71q5 17 -2.5 28t-22.5 11
q-37 0 -69 -26q-29 -23 -35 -49q-4 -17 4 -24.5t23 -4.5q5 2 6 -1q0 -4 -7 -6q-13 -4 -23 -3q-15 1 -20.5 11t-2.5 22q9 31 49 63q49 37 98 37q33 0 45.5 -18t4.5 -47q-15 -51 -110 -107q-43 -26 -118 -54z" />
    <glyph glyph-name="three" unicode="3" horiz-adv-x="273" 
d="M171 149v-1q23 0 36 -11q21 -17 10 -51q-13 -39 -67 -68q-52 -27 -98 -27q-29 1 -47.5 13.5t-14.5 35.5q2 18 16.5 29.5t33.5 11.5q12 0 18.5 -7t4.5 -16t-19 -21q-16 -11 -17 -19q-3 -8 6 -13.5t25 -4.5q64 2 108 88q9 16 8.5 33t-12.5 18q-6 1 -26 -7q-14 -6 -14 -5
q-1 3 4 7.5t13 8.5q42 17 67.5 41t24.5 45q0 17 -24 19q-27 0 -48 -15q-23 -17 -29 -37q-3 -8 -3 -21l2 -8q-3 -2 -10 5q-7 14 -1 25q8 27 40 47q40 22 80 22q41 0 41 -31t-38 -55q-31 -19 -70 -31z" />
    <glyph glyph-name="four" unicode="4" horiz-adv-x="273" 
d="M318 267q7 0 7 -2t-5 -9q-68 -85 -153 -204q31 -3 39 -4q8 -2 11.5 -4.5t2.5 -6.5q-1 -2 -18 0q-15 2 -42 2q-41 -51 -79 -106q-17 -24 -50 -30q-20 -4 -20 2q1 9 18 33q14 19 38.5 52t36.5 49q-48 0 -78 -3q-21 -1 -41 -5q-13 -3 -13 2q-1 5 15 17q54 43 126 93
q36 25 162 107q27 17 43 17zM257 221l-2 2q-59 -34 -137 -90q-85 -62 -113 -85v-1q35 5 108 5q29 39 76.5 95t67.5 74z" />
    <glyph glyph-name="five" unicode="5" horiz-adv-x="273" 
d="M213 273q3 0 8 -7q13 -11 29 -17q14 -5 37 -5q16 2 23 7t8 4q4 -2 -3 -10q-10 -14 -28 -20q-24 -11 -57 -9q-28 1 -47 15q-31 -40 -74 -81h1q22 10 49 10q29 0 46 -16t10 -48q-11 -46 -61.5 -75.5t-108.5 -29.5q-31 0 -49.5 12t-13.5 37q4 16 16.5 27.5t26.5 11.5
q11 0 17 -6t5 -16q0 -8 -13 -21q-13 -11 -14 -19q-1 -7 6 -12t19 -5q40 0 76.5 30t46.5 76q4 20 -2 31.5t-21 11.5q-17 0 -32 -6q-14 -8 -21 -14q-11 -9 -15 -6q-8 7 10 20q23 17 55 54q43 49 60 69q5 7 11 7z" />
    <glyph glyph-name="six" unicode="6" horiz-adv-x="273" 
d="M19 43q0 76 77 155q52 53 122.5 88t121.5 34q47 0 61 -32q4 -9 0 -13q-2 0 -7 7q-16 26 -53 26q-80 0 -205 -133q-86 -90 -86 -147q0 -29 25 -29q41 2 94 78q22 32 28 57.5t-10 29.5q-18 4 -51 -17q-6 -7 -8 -2q-2 1 7 10q32 26 63 20q33 -6 36.5 -41t-25.5 -74
q-24 -33 -62 -51.5t-71 -18.5q-27 0 -42 15.5t-15 37.5z" />
    <glyph glyph-name="seven" unicode="7" horiz-adv-x="273" 
d="M276 238v1q-66 -28 -127 -26q-17 1 -29.5 9t-9.5 22q3 17 25 28q21 6 23 6l2 -1l-4 -8q-3 -7 -2 -13.5t12.5 -11.5t30.5 -5q48 -1 94 11q4 2 9.5 3t6.5 -2t-2.5 -4.5t-8.5 -2.5q-112 -95 -253 -264q-8 -8 -53 -14q-25 -4 -26.5 -0.5t17.5 22.5q174 169 295 250z" />
    <glyph glyph-name="eight" unicode="8" horiz-adv-x="273" 
d="M249 304q-21 0 -40 -14.5t-23 -33.5q-7 -27 14 -81q17 -47 16 -68q-3 -48 -48.5 -83.5t-96.5 -32.5q-30 2 -46 20.5t-9 46.5q8 31 39 56.5t72 42.5q21 11 23 4q1 -1 -2.5 -3t-8.5 -5t-7 -4q-52 -33 -67 -85q-8 -26 0 -41t28 -17q34 -2 58 25.5t24 61.5q0 21 -16 61
q-14 34 -12 65q2 39 41 70t80 30q28 -1 41 -18.5t8 -42.5q-10 -41 -82 -76q-26 -9 -27 -7q0 2 2.5 4t6.5 4.5t6 3.5q45 28 55 71q5 19 -3 32.5t-26 13.5z" />
    <glyph glyph-name="nine" unicode="9" horiz-adv-x="273" 
d="M-86 -92q62 0 133 57q69 55 123 131q65 94 69 131q4 22 -15 27q-19 4 -47.5 -16.5t-54.5 -57.5q-21 -30 -24.5 -54.5t12.5 -29.5q20 -5 49 17q13 9 14 8t0 -3t-4.5 -5.5t-8.5 -7.5q-34 -26 -62 -21q-32 5 -35.5 40t24.5 74q26 36 69.5 53.5t72.5 11.5q39 -7 41 -50
q2 -25 -13.5 -63t-43.5 -74q-57 -75 -140.5 -127.5t-156.5 -52.5q-21 0 -37 9t-21 22q-4 13 1 13q2 1 2.5 0t2.5 -7q15 -25 50 -25z" />
    <glyph glyph-name="colon" unicode=":" horiz-adv-x="163" 
d="M108 143q13 0 16 -7.5t-6 -18.5q-8 -11 -23 -19t-24 -8q-9 11 0 34q8 19 37 19zM59 44q13 0 16 -7.5t-6 -18.5q-8 -11 -23 -19t-24 -8q-8 12 -1 34q9 19 38 19z" />
    <glyph glyph-name="semicolon" unicode=";" horiz-adv-x="163" 
d="M107 143q14 0 17 -7.5t-6 -18.5q-8 -11 -23 -19t-24 -8q-9 11 0 34q8 19 36 19zM78 35q0 -8 -8 -17q-33 -41 -87 -73q-12 -6 -13 -5q-2 2 9 12q26 28 35 49q3 5 2 11t1 11q6 19 46 21q15 0 15 -9z" />
    <glyph glyph-name="less" unicode="&#x3c;" horiz-adv-x="282" 
d="M39 129q0 6 23 14q99 37 234 86q13 5 13 0q0 -3 -15 -10q-32 -14 -103 -45t-107 -47q93 -58 140 -87q10 -5 7 -9q-3 -3 -12 -1q-12 6 -167 87q-13 6 -13 12z" />
    <glyph glyph-name="equal" unicode="=" horiz-adv-x="331" 
d="M343 161q0 -6 -15 -6q-85 -2 -248 -4q-10 0 -12.5 3t-0.5 9q6 12 23 13q50 -2 237 -10q16 0 16 -5zM306 98q0 -6 -15 -6q-39 -1 -121.5 -2t-126.5 -2q-18 0 -12 13q5 11 22 12q141 -6 237 -9q16 0 16 -6z" />
    <glyph glyph-name="greater" unicode="&#x3e;" horiz-adv-x="282" 
d="M265 130q0 -5 -23 -14q-137 -50 -233 -87q-13 -2 -13 0q-1 2 3 4.5t11 6.5q32 14 103 45t107 47q-97 61 -140 86q0 1 -2 2q-5 6 -4 8q2 3 11 0q126 -64 168 -86q12 -5 12 -12z" />
    <glyph glyph-name="question" unicode="?" horiz-adv-x="239" 
d="M260 337q29 0 41.5 -19.5t2.5 -46.5q-21 -59 -117 -104q-42 -20 -62 -33q-30 -17 -35 -32q-1 -2 -4 -11t-6.5 -14t-8.5 -5q-5 1 -3.5 9.5t5.5 15.5q16 32 55 55q106 64 129 123q7 17 0.5 29t-21.5 13q-36 2 -70 -24q-23 -18 -34.5 -41.5t-3.5 -38.5q2 -3 6 -6l2 -3
q-3 -3 -11 -1q-25 5 -16 38q9 29 51 60q49 36 100 36zM66 44q12 0 15.5 -7.5t-5.5 -18.5q-8 -11 -23 -19t-24 -8q-10 13 -1 34q8 19 38 19z" />
    <glyph glyph-name="at" unicode="@" horiz-adv-x="495" 
d="M318 264q51 0 79 -24t26 -59q-1 -23 -20 -51q4 -10 4 -19q0 -32 -20 -56q-59 -70 -164 -67q-65 1 -100 33.5t-33.5 76.5t35.5 83q31 36 82.5 59.5t110.5 23.5zM317 256q-47 0 -91.5 -26t-70.5 -59q-30 -40 -35 -79t22 -66.5t82 -28.5q95 -3 153 64q21 26 21 49q0 8 -1 11
q-6 -8 -9 -11q-42 -44 -81 -44q-35 0 -37 23q-1 10 8 23h-1q-47 -44 -77 -45q-13 -1 -21.5 5.5t-7.5 22.5q4 35 50 69q18 13 44 22t42 6q10 -1 14 -8.5t2 -14.5h1q20 23 34 24q19 0 8 -11q-46 -57 -56 -75q-7 -12 -3.5 -20t14.5 -8q29 0 59 37q8 12 12 19q-3 8 -7 12
q-4 6 -3 7q1 3 6 -2t8 -9q9 21 10 39q1 31 -22 52.5t-67 21.5zM302 184q-19 0 -61 -42q-38 -38 -36 -54q0 -6 8 -6q18 0 57 35q42 38 45 55q0 12 -13 12z" />
    <glyph glyph-name="A" unicode="A" horiz-adv-x="687" 
d="M21 56q0 26 15.5 43t36.5 19q17 1 27.5 -8t9.5 -23q0 -17 -23 -33q-19 -13 -18 -25q0 -17 26 -27t72 -6q94 8 208 87q-19 17 -37 48t-18 65q1 46 33.5 76t85.5 29q36 -1 64.5 -24t39.5 -48q18 18 42 40q97 87 155 119q69 38 120 38q22 0 35 -10q12 -10 7 -14q-1 0 -11 7
q-8 6 -22 6q-15 0 -33 -10q-32 -26 -80 -95q-95 -131 -187 -282q26 2 57 17q22 11 56 43q14 14 17 11t-11 -17q-35 -33 -59 -45q-33 -17 -65 -19q-20 -21 -39 -25q-13 -3 -19.5 -0.5t-5.5 7t2 7.5q6 13 8 15q-33 4 -66 18q-36 14 -59 35q-119 -84 -221 -92q-61 -5 -102 14
t-41 59zM558 98h1q51 83 120 172q82 107 161 145v1q-36 -3 -95 -35q-53 -29 -134 -102q-10 -10 -31.5 -30.5t-31.5 -30.5q10 -22 13 -64q2 -29 -3 -56zM398 85v-1q15 -17 52 -34q36 -16 65 -19q5 8 17 26.5t13 21.5q10 19 6 74q-3 35 -12 57q-36 -33 -69 -63q-10 -8 -35 -30
t-37 -32zM440 285q-38 0 -59.5 -27t-23.5 -65q-1 -28 9.5 -55.5t23.5 -43.5q6 5 20.5 17t27.5 23t25 22q36 31 71 65q-35 64 -94 64z" />
    <glyph glyph-name="B" unicode="B" horiz-adv-x="640" 
d="M401 -9q-81 0 -81 49q0 23 19.5 39.5t42.5 16.5q31 0 31 -24q0 -18 -26 -29q-22 -9 -24 -20q-2 -12 10 -18t28 -6q50 0 95.5 46.5t48.5 106.5q2 33 -18.5 49t-39.5 14q-18 -3 -26 -3q-29 -2 -27 8q3 10 27 8q3 0 30 -3q33 5 62 31t37 60q12 50 -22 71q-20 -19 -23 -24
q-50 -52 -124 -153q-171 -230 -317 -230q-106 0 -106 76q0 47 40.5 107.5t124.5 121.5q82 60 177.5 91t178.5 31q21 0 39 -3q51 36 96 54q51 21 99 21q56 0 72 -27q4 -7 0 -9q-2 0 -7 5q-19 23 -64 23q-47 0 -94 -22q-36 -16 -79 -51q65 -25 55 -82q-7 -38 -46 -63.5
t-81 -31.5v-1q44 -7 67 -30.5t21 -55.5q-3 -62 -60.5 -102.5t-135.5 -40.5zM39 55q0 -30 16.5 -48t48.5 -18q31 0 59 12.5t56.5 40.5t48.5 52.5t53 67.5q10 13 15 20q89 116 185 194q2 2 25 19q-13 3 -32 3q-76 0 -166.5 -31t-166.5 -89q-75 -58 -108.5 -117.5t-33.5 -105.5
z" />
    <glyph glyph-name="C" unicode="C" horiz-adv-x="388" 
d="M266 466q36 0 69 -16.5t53 -45.5q22 6 54 8q55 2 89.5 -15.5t26.5 -59.5q-8 -43 -67.5 -67.5t-124.5 -24.5q-98 0 -151 40q-57 -51 -93.5 -113.5t-36.5 -110.5q0 -81 86 -81q69 0 145 51q37 24 61 51q6 9 11 6t-3 -11q-30 -30 -66 -55q-77 -53 -150 -55
q-65 -2 -103.5 22.5t-40.5 77.5q-2 61 46 126.5t118 116.5q-25 32 -25 63q0 41 30 67t72 26zM367 255q55 0 100 24t53 60q7 34 -13.5 51t-61.5 15q-26 0 -52 -11q12 -22 16 -54q1 -26 -3 -25q-1 0 -1 2t-1 7t-2 11q-9 35 -24 55q-82 -31 -156 -98q50 -37 145 -37zM257 453
q-34 0 -58 -22.5t-24 -58.5q0 -26 23 -56q88 59 173 83q-49 54 -114 54z" />
    <glyph glyph-name="D" unicode="D" horiz-adv-x="673" 
d="M356 272q0 21 -12 33.5t-32 13.5q-38 1 -65 -26q-5 -5 -9 -11t-6 -7.5t-3 -1.5q-1 1 -0.5 3.5t4 8t8.5 11.5q30 35 74 32q24 -1 40 -16t16 -41q0 -58 -60 -108q-67 -55 -154 -51q-56 3 -86.5 27.5t-29.5 70.5q1 58 52 107.5t130 77t164 27.5q146 0 222 -67q34 23 65 35
q56 20 98 20q35 0 56 -15q14 -10 9 -15q-1 0 -2 0.5t-4 3.5t-8 6q-18 11 -51 11q-44 0 -93 -21q-39 -17 -60 -36q44 -48 45.5 -114t-34.5 -117q-40 -59 -119 -90t-161 -31q-92 0 -137 5q-56 -6 -99 -6q-132 0 -151 9q-7 4 -7 9q3 24 145 19q55 -2 134 -15q29 8 59.5 30.5
t43 35.5t50 58.5t41.5 50.5q90 107 165 157q-32 33 -90 50.5t-117 17.5q-119 0 -211 -63.5t-93 -147.5q-1 -34 18.5 -55.5t56.5 -23.5q79 -4 141 51q57 52 57 98zM250 10v-1q56 -8 84 -8q158 0 254 132q36 50 41 106t-24 94q-20 -18 -62.5 -79t-60.5 -83q-55 -68 -109 -104
t-123 -57z" />
    <glyph glyph-name="E" unicode="E" horiz-adv-x="387" 
d="M225 263q0 28 21 58q-43 33 -43 75q0 29 21 47.5t54 20.5q31 2 65 -13t57 -42q45 7 74 6q49 -2 76 -20t27 -43q0 -33 -44.5 -57t-105.5 -24q-86 0 -140 27q-11 -16 -15 -29q-6 -17 -3 -32q26 5 49 3q24 -1 39.5 -7t14.5 -18q0 -19 -55 -19q-59 0 -80 27q-47 -17 -91 -60
q-56 -53 -59 -110q-1 -34 21.5 -53.5t60.5 -19.5q68 0 146 51q37 24 61 51q6 9 11 6q6 -4 -4 -11q-26 -29 -64 -54q-77 -54 -151 -57q-66 -3 -104 20t-38 69q-1 56 56.5 105.5t150.5 70.5q-8 13 -8 32zM425 280q52 0 89.5 19.5t38.5 51.5q1 21 -17.5 37.5t-58.5 17.5
q-29 1 -68 -12q10 -20 13 -44q3 -26 -2 -26q-1 0 -2 4q0 8 -3 16q-5 19 -22 44q-39 -18 -73 -51q-15 -14 -28 -31q52 -26 133 -26zM379 404h1q-45 53 -105 50q-27 -2 -44.5 -17t-17.5 -41q0 -34 39 -67q9 12 18 20q42 37 109 55zM271 229v-1q3 -9 16.5 -15.5t29.5 -7.5
q34 -2 36 12q0 11 -36 14q-33 0 -46 -2z" />
    <glyph glyph-name="F" unicode="F" horiz-adv-x="546" 
d="M348 401q-76 0 -129 -26.5t-65 -80.5q-7 -33 7.5 -64t57.5 -50l13 -6q-2 -5 -19 1q-43 16 -63 50.5t-15 75.5q8 57 67 94.5t150 36.5q61 0 170 -30q9 -2 45.5 -12.5t56.5 -15.5q52 28 110 28q28 0 46 -8t16 -23q-3 -28 -57 -28q-46 0 -111 10q-34 -24 -79 -79
q-17 -21 -42 -54t-37 -48q54 -2 85 8q1 1 5.5 6.5t6.5 8.5t7 8t9 7.5t9 4t9 0.5q17 -3 -13 -32q-3 -2 -7 -6q-25 -21 -46 -46q-9 -11 -10 -11q-7 2 4 20q12 22 17 27v1q-25 -7 -85 -7q-1 -2 -9.5 -12t-13.5 -15q-137 -152 -298 -152q-49 0 -84 16.5t-36 53.5q-1 20 12.5 35
t35.5 15q13 0 22.5 -9.5t8.5 -21.5q-2 -13 -16 -25q-13 -13 -13 -23q1 -15 21.5 -23.5t46.5 -8.5q111 0 200 97q26 28 59 74q-12 0 -30 -0.5t-23 -0.5q-4 0 -8 -0.5t-6 -1t-4.5 -0.5h-3.5h-2t-1.5 1t-0.5 2q2 8 34 9q11 1 54 1q28 38 51 62q34 38 76.5 73.5t68.5 50.5
q-13 3 -42 10t-44 10q-102 23 -168 23zM735 393q-49 0 -88 -25q59 -16 97 -16q41 0 43 20q2 21 -52 21z" />
    <glyph glyph-name="G" unicode="G" horiz-adv-x="448" 
d="M577 367q0 -40 -35 -79.5t-89 -67.5q-82 -43 -189 -43q-50 0 -90 14q-47 -69 -53 -127q-2 -26 10.5 -43t35.5 -18q65 -2 164 102q31 31 48 31q15 0 17.5 -3t-4.5 -13q-12 -14 -50 -66q-7 -10 -25 -33.5t-34 -44.5v-1q43 23 102 66q31 23 63 51q10 10 14 7q2 -2 -9 -13
q-17 -17 -63 -53q-43 -33 -118 -74q-59 -85 -124 -161q-59 -69 -127 -115.5t-109 -46.5q-19 0 -31.5 9.5t-10.5 32.5q6 64 155 158q45 28 99 58t93 54l83 115q-68 -68 -134 -73q-44 -4 -72.5 15t-31.5 57q-2 31 15.5 73.5t47.5 79.5q-55 36 -55 95q0 57 45.5 91t110.5 34
q78 0 124 -49q88 39 148 39q31 0 55 -13.5t24 -44.5zM565 369q0 46 -67 46q-61 0 -136 -44q17 -25 23 -54q4 -27 0 -29q-1 0 -2 2.5t-2.5 9t-3.5 13.5q-9 28 -29 50q-54 -36 -104 -86q-36 -36 -64 -78q39 -12 83 -12q91 0 178 47q49 25 86.5 65.5t37.5 69.5zM220 423
q-57 0 -98.5 -30.5t-41.5 -82.5q0 -53 51 -88q52 57 89 85q55 42 113 71q-49 45 -113 45zM207 -68v1q-27 -18 -80 -48t-102 -62q-48 -31 -88.5 -73.5t-39.5 -73.5q0 -22 23 -26q26 -2 62 20q59 36 128 129q71 94 97 133z" />
    <glyph glyph-name="H" unicode="H" horiz-adv-x="649" 
d="M528 383v1q-26 -10 -80.5 -11.5t-133.5 2.5q-93 3 -155.5 -33t-62.5 -107q0 -28 19.5 -56.5t53.5 -39.5l12 -5q-2 -7 -19 -1q-37 12 -60.5 41t-25.5 63q-2 72 56.5 117t168.5 42q19 -1 60.5 -4t72.5 -5t62 -0.5t42 7.5q27 15 33 12q4 -3 -5 -11q-5 -4 -8 -7
q-41 -39 -72 -79q-17 -21 -40.5 -52t-29.5 -39h143q37 43 84 87q61 57 126 96q51 30 100 30q25 0 42 -10t21 -22q5 -13 -1 -15q-1 0 -1.5 0.5t-1.5 3.5t-2 5q-14 28 -56 28q-44 0 -91 -34q-35 -25 -91 -85q-39 -42 -70 -84q66 -2 80 -4q23 -3 23 -5q0 -3 -22 -3
q-68 0 -91 -1q-109 -138 -109 -177q0 -17 19 -17q27 0 71 31q17 13 55 46q10 10 14 6q1 -2 -8 -14q-34 -31 -56 -46q-52 -40 -93 -40q-48 0 -48 44q0 54 94 167l-140 -1q-45 -55 -74 -86.5t-71.5 -67.5t-87 -52t-95.5 -16q-41 0 -70.5 19t-29.5 59q0 21 15 37t37 15
q15 -1 24 -11t8 -26q-1 -17 -16 -30q-13 -15 -13 -25q1 -14 16.5 -21.5t33.5 -7.5q22 0 44 6.5t45.5 24t38.5 29t40.5 40.5t33 37.5t32.5 41.5l26 34q-3 0 -73 -2q-18 2 -19 5q1 4 29 6q19 2 74 4q39 47 90.5 96t82.5 70z" />
    <glyph glyph-name="I" unicode="I" horiz-adv-x="440" 
d="M613 413v1q-13 -4 -44 -11.5t-39 -9.5q-96 -25 -147 -55q-25 -15 -45 -37.5t-20 -43.5q0 -12 8 -19t19 -7q13 0 27 9q9 6 10 5q2 -4 -5 -11q-17 -13 -35 -13q-22 0 -35 12t-13 30q0 51 87 95q44 22 147 45q86 20 92 23q16 7 20 6q6 -2 4.5 -8t-7.5 -8q-38 -16 -94 -91
q-12 -16 -42.5 -64.5t-45.5 -68.5q-164 -210 -351 -210q-50 0 -86 19t-36 59q0 22 15.5 41t40.5 19q16 0 25.5 -9.5t8.5 -25.5q-2 -16 -19 -30q-1 -1 -5 -4.5t-5.5 -5.5t-4 -5t-3.5 -7t-1 -8q0 -14 20 -23.5t47 -9.5q76 0 147.5 52t148.5 149q5 6 45.5 57.5t56.5 70.5
q25 29 57 55t57 37z" />
    <glyph glyph-name="J" unicode="J" horiz-adv-x="334" 
d="M161 -21v-1q25 11 53 28q50 31 68 43q26 19 54 45q9 9 12 6t-8 -14q-28 -26 -60 -50q-35 -27 -70 -45q-34 -18 -60 -29q-33 -41 -71 -82q-116 -123 -224 -176q-56 -27 -95 -27q-21 0 -39.5 9t-16.5 33q4 65 171 146q82 40 207 87q96 129 192 238q56 64 154 142
q19 15 84 60q11 4 11 9t-10 5q-96 2 -212 -59q-70 -37 -115.5 -87t-45.5 -93q0 -37 28 -44q6 -2 10.5 -1.5t5.5 1t2 -1.5t-3 -3q-6 -3 -15 -3q-23 2 -37 19.5t-14 44.5q0 47 44 101.5t134 94.5q41 18 104.5 30.5t117.5 9.5q9 0 16.5 -3.5t5.5 -11.5q-1 -4 -18 -17
q-19 -15 -60 -54q-59 -58 -124 -135q-100 -119 -176 -215zM73 -63v1q-116 -44 -197 -84q-73 -37 -109.5 -72.5t-33.5 -63.5q2 -20 33 -26q37 -3 85 21q73 35 174 161q7 9 25 32.5t23 30.5z" />
    <glyph glyph-name="K" unicode="K" horiz-adv-x="605" 
d="M834 367q0 -34 -39.5 -57.5t-84.5 -19.5q-19 1 -36 10q-4 3 -3 6q1 1 6 -1q15 -6 32 -7q41 -4 78.5 17t37.5 52q0 19 -14 30.5t-35 11.5q-9 0 -17.5 -2t-15.5 -4t-15.5 -7.5t-13.5 -9t-13.5 -12t-13 -12.5t-13.5 -15t-12 -15t-13 -17t-13 -16q-62 -81 -151 -108v-1
q20 -11 25 -35q7 -28 -16 -62q-4 -5 -11 -15.5t-10 -16t-7.5 -13t-6 -13.5t-1.5 -12q0 -17 18 -17q23 0 78 43q37 30 46 39q10 8 12 6q3 -3 -8 -14q-19 -19 -53 -46q-53 -44 -94 -44q-47 0 -47 39q0 28 34 78q3 5 15 20t16.5 23.5t4.5 16.5q0 11 -7 20q-12 -6 -30 -6
q-11 0 -20 3.5t-8 10.5q3 15 32 13q18 -2 30 -10q18 7 35.5 21t28.5 27t29.5 36t29.5 36q89 100 174 100q26 0 43 -13.5t17 -37.5zM-21 60q0 21 15 37t37 15q15 -1 24 -11t8 -26q-1 -17 -16 -30q-13 -15 -13 -25q1 -14 16.5 -21.5t33.5 -7.5q26 0 54 12.5t48.5 27t48.5 43
t41 43.5t38.5 48t29.5 37q77 98 128 132v1q-63 -41 -137 -44q-51 -1 -81.5 16.5t-25.5 51.5q6 33 36 53q15 10 28 10q11 0 1 -12q-24 -21 -27 -52q-2 -26 16 -41.5t54 -15.5q46 0 99.5 23.5t95.5 58.5q21 21 26 18q5 -5 -9 -19q-15 -15 -61 -74q-73 -96 -80 -104
q-35 -44 -58 -70.5t-57.5 -59t-64 -50t-68.5 -30t-80 -12.5t-70.5 19t-29.5 59zM444 188q10 0 22 5q-6 6 -21 8q-21 0 -21 -6q0 -7 20 -7z" />
    <glyph glyph-name="L" unicode="L" horiz-adv-x="599" 
d="M252 350q0 40 39.5 69t107.5 29q95 0 159 -52q43 17 90 19q42 2 69.5 -17.5t20.5 -52.5q-9 -43 -72.5 -71t-122.5 -34q-58 -7 -110 0q-84 -123 -177 -185q18 -3 75 -18q72 -18 103 -18q44 0 80 15.5t81 54.5q14 11 15 9q3 -2 -6 -11q-56 -55 -93 -78t-83 -23
q-57 0 -108 20q-12 5 -32 13t-32.5 13.5t-18.5 6.5q-63 -50 -135 -51q-62 -2 -60 23q2 23 51 37.5t98 13.5q33 0 47 -4q31 29 75 97.5t63 93.5q-53 11 -88.5 38t-35.5 63zM438 248h1q39 -5 106 2q51 6 102.5 34t60.5 69q5 25 -11.5 39.5t-48.5 13.5q-17 0 -41.5 -8
t-37.5 -17q15 -22 19 -33t5 -20t0.5 -13t-1.5 -4t-1.5 2t-4 11.5t-9.5 21.5q-9 16 -23 28q-46 -26 -116 -126zM261 352q0 -34 34.5 -59t86.5 -36q35 44 79 81.5t79 51.5q-63 43 -146 43q-61 0 -97 -24t-36 -57zM224 44v1q-35 7 -57 6q-31 -1 -54.5 -11.5t-24.5 -24.5
q-1 -8 8.5 -12t22.5 -4q24 1 55 14t50 31z" />
    <glyph glyph-name="M" unicode="M" horiz-adv-x="826" 
d="M85 -30q-115 0 -119 72q-1 26 16.5 47t43.5 21q17 0 28 -9.5t10 -24.5q-2 -18 -22 -34q-18 -18 -19 -25q-3 -15 16 -25t56 -10q63 0 154 40t172 100q32 24 70 56.5t65 57t73.5 69t70.5 66.5q-85 16 -198 16q-88 0 -154 -33.5t-79 -98.5q-7 -34 8.5 -65t59.5 -46
q4 -2 9 -3l3 -2q-2 -6 -19 -1q-42 12 -64.5 46t-18.5 75q8 71 75 111.5t182 36.5q37 -1 73.5 -5.5t84 -13t48.5 -8.5q8 10 19 19q21 19 31 18q20 -3 -2 -26q-12 -15 -13 -16q42 -7 73 -5q64 2 103 18q47 19 67 46q6 7 7.5 12.5t1.5 8t2 3.5q4 1 6 -5q1 -10 -3 -20
q-8 -17 -38 -50q-106 -110 -167 -187q-106 -132 -107 -173q0 -13 12 -13q25 0 77 42q21 17 41 35q11 9 14 6q2 -3 -9 -14q-17 -15 -51 -44q-49 -39 -82 -40q-21 -1 -33.5 8t-11.5 29q1 28 18.5 59t55.5 79q81 105 166 177h-1q-74 -55 -201 -163q-34 -29 -66.5 -58
t-68.5 -62.5t-56 -51.5q-18 -18 -26 -13q-10 9 3 27q23 32 102.5 155.5t109.5 160.5h-1q-174 -169 -256 -230q-81 -60 -174.5 -101t-166.5 -41zM571 99v-1q72 67 186 159q85 69 155 118v1q-37 -14 -96 -16q-35 0 -77 5q-22 -31 -82 -131t-86 -135z" />
    <glyph glyph-name="N" unicode="N" horiz-adv-x="645" 
d="M-88 48q0 25 17.5 43.5t38.5 18.5q18 0 29 -10t10 -23q0 -18 -18 -33q-19 -19 -20 -27q-2 -15 15 -24t53 -9q61 0 137 31t144 84q143 109 217 249q7 14 19 32q23 30 40 31q9 1 11.5 -3t-1.5 -10q-15 -21 -23 -56q-6 -24 -14 -122q-8 -103 -28 -151h1q119 173 221 281
q116 123 195 123q29 0 45.5 -17.5t16.5 -38.5q0 -10 -3 -10l-5 10q-10 27 -57 27q-87 0 -185 -102q-15 -16 -31 -33t-33 -38.5t-29.5 -36.5t-32.5 -41.5t-29 -38.5t-30 -42.5t-26.5 -37.5t-28 -39.5t-23.5 -34.5q-14 -20 -24 -14q-11 6 -1 27q25 69 32 160q2 18 4 44t3 40.5
t3.5 30.5t6.5 27h-1q-29 -55 -85.5 -116.5t-118.5 -108.5q-72 -54 -148.5 -86t-139.5 -33q-51 -1 -87.5 17.5t-36.5 59.5z" />
    <glyph glyph-name="O" unicode="O" horiz-adv-x="407" 
d="M136 52q0 -22 11 -38q1 -2 2 -3t1.5 -2t0.5 -2q-2 -3 -8 3q-15 12 -18 42q-7 78 66 170q54 67 119 108t109 36q45 -5 38 -72q-3 -31 -23.5 -77.5t-50.5 -83.5q-53 -65 -128.5 -107.5t-141.5 -40.5q-90 2 -100 81q-5 49 22 109t80 113q60 59 143 96.5t159 33.5
q31 -2 51.5 -15.5t22.5 -39.5q3 -26 -14 -49q-4 -4 -9 -7.5t-6 -0.5l8 12q14 21 10 44q-2 19 -20 30t-43 12q-61 2 -139 -44.5t-124 -98.5q-49 -56 -74 -116t-19 -101q8 -48 62 -50q103 -4 228 152q80 101 89 173q5 36 -23 36q-38 4 -97 -36.5t-110 -104.5q-74 -94 -74 -162
z" />
    <glyph glyph-name="P" unicode="P" horiz-adv-x="567" 
d="M394 281q0 19 -12 32t-30 14q-36 1 -65 -25q-5 -5 -9.5 -10.5t-6.5 -7.5t-3 -2q-6 3 14 28q29 29 73 27q23 -1 39 -16t16 -41q0 -58 -62.5 -110t-138.5 -49q-114 3 -111 90t106 148.5t241 61.5q96 0 159 -38q28 24 69 40q52 23 101 23q56 0 73 -28q4 -8 0 -9l-6 6
q-19 21 -66 21q-48 0 -95 -21q-38 -17 -66 -39q21 -17 33 -39t10.5 -54.5t-24.5 -65.5q-47 -67 -149 -76q-35 -2 -50 3q-74 -79 -168 -118v-1q84 -15 101 -15q50 0 81 22q12 9 13 8t1 -2.5t-2.5 -5.5t-7.5 -8q-39 -34 -96 -34q-52 0 -128 19q-57 -21 -154 -21q-91 0 -91 33
q0 20 28 30.5t75 8.5q54 -3 161 -28q38 23 72.5 58t87.5 98q119 146 182 186q-18 14 -58.5 26t-83.5 12q-126 0 -213 -57t-94 -149q-2 -32 15.5 -53.5t53.5 -22.5q70 -3 127.5 50t57.5 101zM440 153v-1q11 -3 39 0q72 9 120 78q26 43 24 78t-22 55q-27 -24 -80.5 -102
t-57.5 -83q-16 -20 -23 -25zM212 14v1q-115 20 -130 21q-86 5 -86 -16q0 -23 78 -23q92 0 138 17z" />
    <glyph glyph-name="Q" unicode="Q" horiz-adv-x="499" 
d="M391 279q0 16 -13.5 27t-33.5 10q-30 -1 -50 -19q-4 -3 -7 -6.5t-5 -5.5t-3 -3.5t-2 -2t-2 -0.5q-5 4 13 22q25 25 60 25q27 1 44 -13t17 -41q0 -42 -45 -82q-57 -51 -139 -51q-35 0 -57.5 17.5t-24.5 50.5q-3 37 21 77t61 68q40 32 93 49t94 17q55 0 95.5 -24.5
t41.5 -73.5q3 -93 -128 -183q-39 -27 -105.5 -58.5t-109.5 -44.5v-1q89 -21 114 -21q89 0 177 79q8 8 11 5q2 -2 -4 -11q-108 -99 -193 -99q-59 0 -152 27q-73 -25 -146 -25q-82 0 -82 32q0 20 29 32t80 12q64 0 151 -25q111 45 200 122q108 92 108 170t-87 78
q-84 0 -176 -76q-81 -69 -78 -126q1 -28 19.5 -43.5t47.5 -15.5q62 0 124 56q42 37 42 75zM143 19v1q-97 18 -111 19q-87 6 -87 -19q0 -23 69 -23q68 0 129 22z" />
    <glyph glyph-name="R" unicode="R" horiz-adv-x="658" 
d="M771 439q-40 0 -86 -19q-37 -15 -58 -31q14 -10 26 -23.5t22 -40t-4 -54.5q-15 -35 -55.5 -53.5t-77.5 -18.5v-1q32 -13 35 -42q3 -25 -20 -57q-3 -5 -12.5 -19t-13 -19.5t-7 -15t-3.5 -16.5q0 -17 19 -17q24 0 77 43q37 30 46 39q9 10 13 6q3 -3 -8 -14q-20 -20 -54 -47
q-55 -43 -93 -43q-23 0 -35.5 11t-11.5 29q-1 24 36 77q3 3 8 10t7 10.5t6 9t5.5 8.5t3.5 7.5t2.5 8.5t0.5 8q0 14 -18 23h-20q-8 1 -20 4q-17 -24 -28 -38q-49 -60 -92.5 -91t-94.5 -53q27 -6 49 -8q43 -3 73 17q6 4 10 7.5t5 4t2 0.5q1 -1 1 -3t-2.5 -6t-7.5 -8
q-39 -33 -94 -33q-29 0 -77 14q-63 -19 -151 -17q-34 0 -62.5 8t-28.5 25q0 20 28 31t75 8q24 -1 164 -34q57 28 146 145q118 157 206 214q-44 27 -125 27q-98 0 -183.5 -53t-103.5 -131q-10 -41 3.5 -71t48.5 -32q7 -1 11.5 -0.5t7.5 1t4.5 1t2 0.5t1.5 -1q1 -2 -1.5 -4.5
t-9.5 -4.5t-16 -2q-48 2 -74 33t-17 81q15 83 111.5 137.5t214.5 54.5q87 0 139 -26q24 18 64 34q46 19 91 19q57 0 72 -26q2 -4 3 -7.5t1 -5.5t-1 -2t-1.5 0.5t-2.5 3.5t-5 7q-19 21 -66 21zM615 377l-1 -1q-27 -21 -64 -74q-11 -15 -32 -45.5t-31 -44.5q12 0 19 -1
q4 -1 11 -3t9 -2q34 2 64.5 22.5t43.5 51.5q12 32 6 57.5t-25 39.5zM209 10v1q-10 2 -58 12.5t-69 12.5q-86 9 -86 -16q0 -20 78 -23q85 -2 135 13z" />
    <glyph glyph-name="S" unicode="S" horiz-adv-x="545" 
d="M383 216l1 -1q95 42 155 66q57 86 116 128q31 21 62 24q14 1 24.5 -5.5t9.5 -21.5q-2 -24 -35.5 -50.5t-86.5 -48.5q-18 -8 -27 -11q-8 -15 -27 -50.5t-27 -50.5q-107 -206 -323 -221q-106 -6 -163 34q-64 -57 -80 -93q-1 -3 -2 -4t-2 -3t-2 -2h-2q-4 1 0 12
q15 43 75 100q-41 37 -37 94q5 66 73 107.5t136 47.5q47 4 94.5 -8.5t67.5 -42.5zM250 70q-45 0 -77 21q-9 -6 -19 -13t-22 -15.5t-19 -13.5q-4 -3 -15.5 -12t-17.5 -14q50 -49 154 -41q77 6 138 57.5t117 153.5q22 40 44 73v1q-84 -34 -143 -62q6 -14 6 -31
q-1 -47 -47 -75.5t-99 -28.5zM609 311v-1q2 1 8.5 3.5t8.5 3.5q109 45 114 89q1 10 -6 15t-17 3q-21 -3 -46 -28q-27 -25 -62 -85zM248 80q45 0 84.5 26.5t41.5 66.5q0 13 -3 24q-16 -8 -67 -31q-60 -29 -122 -70q29 -16 66 -16zM367 208l-1 1q-15 30 -58 41.5t-87 7.5
q-62 -5 -115.5 -41.5t-58.5 -100.5q-3 -50 22 -80q5 5 15 13t13 11q19 14 61 42q-18 16 -21 38q-1 9 3 10q1 0 2 -3v-2.5t1 -2.5q7 -21 24 -35q67 41 134 71z" />
    <glyph glyph-name="T" unicode="T" horiz-adv-x="620" 
d="M717 513q-41 0 -75.5 -14.5t-52.5 -36.5q-13 -17 -15 -28q-3 -13 -5 -13q-4 0 -2 13q2 18 15 34q44 58 135 58q65 0 102.5 -29t27.5 -79q-8 -42 -58 -63t-125 -18q-22 0 -25 -1q-34 -13 -76 -62q-11 -13 -47 -62t-66 -78q-99 -91 -230 -117v-1q99 -9 159 -9q122 1 195 49
q19 13 40 32q10 8 13 6q4 -4 -9 -14q-28 -25 -41 -34q-83 -58 -212 -58q-94 0 -195 14q-51 -11 -107 -11q-38 -1 -68.5 2t-28.5 15q5 25 83 25q53 0 149 -13q28 5 67.5 23t68.5 42q33 28 76.5 80t60.5 69q76 82 154 105v1q-51 5 -136 21q-113 21 -161 24q-70 3 -119.5 -20.5
t-55.5 -70.5q-4 -33 24.5 -55.5t70.5 -23.5q45 -1 74 16t31 47q3 16 -7 29l-4 6q4 4 11 -3q20 -10 20 -34q1 -32 -36.5 -51t-88.5 -18q-49 1 -79.5 26t-26.5 64q5 53 61.5 83.5t136.5 28.5q48 -1 166 -21q106 -18 169 -21q67 -4 110 12.5t49 51.5q6 34 -27 58t-90 24z" />
    <glyph glyph-name="U" unicode="U" horiz-adv-x="552" 
d="M407 134h-1q-50 -51 -117.5 -97t-111.5 -46q-51 0 -44 46q3 29 31 66t97 115q98 108 110 153q6 21 -7.5 30.5t-35.5 9.5q-39 0 -86 -23t-88 -64q-80 -78 -80 -130q0 -40 36 -41q22 0 36 10q5 2 8 5.5t4.5 4.5t2.5 0q2 -1 -2 -6.5t-10 -9.5q-19 -13 -41 -13q-47 2 -50 49
q-3 33 18 73.5t59 75.5q42 39 96.5 58.5t96.5 19.5q37 0 59.5 -14.5t21.5 -42.5q-1 -48 -97 -157q-66 -73 -95 -111t-32 -61q-4 -20 14 -24q31 -4 110 54q75 55 147 140q98 112 183 178q57 43 81 40q13 -3 11 -16t-16 -29q-7 -9 -18.5 -18.5t-18.5 -15t-22 -16t-17 -12.5
q-68 -51 -91 -70q-8 -9 -32 -39q-28 -37 -39.5 -52.5t-32 -45t-28.5 -48.5t-8 -32q0 -17 20 -17q22 0 64 31q24 17 55 46q11 9 14 6q2 -3 -8 -13q-37 -34 -55 -47q-1 0 -8.5 -6t-12 -9t-14 -8.5t-17 -8.5t-17.5 -5.5t-19 -2.5q-47 0 -47 44q0 35 44 96zM574 277v-1
q18 15 58 44q36 26 67 53q31 34 19 41q-14 5 -54 -39q-53 -55 -90 -98z" />
    <glyph glyph-name="V" unicode="V" horiz-adv-x="482" 
d="M94 3v-1q91 7 189 50q41 18 91.5 51t81.5 60q87 75 122 138q7 12 5 25q0 12 -11 56q-11 40 12 40q33 0 30 -50q-1 -28 -27 -73q-52 -94 -116 -152q-82 -72 -181 -112q-105 -41 -218 -44q-23 -6 -52 -9q-46 -4 -46 7q0 15 38 17q27 3 62 -2q72 31 170 132q112 114 123 200
q5 38 -11.5 57t-48.5 19q-73 0 -149 -59q-32 -25 -54.5 -60.5t-26.5 -66.5q-7 -61 43 -64q47 -2 106 61q40 44 44 81q2 16 -4 26q-5 6 -4 7q2 5 8 -3q13 -13 12 -38q-3 -42 -42 -84q-23 -24 -57 -42.5t-65 -16.5q-33 2 -49.5 22.5t-12.5 52.5q3 30 28 66t64 66q81 61 161 61
q51 0 84.5 -24t27.5 -81q-9 -80 -133 -196q-37 -35 -91.5 -67.5t-102.5 -49.5z" />
    <glyph glyph-name="W" unicode="W" horiz-adv-x="601" 
d="M306 412q-73 0 -150 -59q-32 -25 -54 -60.5t-26 -66.5q-7 -61 43 -64q47 -2 106 61q40 44 44 81q2 17 -5 26l-3 7q2 5 8 -3q12 -12 11 -38q-3 -41 -41 -84q-23 -24 -57 -42.5t-65 -16.5q-33 2 -49.5 22t-12.5 53q4 31 28.5 67t63.5 65q81 61 160 61q51 0 84 -24t27 -81
q-5 -42 -63 -122.5t-116 -138.5v-1q16 11 114 83q73 52 124 92q23 65 44 99q36 57 71 57q14 0 21.5 -11.5t1.5 -28.5q-6 -18 -20 -35.5t-41.5 -41t-29.5 -25.5q-36 -149 -66 -189v-1q19 18 87.5 78t92.5 81q124 113 137 187q3 25 -6 34q-4 3 -10 5q-3 1 -3 2q2 3 10 3
q21 0 32 -14.5t9 -34.5q-7 -70 -159 -195q-151 -124 -222 -192q-15 -15 -28 -15q-7 0 -8 5.5t4 11.5q15 20 29 56.5t27.5 81.5t21.5 64v1q-30 -25 -129 -98q-153 -109 -168 -119t-21 -10q-9 0 -10.5 6t4.5 13q76 80 127 152q81 114 91 180q6 37 -11 56.5t-49 19.5zM528 261
v-1q3 3 23.5 21t33.5 33t19 30q5 14 1 22.5t-14 8.5t-20 -11.5t-16 -24.5q-13 -28 -27 -78z" />
    <glyph glyph-name="X" unicode="X" horiz-adv-x="488" 
d="M475 314v-1q114 103 202 103q22 0 34.5 -12.5t8.5 -31.5q-7 -32 -45.5 -55t-68.5 -27q-13 -4 -15 1q0 2 15 6q29 8 53 28.5t30 46.5q2 12 -4.5 22t-18.5 11q-49 1 -115 -54.5t-131 -138.5q-83 -107 -96 -164q-8 -41 24 -41q28 0 80 36q27 21 55 45q9 9 12 6q3 -2 -7 -12
q-27 -27 -55 -47q-56 -43 -100 -44q-34 -1 -47.5 14.5t-11.5 45.5q3 24 17 44v1q-120 -110 -231 -110q-92 0 -97 62q-2 26 15 47t46 21q15 0 25 -8.5t7 -20.5q-2 -13 -18 -31q-22 -20 -23 -31q-1 -16 13 -23t35 -7q131 0 284 196q95 125 108 175q10 45 -39 45q-39 0 -86 -23
t-88 -64q-81 -79 -80 -130q0 -40 36 -42q17 -1 36 11q4 2 9 7q3 4 5 3t0.5 -4t-5 -6.5t-6.5 -5.5q-20 -14 -42 -13q-47 2 -49 49q-2 36 18.5 76.5t58.5 72.5q44 38 98 58t95 20q36 0 56.5 -14.5t19.5 -42.5q-2 -27 -17 -49z" />
    <glyph glyph-name="Y" unicode="Y" horiz-adv-x="499" 
d="M421 148v1q-54 -58 -126.5 -108t-117.5 -50q-51 0 -44 46q3 29 31 66t97 115q98 108 110 153q6 21 -7.5 30.5t-35.5 9.5q-39 0 -86 -23t-88 -64q-80 -78 -80 -130q0 -40 36 -41q22 0 36 10l6 4t4 3.5t2.5 2.5t2.5 0q2 -1 -2 -6.5t-10 -9.5q-20 -14 -42 -13q-46 2 -49 49
q-2 34 19 75t58 74q42 38 96.5 58t96.5 20q37 0 59.5 -14.5t21.5 -42.5q-1 -48 -97 -157q-66 -73 -95 -111t-32 -61q-4 -20 14 -24q31 -4 110 54q78 57 147 139q107 129 157 178q45 45 74 42q14 -1 14.5 -15.5t-11.5 -29.5q-17 -24 -66 -63q-51 -40 -81 -70
q-68 -92 -130 -178q-15 -21 -33.5 -47.5t-31 -44l-22.5 -31.5q76 2 116 -31t32 -90q-1 -8 -4.5 -14.5t-6.5 -5.5q-1 0 -1 0.5t0.5 2t1 3.5t1 5.5t1.5 7.5q6 54 -33 85t-113 27q-39 -56 -107 -136q-59 -69 -126.5 -115.5t-109.5 -46.5q-17 0 -30.5 9.5t-11.5 32.5
q3 39 51 90.5t97 84.5q95 64 192 84q26 37 78.5 113t67.5 98zM566 278v-1q32 29 51 43q39 30 58 54q27 34 13 39t-48 -38q-18 -21 -74 -97zM269 -74v1q-87 -21 -178 -83q-44 -30 -86 -82t-41 -86q1 -25 21 -25q23 -4 62 19q58 36 128 129q12 17 44.5 60.5t49.5 66.5z" />
    <glyph glyph-name="Z" unicode="Z" horiz-adv-x="456" 
d="M433 324v1q-73 -41 -129 -41q-35 0 -60 13t-22 43q4 34 46.5 58.5t85.5 26.5q16 0 15 -5q0 -1 -15 -3q-27 -2 -49 -19.5t-24 -43.5q-1 -19 10 -29t28 -12q57 -6 129 31q32 34 55 53q29 23 47 20q6 -1 5.5 -7.5t-7.5 -13.5q-24 -26 -74 -54q-39 -39 -115 -102
q-73 -61 -106 -83v-1h20q49 0 81.5 -28t34.5 -83q34 20 68 48q10 9 13 6q2 -3 -8 -13q-27 -27 -72 -52q-4 -107 -139 -221q-87 -73 -190 -123t-169 -49q-63 2 -63 46q0 82 211 190q51 27 146.5 68.5t146.5 71.5q15 72 -13 104q-14 16 -40 21t-45 1q-33 -25 -61 -43
q-61 -40 -73 -21q-5 9 11.5 24.5t45.5 28.5q37 16 72 22q49 35 104 82q51 41 99 88zM330 3v1q-48 -29 -144.5 -72.5t-139.5 -66.5q-38 -20 -58.5 -31.5t-53 -32.5t-50 -37t-31 -37t-13.5 -40q0 -18 14.5 -27t36.5 -9q61 0 150.5 47.5t159.5 119.5q105 108 129 185zM215 140
v1q-21 -3 -52 -18q-21 -9 -34 -19.5t-11 -15.5q5 -9 49 20q30 19 48 32z" />
    <glyph glyph-name="bracketleft" unicode="[" horiz-adv-x="239" 
d="M485 463l-4 -7q-33 -2 -62 -6q-16 -2 -22.5 -5.5t-16.5 -16.5q-144 -190 -189 -244q-42 -53 -185 -232q-14 -17 -12.5 -21t19.5 -6l59 -6l-5 -6h-111q3 3 37.5 51.5t80 110t85.5 112.5q106 133 228 276h98z" />
    <glyph glyph-name="backslash" unicode="\" horiz-adv-x="239" 
d="M139 -86q-5 0 -8 13q-16 70 -96 414q-5 21 10 39q11 12 17 -12q1 -3 4 -18q12 -57 37 -200t39 -217q3 -19 -3 -19z" />
    <glyph glyph-name="bracketright" unicode="]" horiz-adv-x="239" 
d="M-33 -87h-98l5 7q31 2 62 6q16 2 21.5 5.5t15.5 16.5q68 93 190 244q29 35 94 117.5t91 114.5q14 17 12.5 21t-18.5 6l-59 6l4 6h111q-125 -177 -202 -273q-139 -176 -229 -277z" />
    <glyph glyph-name="asciicircum" unicode="^" 
d="M207 252q4 0 9 -10q40 -60 71 -97q6 -8 4 -9q-3 -3 -14 5q-47 34 -80 70q-48 -35 -145 -78q-8 -4 -10 -1q-1 3 8 9q58 38 143 103q10 8 14 8z" />
    <glyph glyph-name="underscore" unicode="_" horiz-adv-x="500" 
d="M445 -105v-30h-509v30h509z" />
    <glyph glyph-name="grave" unicode="`" 
d="M181 302q8 0 12 -10q19 -44 50 -86q4 -8 2 -9q-1 -1 -10 4q-55 46 -66 67q-5 7 -5 15q0 7 5.5 13t11.5 6z" />
    <glyph glyph-name="a" unicode="a" horiz-adv-x="288" 
d="M196 133h1q35 38 56 38q15 1 18 -3t-3 -13q-57 -66 -58 -67q-27 -34 -36 -48q-11 -16 -2 -23q6 -5 23 4q16 7 45 31q26 21 48 41q11 9 13 7q3 -3 -8 -14q-30 -30 -60 -52q-50 -40 -86 -40q-27 0 -29 21q-2 17 14 36h-1q-62 -54 -110 -57q-19 -1 -31.5 8t-9.5 32
q2 23 28 54h-1l-9 -9q-11 -8 -13 -6q-2 3 7 12q3 3 33 27q44 28 50 31q66 35 100 28q14 -2 20 -13.5t1 -24.5zM171 161q-28 0 -90 -62q-60 -60 -58 -80q1 -10 13 -10q14 0 38.5 14t45.5 33q25 22 46.5 48.5t22.5 38.5q1 18 -18 18z" />
    <glyph glyph-name="b" unicode="b" horiz-adv-x="298" 
d="M66 78l2 -3q39 38 83 65q59 34 89 31q35 -5 31 -38q-6 -43 -62 -92q-25 -21 -57 -33.5t-53 -12.5q-30 0 -30 20q1 23 56 40q52 15 66 21q23 26 32 50q9 30 -10 30q-29 0 -87 -45q-44 -34 -111 -101q-13 -12 -29 -14q-14 -1 -16.5 3.5t2.5 12.5q9 20 41 67q18 26 29 39h-1
q-21 -18 -36 -33q-8 -7 -11 -3q-2 2 7 11q60 54 62 55q88 113 120 151q44 54 120 129t114 101q56 40 85 40q18 0 25.5 -10.5t5.5 -25.5q-3 -17 -19.5 -39.5t-50.5 -54.5t-59.5 -54.5t-75.5 -63.5q-18 -15 -94 -73.5t-110 -89.5zM140 184v-1q52 46 106 89t73 60
q127 114 158 151q29 35 31 56q1 19 -17 19q-23 0 -65 -40q-81 -81 -133 -143q-92 -109 -153 -191zM183 65v1q-14 -8 -52 -20q-21 -7 -33.5 -16t-8.5 -17q1 -4 13 -4q14 1 35 14q29 19 46 42z" />
    <glyph glyph-name="c" unicode="c" horiz-adv-x="213" 
d="M40 -9q-57 0 -54 42q3 30 29 61h-1q-10 -10 -16 -15q-11 -8 -13 -6q-2 3 7 12q3 3 33 27q44 28 50 31q62 33 93 28q33 -4 26 -38q-2 -13 -13 -23.5t-21 -10.5q-12 0 -14 8.5t5 19.5q19 30 4 35q-17 3 -62 -43q-51 -51 -56 -89q-3 -23 23 -23q38 0 91 36q38 26 56 44
q11 9 14 6q5 -3 -8 -13q-24 -24 -57 -46q-63 -43 -116 -43z" />
    <glyph glyph-name="d" unicode="d" horiz-adv-x="288" 
d="M147 -6q-27 0 -29 21q-2 17 14 36h-1q-64 -55 -110 -57q-19 -1 -31.5 8t-9.5 32q2 23 28 54h-1l-9 -9q-11 -8 -13 -6q-2 3 7 12q6 6 17.5 15.5t15.5 12.5q18 13 50 29q66 34 100 29q13 -2 19.5 -12t3.5 -19h1q44 64 126 158q55 65 119 124q17 17 37 17q14 0 15 -7
q-22 -21 -115 -124q-45 -52 -126 -152q-50 -62 -80 -116q-11 -17 -4 -22q7 -8 30 6q11 6 39 28q37 30 48 41q12 7 13 7q3 -3 -8 -14q-27 -27 -60 -52q-53 -40 -86 -40zM36 9q14 0 38.5 14t45.5 33q25 22 46.5 48.5t22.5 38.5q1 18 -18 18q-28 0 -90 -62q-60 -60 -58 -80
q1 -10 13 -10z" />
    <glyph glyph-name="e" unicode="e" horiz-adv-x="212" 
d="M162 171q15 0 23 -8.5t7 -17.5q-2 -30 -64 -61q-33 -17 -87 -32q-4 -8 -6 -22q-1 -10 5.5 -16.5t17.5 -6.5q33 -2 91 36q37 24 64 51q9 10 13 6q3 -3 -8 -14q-29 -29 -63 -52q-62 -43 -117 -43q-27 0 -42 11t-13 30q1 25 24 55h-1l-8 -8q-11 -8 -13 -6q-2 3 7 12
q3 3 33 27q2 1 19.5 12.5t28.5 17.5q56 29 89 29zM46 63v-1q41 12 69 31q39 27 41 52q3 13 -12 13q-16 -2 -44 -27q-30 -28 -54 -68z" />
    <glyph glyph-name="f" unicode="f" horiz-adv-x="171" 
d="M505 569q17 0 24 -10.5t5 -25.5q-3 -17 -19 -39t-51 -55t-59 -53t-76 -64q-13 -11 -88 -71.5t-110 -91.5q-65 -81 -118 -155q22 5 42 14q42 21 63 35q37 25 54 41q10 10 13 6q3 -2 -8 -13q-27 -27 -63 -51q-24 -15 -82 -38q-20 -9 -25 -16q-7 -10 -14 -32
q-29 -94 -85 -190q-66 -113 -115 -148q-27 -20 -43 -16q-23 4 -16 38q8 39 51 115.5t98 151.5q80 109 173 228h-1q-38 -32 -50 -44q-8 -7 -11 -3q-2 2 7 11q25 23 77 65q91 113 114 141q59 69 126 136.5t105 94.5q54 39 82 39zM148 185v-1q51 45 101.5 88.5t70.5 60.5
q11 11 31 28.5t31 28t28 26t27 25.5t22.5 23t20 22.5t14.5 19.5t10.5 18.5t4.5 15.5q1 18 -16 18q-22 0 -62 -40q-52 -49 -130 -142q-73 -86 -153 -191zM-10 -25h-1q-55 -71 -125 -176q-79 -120 -96 -159q-9 -21 0 -24q8 -4 25 9q47 36 109 144q53 91 88 206z" />
    <glyph glyph-name="g" unicode="g" horiz-adv-x="285" 
d="M126 -22v-1q63 40 96 64q36 26 63 52l13 7q3 -3 -8 -14q-25 -23 -63 -53q-49 -37 -110 -71q-77 -113 -137 -179q-106 -117 -206 -168q-40 -21 -69 -21q-22 0 -35.5 9t-10.5 32q11 72 201 196q52 34 115.5 71.5t87.5 52.5q31 44 63 91v1q-60 -51 -105 -53q-19 -1 -31.5 8
t-9.5 32q2 24 27 52v1q-3 -2 -9 -8q-11 -8 -13 -6q-2 3 7 12q3 3 33 27q44 28 50 31q63 33 100 28q27 -4 23 -34h1q30 34 48 34q28 0 13 -16q-12 -14 -52 -66q-9 -11 -38.5 -51.5t-43.5 -59.5zM36 9q14 0 38.5 14t45.5 33q25 22 46.5 48.5t22.5 38.5q1 18 -18 18
q-28 0 -90 -62q-60 -60 -58 -80q1 -10 13 -10zM53 -62v1q-27 -18 -89 -55.5t-111 -70.5q-68 -46 -113.5 -93t-48.5 -84q-1 -22 15 -27q25 -8 63 16q80 48 183 180q67 86 101 133z" />
    <glyph glyph-name="h" unicode="h" horiz-adv-x="317" 
d="M45 48l3 -1q68 56 86 70q73 54 109 54q34 0 31 -27q-2 -14 -40 -61q-25 -30 -33 -43q-11 -17 -4 -22q7 -6 24 3q15 6 48 31q21 16 48 41q11 9 13 6t-8 -13q-28 -28 -61 -52q-53 -40 -89 -40q-15 0 -23 7.5t-6 18.5q2 22 41 70q31 37 42 49q8 10 1 14q-5 3 -26 -6
q-35 -18 -78 -51q-22 -17 -56 -45.5t-56 -45.5q-12 -9 -26 -9q-11 0 -14 2.5t2 12.5q36 62 40 68q20 28 30 40v1q-22 -19 -38 -35q-8 -7 -11 -3q-2 2 7 11q8 7 29 26t34 29q68 90 121 150q51 59 123.5 132.5t108.5 98.5q56 40 85 40q18 0 25.5 -10.5t5.5 -25.5
q-3 -17 -19.5 -39.5t-50.5 -54.5t-59.5 -54.5t-75.5 -63.5q-17 -14 -89 -69.5t-115 -93.5q-15 -17 -79 -110zM140 184v-1q52 46 106 89t73 60q127 114 158 151q29 35 31 56q1 19 -17 19q-23 0 -65 -40q-81 -81 -133 -143q-92 -109 -153 -191z" />
    <glyph glyph-name="i" unicode="i" horiz-adv-x="161" 
d="M220 304q11 0 14 -7.5t-6 -18.5q-8 -11 -23 -19t-24 -8q-10 12 -1 34q9 19 40 19zM80 143v1q-13 -8 -40 -29q-41 -35 -44 -38q-8 -6 -10 -4q-3 2 5 12q51 45 77 62q32 22 58 21q16 1 18.5 -2t-7.5 -13q-8 -9 -16.5 -19t-19 -23t-17.5 -22q-26 -31 -36 -49q-9 -17 -3 -22
q5 -6 24 3q17 8 44 31q37 30 48 41q13 7 14 6q3 -3 -8 -13q-30 -30 -60 -52q-51 -41 -87 -41q-15 0 -23 7t-7 19q0 15 15 38q30 47 75 86z" />
    <glyph glyph-name="j" unicode="j" horiz-adv-x="165" 
d="M211 304q13 0 16 -7.5t-6 -18.5q-8 -10 -23.5 -18t-23.5 -8q-9 9 -1 33q9 19 38 19zM80 144v1q-23 -17 -40 -30q-41 -35 -44 -38q-9 -5 -10 -4q-3 2 5 12q32 32 77 62q33 22 58 22q16 1 18 -2.5t-7 -12.5q-7 -8 -24.5 -29t-28.5 -35q-51 -69 -86 -114v-1q64 36 103 67
q36 23 64 51q10 10 13 6q1 -2 0.5 -3.5t-3.5 -5t-4 -4.5q-23 -21 -67 -53q-68 -47 -116 -75q-77 -111 -133 -175q-73 -81 -151 -135t-127 -54q-18 0 -32 9.5t-11 32.5q10 69 199 192q47 31 105 65.5t96 59.5q12 17 70 95q57 75 76 96zM-77 -65v1q-28 -19 -86 -55.5
t-104 -67.5q-158 -106 -165 -177q-1 -21 15 -26q25 -8 64 16q81 50 182 179q44 55 94 130z" />
    <glyph glyph-name="k" unicode="k" horiz-adv-x="312" 
d="M44 48l2 -1q55 49 87 72q51 37 66 44q23 10 49 8q19 -2 29.5 -14.5t3.5 -27.5q-6 -14 -47 -19q-37 -6 -43 -14q-9 -14 -8 -41q3 -34 17 -37q9 -1 26 8q16 8 38 26q28 23 48 41q10 8 13 6q3 -3 -8 -13q-41 -38 -61 -53q-49 -39 -86 -39q-36 0 -33 47q3 37 21 55
q14 12 41 17q22 4 31 14q5 6 5.5 15t-6.5 14q-8 5 -31 -5q-32 -15 -76 -50q-14 -11 -53.5 -47.5t-56.5 -47.5q-14 -10 -26 -10t-15 3t1 13q8 18 41 67q21 29 28 38v1q-21 -18 -36 -33q-8 -7 -11 -3q-2 2 7 11q60 54 62 55q67 88 121 151q49 57 123 131t110 99q56 40 85 40
q18 0 25.5 -10.5t5.5 -25.5q-3 -17 -19.5 -39.5t-50.5 -54.5t-59.5 -54.5t-75.5 -63.5q-18 -15 -94 -73.5t-110 -89.5q-20 -22 -80 -110zM140 184v-1q52 46 106 89t73 60q127 114 158 151q29 35 31 56q1 19 -17 19q-23 0 -65 -40q-81 -81 -133 -143q-78 -94 -153 -191z" />
    <glyph glyph-name="l" unicode="l" horiz-adv-x="167" 
d="M22 -6q-15 0 -23.5 7t-7.5 20q1 32 56 101v1q-10 -8 -25.5 -22.5t-16.5 -15.5q-8 -7 -11 -3q-2 2 7 11q50 45 71 62q66 84 118 143q59 70 119 124q17 17 36 17q15 0 15 -7q-60 -60 -149 -166q-128 -155 -159 -219q-13 -19 -3 -28q9 -6 31 6q21 11 39 27q21 14 48 41
q12 7 13 6q3 -2 -8 -13q-25 -25 -60 -52q-50 -40 -90 -40z" />
    <glyph glyph-name="m" unicode="m" horiz-adv-x="512" 
d="M367 -6q-15 0 -23 7t-7 19q2 20 42 70q7 8 14.5 16.5t15.5 18.5t12 14q8 10 1 14q-2 1 -27 -5q-27 -13 -76 -55q-17 -13 -113 -88q-10 -9 -26 -9q-12 0 -14.5 3t1.5 13q13 28 52 78q6 7 20.5 22.5t22.5 26.5q3 4 2.5 8.5t-3.5 5.5t-25 -5q-35 -17 -78 -52
q-22 -17 -56 -45.5t-56 -45.5q-12 -9 -26 -9q-12 0 -15 3t2 13q18 34 44 67q18 23 41 52q11 12 6 17q-3 6 -15 -1q-15 -7 -39 -27q-29 -25 -46 -41q-11 -8 -13 -6q-4 4 7 12q24 24 57 52q42 34 70 34q25 0 25 -23q0 -13 -21 -42q-37 -50 -43 -58l3 -1q68 56 86 70
q73 54 108 54q18 0 26 -8t6 -21q-2 -11 -39 -57q-7 -9 -16 -20t-14 -17l3 -1q68 56 86 70q73 54 109 54q34 0 31 -27q-2 -14 -40 -61q-25 -30 -33 -43q-11 -17 -4 -22t25 3q14 7 47 31q26 21 48 41q12 7 13 6q4 -4 -8 -12q-20 -22 -61 -53q-53 -40 -89 -40z" />
    <glyph glyph-name="n" unicode="n" horiz-adv-x="352" 
d="M207 -6q-15 0 -23 7.5t-6 18.5q2 22 41 70q31 37 42 49q8 10 1 14q-5 3 -26 -6q-35 -18 -78 -51q-22 -17 -56 -45.5t-56 -45.5q-12 -9 -26 -9q-12 0 -15 3t2 13q18 34 44 67q18 23 41 52q11 12 6 17q-3 6 -15 -1q-15 -7 -39 -27q-29 -25 -46 -41q-10 -8 -13 -6q-4 4 7 12
q34 35 57 52q43 34 70 34q25 0 25 -23q0 -13 -21 -42q-37 -50 -43 -58l3 -1q68 56 86 70q73 54 109 54q34 0 31 -27q-2 -14 -40 -61q-25 -30 -33 -43q-11 -17 -4 -22q7 -6 24 3q15 6 48 31q17 13 49 42q10 8 13 5q2 -2 -9 -13q-42 -38 -61 -52q-52 -40 -89 -40z" />
    <glyph glyph-name="o" unicode="o" horiz-adv-x="248" 
d="M18 97v1q-13 -13 -20 -19q-11 -8 -13 -6q-2 3 7 12q3 3 33 27q41 26 50 31q45 25 84 28q12 2 15 -4q0 -1 -11 -6q-28 -13 -72 -55q-21 -21 -38.5 -47t-19.5 -41q-2 -17 14 -17t42.5 17.5t50.5 43.5q2 21 18 42q13 18 32 26q3 7 3 25q-3 14 -1 14q5 3 14 -6q15 -13 12 -35
q-4 -33 -57 -81q5 -2 19 0q15 2 34 17q8 5 20.5 16t14.5 13q10 10 12 6q3 -2 -8 -13q-19 -19 -35 -30q-18 -14 -38 -18q-5 -2 -14 -1.5t-13 3.5q-64 -49 -114 -49q-24 0 -37 11.5t-12 32.5q3 31 28 62z" />
    <glyph glyph-name="p" unicode="p" horiz-adv-x="326" 
d="M101 173h-1q-25 -24 -59 -54.5t-40 -36.5q-12 -12 -16 -8q-3 3 11 14q6 6 19 18.5t29 27.5t23 21q11 10 44.5 40.5t46.5 42.5q22 20 39 20q14 1 15 -3q0 -3 -16 -22q-89 -104 -257 -331q-109 -148 -179 -257q-10 -17 -7 -20q5 -2 15 6q6 7 18.5 24.5t30 42.5t28.5 39
q77 106 115 157q73 96 121 153q48 55 88 85q55 39 86 39q33 0 30 -26q-3 -15 -41 -60q-28 -32 -35 -43q-11 -17 -3 -23t27 3q21 10 46 30q20 15 48 41q11 8 13 6q2 -3 -8 -13q-30 -30 -61 -52q-53 -40 -90 -40q-18 0 -26 8.5t-6 20.5q3 24 44 67q38 42 43 50q7 10 0 13
q-9 4 -21 -6q-49 -23 -105 -82q-55 -60 -145 -181q-99 -133 -121 -165q-65 -96 -86 -113q-15 -13 -29 -10q-17 5 -17 21q-2 22 36 85q31 46 142 196q103 141 211 275z" />
    <glyph glyph-name="q" unicode="q" horiz-adv-x="274" 
d="M196 133h1q35 38 50 38t17.5 -3t-4.5 -12q-20 -21 -63 -77q-22 -27 -132 -178q-105 -143 -177 -256q-9 -16 -5 -20q4 -3 16 8q15 16 72 101q51 72 113 154q50 64 128 146q31 32 61 58q11 10 14 7t-8 -13q-14 -12 -61 -59q-75 -77 -126 -145q-29 -37 -118 -165
q-55 -82 -86 -109q-15 -15 -29 -13q-19 2 -19 22q0 19 41 84q49 78 136 196q44 61 113 154v1q-58 -55 -109 -58q-19 -1 -31.5 8t-9.5 32q2 24 27 52v1q-3 -2 -9 -8q-11 -8 -13 -6q-2 3 7 12q3 3 33 27q44 28 50 31q64 35 100 28q14 -2 20 -13.5t1 -24.5zM171 161
q-28 0 -90 -62q-60 -60 -58 -80q1 -10 13 -10q14 0 38.5 14t45.5 33q25 22 46.5 48.5t22.5 38.5q1 18 -18 18z" />
    <glyph glyph-name="r" unicode="r" horiz-adv-x="205" 
d="M171 145q0 -4 -2.5 -9t-7.5 -11.5t-9.5 -11.5t-13 -14t-13.5 -15q-26 -31 -34 -47q-7 -13 -1 -19q6 -4 22 4q25 13 45 30q28 22 49 41q8 11 12 7q3 -3 -8 -14q-27 -27 -60 -52q-52 -40 -89 -40q-15 0 -23.5 7t-7.5 19q1 26 48 71q10 9 26 22.5t27 22.5t12 12q3 7 -8 8
q-5 1 -32 0q-15 -1 -23 2l-10 -10l-14.5 -14.5l-13.5 -13.5q-11 -11 -44 -41q-10 -8 -13 -5t7 11q26 24 44 42q29 29 36 35q-7 5 -7.5 14t7.5 18q14 17 38 17q15 0 18 -10q-10 -7 -17 -13q-19 -21 3 -23q57 -2 57 -20z" />
    <glyph glyph-name="s" unicode="s" horiz-adv-x="228" 
d="M119 21v-1q17 7 44 24q29 17 66 49q9 9 13 6q2 -3 -8 -13q-28 -25 -54 -43q-29 -20 -63 -34q-41 -18 -84 -18q-36 0 -50 17.5t-10 42.5q3 21 19 36.5t34 14.5q21 -2 17 -21q-3 -13 -22 -25q-22 -14 -23 -30q-1 -12 7 -18.5t22 -6.5q34 0 67 54q8 14 24.5 54.5t22.5 47.5
v1q-5 -5 -48 -38q-23 -17 -38 -24q-7 -5 -10 -2q-1 3 5 9q10 6 42 28q22 16 59 48q5 9 16 17q13 11 29 11q26 0 -1 -19l-4 -2q-3 -2 -12 -7t-12 -8q-7 -7 -7 -27q2 -56 -9 -82q-12 -28 -32 -41z" />
    <glyph glyph-name="t" unicode="t" horiz-adv-x="167" 
d="M44 120v1q-21 -20 -47 -43q-9 -8 -12 -5q-4 4 7 12q15 14 44.5 40t35.5 32q-6 0 -17 -0.5t-19 -0.5q-6 -1 -9 0t-2 5t27 6q17 0 28 1q52 64 94 104q41 41 63 41q11 0 15 -6q-19 -17 -61 -65q-31 -35 -61 -74q23 1 57 1q6 0 10.5 -1.5t3.5 -4.5q-2 -5 -18 -5q-38 0 -61 -1
q-40 -48 -72 -110q-12 -22 0 -29q7 -5 24 4q25 13 45 30q20 16 48 41q11 8 13 6q3 -2 -8 -13q-31 -31 -60 -52q-52 -41 -92 -41q-16 0 -23.5 8t-6.5 20q3 32 54 99z" />
    <glyph glyph-name="u" unicode="u" horiz-adv-x="320" 
d="M80 143v1q-13 -8 -40 -29q-41 -35 -44 -38q-8 -6 -10 -4q-4 2 5 11q32 32 77 63q32 22 58 22q16 1 18 -2.5t-6 -13.5q-32 -34 -54 -62q-25 -29 -36 -54q-6 -13 -2 -17q6 -6 23 1q22 12 76 52q26 19 62.5 49.5t45.5 37.5q15 11 29 11q15 0 18.5 -2.5t-3.5 -13.5
q-4 -5 -22.5 -27t-30.5 -37q-30 -37 -37 -51q-10 -15 -3 -22q7 -4 23 3t45 31q35 28 48 41q12 7 13 6q3 -2 -8 -13q-31 -31 -60 -52q-50 -40 -86 -40q-31 0 -31 24q0 17 16 41q6 8 39 44l-2 2q-13 -12 -71 -56q-73 -55 -107 -55q-16 0 -25 7.5t-8 20.5q1 14 17 38
q30 43 73 83z" />
    <glyph glyph-name="v" unicode="v" horiz-adv-x="295" 
d="M55 11v-1q38 12 90 40q27 14 44 27q1 27 23 57q29 41 48 37q9 -2 9 -14t-6 -22q-22 -37 -64 -65q2 -14 21 -16q22 -2 51 18q24 20 25 21q11 8 13 6q3 -3 -8 -13q-1 -1 -27 -23q-28 -20 -55 -18q-24 0 -29 19q-21 -13 -42 -25q-43 -25 -101 -43q-15 -5 -29 -5t-15 12
q-1 10 9 18q30 35 49 58q30 39 37 55q5 10 0 14q-5 5 -15 -1q-15 -7 -39 -27q-29 -25 -46 -41q-10 -8 -13 -6q-4 4 7 12q34 35 57 52q43 34 70 34q31 0 28 -35q-3 -25 -34.5 -63.5t-57.5 -61.5z" />
    <glyph glyph-name="w" unicode="w" horiz-adv-x="426" 
d="M92 150v1q-19 -9 -52 -36q-41 -35 -44 -38q-7 -7 -10 -4q-3 2 5 12q51 45 77 62q32 22 65 22q16 0 18.5 -3t-7.5 -13q-40 -40 -60 -64q-27 -33 -33 -52q-5 -13 -1 -17q7 -7 25 3q18 8 59 41q34 27 101 84q18 14 32 14q15 0 18.5 -3t-3.5 -13q-13 -15 -44 -56
q-26 -35 -34 -51q-10 -17 0 -26q10 -6 28 2q22 7 58 32q21 16 29 25q0 28 24 62q29 41 48 37q8 -2 9 -13t-6 -23q-21 -34 -63 -69q4 -10 20 -12q22 -2 50 18q10 8 26 21q10 10 12 6q3 -2 -8 -13q-3 -3 -26 -23q-28 -20 -55 -18q-20 0 -27 14q-13 -12 -25 -19
q-67 -47 -113 -47q-18 0 -27 8t-8 21q0 17 13 36q9 14 31 40l-2 2q-51 -44 -69 -57q-68 -50 -100 -50q-30 0 -27 31q3 27 37 67q26 30 59 59z" />
    <glyph glyph-name="x" unicode="x" horiz-adv-x="285" 
d="M95 49h-1q-11 -18 -32.5 -36.5t-41.5 -18.5q-18 0 -28.5 9.5t-9.5 27.5q2 16 13 28.5t26 12.5q11 0 17 -8t2 -17q-2 -5 -10 -12t-9 -13q-2 -12 8 -12q26 -3 74 67q27 38 32 57q3 21 -12 22q-26 6 -75 -34q-27 -21 -50 -43q-11 -8 -13 -6q-3 3 7 12q34 32 61 52
q43 34 80 34q20 0 34 -13.5t8 -40.5h1q47 54 79 54q15 0 23 -10t5 -25q-2 -11 -11.5 -19t-20.5 -8q-19 0 -15 16q1 3 5 9t5 10q1 3 -1.5 5t-6.5 2q-10 0 -38 -24q-17 -16 -38 -44q-20 -26 -25 -45q-7 -24 10 -28q28 -6 81 34q36 26 54 46q7 6 10 3q2 -2 -4 -10
q-10 -11 -55 -47q-52 -42 -94 -42q-24 0 -37 14.5t-7 40.5z" />
    <glyph glyph-name="y" unicode="y" horiz-adv-x="313" 
d="M80 143v1q-13 -8 -40 -29q-41 -35 -44 -38q-8 -6 -10 -4q-3 3 5 11q52 46 77 64q31 21 58 20q16 1 18 -2t-7 -13q-11 -12 -28 -33.5t-23 -28.5q-18 -22 -38 -54q-7 -14 -3 -18q5 -5 24 4q22 11 76 51q34 25 107 86q13 11 29 11q14 0 18 -2.5t-3 -12.5q-6 -7 -27 -35
t-32 -43q-54 -70 -132 -177q-113 -154 -177 -256q-9 -16 -5 -20q4 -3 15 8q10 11 73 101q82 114 113 154q61 78 128 146q25 26 62 59q10 9 13 6q2 -3 -8 -13q-26 -24 -61 -59q-72 -74 -127 -144q-36 -45 -117 -166q-56 -82 -86 -109q-15 -15 -29 -13q-19 2 -19 22
q0 19 41 84q48 75 135 196q10 14 64.5 89t89.5 123l-3 1q-49 -39 -77 -60q-80 -57 -111 -57q-29 0 -26 29q2 17 16 38q25 40 71 83z" />
    <glyph glyph-name="z" unicode="z" horiz-adv-x="244" 
d="M50 36v-1q15 4 25 3q37 -2 49 -33q42 28 58 39q36 25 62 49q11 9 14 6q2 -2 -9 -13q-28 -26 -62 -50q-28 -20 -60 -40q1 -5 1 -16q-1 -48 -52.5 -117t-109.5 -119q-68 -60 -141.5 -104.5t-115.5 -44.5t-42 35q0 62 155 179q73 56 195 129q15 9 40 25t36 22q2 20 -5.5 32
t-21.5 12q-33 0 -72 -37q-8 -8 -12 -5q-5 4 3 17q7 10 42 30q16 9 48 23.5t51 25.5q46 26 72 56q5 5 4 9q0 3 -6 0q-48 -27 -90 -27q-37 0 -48 18q-29 -30 -62 -62q-8 -6 -11 -3q-1 1 1 4.5t5 6.5q24 22 62 63q-2 17 10 32t33 15q17 0 17 -10l-5 -3q-4 -2 -6.5 -5t-4.5 -8
q-3 -7 3.5 -13.5t24.5 -6.5q42 0 81 17q16 6 20 1q6 -6 -6 -23q-26 -35 -86 -68q-18 -9 -45.5 -21.5t-38.5 -18.5zM-287 -394q39 0 102 45.5t124 111.5q46 48 93.5 112t57.5 99q-12 -8 -36 -23.5t-32 -20.5q-120 -75 -194 -131q-130 -98 -137 -166q-2 -27 22 -27z" />
    <glyph glyph-name="braceleft" unicode="{" horiz-adv-x="295" 
d="M555 463l-6 -8q-5 0 -18 0.5t-22 0.5q-81 0 -114 -38q-17 -19 -53.5 -83.5t-73.5 -97.5q-33 -29 -90 -31q13 -13 14 -37t-15 -51q-16 -21 -47 -59.5t-42 -53.5q-40 -58 32 -79q19 -5 44 -7l-6 -6q-26 0 -49 5q-49 10 -57 41.5t33 90.5q69 91 72 97q14 27 7.5 44t-25.5 21
v1q23 0 53 8.5t46 24.5q19 19 34 40t31.5 50t22.5 38q29 46 67.5 68.5t105.5 22.5z" />
    <glyph glyph-name="bar" unicode="|" horiz-adv-x="144" 
d="M82 750v-1000h-20v1000h20z" />
    <glyph glyph-name="braceright" unicode="}" horiz-adv-x="295" 
d="M253 458l5 5q32 0 49 -4q49 -10 57.5 -41.5t-33.5 -91.5q-2 -2 -29.5 -36.5t-40.5 -54.5q-14 -26 -7 -42t27 -19v-1q-23 3 -53 -9.5t-49 -32.5q-14 -15 -28 -33.5t-21.5 -30.5t-21 -34.5t-17.5 -29.5q-30 -46 -68 -68.5t-105 -22.5l-57 2l6 7h40q82 0 115 38
q16 18 52.5 83t73.5 98q45 38 99 40q-16 11 -20.5 31.5t12.5 47.5q15 21 46.5 59.5t42.5 54.5q38 57 -31 78q-19 5 -44 7z" />
    <glyph glyph-name="asciitilde" unicode="~" 
d="M226 214q73 0 82 -61q2 -6 -2 -6l-4 6q-19 28 -78 28q-14 0 -58 -11q-40 -12 -62 -12q-35 0 -51 32v8q2 1 5 -4q11 -15 32 -15q23 0 69 18q47 17 67 17z" />
    <glyph glyph-name="exclamdown" unicode="&#xa1;" horiz-adv-x="239" 
d="M-87 -177q-12 0 -12 5q2 7 19 30q77 100 206 230q8 9 13 7q4 -2 -6 -16q-97 -128 -160 -224q-22 -32 -60 -32zM152 118q-12 0 -15.5 7.5t5.5 18.5q8 11 23 19t24 8q10 -13 1 -34q-8 -19 -38 -19z" />
    <glyph glyph-name="cent" unicode="&#xa2;" horiz-adv-x="207" 
d="M188 209l-100 -151q4 -3 10 -1q34 5 70 36q10 8 12 5q4 -4 -6 -12q-46 -44 -96 -44q-32 -47 -44 -63q-3 -10 -10 -7q-4 1 1 12l38 59q-41 3 -38 41q4 43 47 86q21 20 52 35.5t56 16.5l17 25q17 26 24 22q4 -2 -11 -25l-14 -23q38 -5 35 -34q-1 -13 -11.5 -24.5
t-20.5 -11.5q-22 0 -10 28q10 23 -1 30zM75 61l99 151q-22 0 -54 -35q-53 -55 -53 -96q0 -14 8 -20z" />
    <glyph glyph-name="sterling" unicode="&#xa3;" horiz-adv-x="510" 
d="M631 301q0 -18 -30 -41t-75 -34q-48 -11 -96 -11q-11 -14 -28 -33q-9 -10 -21.5 -24.5t-16.5 -18.5q41 0 71 -1q14 0 14 -4t-14 -4q-35 -1 -80 -1q-49 -50 -121 -92q75 -16 88 -16q67 -1 106 23q11 7 12 6q3 -3 -4 -10q-56 -50 -123 -50q-34 0 -111 27q-53 -26 -149 -26
q-30 0 -60.5 7.5t-29.5 21.5q1 19 39.5 28t90.5 8q50 0 130 -17q44 27 103 90q-40 -1 -124 -1q-20 0 -20 6q0 8 19 8q26 0 133 -3q6 6 12 12.5t14 15t12 13.5q12 15 32 35q-52 4 -78.5 23.5t-26.5 50.5q0 17 12 31t29 19q2 1 6 0.5t5 -1.5q1 -2 -7 -4h-2q-33 -12 -33 -45
q0 -27 27 -44t66 -17h14q43 45 93 70.5t90 25.5q32 0 32 -23zM621 301q0 14 -22 14q-36 0 -80.5 -23t-79.5 -63q55 5 91 16q91 28 91 56zM55 -1q92 0 136 22q-67 18 -123 18q-95 0 -97 -18q-2 -12 29.5 -17t54.5 -5z" />
    <glyph glyph-name="currency" unicode="&#xa4;" horiz-adv-x="320" 
d="M284 171q0 -29 -18 -59.5t-43 -50.5q17 -24 27 -45q9 -11 0 -15q-7 -4 -14 10q-19 20 -30 38q-37 -28 -76 -30q-34 -1 -56 23q-7 -4 -23.5 -15t-23.5 -15q-17 -12 -20 -9q-8 5 9 17q1 1 47 37q-6 11 -6 31q0 57 60 105q-4 7 -13 22.5t-13 22.5q-9 12 0 15q7 3 13 -9
q2 -3 13.5 -17.5t16.5 -20.5q38 26 79 28q36 0 55 -22q7 5 21.5 15t18.5 13q14 11 19 7q4 -3 -7 -14q-17 -17 -42 -36q6 -12 6 -26zM245 173q0 49 -42 49q-40 -1 -74 -49t-34 -91q0 -24 9.5 -38t30.5 -13q41 1 75.5 50t34.5 92z" />
    <glyph glyph-name="yen" unicode="&#xa5;" horiz-adv-x="371" 
d="M187 126h1q104 93 181 140q93 56 163 50q9 -1 16.5 -4.5t5.5 -7.5q-2 -1 -2.5 -0.5t-5.5 2t-11 1.5q-49 0 -156 -63q-103 -63 -172 -119q79 0 129 -1q17 0 17 -4q0 -5 -17 -5q-100 -2 -145 -2q-12 -9 -21 -15q-1 -1 -3.5 -4t-7.5 -8l-11 -11q107 -2 125 -3q18 0 18 -4
t-18 -4q-37 -1 -137 -1q-29 -33 -76 -76q-13 -13 -20 -8q-4 2 7 15q8 11 25.5 34.5t25.5 34.5q-9 0 -31 -0.5t-32 -0.5q-25 0 -25 5q0 10 26 10q41 0 73 -1q18 23 20 27q1 1 8 11q-12 0 -44 -0.5t-52 -0.5q-25 0 -25 6q0 10 26 10q30 -1 103 -3q38 56 52 91q21 46 16 67
q-2 20 -30 20q-38 0 -70 -32q-6 -6 -8 -5q-4 2 2 8q39 43 92 43q39 0 51 -24q12 -25 -5 -73q-17 -43 -58 -95z" />
    <glyph glyph-name="brokenbar" unicode="&#xa6;" horiz-adv-x="144" 
d="M82 675v-350h-20v350h20zM62 175h20v-350h-20v350z" />
    <glyph glyph-name="section" unicode="&#xa7;" horiz-adv-x="356" 
d="M42 -104q-36 0 -56 18.5t-15 45.5q4 17 14.5 25t23.5 6q9 -1 14.5 -8.5t2.5 -16.5q-2 -10 -11 -19.5t-9 -14.5q0 -25 40 -25q53 0 71 43q14 33 -6 86q-20 51 -7 79q10 33 39 51.5t64 18.5q-13 41 -3 67q11 32 41.5 51t66.5 18q24 -1 38.5 -15.5t8.5 -36.5
q-3 -11 -12.5 -18.5t-18.5 -5.5q-11 2 -14 11t1 16q2 5 5 9.5t5.5 7t3.5 5t1 5.5q-1 11 -24 13q-23 1 -42.5 -12t-27.5 -32q-11 -29 6 -72q24 -61 14 -90q-11 -33 -41 -52t-63 -21q11 -39 3 -63q-12 -35 -45 -54.5t-68 -19.5zM211 175h-1q-25 0 -46 -12.5t-29 -31.5
q-11 -29 6 -71l3 -9t4 -9q53 3 72 45q11 25 -3 74q-4 10 -6 14z" />
    <glyph glyph-name="dieresis" unicode="&#xa8;" 
d="M291 258q11 0 13.5 -6.5t-5.5 -16.5q-18 -24 -43 -24q-8 9 0 30q6 17 35 17zM190 258q11 0 13.5 -6.5t-4.5 -16.5q-18 -24 -43 -24q-8 9 0 30q7 17 34 17z" />
    <glyph glyph-name="copyright" unicode="&#xa9;" horiz-adv-x="509" 
d="M429 135q0 -65 -48 -109.5t-114 -44.5t-114.5 45t-48.5 109q0 65 48.5 110t114.5 45t114 -45t48 -110zM403 135q0 56 -40 96.5t-96 40.5t-96 -40.5t-40 -96.5t40 -95.5t96 -39.5t96 39.5t40 95.5zM341 163h-15q-2 42 -44 42q-27 0 -43.5 -18.5t-16.5 -50.5q0 -33 16 -52
t42 -19q37 0 50 37h12q0 -11 -4 -24q-1 -13 -14 -19q-20 -8 -43 -8q-40 0 -69.5 21.5t-29.5 60.5q0 40 29.5 63t70.5 23q32 0 45 -8q14 -7 14 -26v-22z" />
    <glyph glyph-name="ordfeminine" unicode="&#xaa;" horiz-adv-x="263" 
d="M293 388h1q20 23 34 24q19 0 9 -11q-51 -64 -62 -82q-7 -13 -2 -17q4 -3 16 3q16 8 31 23q5 4 13 10t13 10t9 8q7 7 9 5q2 -3 -4 -11q-29 -26 -43 -37q-33 -26 -56 -26q-21 0 -22 15q-2 15 9 29h-1q-48 -43 -77 -44q-13 -1 -21.5 5t-7.5 22q4 35 50 69q18 13 44 22t42 6
q10 -1 14 -8.5t2 -14.5zM272 403q-19 0 -61 -42q-38 -38 -36 -54q0 -6 8 -6q18 0 57 35q42 38 45 55q0 12 -13 12z" />
    <glyph glyph-name="guillemotleft" unicode="&#xab;" horiz-adv-x="279" 
d="M188 4q-2 0 -6 7q-10 26 -42 76q-5 10 -4 12q1 4 11 8q53 29 91 55q7 5 9 4q3 -3 -3 -11q-33 -38 -73 -62q18 -45 20 -80q0 -9 -3 -9zM105 4q-6 0 -6 7q-14 32 -42 76q-5 10 -4 12q1 4 10 8q49 27 92 55q7 5 8 4q4 -3 -3 -11q-34 -39 -72 -62q19 -48 19 -80q0 -9 -2 -9z
" />
    <glyph glyph-name="logicalnot" unicode="&#xac;" horiz-adv-x="457" 
d="M80 159q0 7 19 7q107 0 297 6q8 0 12.5 -2.5t4.5 -5.5t-2 -6q-75 -84 -103 -120q-14 -18 -20 -13q-2 1 6 19q45 65 72 101q-45 1 -92.5 2.5t-98.5 2.5t-76 2q-19 0 -19 7z" />
    <glyph glyph-name="uni00AD" unicode="&#xad;" horiz-adv-x="245" 
d="M150 117q23 0 34.5 -15.5t10.5 -36.5q0 -5 -2 -5t-4 3q-10 16 -40 16q-12 0 -35 -4.5t-40 -4.5q-25 0 -35 13q-2 3 0 5h4q8 -4 16 -4q18 0 50 19q20 14 41 14z" />
    <glyph glyph-name="registered" unicode="&#xae;" horiz-adv-x="453" 
d="M366 286q0 -52 -39.5 -89.5t-92.5 -37.5q-54 0 -94 37.5t-40 89.5t40 90t94 38q53 0 92.5 -38t39.5 -90zM345 286q0 46 -33 78.5t-78 32.5q-46 0 -78.5 -32.5t-32.5 -78.5q0 -45 32.5 -77.5t78.5 -32.5q45 0 78 32.5t33 77.5zM319 231v-10h-24q-21 1 -41 29q-4 6 -16 27
l-12 -1h-1q-6 0 -7 1v-17q0 -16 4 -21.5t18 -5.5v-11h-73v11q14 0 17.5 5.5t3.5 22.5v56q0 14 -4 18.5t-17 4.5v11h69q51 0 51 -34q0 -19 -23 -30q11 -21 20 -32q15 -21 35 -24zM218 339v-51q38 -2 38 28q0 26 -38 23z" />
    <glyph glyph-name="macron" unicode="&#xaf;" 
d="M309 237q0 -3 -4 -7q-12 -11 -20 -11q-96 2 -134 0q-7 -1 -9 0.5t1 5.5q10 12 29 12q69 8 124 5q13 -1 13 -5z" />
    <glyph glyph-name="degree" unicode="&#xb0;" horiz-adv-x="155" 
d="M169 218q0 -18 -13.5 -31t-31.5 -13q-19 0 -32 13t-13 31q0 19 13 32.5t32 13.5q18 0 31.5 -13.5t13.5 -32.5zM154 218q0 12 -9 21t-21 9t-21 -9t-9 -21t9 -20.5t21 -8.5t21 8.5t9 20.5z" />
    <glyph glyph-name="plusminus" unicode="&#xb1;" horiz-adv-x="359" 
d="M299 276h6.5t4.5 -0.5t3 -1.5t1.5 -2.5t-0.5 -4t-2.5 -6t-4.5 -7.5t-8 -10t-24 -28t-29 -35q65 -2 113 -3q15 0 16 -5q0 -5 -15 -5q-78 -2 -127 -2q-6 -7 -59 -65q-14 -14 -19 -11q-4 4 5 16q7 11 42 59q-33 -1 -104 -1q-25 0 -25 6q0 2 1 4q4 12 21 12q20 0 60 -2t60 -2
q31 44 47 66q1 1 5.5 7t5.5 7.5t4.5 5.5t6 5t6.5 2t9 1zM302 66q0 -6 -15 -6q-86 -2 -248 -4q-15 0 -12 12q5 12 23 13q41 -1 237 -10q15 0 15 -5z" />
    <glyph glyph-name="acute" unicode="&#xb4;" 
d="M307 294q6 0 8 -5q10 -16 -7 -33q-25 -25 -83 -57q-10 -5 -12 -3q-1 1 0 3t3 4t2 3q35 31 75 79q7 9 14 9z" />
    <glyph glyph-name="mu" unicode="&#xb5;" horiz-adv-x="320" 
d="M80 143v1q-13 -8 -40 -29q-41 -35 -44 -38q-8 -6 -10 -4q-4 2 5 11q32 32 77 63q32 22 58 22q16 1 18 -2.5t-6 -13.5q-32 -34 -54 -62q-25 -29 -36 -54q-6 -13 -2 -17q6 -6 23 1q22 12 76 52q26 19 62.5 49.5t45.5 37.5q15 11 29 11q15 0 18.5 -2.5t-3.5 -13.5
q-4 -5 -22.5 -27t-30.5 -37q-30 -37 -37 -51q-10 -15 -3 -22q7 -4 23 3t45 31q35 28 48 41q12 7 13 6q3 -2 -8 -13q-31 -31 -60 -52q-50 -40 -86 -40q-31 0 -31 24q0 17 16 41q6 8 39 44l-2 2q-13 -12 -71 -56q-73 -55 -107 -55q-16 0 -21 13q-3 -3 -19 -33q-16 -31 -20 -56
q-3 -12 0 -20q1 -3 -1.5 -4.5t-6.5 0.5q-14 9 -14 28q3 23 16 56q9 23 52 82q22 34 71 83z" />
    <glyph glyph-name="paragraph" unicode="&#xb6;" horiz-adv-x="417" 
d="M567 400q42 0 42 -15q1 -4 -2.5 -6.5t-8.5 -2.5q-6 0 -19 11q-9 7 -21 5q-46 -3 -113 -82q10 -3 24 -11q8 -6 5 -9q0 -3 -8 2q-8 6 -27 12q-34 -41 -49 -62q-87 -116 -140 -170q-90 -90 -152 -90q-14 0 -18 1q-56 -37 -105 -37q-36 0 -57.5 16t-15.5 41q4 17 15 25t24 6
q9 -1 14.5 -8.5t2.5 -16.5q-2 -10 -11 -19.5t-9 -14.5q-1 -8 9.5 -14t28.5 -6q51 0 111 50q41 35 98 107q-51 6 -67.5 53t24.5 95q64 70 219 66q32 -1 60 -8q84 82 146 82zM379 314v1h-13q-122 0 -179 -75q-35 -50 -30 -82.5t33 -38.5q1 2 4 5.5t5 5.5q127 164 180 184z
M88 -9v-1q2 0 4 -0.5t4 -0.5q40 0 108 68q15 15 31 34t26.5 32t33 43t33.5 43q56 71 87 101q-7 3 -16 3q-2 0 -4.5 -0.5t-3.5 -0.5q-5 -2 -11 -5.5t-13 -10t-13.5 -12.5t-16 -16.5t-16 -18t-17.5 -21t-17.5 -21.5t-19 -24t-18.5 -23q-109 -135 -147 -160q-6 -6 -14 -9z" />
    <glyph glyph-name="periodcentered" unicode="&#xb7;" horiz-adv-x="126" 
d="M93 162q13 0 16 -7.5t-5 -18.5q-9 -11 -24 -19t-24 -8q-9 13 0 34q8 19 37 19z" />
    <glyph glyph-name="cedilla" unicode="&#xb8;" 
d="M26 -98q18 0 31 9t14 22q1 11 -7.5 17.5t-24.5 5.5q-5 0 -9 -2t-5.5 -2.5t-3.5 0.5q-3 3 4 9q18 19 42 40l8 -5q-15 -9 -32 -30q4 0 6 1h6q22 0 35 -10t11 -27q-3 -18 -24 -30.5t-50 -11.5q-40 1 -57 25q-8 11 -3 15q1 0 8 -7q27 -19 51 -19z" />
    <glyph glyph-name="ordmasculine" unicode="&#xba;" horiz-adv-x="263" 
d="M194 287q-17 0 -26 8t-8 22q2 28 34 58q38 33 83 37q10 2 11 -2q0 -1 -1.5 -1.5t-3.5 -1.5t-3 -2q-21 -9 -50 -38q-15 -14 -27 -32t-13 -28q-2 -12 9 -12q27 0 65 41q2 14 13 30q12 15 22 17q2 4 2.5 10t-0.5 8v10q4 1 9 -4q10 -9 9 -25q-3 -23 -39 -54q6 -4 13 0
q7 0 23 11q5 3 23 19q7 7 9 5q3 -3 -4 -10q-23 -20 -25 -21q-15 -11 -26 -13q-4 -1 -10.5 -0.5t-8.5 1.5q-48 -33 -80 -33z" />
    <glyph glyph-name="guillemotright" unicode="&#xbb;" horiz-adv-x="279" 
d="M165 166q6 0 6 -7q14 -32 42 -76q5 -9 4 -12t-10 -8q-59 -32 -92 -55q-8 -5 -8 -4q-4 3 3 11q9 12 31 31.5t41 30.5q-16 42 -19 79q0 10 2 10zM82 166q2 0 6 -7q11 -26 41 -76q6 -8 5 -12q-1 -3 -11 -8q-53 -29 -91 -55l-9 -4q-4 3 3 11q33 38 73 62q-18 45 -20 79
q0 10 3 10z" />
    <glyph glyph-name="onequarter" unicode="&#xbc;" horiz-adv-x="389" 
d="M183 52q0 2 13 11q18 13 65 41q17 11 65 38q29 15 41 15q4 0 4.5 -1t-1.5 -4q-38 -50 -66 -89q3 -1 12 -2t12 -1q11 -4 11 -7q-1 -1 -14 -1h-28q-19 -24 -34 -47q-7 -10 -30 -14q-10 -1 -11 1.5t7 15.5q9 14 32 44q-20 0 -46 -2q-7 0 -25 -2q-7 -2 -7 4zM333 135l-2 1
q-53 -30 -65 -38q-41 -27 -59 -37v-1q51 3 61 3q49 60 65 72zM356 300q11 0 6 -7q-4 -6 -23 -25q-146 -144 -283 -302q-10 -12 -16 -8q-3 3 7 15q142 169 266 300q25 27 43 27zM159 236v1q-8 -5 -40 -24q-6 -3 -12 -4t-9.5 -1t-4.5 2q0 1 3 3q11 4 26 12q28 14 52 30
q19 11 25 11q5 1 5 -2q-1 -5 -6 -11q-43 -53 -94 -123q-12 -16 -19 -20t-27 -8q-10 -2 -10 2t12 20q80 103 99 112z" />
    <glyph glyph-name="onehalf" unicode="&#xbd;" horiz-adv-x="407" 
d="M239 25v-1q11 3 22 2q7 0 20 -4.5t17 -4.5q20 0 37 20q4 4 6 3q4 -2 0 -4q-33 -42 -60 -42q-9 0 -36 8q-11 5 -25 5q-13 0 -19 -5q-11 -8 -13 -8q-2 -1 -2 1t1 3q2 6 10 9q4 3 12.5 7.5t21.5 11.5t22 12q74 43 86 81q4 10 -0.5 16.5t-14.5 6.5q-20 0 -39 -15
q-15 -12 -19 -26q-5 -21 14 -18q2 1 3.5 0.5t1.5 -1.5q0 -2 -5 -4q-6 -3 -14 -3q-18 1 -13 22q4 19 29 38q29 22 58 22q20 0 29.5 -10.5t4.5 -27.5q-9 -29 -67 -65q-36 -21 -68 -29zM356 300q11 0 6 -7q-4 -6 -23 -25q-146 -144 -283 -302q-10 -12 -16 -8q-3 3 7 15
q142 169 266 300q25 27 43 27zM159 236v1q-8 -5 -40 -24q-6 -3 -12 -4t-9.5 -1t-4.5 2q0 1 3 3q11 4 26 12q28 14 52 30q19 11 25 11q5 1 5 -2q-1 -5 -6 -11q-43 -53 -94 -123q-12 -16 -19 -20t-27 -8q-10 -2 -10 2t12 20q80 103 99 112z" />
    <glyph glyph-name="threequarters" unicode="&#xbe;" horiz-adv-x="420" 
d="M214 52q0 3 12 11q22 14 66 41q32 20 65 38q27 15 41 15q6 0 3 -5q-16 -21 -38.5 -51l-28.5 -38l24 -3q4 -1 6.5 -2t3.5 -2.5t1 -2.5t-13 -1h-28q-11 -12 -34 -47q-7 -10 -31 -14q-10 -1 -10.5 1.5t7.5 15.5q9 14 32 44q-22 0 -46 -2q-8 0 -26 -2q-6 -3 -6 4zM363 135
l-1 1q-27 -15 -65 -38q-8 -5 -59 -38v-1q34 4 61 4q49 60 64 72zM387 300q11 0 6 -7q-4 -6 -23 -25q-136 -133 -283 -302q-11 -11 -16 -8q-3 3 7 15q142 169 266 300l4 4t4 4.5t3.5 4t4 3.5t4 3t4 3t4 2t4.5 1.5t5 1t6 0.5zM148 196v-1q14 0 21 -6q14 -11 6 -31
q-7 -25 -39 -42q-30 -15 -60 -15q-44 2 -40 30q2 11 11 19t19 8q9 0 13.5 -4t3.5 -10q-1 -5 -11 -13q-8 -4 -11 -11q-1 -5 3.5 -8t12.5 -3q41 2 65 50q13 28 -3 29q-3 0 -15 -5q-8 -3 -9 -1t2.5 5t8.5 5q55 23 55 48q0 12 -15 12q-12 0 -29 -10q-12 -7 -16 -18
q-2 -10 -1 -12q0 -1 1 -4v-1v-1q-5 0 -8 4q-3 7 -1 15q5 16 25 27q23 14 48 14q12 0 20 -5.5t8 -13.5q0 -20 -22 -33q-17 -11 -43 -18z" />
    <glyph glyph-name="questiondown" unicode="&#xbf;" horiz-adv-x="239" 
d="M-39 -175q-29 0 -41.5 19.5t-2.5 46.5q21 59 117 104q42 20 62 33q30 17 35 32q1 2 4 11t6.5 14t8.5 5q5 -1 3.5 -9.5t-5.5 -15.5q-16 -32 -55 -55q-106 -64 -129 -123q-7 -17 -0.5 -29t21.5 -13q36 -2 70 24q23 18 34.5 41.5t3.5 38.5q-2 3 -6 6q-2 2 -2 3q3 3 11 1
q25 -5 16 -38q-9 -29 -51 -60q-49 -36 -100 -36zM155 118q-12 0 -15.5 7.5t5.5 18.5q8 11 23 19t24 8q10 -13 1 -34q-8 -19 -38 -19z" />
    <glyph glyph-name="Agrave" unicode="&#xc0;" horiz-adv-x="687" 
d="M21 56q0 26 15.5 43t36.5 19q17 1 27.5 -8t9.5 -23q0 -17 -23 -33q-19 -13 -18 -25q0 -17 26 -27t72 -6q94 8 208 87q-19 17 -37 48t-18 65q1 46 33.5 76t85.5 29q36 -1 64.5 -24t39.5 -48q18 18 42 40q97 87 155 119q69 38 120 38q22 0 35 -10q12 -10 7 -14q-1 0 -11 7
q-8 6 -22 6q-15 0 -33 -10q-32 -26 -80 -95q-95 -131 -187 -282q26 2 57 17q22 11 56 43q14 14 17 11t-11 -17q-35 -33 -59 -45q-33 -17 -65 -19q-20 -21 -39 -25q-13 -3 -19.5 -0.5t-5.5 7t2 7.5q6 13 8 15q-33 4 -66 18q-36 14 -59 35q-119 -84 -221 -92q-61 -5 -102 14
t-41 59zM558 98h1q51 83 120 172q82 107 161 145v1q-36 -3 -95 -35q-53 -29 -134 -102q-10 -10 -31.5 -30.5t-31.5 -30.5q10 -22 13 -64q2 -29 -3 -56zM398 85v-1q15 -17 52 -34q36 -16 65 -19q5 8 17 26.5t13 21.5q10 19 6 74q-3 35 -12 57q-36 -33 -69 -63q-10 -8 -35 -30
t-37 -32zM440 285q-38 0 -59.5 -27t-23.5 -65q-1 -28 9.5 -55.5t23.5 -43.5q6 5 20.5 17t27.5 23t25 22q36 31 71 65q-35 64 -94 64zM792 535q6 0 13 -6q41 -35 90 -69q9 -4 6 -8q-2 -3 -12 0q-70 24 -96 42q-21 11 -11 33q5 8 10 8z" />
    <glyph glyph-name="Aacute" unicode="&#xc1;" horiz-adv-x="687" 
d="M21 56q0 26 15.5 43t36.5 19q17 1 27.5 -8t9.5 -23q0 -17 -23 -33q-19 -13 -18 -25q0 -17 26 -27t72 -6q94 8 208 87q-19 17 -37 48t-18 65q1 46 33.5 76t85.5 29q36 -1 64.5 -24t39.5 -48q18 18 42 40q97 87 155 119q69 38 120 38q22 0 35 -10q12 -10 7 -14q-1 0 -11 7
q-8 6 -22 6q-15 0 -33 -10q-32 -26 -80 -95q-95 -131 -187 -282q26 2 57 17q22 11 56 43q14 14 17 11t-11 -17q-35 -33 -59 -45q-33 -17 -65 -19q-20 -21 -39 -25q-13 -3 -19.5 -0.5t-5.5 7t2 7.5q6 13 8 15q-33 4 -66 18q-36 14 -59 35q-119 -84 -221 -92q-61 -5 -102 14
t-41 59zM558 98h1q51 83 120 172q82 107 161 145v1q-36 -3 -95 -35q-53 -29 -134 -102q-10 -10 -31.5 -30.5t-31.5 -30.5q10 -22 13 -64q2 -29 -3 -56zM398 85v-1q15 -17 52 -34q36 -16 65 -19q5 8 17 26.5t13 21.5q10 19 6 74q-3 35 -12 57q-36 -33 -69 -63q-10 -8 -35 -30
t-37 -32zM440 285q-38 0 -59.5 -27t-23.5 -65q-1 -28 9.5 -55.5t23.5 -43.5q6 5 20.5 17t27.5 23t25 22q36 31 71 65q-35 64 -94 64zM916 528q8 0 10 -11q3 -17 -21 -30q-42 -20 -118 -37q-11 -4 -12 0q-1 3 8 8q48 20 120 66q7 4 13 4z" />
    <glyph glyph-name="Acircumflex" unicode="&#xc2;" horiz-adv-x="687" 
d="M21 56q0 26 15.5 43t36.5 19q17 1 27.5 -8t9.5 -23q0 -17 -23 -33q-19 -13 -18 -25q0 -17 26 -27t72 -6q94 8 208 87q-19 17 -37 48t-18 65q1 46 33.5 76t85.5 29q36 -1 64.5 -24t39.5 -48q18 18 42 40q97 87 155 119q69 38 120 38q22 0 35 -10q12 -10 7 -14q-1 0 -11 7
q-8 6 -22 6q-15 0 -33 -10q-32 -26 -80 -95q-95 -131 -187 -282q26 2 57 17q22 11 56 43q14 14 17 11t-11 -17q-35 -33 -59 -45q-33 -17 -65 -19q-20 -21 -39 -25q-13 -3 -19.5 -0.5t-5.5 7t2 7.5q6 13 8 15q-33 4 -66 18q-36 14 -59 35q-119 -84 -221 -92q-61 -5 -102 14
t-41 59zM558 98h1q51 83 120 172q82 107 161 145v1q-36 -3 -95 -35q-53 -29 -134 -102q-10 -10 -31.5 -30.5t-31.5 -30.5q10 -22 13 -64q2 -29 -3 -56zM398 85v-1q15 -17 52 -34q36 -16 65 -19q5 8 17 26.5t13 21.5q10 19 6 74q-3 35 -12 57q-36 -33 -69 -63q-10 -8 -35 -30
t-37 -32zM440 285q-38 0 -59.5 -27t-23.5 -65q-1 -28 9.5 -55.5t23.5 -43.5q6 5 20.5 17t27.5 23t25 22q36 31 71 65q-35 64 -94 64zM859 522q2 0 6 -6q14 -33 34 -66q4 -6 3 -8q-3 -2 -12 3q-21 13 -43 36q-37 -19 -103 -41q-10 0 -11 1q-1 3 7 7q82 49 109 70q6 4 10 4z
" />
    <glyph glyph-name="Atilde" unicode="&#xc3;" horiz-adv-x="687" 
d="M21 56q0 26 15.5 43t36.5 19q17 1 27.5 -8t9.5 -23q0 -17 -23 -33q-19 -13 -18 -25q0 -17 26 -27t72 -6q94 8 208 87q-19 17 -37 48t-18 65q1 46 33.5 76t85.5 29q36 -1 64.5 -24t39.5 -48q18 18 42 40q97 87 155 119q69 38 120 38q22 0 35 -10q12 -10 7 -14q-1 0 -11 7
q-8 6 -22 6q-15 0 -33 -10q-32 -26 -80 -95q-95 -131 -187 -282q26 2 57 17q22 11 56 43q14 14 17 11t-11 -17q-35 -33 -59 -45q-33 -17 -65 -19q-20 -21 -39 -25q-13 -3 -19.5 -0.5t-5.5 7t2 7.5q6 13 8 15q-33 4 -66 18q-36 14 -59 35q-119 -84 -221 -92q-61 -5 -102 14
t-41 59zM558 98h1q51 83 120 172q82 107 161 145v1q-36 -3 -95 -35q-53 -29 -134 -102q-10 -10 -31.5 -30.5t-31.5 -30.5q10 -22 13 -64q2 -29 -3 -56zM398 85v-1q15 -17 52 -34q36 -16 65 -19q5 8 17 26.5t13 21.5q10 19 6 74q-3 35 -12 57q-36 -33 -69 -63q-10 -8 -35 -30
t-37 -32zM440 285q-38 0 -59.5 -27t-23.5 -65q-1 -28 9.5 -55.5t23.5 -43.5q6 5 20.5 17t27.5 23t25 22q36 31 71 65q-35 64 -94 64zM870 452q-13 0 -33 11t-31 12q-25 3 -41 -18q-4 -6 -7 -5q-1 0 -1.5 1.5t0.5 4t2 5.5q22 41 60 40q13 -1 32 -11.5t29 -11.5q22 -1 40 19
q5 7 8 5q3 -1 -1 -10q-23 -42 -57 -42z" />
    <glyph glyph-name="Adieresis" unicode="&#xc4;" horiz-adv-x="687" 
d="M21 56q0 26 15.5 43t36.5 19q17 1 27.5 -8t9.5 -23q0 -17 -23 -33q-19 -13 -18 -25q0 -17 26 -27t72 -6q94 8 208 87q-19 17 -37 48t-18 65q1 46 33.5 76t85.5 29q36 -1 64.5 -24t39.5 -48q18 18 42 40q97 87 155 119q69 38 120 38q22 0 35 -10q12 -10 7 -14q-1 0 -11 7
q-8 6 -22 6q-15 0 -33 -10q-32 -26 -80 -95q-95 -131 -187 -282q26 2 57 17q22 11 56 43q14 14 17 11t-11 -17q-35 -33 -59 -45q-33 -17 -65 -19q-20 -21 -39 -25q-13 -3 -19.5 -0.5t-5.5 7t2 7.5q6 13 8 15q-33 4 -66 18q-36 14 -59 35q-119 -84 -221 -92q-61 -5 -102 14
t-41 59zM558 98h1q51 83 120 172q82 107 161 145v1q-36 -3 -95 -35q-53 -29 -134 -102q-10 -10 -31.5 -30.5t-31.5 -30.5q10 -22 13 -64q2 -29 -3 -56zM398 85v-1q15 -17 52 -34q36 -16 65 -19q5 8 17 26.5t13 21.5q10 19 6 74q-3 35 -12 57q-36 -33 -69 -63q-10 -8 -35 -30
t-37 -32zM440 285q-38 0 -59.5 -27t-23.5 -65q-1 -28 9.5 -55.5t23.5 -43.5q6 5 20.5 17t27.5 23t25 22q36 31 71 65q-35 64 -94 64zM905 504q12 0 15.5 -7.5t-5.5 -18.5t-23.5 -18.5t-24.5 -7.5q-8 12 0 33q8 19 38 19zM794 504q12 0 15 -7.5t-5 -18.5q-8 -10 -23 -18
t-23 -8q-10 10 -1 33q8 19 37 19z" />
    <glyph glyph-name="Aring" unicode="&#xc5;" horiz-adv-x="687" 
d="M21 56q0 26 15.5 43t36.5 19q17 1 27.5 -8t9.5 -23q0 -17 -23 -33q-19 -13 -18 -25q0 -17 26 -27t72 -6q94 8 208 87q-19 17 -37 48t-18 65q1 46 33.5 76t85.5 29q36 -1 64.5 -24t39.5 -48q18 18 42 40q97 87 155 119q69 38 120 38q22 0 35 -10q12 -10 7 -14q-1 0 -11 7
q-8 6 -22 6q-15 0 -33 -10q-32 -26 -80 -95q-95 -131 -187 -282q26 2 57 17q22 11 56 43q14 14 17 11t-11 -17q-35 -33 -59 -45q-33 -17 -65 -19q-20 -21 -39 -25q-13 -3 -19.5 -0.5t-5.5 7t2 7.5q6 13 8 15q-33 4 -66 18q-36 14 -59 35q-119 -84 -221 -92q-61 -5 -102 14
t-41 59zM558 98h1q51 83 120 172q82 107 161 145v1q-36 -3 -95 -35q-53 -29 -134 -102q-10 -10 -31.5 -30.5t-31.5 -30.5q10 -22 13 -64q2 -29 -3 -56zM398 85v-1q15 -17 52 -34q36 -16 65 -19q5 8 17 26.5t13 21.5q10 19 6 74q-3 35 -12 57q-36 -33 -69 -63q-10 -8 -35 -30
t-37 -32zM440 285q-38 0 -59.5 -27t-23.5 -65q-1 -28 9.5 -55.5t23.5 -43.5q6 5 20.5 17t27.5 23t25 22q36 31 71 65q-35 64 -94 64zM893 492q0 -19 -13 -31.5t-31 -12.5q-19 0 -31 12.5t-12 31.5q0 18 12.5 31.5t30.5 13.5t31 -13.5t13 -31.5zM874 493q0 9 -7.5 16.5
t-17.5 7.5q-11 0 -17.5 -7t-6.5 -17q0 -25 24 -25q11 0 18 7t7 18z" />
    <glyph glyph-name="AE" unicode="&#xc6;" horiz-adv-x="912" 
d="M1103 352q0 -36 -45 -55.5t-103 -14.5q-41 4 -56 24q-5 5 -1 7q2 0 6 -5q18 -16 49 -18q50 -3 88.5 13t38.5 47q0 20 -21.5 36.5t-63.5 17.5q-34 2 -76 -20q-48 -24 -77 -53q-43 -46 -43 -94q26 5 49 3q56 -2 56 -25q0 -19 -55 -19q-58 0 -80 27q-116 -37 -139 -143
q-9 -44 11.5 -68t67.5 -24q64 0 135 46q30 21 57 48q6 9 11 6q4 -3 -4 -11q-26 -29 -64 -54q-72 -49 -144 -51q-51 -2 -87.5 16t-42.5 56q-27 -13 -70 -11q-76 4 -116 42q-115 -84 -220 -92q-61 -5 -102 14t-41 59q0 26 15.5 43t36.5 19q17 1 27.5 -8t9.5 -23q0 -17 -23 -33
q-19 -13 -18 -25q0 -17 26 -27t72 -6q96 9 207 87q-18 14 -36 46.5t-18 66.5q1 46 33.5 76t85.5 29q31 -1 59.5 -19.5t45.5 -47.5q37 35 60 51q83 69 150 101q69 31 139 31q20 0 40 -5q50 4 59 3q50 -1 80.5 -19.5t30.5 -43.5zM578 105h1q18 53 72 87q41 27 112 40
q-10 10 -5.5 43.5t28.5 61.5q22 26 60 44.5t71 24.5v1h-25q-66 0 -132 -32q-76 -38 -148 -98q-16 -13 -61 -56q27 -54 27 -116zM569 54v1q-2 15 2 30q-3 73 -28 129q-78 -74 -145 -129q33 -35 103 -41q37 -3 68 10zM885 217q0 11 -38 14q-33 0 -46 -2q3 -10 17 -16.5
t27 -7.5q40 -2 40 12zM440 285q-38 0 -59.5 -27t-23.5 -65q-1 -28 9.5 -55.5t23.5 -43.5q61 50 145 132q-35 59 -95 59z" />
    <glyph glyph-name="Ccedilla" unicode="&#xc7;" horiz-adv-x="388" 
d="M366 245q-98 0 -151 40q-57 -51 -93.5 -113.5t-36.5 -110.5q0 -81 86 -81q69 0 145 51q37 24 61 51q6 9 11 6t-3 -11q-30 -30 -66 -55q-82 -56 -150 -56h-29q-18 2 -27 4q-18 -15 -22 -22q6 2 11 2q22 0 35 -10t11 -27q-3 -18 -24 -30.5t-49 -11.5q-40 1 -57 25
q-8 11 -3 15q1 0 8 -7q24 -17 49 -16q14 0 26.5 7.5t14.5 19.5q2 10 -5 17t-21 6q-4 0 -8.5 -1.5l-6 -2t-3.5 0.5q-4 2 3 9q14 14 30 28q-73 19 -77 95q-3 60 44 125t119 118q-24 31 -24 63q0 41 30 67t72 26q36 0 69 -16.5t53 -45.5q28 8 54 8q55 2 89.5 -15.5t26.5 -59.5
q-8 -43 -67.5 -67.5t-124.5 -24.5zM367 255q55 0 100 24t53 60q7 34 -13.5 51t-61.5 15q-26 0 -52 -11q9 -16 11 -42q0 -12 -3 -12q-2 0 -5 9q-5 23 -18 41q-82 -31 -156 -98q50 -37 145 -37zM175 372q0 -28 22 -55q81 55 174 82q-49 54 -114 54q-34 0 -58 -22.5t-24 -58.5z
" />
    <glyph glyph-name="Egrave" unicode="&#xc8;" horiz-adv-x="387" 
d="M225 263q0 28 21 58q-43 33 -43 75q0 29 21 47.5t54 20.5q31 2 65 -13t57 -42q45 7 74 6q49 -2 76 -20t27 -43q0 -33 -44.5 -57t-105.5 -24q-86 0 -140 27q-11 -16 -15 -29q-6 -17 -3 -32q26 5 49 3q24 -1 39.5 -7t14.5 -18q0 -19 -55 -19q-59 0 -80 27q-47 -17 -91 -60
q-56 -53 -59 -110q-1 -34 21.5 -53.5t60.5 -19.5q68 0 146 51q37 24 61 51q6 9 11 6q6 -4 -4 -11q-26 -29 -64 -54q-77 -54 -151 -57q-66 -3 -104 20t-38 69q-1 56 56.5 105.5t150.5 70.5q-8 13 -8 32zM425 280q52 0 89.5 19.5t38.5 51.5q1 21 -17.5 37.5t-58.5 17.5
q-29 1 -68 -12q10 -20 13 -44q3 -26 -2 -26q-1 0 -2 4q0 8 -3 16q-5 19 -22 44q-39 -18 -73 -51q-15 -14 -28 -31q52 -26 133 -26zM379 404h1q-45 53 -105 50q-27 -2 -44.5 -17t-17.5 -41q0 -34 39 -67q9 12 18 20q42 37 109 55zM271 229v-1q3 -9 16.5 -15.5t29.5 -7.5
q34 -2 36 12q0 11 -36 14q-33 0 -46 -2zM433 535q5 0 13 -6q41 -35 90 -69q8 -4 6 -8q-2 -3 -12 0q-70 24 -96 42q-21 11 -11 33q5 8 10 8z" />
    <glyph glyph-name="Eacute" unicode="&#xc9;" horiz-adv-x="387" 
d="M225 263q0 28 21 58q-43 33 -43 75q0 29 21 47.5t54 20.5q31 2 65 -13t57 -42q45 7 74 6q49 -2 76 -20t27 -43q0 -33 -44.5 -57t-105.5 -24q-86 0 -140 27q-11 -16 -15 -29q-6 -17 -3 -32q26 5 49 3q24 -1 39.5 -7t14.5 -18q0 -19 -55 -19q-59 0 -80 27q-47 -17 -91 -60
q-56 -53 -59 -110q-1 -34 21.5 -53.5t60.5 -19.5q68 0 146 51q37 24 61 51q6 9 11 6q6 -4 -4 -11q-26 -29 -64 -54q-77 -54 -151 -57q-66 -3 -104 20t-38 69q-1 56 56.5 105.5t150.5 70.5q-8 13 -8 32zM425 280q52 0 89.5 19.5t38.5 51.5q1 21 -17.5 37.5t-58.5 17.5
q-29 1 -68 -12q10 -20 13 -44q3 -26 -2 -26q-1 0 -2 4q0 8 -3 16q-5 19 -22 44q-39 -18 -73 -51q-15 -14 -28 -31q52 -26 133 -26zM379 404h1q-45 53 -105 50q-27 -2 -44.5 -17t-17.5 -41q0 -34 39 -67q9 12 18 20q42 37 109 55zM271 229v-1q3 -9 16.5 -15.5t29.5 -7.5
q34 -2 36 12q0 11 -36 14q-33 0 -46 -2zM585 528q8 0 10 -11q3 -17 -21 -30q-42 -20 -118 -37q-11 -4 -12 0q-1 3 8 8q48 20 120 66q7 4 13 4z" />
    <glyph glyph-name="Ecircumflex" unicode="&#xca;" horiz-adv-x="387" 
d="M225 263q0 28 21 58q-43 33 -43 75q0 29 21 47.5t54 20.5q31 2 65 -13t57 -42q45 7 74 6q49 -2 76 -20t27 -43q0 -33 -44.5 -57t-105.5 -24q-86 0 -140 27q-11 -16 -15 -29q-6 -17 -3 -32q26 5 49 3q24 -1 39.5 -7t14.5 -18q0 -19 -55 -19q-59 0 -80 27q-47 -17 -91 -60
q-56 -53 -59 -110q-1 -34 21.5 -53.5t60.5 -19.5q68 0 146 51q37 24 61 51q6 9 11 6q6 -4 -4 -11q-26 -29 -64 -54q-77 -54 -151 -57q-66 -3 -104 20t-38 69q-1 56 56.5 105.5t150.5 70.5q-8 13 -8 32zM425 280q52 0 89.5 19.5t38.5 51.5q1 21 -17.5 37.5t-58.5 17.5
q-29 1 -68 -12q10 -20 13 -44q3 -26 -2 -26q-1 0 -2 4q0 8 -3 16q-5 19 -22 44q-39 -18 -73 -51q-15 -14 -28 -31q52 -26 133 -26zM379 404h1q-45 53 -105 50q-27 -2 -44.5 -17t-17.5 -41q0 -34 39 -67q9 12 18 20q42 37 109 55zM271 229v-1q3 -9 16.5 -15.5t29.5 -7.5
q34 -2 36 12q0 11 -36 14q-33 0 -46 -2zM531 522q2 0 6 -6q14 -33 34 -66q4 -6 3 -8q-3 -2 -12 3q-21 13 -43 36q-37 -19 -103 -41q-10 0 -11 1q-1 3 7 7q82 49 109 70q6 4 10 4z" />
    <glyph glyph-name="Edieresis" unicode="&#xcb;" horiz-adv-x="387" 
d="M225 263q0 28 21 58q-43 33 -43 75q0 29 21 47.5t54 20.5q31 2 65 -13t57 -42q45 7 74 6q49 -2 76 -20t27 -43q0 -33 -44.5 -57t-105.5 -24q-86 0 -140 27q-11 -16 -15 -29q-6 -17 -3 -32q26 5 49 3q24 -1 39.5 -7t14.5 -18q0 -19 -55 -19q-59 0 -80 27q-47 -17 -91 -60
q-56 -53 -59 -110q-1 -34 21.5 -53.5t60.5 -19.5q68 0 146 51q37 24 61 51q6 9 11 6q6 -4 -4 -11q-26 -29 -64 -54q-77 -54 -151 -57q-66 -3 -104 20t-38 69q-1 56 56.5 105.5t150.5 70.5q-8 13 -8 32zM425 280q52 0 89.5 19.5t38.5 51.5q1 21 -17.5 37.5t-58.5 17.5
q-29 1 -68 -12q10 -20 13 -44q3 -26 -2 -26q-1 0 -2 4q0 8 -3 16q-5 19 -22 44q-39 -18 -73 -51q-15 -14 -28 -31q52 -26 133 -26zM379 404h1q-45 53 -105 50q-27 -2 -44.5 -17t-17.5 -41q0 -34 39 -67q9 12 18 20q42 37 109 55zM271 229v-1q3 -9 16.5 -15.5t29.5 -7.5
q34 -2 36 12q0 11 -36 14q-33 0 -46 -2zM571 504q12 0 15.5 -7.5t-5.5 -18.5t-23.5 -18.5t-24.5 -7.5q-8 12 0 33q8 19 38 19zM460 504q12 0 15 -7.5t-5 -18.5q-8 -10 -23 -18t-23 -8q-10 10 -1 33q8 19 37 19z" />
    <glyph glyph-name="Igrave" unicode="&#xcc;" horiz-adv-x="440" 
d="M613 413v1q-13 -4 -44 -11.5t-39 -9.5q-96 -25 -147 -55q-25 -15 -45 -37.5t-20 -43.5q0 -12 8 -19t19 -7q13 0 27 9q9 6 10 5q2 -4 -5 -11q-17 -13 -35 -13q-22 0 -35 12t-13 30q0 51 87 95q44 22 147 45q86 20 92 23q16 7 20 6q6 -2 4.5 -8t-7.5 -8q-38 -16 -94 -91
q-12 -16 -42.5 -64.5t-45.5 -68.5q-164 -210 -351 -210q-50 0 -86 19t-36 59q0 22 15.5 41t40.5 19q16 0 25.5 -9.5t8.5 -25.5q-2 -16 -19 -30q-1 -1 -5 -4.5t-5.5 -5.5t-4 -5t-3.5 -7t-1 -8q0 -14 20 -23.5t47 -9.5q76 0 147.5 52t148.5 149q5 6 45.5 57.5t56.5 70.5
q25 29 57 55t57 37zM547 535q5 0 13 -6q41 -35 90 -69q8 -4 6 -8q-2 -3 -12 0q-70 24 -96 42q-21 11 -11 33q5 8 10 8z" />
    <glyph glyph-name="Iacute" unicode="&#xcd;" horiz-adv-x="440" 
d="M613 413v1q-13 -4 -44 -11.5t-39 -9.5q-96 -25 -147 -55q-25 -15 -45 -37.5t-20 -43.5q0 -12 8 -19t19 -7q13 0 27 9q9 6 10 5q2 -4 -5 -11q-17 -13 -35 -13q-22 0 -35 12t-13 30q0 51 87 95q44 22 147 45q86 20 92 23q16 7 20 6q6 -2 4.5 -8t-7.5 -8q-38 -16 -94 -91
q-12 -16 -42.5 -64.5t-45.5 -68.5q-164 -210 -351 -210q-50 0 -86 19t-36 59q0 22 15.5 41t40.5 19q16 0 25.5 -9.5t8.5 -25.5q-2 -16 -19 -30q-1 -1 -5 -4.5t-5.5 -5.5t-4 -5t-3.5 -7t-1 -8q0 -14 20 -23.5t47 -9.5q76 0 147.5 52t148.5 149q5 6 45.5 57.5t56.5 70.5
q25 29 57 55t57 37zM676 528q8 0 10 -11q3 -17 -21 -30q-42 -20 -118 -37q-11 -4 -12 0q-1 3 8 8q48 20 120 66q7 4 13 4z" />
    <glyph glyph-name="Icircumflex" unicode="&#xce;" horiz-adv-x="440" 
d="M613 413v1q-13 -4 -44 -11.5t-39 -9.5q-96 -25 -147 -55q-25 -15 -45 -37.5t-20 -43.5q0 -12 8 -19t19 -7q13 0 27 9q9 6 10 5q2 -4 -5 -11q-17 -13 -35 -13q-22 0 -35 12t-13 30q0 51 87 95q44 22 147 45q86 20 92 23q16 7 20 6q6 -2 4.5 -8t-7.5 -8q-38 -16 -94 -91
q-12 -16 -42.5 -64.5t-45.5 -68.5q-164 -210 -351 -210q-50 0 -86 19t-36 59q0 22 15.5 41t40.5 19q16 0 25.5 -9.5t8.5 -25.5q-2 -16 -19 -30q-1 -1 -5 -4.5t-5.5 -5.5t-4 -5t-3.5 -7t-1 -8q0 -14 20 -23.5t47 -9.5q76 0 147.5 52t148.5 149q5 6 45.5 57.5t56.5 70.5
q25 29 57 55t57 37zM635 522q2 0 6 -6q14 -33 34 -66q4 -6 3 -8q-3 -2 -12 3q-21 13 -43 36q-37 -19 -103 -41q-10 0 -11 1q-1 3 7 7q82 49 109 70q6 4 10 4z" />
    <glyph glyph-name="Idieresis" unicode="&#xcf;" horiz-adv-x="440" 
d="M613 413v1q-13 -4 -44 -11.5t-39 -9.5q-96 -25 -147 -55q-25 -15 -45 -37.5t-20 -43.5q0 -12 8 -19t19 -7q13 0 27 9q9 6 10 5q2 -4 -5 -11q-17 -13 -35 -13q-22 0 -35 12t-13 30q0 51 87 95q44 22 147 45q86 20 92 23q16 7 20 6q6 -2 4.5 -8t-7.5 -8q-38 -16 -94 -91
q-12 -16 -42.5 -64.5t-45.5 -68.5q-164 -210 -351 -210q-50 0 -86 19t-36 59q0 22 15.5 41t40.5 19q16 0 25.5 -9.5t8.5 -25.5q-2 -16 -19 -30q-1 -1 -5 -4.5t-5.5 -5.5t-4 -5t-3.5 -7t-1 -8q0 -14 20 -23.5t47 -9.5q76 0 147.5 52t148.5 149q5 6 45.5 57.5t56.5 70.5
q25 29 57 55t57 37zM653 504q12 0 15.5 -7.5t-5.5 -18.5t-23.5 -18.5t-24.5 -7.5q-8 12 0 33q8 19 38 19zM542 504q12 0 15 -7.5t-5 -18.5q-8 -10 -23 -18t-23 -8q-10 10 -1 33q8 19 37 19z" />
    <glyph glyph-name="Eth" unicode="&#xd0;" horiz-adv-x="673" 
d="M356 272q0 21 -12 33.5t-32 13.5q-38 1 -65 -26q-5 -5 -9 -11t-6 -7.5t-3 -1.5q-1 1 -0.5 3.5t4 8t8.5 11.5q30 35 74 32q24 -1 40 -16t16 -41q0 -58 -60 -108q-67 -55 -154 -51q-56 3 -86.5 27.5t-29.5 70.5q1 58 52 107.5t130 77t164 27.5q146 0 222 -67q34 23 65 35
q56 20 98 20q35 0 56 -15q14 -10 9 -15q-1 0 -2 0.5t-4 3.5t-8 6q-18 11 -51 11q-44 0 -93 -21q-39 -17 -60 -36q44 -48 45.5 -114t-34.5 -117q-40 -59 -119 -90t-161 -31q-92 0 -137 5q-56 -6 -99 -6q-132 0 -151 9q-7 4 -7 9q3 24 145 19q55 -2 134 -15q13 4 26.5 10.5
t23 12t23.5 18t20 17t21.5 22t18.5 21t20.5 24.5t18.5 23h-35q-16 0 -16 6q0 7 15 7h46q2 2 6 7t6 7q90 107 165 157q-32 33 -90 50.5t-117 17.5q-119 0 -211 -63.5t-93 -147.5q-1 -34 18.5 -55.5t56.5 -23.5q79 -4 141 51q57 52 57 98zM250 10v-1q56 -8 84 -8
q158 0 254 132q36 50 41 106t-24 94q-20 -19 -64 -80.5t-59 -80.5q40 0 65 -1q10 0 10 -4q0 -3 -10 -3q-30 -1 -73 -1q-53 -64 -105 -98t-119 -55z" />
    <glyph glyph-name="Ntilde" unicode="&#xd1;" horiz-adv-x="645" 
d="M-88 48q0 25 17.5 43.5t38.5 18.5q18 0 29 -10t10 -23q0 -18 -18 -33q-19 -19 -20 -27q-2 -15 15 -24t53 -9q61 0 137 31t144 84q143 109 217 249q7 14 19 32q23 30 40 31q9 1 11.5 -3t-1.5 -10q-15 -21 -23 -56q-6 -24 -14 -122q-8 -103 -28 -151h1q119 173 221 281
q116 123 195 123q29 0 45.5 -17.5t16.5 -38.5q0 -10 -3 -10l-5 10q-10 27 -57 27q-87 0 -185 -102q-15 -16 -31 -33t-33 -38.5t-29.5 -36.5t-32.5 -41.5t-29 -38.5t-30 -42.5t-26.5 -37.5t-28 -39.5t-23.5 -34.5q-14 -20 -24 -14q-11 6 -1 27q25 69 32 160q2 18 4 44t3 40.5
t3.5 30.5t6.5 27h-1q-29 -55 -85.5 -116.5t-118.5 -108.5q-72 -54 -148.5 -86t-139.5 -33q-51 -1 -87.5 17.5t-36.5 59.5zM763 452q-13 0 -33 11t-31 12q-25 3 -41 -18q-4 -6 -7 -5q-1 0 -1.5 1.5t0.5 4t2 5.5q22 41 60 40q13 -1 32 -11.5t29 -11.5q22 -1 40 19q5 7 8 5
q3 -1 -1 -10q-23 -42 -57 -42z" />
    <glyph glyph-name="Ograve" unicode="&#xd2;" horiz-adv-x="407" 
d="M136 52q0 -22 11 -38q1 -2 2 -3t1.5 -2t0.5 -2q-2 -3 -8 3q-15 12 -18 42q-7 78 66 170q54 67 119 108t109 36q45 -5 38 -72q-3 -31 -23.5 -77.5t-50.5 -83.5q-53 -65 -128.5 -107.5t-141.5 -40.5q-90 2 -100 81q-5 49 22 109t80 113q60 59 143 96.5t159 33.5
q31 -2 51.5 -15.5t22.5 -39.5q3 -26 -14 -49q-4 -4 -9 -7.5t-6 -0.5l8 12q14 21 10 44q-2 19 -20 30t-43 12q-61 2 -139 -44.5t-124 -98.5q-49 -56 -74 -116t-19 -101q8 -48 62 -50q103 -4 228 152q80 101 89 173q5 36 -23 36q-38 4 -97 -36.5t-110 -104.5q-74 -94 -74 -162
zM379 535q5 0 13 -6q41 -35 90 -69q8 -4 6 -8q-2 -3 -12 0q-70 24 -96 42q-21 11 -11 33q5 8 10 8z" />
    <glyph glyph-name="Oacute" unicode="&#xd3;" horiz-adv-x="407" 
d="M136 52q0 -22 11 -38q1 -2 2 -3t1.5 -2t0.5 -2q-2 -3 -8 3q-15 12 -18 42q-7 78 66 170q54 67 119 108t109 36q45 -5 38 -72q-3 -31 -23.5 -77.5t-50.5 -83.5q-53 -65 -128.5 -107.5t-141.5 -40.5q-90 2 -100 81q-5 49 22 109t80 113q60 59 143 96.5t159 33.5
q31 -2 51.5 -15.5t22.5 -39.5q3 -26 -14 -49q-4 -4 -9 -7.5t-6 -0.5l8 12q14 21 10 44q-2 19 -20 30t-43 12q-61 2 -139 -44.5t-124 -98.5q-49 -56 -74 -116t-19 -101q8 -48 62 -50q103 -4 228 152q80 101 89 173q5 36 -23 36q-38 4 -97 -36.5t-110 -104.5q-74 -94 -74 -162
zM500 528q8 0 10 -11q3 -17 -21 -30q-42 -20 -118 -37q-11 -4 -12 0q-1 3 8 8q48 20 120 66q7 4 13 4z" />
    <glyph glyph-name="Ocircumflex" unicode="&#xd4;" horiz-adv-x="407" 
d="M136 52q0 -22 11 -38q1 -2 2 -3t1.5 -2t0.5 -2q-2 -3 -8 3q-15 12 -18 42q-7 78 66 170q54 67 119 108t109 36q45 -5 38 -72q-3 -31 -23.5 -77.5t-50.5 -83.5q-53 -65 -128.5 -107.5t-141.5 -40.5q-90 2 -100 81q-5 49 22 109t80 113q60 59 143 96.5t159 33.5
q31 -2 51.5 -15.5t22.5 -39.5q3 -26 -14 -49q-4 -4 -9 -7.5t-6 -0.5l8 12q14 21 10 44q-2 19 -20 30t-43 12q-61 2 -139 -44.5t-124 -98.5q-49 -56 -74 -116t-19 -101q8 -48 62 -50q103 -4 228 152q80 101 89 173q5 36 -23 36q-38 4 -97 -36.5t-110 -104.5q-74 -94 -74 -162
zM438 522q2 0 6 -6q14 -33 34 -66q4 -6 3 -8q-3 -2 -12 3q-21 13 -43 36q-37 -19 -103 -41q-10 0 -11 1q-1 3 7 7q82 49 109 70q6 4 10 4z" />
    <glyph glyph-name="Otilde" unicode="&#xd5;" horiz-adv-x="407" 
d="M136 52q0 -22 11 -38q1 -2 2 -3t1.5 -2t0.5 -2q-2 -3 -8 3q-15 12 -18 42q-7 78 66 170q54 67 119 108t109 36q45 -5 38 -72q-3 -31 -23.5 -77.5t-50.5 -83.5q-53 -65 -128.5 -107.5t-141.5 -40.5q-90 2 -100 81q-5 49 22 109t80 113q60 59 143 96.5t159 33.5
q31 -2 51.5 -15.5t22.5 -39.5q3 -26 -14 -49q-4 -4 -9 -7.5t-6 -0.5l8 12q14 21 10 44q-2 19 -20 30t-43 12q-61 2 -139 -44.5t-124 -98.5q-49 -56 -74 -116t-19 -101q8 -48 62 -50q103 -4 228 152q80 101 89 173q5 36 -23 36q-38 4 -97 -36.5t-110 -104.5q-74 -94 -74 -162
zM459 452q-13 0 -33 11t-31 12q-25 3 -41 -18q-4 -6 -7 -5q-1 0 -1.5 1.5t0.5 4t2 5.5q22 41 60 40q13 -1 32 -11.5t29 -11.5q22 -1 40 19q5 7 8 5q3 -1 -1 -10q-23 -42 -57 -42z" />
    <glyph glyph-name="Odieresis" unicode="&#xd6;" horiz-adv-x="407" 
d="M136 52q0 -22 11 -38q1 -2 2 -3t1.5 -2t0.5 -2q-2 -3 -8 3q-15 12 -18 42q-7 78 66 170q54 67 119 108t109 36q45 -5 38 -72q-3 -31 -23.5 -77.5t-50.5 -83.5q-53 -65 -128.5 -107.5t-141.5 -40.5q-90 2 -100 81q-5 49 22 109t80 113q60 59 143 96.5t159 33.5
q31 -2 51.5 -15.5t22.5 -39.5q3 -26 -14 -49q-4 -4 -9 -7.5t-6 -0.5l8 12q14 21 10 44q-2 19 -20 30t-43 12q-61 2 -139 -44.5t-124 -98.5q-49 -56 -74 -116t-19 -101q8 -48 62 -50q103 -4 228 152q80 101 89 173q5 36 -23 36q-38 4 -97 -36.5t-110 -104.5q-74 -94 -74 -162
zM490 504q12 0 15.5 -7.5t-5.5 -18.5t-23.5 -18.5t-24.5 -7.5q-8 12 0 33q8 19 38 19zM379 504q12 0 15 -7.5t-5 -18.5q-8 -10 -23 -18t-23 -8q-10 10 -1 33q8 19 37 19z" />
    <glyph glyph-name="multiply" unicode="&#xd7;" horiz-adv-x="314" 
d="M174 140l1 1q87 66 99 76q3 2 8.5 5.5t7.5 5.5t7 4.5l7 3.5t6.5 2.5t7 1t7.5 -0.5q13 -1 12 -4q0 -5 -30 -26q-6 -5 -128 -88q2 -11 9.5 -41t10.5 -47q4 -16 0 -19q-4 -1 -6 2t-4 9l-11 32q-11 32 -18 51q-20 -14 -64.5 -44t-64.5 -43q-21 -12 -22 -9q-3 3 12 14
q5 3 133 99q-22 61 -27 79q-9 23 8 33q16 9 20 -11q2 -7 8 -36.5t11 -49.5z" />
    <glyph glyph-name="Oslash" unicode="&#xd8;" horiz-adv-x="407" 
d="M449 398l-356 -397q14 -7 30 -7q103 -4 228 152q75 95 89 172q2 11 -1 29q-1 6 -2.5 10.5t-2.5 6.5v3q2 1 6 -5t8 -17q9 -21 8 -51q-2 -31 -22.5 -77t-50.5 -84q-53 -64 -128.5 -107t-141.5 -41q-16 0 -31 4q-59 -61 -72 -74q-8 -8 -11 -5q-2 3 5 12l64 71q-49 17 -55 73
q-6 49 21.5 108t80.5 114q60 62 143.5 98t158.5 32q19 -2 25 -4q9 10 19 21.5t21.5 25t18.5 21.5q11 12 18 8q7 -5 -4 -16q-6 -7 -17.5 -20.5t-21 -24.5t-18.5 -21q31 -15 33 -45q3 -27 -16 -48q-2 -4 -7 -7t-6 -2v1l3 3q3 4 5 8q12 21 10 44q-4 26 -31 36zM82 8l351 395
q-8 2 -16 2q-61 3 -138.5 -44.5t-124.5 -99.5q-49 -56 -74 -116t-19 -101q4 -24 21 -36z" />
    <glyph glyph-name="Ugrave" unicode="&#xd9;" horiz-adv-x="552" 
d="M407 134h-1q-50 -51 -117.5 -97t-111.5 -46q-51 0 -44 46q3 29 31 66t97 115q98 108 110 153q6 21 -7.5 30.5t-35.5 9.5q-39 0 -86 -23t-88 -64q-80 -78 -80 -130q0 -40 36 -41q22 0 36 10q5 2 8 5.5t4.5 4.5t2.5 0q2 -1 -2 -6.5t-10 -9.5q-19 -13 -41 -13q-47 2 -50 49
q-3 33 18 73.5t59 75.5q42 39 96.5 58.5t96.5 19.5q37 0 59.5 -14.5t21.5 -42.5q-1 -48 -97 -157q-66 -73 -95 -111t-32 -61q-4 -20 14 -24q31 -4 110 54q75 55 147 140q98 112 183 178q57 43 81 40q13 -3 11 -16t-16 -29q-7 -9 -18.5 -18.5t-18.5 -15t-22 -16t-17 -12.5
q-68 -51 -91 -70q-8 -9 -32 -39q-28 -37 -39.5 -52.5t-32 -45t-28.5 -48.5t-8 -32q0 -17 20 -17q22 0 64 31q24 17 55 46q11 9 14 6q2 -3 -8 -13q-37 -34 -55 -47q-1 0 -8.5 -6t-12 -9t-14 -8.5t-17 -8.5t-17.5 -5.5t-19 -2.5q-47 0 -47 44q0 35 44 96zM574 277v-1
q18 15 58 44q36 26 67 53q31 34 19 41q-14 5 -54 -39q-53 -55 -90 -98zM493 523q5 0 13 -6q41 -35 90 -69q8 -4 6 -8q-2 -3 -12 0q-70 24 -96 42q-21 11 -11 33q5 8 10 8z" />
    <glyph glyph-name="Uacute" unicode="&#xda;" horiz-adv-x="552" 
d="M407 134h-1q-50 -51 -117.5 -97t-111.5 -46q-51 0 -44 46q3 29 31 66t97 115q98 108 110 153q6 21 -7.5 30.5t-35.5 9.5q-39 0 -86 -23t-88 -64q-80 -78 -80 -130q0 -40 36 -41q22 0 36 10q5 2 8 5.5t4.5 4.5t2.5 0q2 -1 -2 -6.5t-10 -9.5q-19 -13 -41 -13q-47 2 -50 49
q-3 33 18 73.5t59 75.5q42 39 96.5 58.5t96.5 19.5q37 0 59.5 -14.5t21.5 -42.5q-1 -48 -97 -157q-66 -73 -95 -111t-32 -61q-4 -20 14 -24q31 -4 110 54q75 55 147 140q98 112 183 178q57 43 81 40q13 -3 11 -16t-16 -29q-7 -9 -18.5 -18.5t-18.5 -15t-22 -16t-17 -12.5
q-68 -51 -91 -70q-8 -9 -32 -39q-28 -37 -39.5 -52.5t-32 -45t-28.5 -48.5t-8 -32q0 -17 20 -17q22 0 64 31q24 17 55 46q11 9 14 6q2 -3 -8 -13q-37 -34 -55 -47q-1 0 -8.5 -6t-12 -9t-14 -8.5t-17 -8.5t-17.5 -5.5t-19 -2.5q-47 0 -47 44q0 35 44 96zM574 277v-1
q18 15 58 44q36 26 67 53q31 34 19 41q-14 5 -54 -39q-53 -55 -90 -98zM620 516q8 0 10 -11q3 -17 -21 -30q-42 -20 -118 -37q-11 -4 -12 0q-1 3 8 8q48 20 120 66q7 4 13 4z" />
    <glyph glyph-name="Ucircumflex" unicode="&#xdb;" horiz-adv-x="552" 
d="M407 134h-1q-50 -51 -117.5 -97t-111.5 -46q-51 0 -44 46q3 29 31 66t97 115q98 108 110 153q6 21 -7.5 30.5t-35.5 9.5q-39 0 -86 -23t-88 -64q-80 -78 -80 -130q0 -40 36 -41q22 0 36 10q5 2 8 5.5t4.5 4.5t2.5 0q2 -1 -2 -6.5t-10 -9.5q-19 -13 -41 -13q-47 2 -50 49
q-3 33 18 73.5t59 75.5q42 39 96.5 58.5t96.5 19.5q37 0 59.5 -14.5t21.5 -42.5q-1 -48 -97 -157q-66 -73 -95 -111t-32 -61q-4 -20 14 -24q31 -4 110 54q75 55 147 140q98 112 183 178q57 43 81 40q13 -3 11 -16t-16 -29q-7 -9 -18.5 -18.5t-18.5 -15t-22 -16t-17 -12.5
q-68 -51 -91 -70q-8 -9 -32 -39q-28 -37 -39.5 -52.5t-32 -45t-28.5 -48.5t-8 -32q0 -17 20 -17q22 0 64 31q24 17 55 46q11 9 14 6q2 -3 -8 -13q-37 -34 -55 -47q-1 0 -8.5 -6t-12 -9t-14 -8.5t-17 -8.5t-17.5 -5.5t-19 -2.5q-47 0 -47 44q0 35 44 96zM574 277v-1
q18 15 58 44q36 26 67 53q31 34 19 41q-14 5 -54 -39q-53 -55 -90 -98zM570 522q2 0 6 -6q14 -33 34 -66q4 -6 3 -8q-3 -2 -12 3q-21 13 -43 36q-37 -19 -103 -41q-10 0 -11 1q-1 3 7 7q82 49 109 70q6 4 10 4z" />
    <glyph glyph-name="Udieresis" unicode="&#xdc;" horiz-adv-x="552" 
d="M407 134h-1q-50 -51 -117.5 -97t-111.5 -46q-51 0 -44 46q3 29 31 66t97 115q98 108 110 153q6 21 -7.5 30.5t-35.5 9.5q-39 0 -86 -23t-88 -64q-80 -78 -80 -130q0 -40 36 -41q22 0 36 10q5 2 8 5.5t4.5 4.5t2.5 0q2 -1 -2 -6.5t-10 -9.5q-19 -13 -41 -13q-47 2 -50 49
q-3 33 18 73.5t59 75.5q42 39 96.5 58.5t96.5 19.5q37 0 59.5 -14.5t21.5 -42.5q-1 -48 -97 -157q-66 -73 -95 -111t-32 -61q-4 -20 14 -24q31 -4 110 54q75 55 147 140q98 112 183 178q57 43 81 40q13 -3 11 -16t-16 -29q-7 -9 -18.5 -18.5t-18.5 -15t-22 -16t-17 -12.5
q-68 -51 -91 -70q-8 -9 -32 -39q-28 -37 -39.5 -52.5t-32 -45t-28.5 -48.5t-8 -32q0 -17 20 -17q22 0 64 31q24 17 55 46q11 9 14 6q2 -3 -8 -13q-37 -34 -55 -47q-1 0 -8.5 -6t-12 -9t-14 -8.5t-17 -8.5t-17.5 -5.5t-19 -2.5q-47 0 -47 44q0 35 44 96zM574 277v-1
q18 15 58 44q36 26 67 53q31 34 19 41q-14 5 -54 -39q-53 -55 -90 -98zM622 504q12 0 15.5 -7.5t-5.5 -18.5t-23.5 -18.5t-24.5 -7.5q-8 12 0 33q8 19 38 19zM511 504q12 0 15 -7.5t-5 -18.5q-8 -10 -23 -18t-23 -8q-10 10 -1 33q8 19 37 19z" />
    <glyph glyph-name="Yacute" unicode="&#xdd;" horiz-adv-x="499" 
d="M421 148v1q-54 -58 -126.5 -108t-117.5 -50q-51 0 -44 46q3 29 31 66t97 115q98 108 110 153q6 21 -7.5 30.5t-35.5 9.5q-39 0 -86 -23t-88 -64q-80 -78 -80 -130q0 -40 36 -41q22 0 36 10l6 4t4 3.5t2.5 2.5t2.5 0q2 -1 -2 -6.5t-10 -9.5q-20 -14 -42 -13q-46 2 -49 49
q-2 34 19 75t58 74q42 38 96.5 58t96.5 20q37 0 59.5 -14.5t21.5 -42.5q-1 -48 -97 -157q-66 -73 -95 -111t-32 -61q-4 -20 14 -24q31 -4 110 54q78 57 147 139q107 129 157 178q45 45 74 42q14 -1 14.5 -15.5t-11.5 -29.5q-17 -24 -66 -63q-51 -40 -81 -70
q-68 -92 -130 -178q-15 -21 -33.5 -47.5t-31 -44l-22.5 -31.5q76 2 116 -31t32 -90q-1 -8 -4.5 -14.5t-6.5 -5.5q-1 0 -1 0.5t0.5 2t1 3.5t1 5.5t1.5 7.5q6 54 -33 85t-113 27q-39 -56 -107 -136q-59 -69 -126.5 -115.5t-109.5 -46.5q-17 0 -30.5 9.5t-11.5 32.5
q3 39 51 90.5t97 84.5q95 64 192 84q26 37 78.5 113t67.5 98zM566 278v-1q32 29 51 43q39 30 58 54q27 34 13 39t-48 -38q-18 -21 -74 -97zM269 -74v1q-87 -21 -178 -83q-44 -30 -86 -82t-41 -86q1 -25 21 -25q23 -4 62 19q58 36 128 129q12 17 44.5 60.5t49.5 66.5z
M617 528q8 0 10 -11q3 -17 -21 -30q-42 -20 -118 -37q-11 -4 -12 0q-1 3 8 8q48 20 120 66q7 4 13 4z" />
    <glyph glyph-name="Thorn" unicode="&#xde;" horiz-adv-x="586" 
d="M210 96v1q-101 -61 -164 -111q-81 -62 -80 -88q0 -12 15 -12q33 2 85.5 48t143.5 162zM479 360v-1q48 13 71 21q80 31 82 57q1 11 -5.5 16.5t-19.5 5.5q-35 -3 -82 -50q-6 -5 -13.5 -13t-17 -19t-15.5 -17zM368 224v-1q37 31 58 47t51 32t51 16q23 0 38.5 -14.5
t15.5 -44.5q0 -45 -46 -101q-53 -67 -132 -108t-129 -35q-14 2 -24 6.5t-13 8.5t-1 7q1 1 4 -1.5t12 -6.5t21 -5q41 -4 106.5 40t115.5 109q21 27 33.5 50t14.5 37.5t-1.5 24.5t-11 14.5t-17.5 4.5q-22 0 -69.5 -32.5t-97.5 -77.5q-3 -4 -20 -25t-21 -26t-19.5 -24
t-21 -25.5t-19.5 -23t-22 -25t-21 -22.5t-23 -23.5t-22.5 -21t-24.5 -22.5q-89 -79 -149 -82q-14 -1 -22.5 5t-7.5 19q-1 27 85 96q82 64 185 123q4 5 28 36.5t38 48.5q66 81 120 132v1q-52 -9 -87 -9q-53 -1 -87 12.5t-33 44.5q0 22 20 38t46 21q33 6 33 -2q0 -1 -3.5 -1
t-11.5 -1t-16 -3q-44 -16 -43 -53q3 -49 94 -47q26 0 99 11q32 35 75 67q67 52 112 54q16 1 26 -7.5t9 -22.5q-2 -32 -93 -66q-27 -10 -81 -24q-57 -65 -101 -123z" />
    <glyph glyph-name="germandbls" unicode="&#xdf;" horiz-adv-x="336" 
d="M229 21v-1q20 8 56 31q28 19 54 42q9 9 13 6q2 -3 -8 -13q-28 -25 -54 -43q-27 -18 -64 -34q-38 -18 -87 -18q-32 0 -45.5 18t-8.5 41q4 24 20 38.5t34 12.5q18 -3 14 -21q-1 -13 -21 -25q-21 -13 -22 -29q-1 -11 6.5 -18t20.5 -7q38 0 66 49q11 19 15.5 47t-1.5 51
q-1 5 -6.5 21t-7 23t0 19t7.5 22q6 9 24 17t45 18.5t46 22.5q60 38 68 83q2 14 -4.5 22.5t-17.5 9.5q-51 5 -120 -75q-12 -13 -29.5 -37.5t-43.5 -62.5t-38 -55q-104 -147 -136 -188q-44 -56 -100 -100.5t-107 -45.5q-35 -1 -54 9.5t-20 22.5q-1 11 6 19t19 8q4 0 7.5 -1.5
t6.5 -5t4.5 -6t4 -7.5l3.5 -7q14 -22 26 -22q36 0 71 30.5t91 108.5q20 27 56 82t38 58v1q-33 -28 -52 -47q-8 -7 -11 -3q-2 2 7 11q5 4 34 30t45 41q79 110 100 134q59 67 109.5 94t84.5 23q26 -3 36 -22.5t2 -44.5q-12 -38 -65 -65q-18 -10 -49 -20.5t-52 -18.5t-27 -17
q-5 -7 -5 -14.5t3.5 -16t7.5 -15.5t10.5 -17t9.5 -16q28 -55 15 -88q-10 -25 -31 -39z" />
    <glyph glyph-name="agrave" unicode="&#xe0;" horiz-adv-x="288" 
d="M196 133h1q35 38 56 38q15 1 18 -3t-3 -13q-57 -66 -58 -67q-27 -34 -36 -48q-11 -16 -2 -23q6 -5 23 4q16 7 45 31q26 21 48 41q11 9 13 7q3 -3 -8 -14q-30 -30 -60 -52q-50 -40 -86 -40q-27 0 -29 21q-2 17 14 36h-1q-62 -54 -110 -57q-19 -1 -31.5 8t-9.5 32
q2 23 28 54h-1l-9 -9q-11 -8 -13 -6q-2 3 7 12q3 3 33 27q44 28 50 31q66 35 100 28q14 -2 20 -13.5t1 -24.5zM171 161q-28 0 -90 -62q-60 -60 -58 -80q1 -10 13 -10q14 0 38.5 14t45.5 33q25 22 46.5 48.5t22.5 38.5q1 18 -18 18zM156 312q8 0 12 -10q19 -44 50 -86
q4 -8 2 -9q-1 -1 -10 4q-55 46 -66 67q-5 7 -5 15q0 7 5.5 13t11.5 6z" />
    <glyph glyph-name="aacute" unicode="&#xe1;" horiz-adv-x="288" 
d="M196 133h1q35 38 56 38q15 1 18 -3t-3 -13q-57 -66 -58 -67q-27 -34 -36 -48q-11 -16 -2 -23q6 -5 23 4q16 7 45 31q26 21 48 41q11 9 13 7q3 -3 -8 -14q-30 -30 -60 -52q-50 -40 -86 -40q-27 0 -29 21q-2 17 14 36h-1q-62 -54 -110 -57q-19 -1 -31.5 8t-9.5 32
q2 23 28 54h-1l-9 -9q-11 -8 -13 -6q-2 3 7 12q3 3 33 27q44 28 50 31q66 35 100 28q14 -2 20 -13.5t1 -24.5zM171 161q-28 0 -90 -62q-60 -60 -58 -80q1 -10 13 -10q14 0 38.5 14t45.5 33q25 22 46.5 48.5t22.5 38.5q1 18 -18 18zM263 304q6 0 8 -5q10 -16 -7 -33
q-25 -25 -83 -57q-10 -5 -12 -3q-1 1 0 3t3 4t2 3q35 31 75 79q7 9 14 9z" />
    <glyph glyph-name="acircumflex" unicode="&#xe2;" horiz-adv-x="288" 
d="M196 133h1q35 38 56 38q15 1 18 -3t-3 -13q-57 -66 -58 -67q-27 -34 -36 -48q-11 -16 -2 -23q6 -5 23 4q16 7 45 31q26 21 48 41q11 9 13 7q3 -3 -8 -14q-30 -30 -60 -52q-50 -40 -86 -40q-27 0 -29 21q-2 17 14 36h-1q-62 -54 -110 -57q-19 -1 -31.5 8t-9.5 32
q2 23 28 54h-1l-9 -9q-11 -8 -13 -6q-2 3 7 12q3 3 33 27q44 28 50 31q66 35 100 28q14 -2 20 -13.5t1 -24.5zM171 161q-28 0 -90 -62q-60 -60 -58 -80q1 -10 13 -10q14 0 38.5 14t45.5 33q25 22 46.5 48.5t22.5 38.5q1 18 -18 18zM232 281q2 0 6 -7q19 -41 34 -66
q3 -6 2 -7q-2 -3 -11 3q-25 17 -43 42q-55 -32 -105 -47q-1 -1 -4.5 -1t-4.5 2t7 6q75 45 109 70q5 5 10 5z" />
    <glyph glyph-name="atilde" unicode="&#xe3;" horiz-adv-x="288" 
d="M196 133h1q35 38 56 38q15 1 18 -3t-3 -13q-57 -66 -58 -67q-27 -34 -36 -48q-11 -16 -2 -23q6 -5 23 4q16 7 45 31q26 21 48 41q11 9 13 7q3 -3 -8 -14q-30 -30 -60 -52q-50 -40 -86 -40q-27 0 -29 21q-2 17 14 36h-1q-62 -54 -110 -57q-19 -1 -31.5 8t-9.5 32
q2 23 28 54h-1l-9 -9q-11 -8 -13 -6q-2 3 7 12q3 3 33 27q44 28 50 31q66 35 100 28q14 -2 20 -13.5t1 -24.5zM171 161q-28 0 -90 -62q-60 -60 -58 -80q1 -10 13 -10q14 0 38.5 14t45.5 33q25 22 46.5 48.5t22.5 38.5q1 18 -18 18zM227 211q-13 0 -32.5 13t-30.5 14
q-19 2 -40 -22q-5 -7 -8 -6t1 12q24 41 60 40q13 -1 31 -14t30 -14q20 -1 40 24q6 6 8 5q3 -1 -1 -11q-22 -41 -58 -41z" />
    <glyph glyph-name="adieresis" unicode="&#xe4;" horiz-adv-x="288" 
d="M196 133h1q35 38 56 38q15 1 18 -3t-3 -13q-57 -66 -58 -67q-27 -34 -36 -48q-11 -16 -2 -23q6 -5 23 4q16 7 45 31q26 21 48 41q11 9 13 7q3 -3 -8 -14q-30 -30 -60 -52q-50 -40 -86 -40q-27 0 -29 21q-2 17 14 36h-1q-62 -54 -110 -57q-19 -1 -31.5 8t-9.5 32
q2 23 28 54h-1l-9 -9q-11 -8 -13 -6q-2 3 7 12q3 3 33 27q44 28 50 31q66 35 100 28q14 -2 20 -13.5t1 -24.5zM171 161q-28 0 -90 -62q-60 -60 -58 -80q1 -10 13 -10q14 0 38.5 14t45.5 33q25 22 46.5 48.5t22.5 38.5q1 18 -18 18zM278 258q11 0 13.5 -6.5t-5.5 -16.5
q-18 -24 -43 -24q-7 9 0 30q6 17 35 17zM177 258q11 0 13.5 -6.5t-4.5 -16.5q-18 -24 -43 -24q-7 9 0 30q7 17 34 17z" />
    <glyph glyph-name="aring" unicode="&#xe5;" horiz-adv-x="288" 
d="M196 133h1q35 38 56 38q15 1 18 -3t-3 -13q-57 -66 -58 -67q-27 -34 -36 -48q-11 -16 -2 -23q6 -5 23 4q16 7 45 31q26 21 48 41q11 9 13 7q3 -3 -8 -14q-30 -30 -60 -52q-50 -40 -86 -40q-27 0 -29 21q-2 17 14 36h-1q-62 -54 -110 -57q-19 -1 -31.5 8t-9.5 32
q2 23 28 54h-1l-9 -9q-11 -8 -13 -6q-2 3 7 12q3 3 33 27q44 28 50 31q66 35 100 28q14 -2 20 -13.5t1 -24.5zM171 161q-28 0 -90 -62q-60 -60 -58 -80q1 -10 13 -10q14 0 38.5 14t45.5 33q25 22 46.5 48.5t22.5 38.5q1 18 -18 18zM252 250q0 -19 -13 -31.5t-31 -12.5
q-19 0 -31.5 12.5t-12.5 31.5q0 18 13 31.5t31 13.5t31 -13.5t13 -31.5zM234 251q0 11 -7.5 19t-18.5 8q-12 0 -19 -8t-7 -19t7 -18.5t19 -7.5q11 0 18.5 7.5t7.5 18.5z" />
    <glyph glyph-name="ae" unicode="&#xe6;" horiz-adv-x="355" 
d="M189 63v-1q37 11 69 31q17 11 28.5 26.5t12.5 25.5q3 13 -12 13q-19 -2 -50 -33q-30 -31 -48 -62zM250 150v-1q30 22 55 22q15 0 23 -8.5t7 -17.5q-2 -30 -64 -61q-36 -17 -87 -32q-4 -8 -6 -22q-1 -10 5.5 -16.5t17.5 -6.5q33 -2 91 36q32 21 64 51q10 10 13 6
q3 -3 -8 -14q-29 -29 -63 -52q-62 -43 -117 -43q-27 0 -40 11t-12 30q2 15 7 23h-1q-21 -20 -54 -40t-60 -21q-19 -1 -31.5 8t-9.5 32q2 23 28 54h-1l-9 -9q-11 -8 -13 -6q-2 3 7 12q3 3 33 27q44 28 50 31q47 25 100 27q7 0 15 -0.5t13 -2t5 -2.5q0 -3 -4.5 -4t-15 -2.5
t-16.5 -2.5q-45 -11 -91 -57q-60 -60 -58 -80q1 -10 13 -10q30 0 83 47q24 22 49 47.5t40.5 41.5t23.5 22q18 13 29 13q10 2 12 -0.5t-4 -9.5q-7 -10 -19 -20z" />
    <glyph glyph-name="ccedilla" unicode="&#xe7;" horiz-adv-x="213" 
d="M160 99q-12 0 -14 8.5t5 19.5q19 30 4 35q-17 3 -62 -43q-51 -51 -56 -89q-3 -23 23 -23q38 0 91 36q38 26 56 44q11 9 14 6q5 -3 -8 -13q-24 -24 -57 -46q-63 -43 -116 -43h-7q-6 -4 -27 -25q4 0 6 1h6q22 0 35 -10t11 -27q-3 -18 -24 -30t-50 -11q-42 3 -57 24
q-7 12 -2 15q1 1 3 -2t5 -5q24 -19 51 -19q17 0 30 9t14 22q1 11 -7.5 17.5t-24.5 5.5q-5 0 -8.5 -1.5t-4.5 -2t-2.5 -1t-2.5 0.5q-2 3 4 9q15 17 33 32q-38 6 -35 40q3 30 29 61h-1q-10 -10 -16 -15q-11 -8 -13 -6q-2 3 7 12q3 3 33 27q44 28 50 31q62 33 93 28
q33 -4 26 -38q-2 -13 -13 -23.5t-21 -10.5z" />
    <glyph glyph-name="egrave" unicode="&#xe8;" horiz-adv-x="212" 
d="M162 171q15 0 23 -8.5t7 -17.5q-2 -30 -64 -61q-33 -17 -87 -32q-4 -8 -6 -22q-1 -10 5.5 -16.5t17.5 -6.5q33 -2 91 36q37 24 64 51q9 10 13 6q3 -3 -8 -14q-29 -29 -63 -52q-62 -43 -117 -43q-27 0 -42 11t-13 30q1 25 24 55h-1l-8 -8q-11 -8 -13 -6q-2 3 7 12
q3 3 33 27q2 1 19.5 12.5t28.5 17.5q56 29 89 29zM46 63v-1q41 12 69 31q39 27 41 52q3 13 -12 13q-16 -2 -44 -27q-30 -28 -54 -68zM122 309q8 0 12 -10q19 -44 50 -86q4 -8 2 -9q-1 -1 -10 4q-55 46 -66 67q-5 7 -5 15q0 7 5.5 13t11.5 6z" />
    <glyph glyph-name="eacute" unicode="&#xe9;" horiz-adv-x="212" 
d="M162 171q15 0 23 -8.5t7 -17.5q-2 -30 -64 -61q-33 -17 -87 -32q-4 -8 -6 -22q-1 -10 5.5 -16.5t17.5 -6.5q33 -2 91 36q37 24 64 51q9 10 13 6q3 -3 -8 -14q-29 -29 -63 -52q-62 -43 -117 -43q-27 0 -42 11t-13 30q1 25 24 55h-1l-8 -8q-11 -8 -13 -6q-2 3 7 12
q3 3 33 27q2 1 19.5 12.5t28.5 17.5q56 29 89 29zM46 63v-1q41 12 69 31q39 27 41 52q3 13 -12 13q-16 -2 -44 -27q-30 -28 -54 -68zM220 304q6 0 8 -5q10 -16 -7 -33q-25 -25 -83 -57q-10 -5 -12 -3q-1 1 0 3t3 4t2 3q35 31 75 79q7 9 14 9z" />
    <glyph glyph-name="ecircumflex" unicode="&#xea;" horiz-adv-x="212" 
d="M162 171q15 0 23 -8.5t7 -17.5q-2 -30 -64 -61q-33 -17 -87 -32q-4 -8 -6 -22q-1 -10 5.5 -16.5t17.5 -6.5q33 -2 91 36q37 24 64 51q9 10 13 6q3 -3 -8 -14q-29 -29 -63 -52q-62 -43 -117 -43q-27 0 -42 11t-13 30q1 25 24 55h-1l-8 -8q-11 -8 -13 -6q-2 3 7 12
q3 3 33 27q2 1 19.5 12.5t28.5 17.5q56 29 89 29zM46 63v-1q41 12 69 31q39 27 41 52q3 13 -12 13q-16 -2 -44 -27q-30 -28 -54 -68zM195 281q3 0 6 -7q19 -41 34 -66q3 -6 2 -7q-2 -3 -11 3q-25 17 -43 42q-55 -32 -105 -47q-1 -1 -4.5 -1t-4.5 2t7 6q75 45 109 70
q5 5 10 5z" />
    <glyph glyph-name="edieresis" unicode="&#xeb;" horiz-adv-x="212" 
d="M162 171q15 0 23 -8.5t7 -17.5q-2 -30 -64 -61q-33 -17 -87 -32q-4 -8 -6 -22q-1 -10 5.5 -16.5t17.5 -6.5q33 -2 91 36q37 24 64 51q9 10 13 6q3 -3 -8 -14q-29 -29 -63 -52q-62 -43 -117 -43q-27 0 -42 11t-13 30q1 25 24 55h-1l-8 -8q-11 -8 -13 -6q-2 3 7 12
q3 3 33 27q2 1 19.5 12.5t28.5 17.5q56 29 89 29zM46 63v-1q41 12 69 31q39 27 41 52q3 13 -12 13q-16 -2 -44 -27q-30 -28 -54 -68zM233 258q11 0 13.5 -6.5t-5.5 -16.5q-18 -24 -43 -24q-8 9 0 30q6 17 35 17zM132 258q11 0 13.5 -6.5t-4.5 -16.5q-18 -24 -43 -24
q-8 9 0 30q7 17 34 17z" />
    <glyph glyph-name="igrave" unicode="&#xec;" horiz-adv-x="161" 
d="M20 -7q-15 0 -23 7t-7 19q0 15 15 38q30 46 76 87h-1q-13 -8 -40 -29q-41 -35 -44 -38q-8 -6 -10 -4q-3 2 5 12q51 45 77 62q32 22 58 21q16 1 18.5 -2t-7.5 -13q-8 -9 -16.5 -19t-19 -23t-17.5 -22q-26 -31 -36 -49q-9 -17 -3 -22q5 -6 24 3q17 8 44 31q37 30 48 41
q13 7 14 6q3 -3 -8 -13q-30 -30 -60 -52q-51 -41 -87 -41zM102 305q8 0 12 -10q19 -44 50 -86q4 -8 2 -9q-1 -1 -10 4q-55 46 -66 67q-5 7 -5 15q0 7 5.5 13t11.5 6z" />
    <glyph glyph-name="iacute" unicode="&#xed;" horiz-adv-x="161" 
d="M20 -7q-15 0 -23 7t-7 19q0 15 15 38q30 46 76 87h-1q-13 -8 -40 -29q-41 -35 -44 -38q-8 -6 -10 -4q-3 2 5 12q51 45 77 62q32 22 58 21q16 1 18.5 -2t-7.5 -13q-8 -9 -16.5 -19t-19 -23t-17.5 -22q-26 -31 -36 -49q-9 -17 -3 -22q5 -6 24 3q17 8 44 31q37 30 48 41
q13 7 14 6q3 -3 -8 -13q-30 -30 -60 -52q-51 -41 -87 -41zM202 304q6 0 8 -5q10 -16 -7 -33q-25 -25 -83 -57q-10 -5 -12 -3q-1 1 0 3t3 4t2 3q35 31 75 79q7 9 14 9z" />
    <glyph glyph-name="icircumflex" unicode="&#xee;" horiz-adv-x="161" 
d="M20 -7q-15 0 -23 7t-7 19q0 15 15 38q30 46 76 87h-1q-13 -8 -40 -29q-41 -35 -44 -38q-8 -6 -10 -4q-3 2 5 12q51 45 77 62q32 22 58 21q16 1 18.5 -2t-7.5 -13q-8 -9 -16.5 -19t-19 -23t-17.5 -22q-26 -31 -36 -49q-9 -17 -3 -22q5 -6 24 3q17 8 44 31q37 30 48 41
q13 7 14 6q3 -3 -8 -13q-30 -30 -60 -52q-51 -41 -87 -41zM171 281q3 0 6 -7q19 -41 34 -66q3 -6 2 -7q-2 -3 -11 3q-25 17 -43 42q-55 -32 -105 -47q-1 -1 -4.5 -1t-4.5 2t7 6q75 45 109 70q5 5 10 5z" />
    <glyph glyph-name="idieresis" unicode="&#xef;" horiz-adv-x="161" 
d="M20 -7q-15 0 -23 7t-7 19q0 15 15 38q30 46 76 87h-1q-13 -8 -40 -29q-41 -35 -44 -38q-8 -6 -10 -4q-3 2 5 12q51 45 77 62q32 22 58 21q16 1 18.5 -2t-7.5 -13q-8 -9 -16.5 -19t-19 -23t-17.5 -22q-26 -31 -36 -49q-9 -17 -3 -22q5 -6 24 3q17 8 44 31q37 30 48 41
q13 7 14 6q3 -3 -8 -13q-30 -30 -60 -52q-51 -41 -87 -41zM208 258q11 0 13.5 -6.5t-5.5 -16.5q-18 -24 -43 -24q-7 9 0 30q6 17 35 17zM107 258q11 0 13.5 -6.5t-4.5 -16.5q-18 -24 -43 -24q-7 9 0 30q7 17 34 17z" />
    <glyph glyph-name="eth" unicode="&#xf0;" horiz-adv-x="262" 
d="M196 132h1q12 17 25 51t14 61q0 14 -1 20q-21 -6 -88 -30q-9 -2 -11 0q-3 5 9 10q19 7 88 35q-7 32 -27.5 53t-50.5 22h-10t-6 -0.5t-2 0.5q-1 2 1 3.5t6.5 3t10.5 1.5q35 3 64 -17.5t44 -54.5q5 2 21.5 8t24.5 9q12 6 16 -3q1 -4 -3 -7t-10 -5q-37 -14 -44 -16
q5 -20 5 -37q0 -55 -34.5 -109.5t-70.5 -84.5q-69 -54 -125 -54q-22 0 -35.5 11.5t-13.5 31.5q0 33 30 67h-1q-11 -8 -25 -22q-11 -8 -13 -6q-2 3 7 12q5 5 16.5 14.5t15.5 13.5q23 16 63 36q16 9 42.5 17t44.5 5q13 -2 19 -14t3 -25zM52 2q40 0 92 60q13 14 27 40t14 41
q2 18 -16 18q-26 0 -81 -55q-19 -21 -35 -47t-17 -40q0 -17 16 -17z" />
    <glyph glyph-name="ntilde" unicode="&#xf1;" horiz-adv-x="352" 
d="M207 -6q-15 0 -23 7.5t-6 18.5q2 22 41 70q31 37 42 49q8 10 1 14q-5 3 -26 -6q-35 -18 -78 -51q-22 -17 -56 -45.5t-56 -45.5q-12 -9 -26 -9q-12 0 -15 3t2 13q18 34 44 67q18 23 41 52q11 12 6 17q-3 6 -15 -1q-15 -7 -39 -27q-29 -25 -46 -41q-10 -8 -13 -6q-4 4 7 12
q34 35 57 52q43 34 70 34q25 0 25 -23q0 -13 -21 -42q-37 -50 -43 -58l3 -1q68 56 86 70q73 54 109 54q34 0 31 -27q-2 -14 -40 -61q-25 -30 -33 -43q-11 -17 -4 -22q7 -6 24 3q15 6 48 31q17 13 49 42q10 8 13 5q2 -2 -9 -13q-42 -38 -61 -52q-52 -40 -89 -40zM268 211
q-13 0 -32.5 13t-30.5 14q-19 2 -40 -22q-5 -7 -8 -6t1 12q24 41 60 40q13 -1 31 -14t30 -14q20 -1 40 24q6 6 8 5q3 -1 -1 -11q-22 -41 -58 -41z" />
    <glyph glyph-name="ograve" unicode="&#xf2;" horiz-adv-x="248" 
d="M18 97v1q-13 -13 -20 -19q-11 -8 -13 -6q-2 3 7 12q3 3 33 27q41 26 50 31q45 25 84 28q12 2 15 -4q0 -1 -11 -6q-28 -13 -72 -55q-21 -21 -38.5 -47t-19.5 -41q-2 -17 14 -17t42.5 17.5t50.5 43.5q2 21 18 42q13 18 32 26q3 7 3 25q-3 14 -1 14q5 3 14 -6q15 -13 12 -35
q-4 -33 -57 -81q5 -2 19 0q15 2 34 17q8 5 20.5 16t14.5 13q10 10 12 6q3 -2 -8 -13q-19 -19 -35 -30q-18 -14 -38 -18q-5 -2 -14 -1.5t-13 3.5q-64 -49 -114 -49q-24 0 -37 11.5t-12 32.5q3 31 28 62zM156 309q8 0 12 -10q19 -44 50 -86q4 -8 2 -9q-1 -1 -10 4
q-55 46 -66 67q-5 7 -5 15q0 7 5.5 13t11.5 6z" />
    <glyph glyph-name="oacute" unicode="&#xf3;" horiz-adv-x="248" 
d="M18 97v1q-13 -13 -20 -19q-11 -8 -13 -6q-2 3 7 12q3 3 33 27q41 26 50 31q45 25 84 28q12 2 15 -4q0 -1 -11 -6q-28 -13 -72 -55q-21 -21 -38.5 -47t-19.5 -41q-2 -17 14 -17t42.5 17.5t50.5 43.5q2 21 18 42q13 18 32 26q3 7 3 25q-3 14 -1 14q5 3 14 -6q15 -13 12 -35
q-4 -33 -57 -81q5 -2 19 0q15 2 34 17q8 5 20.5 16t14.5 13q10 10 12 6q3 -2 -8 -13q-19 -19 -35 -30q-18 -14 -38 -18q-5 -2 -14 -1.5t-13 3.5q-64 -49 -114 -49q-24 0 -37 11.5t-12 32.5q3 31 28 62zM254 304q6 0 8 -5q10 -16 -7 -33q-25 -25 -83 -57q-10 -5 -12 -3
q-1 1 0 3t3 4t2 3q35 31 75 79q7 9 14 9z" />
    <glyph glyph-name="ocircumflex" unicode="&#xf4;" horiz-adv-x="248" 
d="M18 97v1q-13 -13 -20 -19q-11 -8 -13 -6q-2 3 7 12q3 3 33 27q41 26 50 31q45 25 84 28q12 2 15 -4q0 -1 -11 -6q-28 -13 -72 -55q-21 -21 -38.5 -47t-19.5 -41q-2 -17 14 -17t42.5 17.5t50.5 43.5q2 21 18 42q13 18 32 26q3 7 3 25q-3 14 -1 14q5 3 14 -6q15 -13 12 -35
q-4 -33 -57 -81q5 -2 19 0q15 2 34 17q8 5 20.5 16t14.5 13q10 10 12 6q3 -2 -8 -13q-19 -19 -35 -30q-18 -14 -38 -18q-5 -2 -14 -1.5t-13 3.5q-64 -49 -114 -49q-24 0 -37 11.5t-12 32.5q3 31 28 62zM215 281q3 0 6 -7q19 -41 34 -66q3 -6 2 -7q-2 -3 -11 3q-25 17 -43 42
q-55 -32 -105 -47q-1 -1 -4.5 -1t-4.5 2t7 6q75 45 109 70q5 5 10 5z" />
    <glyph glyph-name="otilde" unicode="&#xf5;" horiz-adv-x="248" 
d="M18 97v1q-13 -13 -20 -19q-11 -8 -13 -6q-2 3 7 12q3 3 33 27q41 26 50 31q45 25 84 28q12 2 15 -4q0 -1 -11 -6q-28 -13 -72 -55q-21 -21 -38.5 -47t-19.5 -41q-2 -17 14 -17t42.5 17.5t50.5 43.5q2 21 18 42q13 18 32 26q3 7 3 25q-3 14 -1 14q5 3 14 -6q15 -13 12 -35
q-4 -33 -57 -81q5 -2 19 0q15 2 34 17q8 5 20.5 16t14.5 13q10 10 12 6q3 -2 -8 -13q-19 -19 -35 -30q-18 -14 -38 -18q-5 -2 -14 -1.5t-13 3.5q-64 -49 -114 -49q-24 0 -37 11.5t-12 32.5q3 31 28 62zM219 211q-13 0 -32.5 13t-30.5 14q-19 2 -40 -22q-5 -7 -8 -6t1 12
q24 41 60 40q13 -1 31 -14t30 -14q20 -1 40 24q6 6 8 5q3 -1 -1 -11q-22 -41 -58 -41z" />
    <glyph glyph-name="odieresis" unicode="&#xf6;" horiz-adv-x="248" 
d="M18 97v1q-13 -13 -20 -19q-11 -8 -13 -6q-2 3 7 12q3 3 33 27q41 26 50 31q45 25 84 28q12 2 15 -4q0 -1 -11 -6q-28 -13 -72 -55q-21 -21 -38.5 -47t-19.5 -41q-2 -17 14 -17t42.5 17.5t50.5 43.5q2 21 18 42q13 18 32 26q3 7 3 25q-3 14 -1 14q5 3 14 -6q15 -13 12 -35
q-4 -33 -57 -81q5 -2 19 0q15 2 34 17q8 5 20.5 16t14.5 13q10 10 12 6q3 -2 -8 -13q-19 -19 -35 -30q-18 -14 -38 -18q-5 -2 -14 -1.5t-13 3.5q-64 -49 -114 -49q-24 0 -37 11.5t-12 32.5q3 31 28 62zM260 258q11 0 13.5 -6.5t-5.5 -16.5q-18 -24 -43 -24q-7 9 0 30
q6 17 35 17zM159 258q11 0 13.5 -6.5t-4.5 -16.5q-18 -24 -43 -24q-7 9 0 30q7 17 34 17z" />
    <glyph glyph-name="divide" unicode="&#xf7;" horiz-adv-x="319" 
d="M217 215q11 0 13.5 -7t-4.5 -17q-7 -9 -21 -16.5t-22 -7.5q-7 11 0 31q7 17 34 17zM310 129q0 -6 -16 -6q-37 -1 -235 -3q-17 0 -12 12t22 13q24 -1 104.5 -5t120.5 -5q16 0 16 -6zM166 91q11 0 13.5 -7t-4.5 -17q-7 -9 -21 -16t-22 -7q-8 9 0 30q7 17 34 17z" />
    <glyph glyph-name="oslash" unicode="&#xf8;" horiz-adv-x="248" 
d="M19 98h-1q-13 -13 -20 -19q-11 -8 -13 -6q-2 3 7 12q3 3 33 27q41 26 50 31q48 26 90 28q12 2 17 1q7 0 13 -3q8 8 18.5 18t11.5 11q23 22 27 19q5 -3 -16 -24l-4 -3l-11.5 -11.5t-15.5 -14.5q16 -13 13 -36q-4 -33 -57 -81q5 -2 19 0q15 2 34 17q8 5 20.5 16t14.5 13
q10 10 12 6q3 -2 -8 -13q-19 -19 -35 -30q-18 -14 -38 -18q-5 -2 -14 -1.5t-13 3.5q-64 -49 -113 -49q-12 0 -17 2q-34 -32 -38 -36q-8 -11 -12 -5v2.5t1.5 4t4.5 4.5q5 6 34 33q-25 9 -23 39q3 31 29 63zM179 166q-25 0 -88 -59q-37 -37 -54 -74q-3 -9 -3 -17
q22 21 77.5 73.5t77.5 73.5q-3 3 -10 3zM47 1q36 0 93 61q2 21 18 42q13 18 32 26q3 7 3 22q-7 -7 -156 -146q3 -5 10 -5z" />
    <glyph glyph-name="ugrave" unicode="&#xf9;" horiz-adv-x="320" 
d="M80 143v1q-13 -8 -40 -29q-41 -35 -44 -38q-8 -6 -10 -4q-4 2 5 11q32 32 77 63q32 22 58 22q16 1 18 -2.5t-6 -13.5q-32 -34 -54 -62q-25 -29 -36 -54q-6 -13 -2 -17q6 -6 23 1q22 12 76 52q26 19 62.5 49.5t45.5 37.5q15 11 29 11q15 0 18.5 -2.5t-3.5 -13.5
q-4 -5 -22.5 -27t-30.5 -37q-30 -37 -37 -51q-10 -15 -3 -22q7 -4 23 3t45 31q35 28 48 41q12 7 13 6q3 -2 -8 -13q-31 -31 -60 -52q-50 -40 -86 -40q-31 0 -31 24q0 17 16 41q6 8 39 44l-2 2q-13 -12 -71 -56q-73 -55 -107 -55q-16 0 -25 7.5t-8 20.5q1 14 17 38
q30 43 73 83zM157 302q8 0 12 -10q19 -44 50 -86q4 -8 2 -9q-1 -1 -10 4q-55 46 -66 67q-5 7 -5 15q0 7 5.5 13t11.5 6z" />
    <glyph glyph-name="uacute" unicode="&#xfa;" horiz-adv-x="320" 
d="M80 143v1q-13 -8 -40 -29q-41 -35 -44 -38q-8 -6 -10 -4q-4 2 5 11q32 32 77 63q32 22 58 22q16 1 18 -2.5t-6 -13.5q-32 -34 -54 -62q-25 -29 -36 -54q-6 -13 -2 -17q6 -6 23 1q22 12 76 52q26 19 62.5 49.5t45.5 37.5q15 11 29 11q15 0 18.5 -2.5t-3.5 -13.5
q-4 -5 -22.5 -27t-30.5 -37q-30 -37 -37 -51q-10 -15 -3 -22q7 -4 23 3t45 31q35 28 48 41q12 7 13 6q3 -2 -8 -13q-31 -31 -60 -52q-50 -40 -86 -40q-31 0 -31 24q0 17 16 41q6 8 39 44l-2 2q-13 -12 -71 -56q-73 -55 -107 -55q-16 0 -25 7.5t-8 20.5q1 14 17 38
q30 43 73 83zM280 304q6 0 8 -5q10 -16 -7 -33q-25 -25 -83 -57q-10 -5 -12 -3q-1 1 0 3t3 4t2 3q35 31 75 79q7 9 14 9z" />
    <glyph glyph-name="ucircumflex" unicode="&#xfb;" horiz-adv-x="320" 
d="M80 143v1q-13 -8 -40 -29q-41 -35 -44 -38q-8 -6 -10 -4q-4 2 5 11q32 32 77 63q32 22 58 22q16 1 18 -2.5t-6 -13.5q-32 -34 -54 -62q-25 -29 -36 -54q-6 -13 -2 -17q6 -6 23 1q22 12 76 52q26 19 62.5 49.5t45.5 37.5q15 11 29 11q15 0 18.5 -2.5t-3.5 -13.5
q-4 -5 -22.5 -27t-30.5 -37q-30 -37 -37 -51q-10 -15 -3 -22q7 -4 23 3t45 31q35 28 48 41q12 7 13 6q3 -2 -8 -13q-31 -31 -60 -52q-50 -40 -86 -40q-31 0 -31 24q0 17 16 41q6 8 39 44l-2 2q-13 -12 -71 -56q-73 -55 -107 -55q-16 0 -25 7.5t-8 20.5q1 14 17 38
q30 43 73 83zM254 286q2 0 6 -7q19 -41 34 -66q3 -6 2 -7q-2 -3 -11 3q-25 17 -43 42q-55 -32 -105 -47q-1 -1 -4.5 -1t-4.5 2t7 6q75 45 109 70q5 5 10 5z" />
    <glyph glyph-name="udieresis" unicode="&#xfc;" horiz-adv-x="320" 
d="M80 143v1q-13 -8 -40 -29q-41 -35 -44 -38q-8 -6 -10 -4q-4 2 5 11q32 32 77 63q32 22 58 22q16 1 18 -2.5t-6 -13.5q-32 -34 -54 -62q-25 -29 -36 -54q-6 -13 -2 -17q6 -6 23 1q22 12 76 52q26 19 62.5 49.5t45.5 37.5q15 11 29 11q15 0 18.5 -2.5t-3.5 -13.5
q-4 -5 -22.5 -27t-30.5 -37q-30 -37 -37 -51q-10 -15 -3 -22q7 -4 23 3t45 31q35 28 48 41q12 7 13 6q3 -2 -8 -13q-31 -31 -60 -52q-50 -40 -86 -40q-31 0 -31 24q0 17 16 41q6 8 39 44l-2 2q-13 -12 -71 -56q-73 -55 -107 -55q-16 0 -25 7.5t-8 20.5q1 14 17 38
q30 43 73 83zM296 258q11 0 13.5 -6.5t-5.5 -16.5q-18 -24 -43 -24q-7 9 0 30q6 17 35 17zM195 258q11 0 13.5 -6.5t-4.5 -16.5q-18 -24 -43 -24q-7 9 0 30q7 17 34 17z" />
    <glyph glyph-name="yacute" unicode="&#xfd;" horiz-adv-x="313" 
d="M80 143v1q-13 -8 -40 -29q-41 -35 -44 -38q-8 -6 -10 -4q-3 3 5 11q52 46 77 64q31 21 58 20q16 1 18 -2t-7 -13q-11 -12 -28 -33.5t-23 -28.5q-18 -22 -38 -54q-7 -14 -3 -18q5 -5 24 4q22 11 76 51q34 25 107 86q13 11 29 11q14 0 18 -2.5t-3 -12.5q-6 -7 -27 -35
t-32 -43q-54 -70 -132 -177q-113 -154 -177 -256q-9 -16 -5 -20q4 -3 15 8q10 11 73 101q82 114 113 154q61 78 128 146q25 26 62 59q10 9 13 6q2 -3 -8 -13q-26 -24 -61 -59q-72 -74 -127 -144q-36 -45 -117 -166q-56 -82 -86 -109q-15 -15 -29 -13q-19 2 -19 22
q0 19 41 84q48 75 135 196q10 14 64.5 89t89.5 123l-3 1q-49 -39 -77 -60q-80 -57 -111 -57q-29 0 -26 29q2 17 16 38q25 40 71 83zM279 299q6 0 8 -5q10 -16 -7 -33q-25 -25 -83 -57q-10 -5 -12 -3q-1 1 0 3t3 4t2 3q35 31 75 79q7 9 14 9z" />
    <glyph glyph-name="thorn" unicode="&#xfe;" horiz-adv-x="326" 
d="M100 172v1q-68 -63 -99 -91q-13 -11 -16 -8t11 14q6 6 19 18.5t29 27.5t23 21q38 34 69 65q19 24 65 79q42 52 120 123q17 17 37 17q14 0 14 -7q-66 -68 -176 -199q-89 -104 -257 -331q-109 -148 -179 -257q-10 -17 -7 -20q5 -2 15 6q6 7 18.5 24.5t30 42.5t28.5 39
q77 106 115 157q73 96 121 153q48 55 88 85q55 39 86 39q33 0 30 -26q-3 -15 -41 -60q-28 -32 -35 -43q-11 -17 -3 -23t27 3q21 10 46 30q20 15 48 41q11 8 13 6q2 -3 -8 -13q-30 -30 -61 -52q-53 -40 -90 -40q-18 0 -26 8.5t-6 20.5q3 24 44 67q38 42 43 50q7 10 0 13
q-9 4 -21 -6q-49 -23 -105 -82q-55 -60 -145 -181q-99 -133 -121 -165q-65 -96 -86 -113q-15 -13 -29 -10q-17 5 -17 21q-2 22 36 85q31 46 142 196q101 139 210 274z" />
    <glyph glyph-name="ydieresis" unicode="&#xff;" horiz-adv-x="313" 
d="M80 143v1q-13 -8 -40 -29q-41 -35 -44 -38q-8 -6 -10 -4q-3 3 5 11q52 46 77 64q31 21 58 20q16 1 18 -2t-7 -13q-11 -12 -28 -33.5t-23 -28.5q-18 -22 -38 -54q-7 -14 -3 -18q5 -5 24 4q22 11 76 51q34 25 107 86q13 11 29 11q14 0 18 -2.5t-3 -12.5q-6 -7 -27 -35
t-32 -43q-54 -70 -132 -177q-113 -154 -177 -256q-9 -16 -5 -20q4 -3 15 8q10 11 73 101q82 114 113 154q61 78 128 146q25 26 62 59q10 9 13 6q2 -3 -8 -13q-26 -24 -61 -59q-72 -74 -127 -144q-36 -45 -117 -166q-56 -82 -86 -109q-15 -15 -29 -13q-19 2 -19 22
q0 19 41 84q48 75 135 196q10 14 64.5 89t89.5 123l-3 1q-49 -39 -77 -60q-80 -57 -111 -57q-29 0 -26 29q2 17 16 38q25 40 71 83zM288 258q11 0 13.5 -6.5t-5.5 -16.5q-18 -24 -43 -24q-7 9 0 30q6 17 35 17zM187 258q11 0 13.5 -6.5t-4.5 -16.5q-18 -24 -43 -24
q-7 9 0 30q7 17 34 17z" />
    <glyph glyph-name="dotlessi" unicode="&#x131;" horiz-adv-x="161" 
d="M20 -7q-15 0 -23 7t-7 19q0 15 15 38q30 46 76 87h-1q-13 -8 -40 -29q-41 -35 -44 -38q-8 -6 -10 -4q-3 2 5 12q51 45 77 62q32 22 58 21q16 1 18.5 -2t-7.5 -13q-8 -9 -16.5 -19t-19 -23t-17.5 -22q-26 -31 -36 -49q-9 -17 -3 -22q5 -6 24 3q17 8 44 31q37 30 48 41
q13 7 14 6q3 -3 -8 -13q-30 -30 -60 -52q-51 -41 -87 -41z" />
    <glyph glyph-name="Lslash" unicode="&#x141;" horiz-adv-x="599" 
d="M252 350q0 40 39.5 69t107.5 29q95 0 159 -52q43 17 90 19q42 2 69.5 -17.5t20.5 -52.5q-9 -43 -72.5 -71t-122.5 -34q-58 -7 -110 0q-32 -43 -51 -67v-1q12 4 36 11.5t35 11.5q11 3 12 1q1 -3 -9 -8q-3 -1 -18 -6.5t-32 -11.5l-34 -12q-42 -53 -116 -103q18 -3 75 -18
q72 -18 103 -18q44 0 80 15.5t81 54.5q14 11 15 9q3 -2 -6 -11q-56 -55 -93 -78t-83 -23q-57 0 -108 20q-12 5 -32 13t-32.5 13.5t-18.5 6.5q-63 -50 -135 -51q-62 -2 -60 23q2 23 51 37.5t98 13.5q33 0 47 -4q32 30 67 82q-37 -13 -51 -18q-17 -6 -19 -1q-1 4 2.5 7t11.5 6
q3 1 64 21q39 64 63 94q-53 11 -88.5 38t-35.5 63zM649 406q-18 0 -42.5 -8t-37.5 -17q15 -22 19 -33t5 -20t0.5 -13t-1.5 -4t-1.5 2t-4 11.5t-9.5 21.5q-9 16 -23 28q-46 -26 -116 -126q40 -5 107 2q51 6 103 34t61 68q6 24 -11 39t-49 15zM261 352q0 -34 34.5 -59
t86.5 -36q35 44 79 81.5t79 51.5q-63 43 -146 43q-61 0 -97 -24t-36 -57zM118 -1q24 0 55.5 13t50.5 32q-31 8 -57 7q-31 -1 -54.5 -11.5t-25.5 -24.5q-1 -8 8.5 -12t22.5 -4z" />
    <glyph glyph-name="lslash" unicode="&#x142;" horiz-adv-x="167" 
d="M47 122v1q-10 -8 -25.5 -22.5t-16.5 -15.5q-8 -7 -11 -3q-2 2 7 11q50 45 71 62q11 16 29 37v1q-9 -5 -22 -11t-16 -7q-14 -5 -16 -1q-4 8 10 13q5 2 26 11.5t36 16.5q9 12 69 84q44 53 121 123q17 17 36 17q15 0 15 -7q-60 -60 -149 -166q-23 -29 -27 -32v-1q14 7 52 23
q9 5 11 2q1 -3 -8 -8t-69 -34q-93 -117 -118 -169q-13 -19 -3 -28q9 -6 31 6q21 11 39 27q21 14 48 41q12 7 13 6q3 -2 -8 -13q-25 -25 -60 -52q-50 -40 -90 -40q-15 0 -23.5 7t-7.5 20q1 32 56 101z" />
    <glyph glyph-name="OE" unicode="&#x152;" horiz-adv-x="672" 
d="M744 415q50 0 76.5 -18t23.5 -46q-4 -33 -49.5 -52.5t-103.5 -19.5q-71 0 -111 33q-14 -20 -22 -44q-6 -19 -4 -31q27 5 50 3q54 -2 54 -25q0 -19 -56 -19q-58 0 -79 27q-45 -16 -92 -60q-56 -53 -59 -110q-1 -34 21.5 -53.5t61.5 -19.5q69 0 145 51q37 24 61 51
q6 9 11 6t-3 -11q-33 -33 -66 -56q-74 -52 -150 -55q-69 -3 -106.5 21.5t-35.5 76.5q-102 -82 -198 -79q-91 2 -101 81q-6 48 22 107t81 115q60 63 142.5 98.5t159.5 31.5q76 -5 81 -55q3 -23 -15 -49q-4 -4 -9 -7.5t-6 -0.5q0 1 0.5 2t3.5 3.5t5 6.5q14 20 11 44
q-5 40 -71 43q-61 3 -138.5 -44.5t-124.5 -99.5q-49 -56 -74 -116t-19 -101q8 -48 62 -50q103 -4 228 152q79 99 88 172q3 37 -22 40q-8 1 -14 -0.5t-7 -2.5t-3 0q-1 2 2.5 4.5t9.5 4.5t13 2q48 0 40 -72q-3 -38 -32 -95q43 21 92 32q-9 15 -8 32q1 37 41 81q-12 12 -12 33
q0 8 1.5 14.5t4 10.5t4.5 3q1 -2 0.5 -2.5t-1.5 -8t-1 -17.5q0 -17 9 -28q34 29 89 49q49 17 99 17zM748 406q-21 0 -50 -11t-45 -21q-47 -28 -67 -55q38 -31 105 -31q118 0 129 63q4 23 -13.5 39t-58.5 16zM557 229h-1q3 -10 17 -17q12 -5 29 -7q34 -2 37 12q0 12 -37 14
q-33 0 -45 -2z" />
    <glyph glyph-name="oe" unicode="&#x153;" horiz-adv-x="365" 
d="M18 97v1q-13 -13 -20 -19q-11 -8 -13 -6q-2 3 7 12q3 3 33 27q41 26 50 31q45 25 84 28q12 2 15 -4q0 -1 -11 -6q-28 -13 -72 -55q-21 -21 -38.5 -47t-19.5 -41q-2 -17 14 -17q32 0 93 61q41 41 50 68q3 7 3 25q-3 14 -1 14q5 3 14 -6q12 -12 12 -27q1 1 3.5 2.5t3.5 1.5
q48 31 90 31q15 0 23 -8.5t7 -17.5q-1 -30 -65 -61q-35 -17 -86 -32q-6 -12 -6 -22q-1 -11 5.5 -17t17.5 -5q33 -2 91 35q32 21 64 51q9 9 13 6q3 -3 -8 -14q-25 -25 -64 -52q-63 -43 -116 -43q-26 0 -40.5 10t-14.5 27q-56 -37 -97 -37q-24 0 -37 11.5t-12 32.5q3 31 28 62
zM199 63v-1q38 11 68 31q18 11 29.5 26.5t12.5 25.5q1 13 -13 13q-18 -2 -49 -33q-33 -35 -48 -62z" />
    <glyph glyph-name="Scaron" unicode="&#x160;" horiz-adv-x="545" 
d="M383 216l1 -1q95 42 155 66q57 86 116 128q31 21 62 24q14 1 24.5 -5.5t9.5 -21.5q-2 -24 -35.5 -50.5t-86.5 -48.5q-18 -8 -27 -11q-8 -15 -27 -50.5t-27 -50.5q-107 -206 -323 -221q-106 -6 -163 34q-64 -57 -80 -93q-1 -3 -2 -4t-2 -3t-2 -2h-2q-4 1 0 12
q15 43 75 100q-41 37 -37 94q5 66 73 107.5t136 47.5q47 4 94.5 -8.5t67.5 -42.5zM250 70q-45 0 -77 21q-9 -6 -19 -13t-22 -15.5t-19 -13.5q-4 -3 -15.5 -12t-17.5 -14q50 -49 154 -41q77 6 138 57.5t117 153.5q22 40 44 73v1q-84 -34 -143 -62q6 -14 6 -31
q-1 -47 -47 -75.5t-99 -28.5zM609 311v-1q2 1 8.5 3.5t8.5 3.5q109 45 114 89q1 10 -6 15t-17 3q-21 -3 -46 -28q-27 -25 -62 -85zM248 80q45 0 84.5 26.5t41.5 66.5q0 13 -3 24q-16 -8 -67 -31q-60 -29 -122 -70q29 -16 66 -16zM367 208l-1 1q-15 30 -58 41.5t-87 7.5
q-62 -5 -115.5 -41.5t-58.5 -100.5q-3 -50 22 -80q5 5 15 13t13 11q19 14 61 42q-18 16 -21 38q-1 9 3 10q1 0 2 -3v-2.5t1 -2.5q7 -21 24 -35q67 41 134 71zM715 454q-2 0 -6 6q-14 33 -34 66q-5 6 -3 8q5 4 12 -3q21 -13 43 -36q37 19 103 41q10 0 10 -1q3 -3 -6 -7
q-82 -49 -109 -70q-8 -4 -10 -4z" />
    <glyph glyph-name="scaron" unicode="&#x161;" horiz-adv-x="228" 
d="M119 21v-1q17 7 44 24q29 17 66 49q9 9 13 6q2 -3 -8 -13q-28 -25 -54 -43q-29 -20 -63 -34q-41 -18 -84 -18q-36 0 -50 17.5t-10 42.5q3 21 19 36.5t34 14.5q21 -2 17 -21q-3 -13 -22 -25q-22 -14 -23 -30q-1 -12 7 -18.5t22 -6.5q34 0 67 54q8 14 24.5 54.5t22.5 47.5
v1q-5 -5 -48 -38q-23 -17 -38 -24q-7 -5 -10 -2q-1 3 5 9q10 6 42 28q22 16 59 48q5 9 16 17q13 11 29 11q26 0 -1 -19l-4 -2q-3 -2 -12 -7t-12 -8q-7 -7 -7 -27q2 -56 -9 -82q-12 -28 -32 -41zM180 237q-3 0 -6 6q-18 41 -34 67q-4 6 -2 7q3 3 11 -3q25 -17 43 -42
q42 25 105 47q9 0 9 -1l-7 -7q-82 -49 -109 -70q-6 -4 -10 -4z" />
    <glyph glyph-name="Ydieresis" unicode="&#x178;" horiz-adv-x="499" 
d="M421 148v1q-54 -58 -126.5 -108t-117.5 -50q-51 0 -44 46q3 29 31 66t97 115q98 108 110 153q6 21 -7.5 30.5t-35.5 9.5q-39 0 -86 -23t-88 -64q-80 -78 -80 -130q0 -40 36 -41q22 0 36 10l6 4t4 3.5t2.5 2.5t2.5 0q2 -1 -2 -6.5t-10 -9.5q-20 -14 -42 -13q-46 2 -49 49
q-2 34 19 75t58 74q42 38 96.5 58t96.5 20q37 0 59.5 -14.5t21.5 -42.5q-1 -48 -97 -157q-66 -73 -95 -111t-32 -61q-4 -20 14 -24q31 -4 110 54q78 57 147 139q107 129 157 178q45 45 74 42q14 -1 14.5 -15.5t-11.5 -29.5q-17 -24 -66 -63q-51 -40 -81 -70
q-68 -92 -130 -178q-15 -21 -33.5 -47.5t-31 -44l-22.5 -31.5q76 2 116 -31t32 -90q-1 -8 -4.5 -14.5t-6.5 -5.5q-1 0 -1 0.5t0.5 2t1 3.5t1 5.5t1.5 7.5q6 54 -33 85t-113 27q-39 -56 -107 -136q-59 -69 -126.5 -115.5t-109.5 -46.5q-17 0 -30.5 9.5t-11.5 32.5
q3 39 51 90.5t97 84.5q95 64 192 84q26 37 78.5 113t67.5 98zM566 278v-1q32 29 51 43q39 30 58 54q27 34 13 39t-48 -38q-18 -21 -74 -97zM269 -74v1q-87 -21 -178 -83q-44 -30 -86 -82t-41 -86q1 -25 21 -25q23 -4 62 19q58 36 128 129q12 17 44.5 60.5t49.5 66.5z
M611 504q12 0 15.5 -7.5t-5.5 -18.5t-23.5 -18.5t-24.5 -7.5q-8 12 0 33q8 19 38 19zM500 504q12 0 15 -7.5t-5 -18.5q-8 -10 -23 -18t-23 -8q-10 10 -1 33q8 19 37 19z" />
    <glyph glyph-name="Zcaron" unicode="&#x17d;" horiz-adv-x="456" 
d="M433 324v1q-73 -41 -129 -41q-35 0 -60 13t-22 43q4 34 46.5 58.5t85.5 26.5q16 0 15 -5q0 -1 -15 -3q-27 -2 -49 -19.5t-24 -43.5q-1 -19 10 -29t28 -12q57 -6 129 31q32 34 55 53q29 23 47 20q6 -1 5.5 -7.5t-7.5 -13.5q-24 -26 -74 -54q-39 -39 -115 -102
q-73 -61 -106 -83v-1h20q49 0 81.5 -28t34.5 -83q34 20 68 48q10 9 13 6q2 -3 -8 -13q-27 -27 -72 -52q-4 -107 -139 -221q-87 -73 -190 -123t-169 -49q-63 2 -63 46q0 82 211 190q51 27 146.5 68.5t146.5 71.5q15 72 -13 104q-14 16 -40 21t-45 1q-33 -25 -61 -43
q-61 -40 -73 -21q-5 9 11.5 24.5t45.5 28.5q37 16 72 22q49 35 104 82q51 41 99 88zM330 3v1q-48 -29 -144.5 -72.5t-139.5 -66.5q-38 -20 -58.5 -31.5t-53 -32.5t-50 -37t-31 -37t-13.5 -40q0 -18 14.5 -27t36.5 -9q61 0 150.5 47.5t159.5 119.5q105 108 129 185zM215 140
v1q-21 -3 -52 -18q-21 -9 -34 -19.5t-11 -15.5q5 -9 49 20q30 19 48 32zM425 436q-2 0 -6 6q-14 33 -34 66q-5 6 -3 8q5 4 12 -3q21 -13 43 -36q37 19 103 41q10 0 10 -1q3 -3 -6 -7q-82 -49 -109 -70q-8 -4 -10 -4z" />
    <glyph glyph-name="zcaron" unicode="&#x17e;" horiz-adv-x="244" 
d="M50 36v-1q15 4 25 3q37 -2 49 -33q42 28 58 39q36 25 62 49q11 9 14 6q2 -2 -9 -13q-28 -26 -62 -50q-28 -20 -60 -40q1 -5 1 -16q-1 -48 -52.5 -117t-109.5 -119q-68 -60 -141.5 -104.5t-115.5 -44.5t-42 35q0 62 155 179q73 56 195 129q15 9 40 25t36 22q2 20 -5.5 32
t-21.5 12q-33 0 -72 -37q-8 -8 -12 -5q-5 4 3 17q7 10 42 30q16 9 48 23.5t51 25.5q46 26 72 56q5 5 4 9q0 3 -6 0q-48 -27 -90 -27q-37 0 -48 18q-29 -30 -62 -62q-8 -6 -11 -3q-1 1 1 4.5t5 6.5q24 22 62 63q-2 17 10 32t33 15q17 0 17 -10l-5 -3q-4 -2 -6.5 -5t-4.5 -8
q-3 -7 3.5 -13.5t24.5 -6.5q42 0 81 17q16 6 20 1q6 -6 -6 -23q-26 -35 -86 -68q-18 -9 -45.5 -21.5t-38.5 -18.5zM-287 -394q39 0 102 45.5t124 111.5q46 48 93.5 112t57.5 99q-12 -8 -36 -23.5t-32 -20.5q-120 -75 -194 -131q-130 -98 -137 -166q-2 -27 22 -27zM161 210
q-3 0 -6 6q-18 41 -34 67q-4 6 -2 7q3 3 11 -3q25 -17 43 -42q42 25 105 47q9 0 9 -1l-7 -7q-82 -49 -109 -70q-6 -4 -10 -4z" />
    <glyph glyph-name="florin" unicode="&#x192;" horiz-adv-x="281" 
d="M460 352q0 -12 -5 -12q-2 1 -3 12q-3 15 -16.5 21.5t-25.5 6.5q-62 0 -120 -68q-34 -38 -86 -114l-22 -32q18 -1 56 -1.5t58 -0.5q11 0 11 -4t-11 -4q-85 0 -121 -1q-50 -67 -67 -88q-64 -77 -137 -124q-77 -49 -150 -47q-50 2 -60 31q-6 11 0 13q1 0 6 -7q6 -11 21 -18
t30 -7q74 0 142 54q42 33 119 134q10 12 42 58h-35q-19 0 -19 6q0 7 17 7h45q65 87 89 114q97 111 192 109q20 0 35 -10t15 -28z" />
    <glyph glyph-name="circumflex" unicode="&#x2c6;" 
d="M254 281q2 0 6 -7q19 -41 34 -66q3 -6 2 -7q-2 -3 -11 3q-25 17 -43 42q-55 -32 -105 -47q-1 -1 -4.5 -1t-4.5 2t7 6q75 45 109 70q5 5 10 5z" />
    <glyph glyph-name="caron" unicode="&#x2c7;" 
d="M219 200q-3 0 -6 6q-18 41 -34 67q-4 6 -2 7q3 3 11 -3q25 -17 43 -42q42 25 105 47q9 0 9 -1l-7 -7q-82 -49 -109 -70q-6 -4 -10 -4z" />
    <glyph glyph-name="breve" unicode="&#x2d8;" 
d="M172 274q2 0 4 -8q9 -28 47 -31q47 -5 89 34q7 5 9 4q3 -2 -1 -10q-46 -61 -104 -54q-21 2 -35.5 18t-14.5 36q0 11 6 11z" />
    <glyph glyph-name="dotaccent" unicode="&#x2d9;" 
d="M258 260q12 0 15 -6.5t-5 -16.5t-22 -17.5t-21 -7.5q-11 11 -2 31q6 17 35 17z" />
    <glyph glyph-name="ring" unicode="&#x2da;" 
d="M284 250q0 -19 -13 -31.5t-31 -12.5q-19 0 -31.5 12.5t-12.5 31.5q0 18 13 31.5t31 13.5t31 -13.5t13 -31.5zM266 251q0 11 -7.5 19t-18.5 8q-12 0 -19 -8t-7 -19t7 -18.5t19 -7.5q11 0 18.5 7.5t7.5 18.5z" />
    <glyph glyph-name="ogonek" unicode="&#x2db;" 
d="M91 1h11q-29 -15 -50.5 -34.5t-26.5 -33.5q-6 -19 14 -23q18 -1 45 15q8 5 10 3q1 -2 0.5 -3t-2.5 -3l-2 -3q-36 -34 -73 -31q-16 2 -25 13t-4 27q13 38 103 73z" />
    <glyph glyph-name="tilde" unicode="&#x2dc;" 
d="M258 211q-13 0 -32.5 13t-30.5 14q-19 2 -40 -22q-5 -7 -8 -6t1 12q24 41 60 40q13 -1 31 -14t30 -14q20 -1 40 24q6 6 8 5q3 -1 -1 -11q-22 -41 -58 -41z" />
    <glyph glyph-name="hungarumlaut" unicode="&#x2dd;" 
d="M333 274q9 0 12 -11q2 -10 -12 -19q-31 -23 -78 -44q-10 -5 -12 -2q-1 1 9 9q33 29 58 56q11 11 23 11zM258 274q10 0 13 -11q2 -10 -13 -19q-39 -27 -78 -44q-11 -6 -11 -2q-1 2 8 9q38 33 59 56q10 11 22 11z" />
    <glyph glyph-name="pi" unicode="&#x3c0;" horiz-adv-x="321" 
d="M224 202h-65q-48 -120 -82 -184q-18 -32 -36 -36q-11 -2 -17.5 4t-6.5 16q0 5 1 9.5t4 8.5l4.5 6t6 6t5.5 5q3 2 10 8t12 10.5t10.5 11.5t8.5 15l51 120h-24q-24 0 -41 -17l-16 -16h-9q2 2 7.5 10.5t14 19.5t18.5 21q27 27 58 27h196l-14 -45h-67q-34 -83 -44 -123
q-7 -26 1 -39q16 -16 39 -1q14 9 23 32h12q-20 -59 -63 -81q-30 -14 -43 1q-11 14 -11 37q0 21 26 90z" />
    <glyph glyph-name="endash" unicode="&#x2013;" horiz-adv-x="356" 
d="M322 99q0 -6 -15 -6q-124 -3 -238 -6q-25 0 -23 12q2 14 21 13q37 -1 118.5 -4t120.5 -4q16 0 16 -5z" />
    <glyph glyph-name="emdash" unicode="&#x2014;" horiz-adv-x="552" 
d="M518 99q0 -6 -14 -6q-71 -2 -435 -6q-25 0 -23 12q2 13 21 14q152 -5 435 -9q16 0 16 -5z" />
    <glyph glyph-name="quoteleft" unicode="&#x2018;" horiz-adv-x="91" 
d="M97 278q0 7 6 16q24 39 66 66q9 5 11 4q1 -1 -7 -9q-21 -23 -27 -45q-1 -5 -0.5 -10.5t-0.5 -9.5q-3 -16 -34 -20q-14 -3 -14 8z" />
    <glyph glyph-name="quoteright" unicode="&#x2019;" horiz-adv-x="91" 
d="M177 349q0 -7 -7 -15q-37 -43 -79 -65q-10 -6 -11 -5t7 11q23 23 33 43q3 5 2.5 10.5t0.5 10.5q7 15 41 19q13 0 13 -9z" />
    <glyph glyph-name="quotesinglbase" unicode="&#x201a;" horiz-adv-x="141" 
d="M73 36q0 -8 -7 -16q-37 -43 -79 -65q-10 -6 -11 -5t7 11q23 23 33 43q3 5 2.5 10.5t0.5 10.5q7 15 41 19q13 0 13 -8z" />
    <glyph glyph-name="quotedblleft" unicode="&#x201c;" horiz-adv-x="179" 
d="M176 279q0 3 6 15q24 39 66 66q9 5 11 4q1 -1 -7 -9q-20 -22 -28 -45q-1 -5 0 -10.5t0 -9.5q-5 -16 -34 -20q-14 -3 -14 9zM97 279q0 6 6 15q24 39 66 66q9 6 11 4q1 -2 -6 -9q-23 -25 -27 -45q-2 -5 -1.5 -10.5t-0.5 -9.5q-3 -16 -33 -20q-15 -3 -15 9z" />
    <glyph glyph-name="quotedblright" unicode="&#x201d;" horiz-adv-x="179" 
d="M273 349q0 -7 -7 -15q-37 -43 -79 -65q-10 -6 -12 -5q-1 2 8 11q23 25 33 43q2 5 2 10.5t1 10.5q6 15 41 19q13 0 13 -9zM185 350q0 -8 -7 -16q-37 -43 -79 -65q-10 -6 -11 -5t7 11q23 23 33 43q3 5 2.5 10.5t0.5 10.5q7 15 41 19q13 0 13 -8z" />
    <glyph glyph-name="quotedblbase" unicode="&#x201e;" horiz-adv-x="228" 
d="M161 35q0 -7 -7 -15q-37 -43 -79 -65q-10 -6 -12 -5q-1 2 8 11q23 25 33 43q2 5 2 10.5t1 10.5q6 15 41 19q13 0 13 -9zM73 35q0 -7 -7 -15q-37 -43 -79 -65q-10 -6 -11 -5t7 11q23 23 33 43q3 5 2.5 10.5t0.5 10.5q7 15 41 19q13 0 13 -9z" />
    <glyph glyph-name="dagger" unicode="&#x2020;" horiz-adv-x="356" 
d="M363 194q0 -6 -23 -6q-16 -1 -48 -2t-44 -1q-37 -45 -118 -143t-110 -133q-14 -20 -24 -17q-7 4 8 22q20 27 93 124t109 145h-61q-32 0 -33 10q0 13 31 13q46 0 77 -2q30 40 56 78q11 14 16.5 20t14.5 11.5t21 7.5q18 4 17 -7q-3 -13 -25 -40q-6 -7 -25.5 -31t-33.5 -41
q13 0 79 -3q23 0 23 -5z" />
    <glyph glyph-name="daggerdbl" unicode="&#x2021;" horiz-adv-x="356" 
d="M371 211q0 -6 -22 -6q-28 -1 -88 -3q-55 -66 -85 -103q68 -4 93 -5q22 -2 22 -4q0 -7 -22 -7q-19 -1 -56 -2t-52 -1q-26 -31 -74.5 -90t-67.5 -81q-16 -19 -23 -16q-6 2 8 22q11 14 54 71.5t69 92.5h-53q-32 0 -33 9q-1 7 8.5 10.5t21.5 3.5q27 0 72 -3q35 50 75 102
q-27 -1 -64 -1q-33 0 -33 10q-1 6 8.5 9.5t21.5 3.5q14 0 82 -2q8 11 43 59q10 14 15.5 20t15 12t22.5 8q17 2 17 -6q0 -10 -26 -41q-3 -3 -18.5 -22t-26.5 -32q50 -2 73 -3q23 0 23 -5z" />
    <glyph glyph-name="bullet" unicode="&#x2022;" horiz-adv-x="256" 
d="M202 147q0 -21 -14.5 -35.5t-35.5 -14.5q-22 0 -36.5 14.5t-14.5 35.5t14.5 36t36.5 15q21 0 35.5 -15t14.5 -36z" />
    <glyph glyph-name="ellipsis" unicode="&#x2026;" horiz-adv-x="378" 
d="M60 44q12 0 15 -7.5t-6 -18.5q-8 -11 -23 -19t-24 -8q-8 12 -1 34q9 19 39 19zM186 44q12 0 15 -7.5t-6 -18.5q-8 -11 -23 -19t-24 -8q-8 12 -1 34q9 19 39 19zM312 44q12 0 15 -7.5t-6 -18.5q-8 -11 -23 -19t-24 -8q-8 12 -1 34q9 19 39 19z" />
    <glyph glyph-name="perthousand" unicode="&#x2030;" horiz-adv-x="548" 
d="M396 -6q-17 0 -27 11t-8 28q4 32 38 67q32 35 76 43q12 3 12 -1q0 -1 -2.5 -1.5t-6 -2.5t-6.5 -5q-19 -10 -47 -46q-30 -41 -34 -64q-5 -17 10 -20q25 -3 57 43q30 41 38 69q4 14 0 22q-1 1 -3.5 2.5t-2.5 2.5q2 3 14 1q24 -7 17 -38q-6 -31 -42 -68q-18 -18 -42 -30.5
t-41 -12.5zM240 -6q-18 0 -28 11t-7 28q4 32 38 67q33 35 76 43q12 3 12 -1q0 -1 -2 -2t-6.5 -3t-7.5 -5q-22 -14 -46 -45q-30 -38 -34 -64q-3 -17 10 -20q25 -3 57 43q30 41 38 69q4 14 0 22q-1 1 -3.5 2.5t-2.5 2.5q2 3 14 1q23 -7 16 -37q-7 -33 -41 -69q-18 -19 -42 -31
t-41 -12zM307 250v1q-28 -17 -59 -20q-22 -2 -43 6q4 -12 1 -25q-8 -31 -42 -66q-18 -19 -41.5 -31.5t-40.5 -12.5t-27 11t-8 28q4 33 38 68q32 35 76 43q11 0 11 -1t-2 -2t-6.5 -3t-7.5 -4q-19 -13 -45 -47q-30 -41 -34 -63q-5 -19 10 -19q25 -3 58 42q28 37 37 69
q4 10 0 21q-1 1 -2.5 2t-2.5 2t-1 2q2 3 14 1q4 -2 8 -5q19 -10 50 -8q39 5 80 34q25 27 43 27q11 0 6 -7q-4 -6 -23 -25q-136 -133 -283 -302q-11 -11 -16 -8q-3 3 7 15q123 147 245 277z" />
    <glyph glyph-name="guilsinglleft" unicode="&#x2039;" horiz-adv-x="196" 
d="M105 4q-6 0 -6 7q-14 32 -42 76q-5 10 -4 12q1 4 10 8q41 23 92 55q7 5 8 4q3 -3 -3 -11q-34 -39 -72 -62q19 -48 19 -80q0 -9 -2 -9z" />
    <glyph glyph-name="guilsinglright" unicode="&#x203a;" horiz-adv-x="196" 
d="M82 166q2 0 6 -7q11 -26 41 -76q6 -8 5 -12q-1 -3 -11 -8q-53 -29 -91 -55l-9 -4q-3 4 3 11q33 38 73 62q-18 45 -20 79q0 10 3 10z" />
    <glyph glyph-name="fraction" unicode="&#x2044;" horiz-adv-x="140" 
d="M240 300q8 0 8 -3q1 -4 -24 -29q-133 -130 -284 -302q-10 -12 -15 -8q-3 3 7 15q142 169 266 300l4 4t4 4.5t3.5 4t4 3.5t3.5 3t4 3t4.5 2t4.5 1.5t4.5 1t5.5 0.5z" />
    <glyph glyph-name="Euro" unicode="&#x20ac;" horiz-adv-x="504" 
d="M247 366q64 0 97 -50q19 7 43 7q44 2 71.5 -12t21.5 -48q-6 -35 -54 -54.5t-99 -19.5q-77 0 -121 32q-33 -30 -61 -68q78 -1 173 -5q19 0 19 -4t-17 -4q-87 -3 -185 -2q-9 -15 -16 -33q115 -2 172 -4q17 0 17 -5q0 -4 -16 -4q-52 -2 -179 -2q-11 -23 -11 -48
q0 -65 69 -65q55 0 116 41q27 17 48 41q6 6 9 5q4 -3 -2 -9q-21 -21 -52 -43q-62 -44 -121 -46q-112 -3 -115 81q-2 23 7 42q-6 -1 -31 -1q-10 0 -13 3t1 8q4 9 22 9q6 0 15.5 -0.5t11.5 -0.5q4 10 16 30q-10 -1 -52 -1q-11 0 -14 2.5t-1 7.5q8 10 27 10q9 0 27 -0.5
t25 -1.5q34 48 90 87q-20 27 -20 51q0 32 24 53t58 21zM239 356q-27 0 -46 -18t-19 -47q0 -20 18 -45q71 48 139 66q-39 44 -92 44zM327 197q44 0 80 19t43 48q6 27 -11 41t-49 12q-20 0 -42 -9q9 -14 13 -43q1 -20 -2 -20q-1 0 -1 2t-0.5 5.5t-2.5 8.5q-7 29 -19 44
q-65 -25 -125 -78q40 -30 116 -30z" />
    <glyph glyph-name="trademark" unicode="&#x2122;" horiz-adv-x="487" 
d="M270 293h-1q-1 -15 -3 -37.5t-2 -29.5q-1 -14 2.5 -18.5t12.5 -4.5v-10h-45v10q9 0 13 4.5t6 19.5q2 12 4 31t3 27q0 11 -3 14.5t-15 5.5v9h49q3 -8 10.5 -25.5t10.5 -25.5l6 -13q7 -14 10 -22l38 86h48v-9q-18 -1 -18 -22q7 -60 7 -61q2 -11 5 -14.5t12 -4.5v-10h-65v10
q11 1 14.5 5t3.5 15q-2 38 -5 72l-20 -45q-11 -24 -24 -54l-10 -3q-6 13 -13.5 31t-9.5 23q-11 24 -21 46zM231 281l-10 -2q-4 18 -10 21t-27 3v-25v-50q0 -14 4 -19.5t16 -5.5v-10h-70v10q13 0 17 5t4 20v50v25q-22 0 -28 -3t-10 -21l-10 2l4 33h116z" />
    <glyph glyph-name="Omega" unicode="&#x2126;" horiz-adv-x="407" 
d="M165 61l-13 -61h-118l20 65h6q-1 -15 2.5 -20t16.5 -5h63l3 12q-42 13 -53 43q-22 59 30 119q24 28 59 44q36 18 79 18t68 -18q25 -17 32 -44q14 -60 -43 -119q-29 -29 -81 -43l-4 -12h64q12 0 19 5t15 20h6l-21 -65h-118l25 61q1 0 8 3t9 4t9 5t11.5 7.5t11.5 10.5
t13 16q20 27 29.5 65.5t-5.5 69.5q-15 21 -52 21q-38 0 -65 -21q-31 -25 -47 -66.5t-12 -68.5q1 -9 3.5 -15.5t4.5 -11t6 -8t6 -5t7 -4t6 -2.5z" />
    <glyph glyph-name="estimated" unicode="&#x212e;" horiz-adv-x="300" 
d="M52 138v-78q47 -43 100 -43q17 0 29.5 2.5t26.5 11t18.5 12t22.5 18.5h42q-45 -61 -144 -61q-60 0 -111.5 36t-51.5 110q0 68 45 107t120 39q31 0 57 -6.5t51.5 -22.5t41 -48t17.5 -77h-264zM250 156v73q-38 46 -100 46q-64 0 -98 -46v-73h198z" />
    <glyph glyph-name="partialdiff" unicode="&#x2202;" horiz-adv-x="262" 
d="M196 132h1q12 17 25 51t14 61q3 51 -22.5 80t-58.5 30h-18q-1 2 3.5 4.5t14.5 3.5q41 5 79.5 -30t38.5 -93q0 -55 -34.5 -109.5t-70.5 -84.5q-69 -54 -125 -54q-22 0 -35.5 11.5t-13.5 31.5q0 33 30 67h-1q-11 -8 -25 -22q-11 -8 -13 -6q-2 3 7 12q5 5 16.5 14.5
t15.5 13.5q23 16 63 36q16 9 42.5 17t44.5 5q13 -2 19 -14t3 -25zM52 2q40 0 92 60q13 14 27 40t14 41q2 18 -16 18q-26 0 -81 -55q-19 -21 -35 -47t-17 -40q0 -17 16 -17z" />
    <glyph glyph-name="Delta" unicode="&#x2206;" horiz-adv-x="300" 
d="M235 296l30 -296h-259zM197 223l-157 -202h178z" />
    <glyph glyph-name="product" unicode="&#x220f;" horiz-adv-x="520" 
d="M475 336l-89 -289q-7 -22 3.5 -29t37.5 -7l-3 -11h-165l3 11q27 0 42 7t22 29l98 321h-194l-97 -321q-7 -22 3 -29t37 -7l-3 -11h-165l3 11q28 0 43 7t22 29l88 289q14 45 -37 45l3 9h415l-3 -9q-50 0 -64 -45z" />
    <glyph glyph-name="summation" unicode="&#x2211;" horiz-adv-x="247" 
d="M415 390l-22 -74h-8q0 16 -0.5 20.5t-5 12.5t-15.5 10t-31 2h-127l77 -167l-187 -156h173q25 0 40.5 13t40.5 48h10q-26 -49 -51 -105q-5 2 -17 4t-19 2h-258l218 183l-96 207h278z" />
    <glyph glyph-name="minus" unicode="&#x2212;" horiz-adv-x="331" 
d="M322 129q0 -6 -15 -6q-30 -1 -248 -3q-17 0 -12 12t22 13q215 -9 237 -10q16 0 16 -6z" />
    <glyph glyph-name="uni2215" unicode="&#x2215;" horiz-adv-x="140" 
d="M240 300q8 0 8 -3q1 -4 -24 -29q-133 -130 -284 -302q-10 -12 -15 -8q-3 3 7 15q142 169 266 300l4 4t4 4.5t3.5 4t4 3.5t3.5 3t4 3t4.5 2t4.5 1.5t4.5 1t5.5 0.5z" />
    <glyph glyph-name="radical" unicode="&#x221a;" horiz-adv-x="261" 
d="M164 -46l-44 250l-52 -22l-2 20l82 35l32 -178l167 354l30 -5z" />
    <glyph glyph-name="infinity" unicode="&#x221e;" horiz-adv-x="331" 
d="M126 177q-30 0 -53.5 -19.5t-25.5 -52.5q-2 -25 14 -42t43 -17q46 0 108 57q9 7 2 14q-14 22 -38 41t-50 19zM129 205q29 0 50.5 -14t56.5 -51q6 -8 17 0q68 63 124 63q33 0 56.5 -22t21.5 -61q-3 -44 -38 -69.5t-70 -25.5q-50 0 -105 60q-6 6 -16 -1q-72 -62 -129 -62
q-39 0 -63 23.5t-22 53.5q2 36 32.5 71t84.5 35zM365 177q-8 0 -16.5 -2t-17 -6.5t-15 -8t-15.5 -10.5t-12.5 -10t-12.5 -10.5t-10 -8.5q-9 -6 -3 -14q54 -58 93 -58q24 0 45 20t22 52q2 23 -15.5 39.5t-42.5 16.5z" />
    <glyph glyph-name="integral" unicode="&#x222b;" horiz-adv-x="331" 
d="M250 344q7 0 15.5 -10.5t9.5 -17.5t-5.5 -13.5t-11.5 -6.5q-2 0 -15 9q-6 3 -12 3q-26 0 -39 -26q-22 -43 -48 -161q-25 -114 -48 -184q-12 -38 -31.5 -68t-42.5 -30q-10 0 -18.5 8.5t-9.5 17.5q0 7 7 14t12 7q4 0 12 -5q3 -3 12 -3q12 0 29 38q10 25 46 181
q24 105 44 151.5t53 75.5q24 20 41 20z" />
    <glyph glyph-name="approxequal" unicode="&#x2248;" horiz-adv-x="300" 
d="M226 214q73 0 82 -61q2 -6 -2 -6l-4 6q-19 28 -78 28q-14 0 -58 -11q-40 -12 -62 -12q-35 0 -51 32v8q2 1 5 -4q11 -15 32 -15q23 0 69 18q47 17 67 17zM226 114q73 0 82 -61q2 -6 -2 -6l-4 6q-19 28 -78 28q-14 0 -58 -11q-40 -12 -62 -12q-35 0 -51 32v8q2 1 5 -4
q11 -15 32 -15q24 0 69 17.5t67 17.5z" />
    <glyph glyph-name="notequal" unicode="&#x2260;" horiz-adv-x="331" 
d="M207 171q11 19 36 62q5 9 10 9q10 0 10 -18q0 -1 -32 -54q34 -2 96 -4q16 0 16 -5q0 -6 -15 -6q-62 -2 -108 -2q-7 -11 -17 -26.5t-13 -19.5q48 -1 100 -3q16 0 16 -6t-15 -6q-18 -1 -55 -1.5t-57 -0.5q-35 -55 -50 -77q-7 -11 -13 -11q-3 1 -2 6.5t4 9.5q24 42 41 72
q-22 0 -116 -2q-18 0 -12 13q5 12 22 11q20 -1 42 -1.5t44 -1.5t31 -1q0 1 26 45q-15 -1 -55.5 -1.5t-60.5 -0.5q-10 0 -12.5 3t-0.5 9q6 12 23 12q10 0 117 -4z" />
    <glyph glyph-name="lessequal" unicode="&#x2264;" horiz-adv-x="331" 
d="M39 129q0 6 23 14q99 37 234 86q13 5 13 0q0 -3 -15 -10q-32 -14 -103 -45t-107 -47q93 -58 140 -87q10 -5 7 -9q-3 -3 -12 -1q-12 6 -167 87q-13 6 -13 12zM239 -26q0 -6 -14 -6q-35 -1 -109 -2t-114 -2q-17 0 -11 13q5 12 20 11q37 -1 109 -4t104 -4q15 0 15 -6z" />
    <glyph glyph-name="greaterequal" unicode="&#x2265;" horiz-adv-x="331" 
d="M265 130q0 -5 -23 -14q-137 -50 -233 -87q-13 -2 -13 0q-1 2 3 4.5t11 6.5q32 14 103 45t107 47q-97 61 -140 86q0 1 -2 2q-5 6 -4 8q2 3 11 0q126 -64 168 -86q12 -5 12 -12zM235 -26q0 -6 -14 -6q-35 -1 -109 -2t-114 -2q-17 0 -11 13q5 12 20 11q37 -1 109 -4t104 -4
q15 0 15 -6z" />
    <glyph glyph-name="lozenge" unicode="&#x25ca;" horiz-adv-x="300" 
d="M135 0l-40 188l155 185h32l41 -185l-156 -188h-32zM136 188l29 -143l118 143l-30 140z" />
    <glyph glyph-name="A.swash" unicode="&#xe000;" horiz-adv-x="1707" 
d="M1223 365q-36 0 -54 -1q-44 -104 -176.5 -169.5t-284.5 -65.5q-80 0 -142 21q-95 -93 -99 -217q68 -12 156 -9q121 5 233 38t212.5 92t186.5 127t181 161q-112 23 -213 23zM762 656q-156 0 -298 -49.5t-236 -145.5t-94 -216q0 -129 89 -207.5t234 -104.5q4 121 96 221
q-59 21 -94.5 58t-39.5 81q-1 15 2.5 27t7.5 17t7 3q1 -1 -1.5 -5.5t-5.5 -15.5t-1 -24q5 -44 43.5 -76.5t97.5 -49.5q94 93 250.5 149t343.5 64q14 36 14 70q0 54 -36.5 95t-97.5 64t-132 34t-149 11zM1440 12v-1q42 -2 86 -2q80 0 130 40q38 32 46 39q11 8 13 6
q3 -3 -6 -12q-26 -26 -55 -49q-61 -51 -151 -51q-25 0 -51 7q-28 6 -35 6q-26 -5 -37 -6q-21 -3 -37 -3q-43 0 -43 21q0 10 19 11.5t55 -1.5t46 -3q29 13 42 22q115 77 228 266q121 201 170 275q-85 -11 -145 -11q-100 -104 -213 -217q66 -18 108 -41.5t46 -43.5v-1
q-30 33 -169 68q-75 -75 -141.5 -132t-149.5 -112.5t-167 -91.5t-188 -60t-218 -28q-86 -3 -156 8q3 -102 71 -177t168.5 -111t219.5 -40q138 -4 256.5 30.5t183.5 90t63 114.5q0 40 -22 65q-2 2 -6 5t-3 6q2 5 15 -5q38 -32 40 -78q1 -59 -68.5 -116t-194 -92.5
t-264.5 -30.5q-93 3 -174 23.5t-148.5 60t-106.5 105.5t-40 152q-150 25 -242 107.5t-92 219.5q0 128 94 233.5t240 162.5t305 57q110 0 204.5 -26.5t157.5 -83.5t63 -135q0 -34 -11 -69q9 0 27.5 0.5t27.5 0.5q114 0 222 -22q59 56 207 204q-85 2 -161.5 17.5t-142.5 44.5
t-105 78.5t-39 113.5q0 87 73.5 140.5t172.5 53.5q66 0 118.5 -23.5t73.5 -65.5q4 -8 5.5 -16t1 -13t-3.5 -5q-1 0 -1.5 2.5t-2.5 10.5t-7 17q-19 39 -70.5 60t-113.5 20q-91 -2 -156.5 -52t-65.5 -132q0 -60 38 -107.5t101 -75t137.5 -42.5t155.5 -17q220 231 384 324
q180 102 309 99q48 -2 75.5 -23.5t27.5 -58.5q0 -53 -64 -118.5t-196 -126.5q-121 -56 -279 -84q-15 -24 -83.5 -137.5t-107.5 -171.5q-112 -166 -262 -252q-19 -10 -32 -14zM582 166v-1q60 -11 105 -11q149 0 284 58t184 151q-178 -8 -329.5 -59.5t-243.5 -137.5zM2291 966
q12 0 22 -2t14.5 -4.5t2.5 -5.5q-3 -3 -3.5 -2t-9.5 3t-21 2q-97 0 -203 -127q-60 -71 -160 -229q148 32 266 88q133 64 193.5 122.5t60.5 104.5q0 31 -25.5 51t-65.5 21q-77 1 -158 -29.5t-145 -73.5q-82 -55 -146.5 -114t-190.5 -195q63 2 144 14q88 131 200 248
q56 58 117 93t108 35z" />
    <glyph glyph-name="B.swash" unicode="&#xe001;" horiz-adv-x="1746" 
d="M120 169q0 165 151 278t370 113q35 0 84 -7q64 57 133 105q373 262 771 250q133 -3 218 -54q108 77 244 123t283 46q43 0 88 -6.5t95 -23.5t87.5 -43t61.5 -69.5t21 -97.5q-6 -111 -116.5 -182.5t-252.5 -71.5q-79 0 -145 30t-77 93q-11 62 33.5 108t99.5 57q33 7 33 -2
q0 -1 -3 -1.5t-11 -1t-17 -3.5q-51 -14 -86.5 -58t-26.5 -96q7 -38 41.5 -65t75.5 -38.5t83 -11.5q147 0 241 72t99 171q3 49 -17.5 89t-55 65.5t-79 43t-88 24.5t-85.5 7q-136 0 -266 -45.5t-240 -127.5q36 -28 59 -65.5t29 -88.5t-22 -105q-57 -114 -218 -163
q17 -15 25 -30q60 -90 5 -206q-45 -92 -157 -161q37 -22 58 -51t20 -56q0 -11 -6 -11q-3 0 -3 10q0 26 -21.5 54t-57.5 48q-54 -32 -112 -49t-99 -17q-80 0 -85 34q-3 16 14 33t57.5 30t94.5 13q58 0 110 -22q75 62 113 136q53 104 47 181q-4 37 -22 58q-23 -6 -49 -9
q-25 -2 -46 0q-73 6 -67 38q4 18 27.5 24.5t53.5 2.5q42 -5 87 -38q63 26 108.5 66t79.5 107q25 47 23 91.5t-17.5 77.5t-42.5 58q-51 -42 -116 -114t-198 -235q-215 -263 -367 -387q32 -84 14 -181q-32 -180 -179 -302.5t-327 -110.5q-157 10 -245.5 114.5t-78.5 281.5
q-108 33 -172 101.5t-64 172.5zM560 -133q-101 0 -191 24q-10 -166 76 -268.5t237 -113.5q169 -12 307 106.5t172 297.5q17 88 -8 166q-134 -107 -277 -159.5t-316 -52.5zM132 170q0 -99 61 -164.5t165 -97.5q8 100 51 209q-49 37 -61 85q-7 23 1 26q2 0 2.5 -2t2 -9
t3.5 -14q14 -41 57 -73q87 212 283 395q-18 3 -58 3q-132 0 -248 -45.5t-187.5 -128.5t-71.5 -184zM560 -120q174 0 310 59t268 179q-47 95 -171 129q-35 -84 -131 -135.5t-215 -53.5q-8 -33 -4 -60q3 -11 -1 -12t-7 9q-6 30 2 63q-113 2 -187 49q-45 -106 -53 -203
q83 -24 189 -24zM616 80l1 1q34 95 137 144q91 44 205 35q16 34 14 76q-3 73 -70.5 120.5t-167.5 63.5q-212 -188 -305 -400q78 -45 186 -40zM762 547v-1q98 -22 158.5 -77t62.5 -132q2 -43 -12 -79q130 -30 182 -125q113 105 322 359q200 240 359 353q-26 18 -86.5 34
t-120.5 17q-193 6 -370.5 -57.5t-370.5 -198.5q-78 -53 -124 -93zM628 83l1 -1q111 6 200.5 51t124.5 116q-106 12 -197 -34q-97 -49 -129 -132zM1685 422v1q-27 27 -71 34q-23 4 -45 -1t-24 -17q-5 -21 59 -27q36 -3 81 10zM1548 27v1q-46 18 -95 18q-47 0 -80 -9.5
t-46 -21.5t-12 -25q2 -16 18.5 -24t36.5 -8q89 0 178 69z" />
    <glyph glyph-name="C.swash" unicode="&#xe002;" horiz-adv-x="908" 
d="M146 121q0 199 177 430q-86 31 -134 94.5t-41 149.5q7 102 91.5 176t216.5 74q81 0 136.5 -31.5t69.5 -75.5q2 -4 2.5 -10.5t-2.5 -7.5q-2 0 -3 2.5t-2 6t-2 5.5q-16 42 -70.5 69t-129.5 27q-124 0 -205.5 -69.5t-88.5 -164.5q-6 -82 42.5 -139.5t135.5 -85.5
q39 47 71 76q157 150 369 246.5t384 91.5q36 -1 68.5 -8t63 -22.5t48 -44.5t15.5 -68q-3 -63 -53.5 -121.5t-127.5 -94t-154 -35.5q-95 0 -127 51q-71 -50 -178.5 -84t-237.5 -34q-53 0 -101 9q-181 -230 -181 -415q0 -112 60 -167t160 -55q84 0 168.5 43.5t148.5 113.5
q49 54 79 112t32 101q3 53 -27 89t-95 36q-55 0 -112.5 -31.5t-94.5 -75.5q-70 -83 -58 -160q5 -34 27.5 -51t50.5 -17q38 0 70 20q3 2 5.5 3.5t4 3t3 2.5t2 1.5t1.5 0.5q5 -5 -13 -18q-37 -24 -71 -24q-36 0 -60.5 19t-31.5 57q-16 88 57 176q38 46 97.5 75.5t122.5 29.5
q77 0 115 -41.5t33 -116.5q-3 -47 -31 -103t-72 -102q-67 -70 -163.5 -113t-185.5 -43q-55 0 -102 12.5t-87 39t-62.5 74t-22.5 112.5zM483 550q124 0 231 30t176 74q-4 9 -4 26q0 31 23.5 55.5t45.5 24.5q9 0 14.5 -7.5t4.5 -15.5q-2 -37 -68 -89q22 -35 87 -35
q74 0 155.5 38.5t135 95.5t53.5 108q0 63 -52.5 91t-121.5 28q-352 0 -713 -359q-21 -21 -52 -59q42 -6 85 -6zM952 750q-18 0 -36.5 -21t-18.5 -45q0 -15 4 -24q57 42 62 73q2 17 -11 17z" />
    <glyph glyph-name="D.swash" unicode="&#xe003;" horiz-adv-x="1613" 
d="M647 -22v1q-216 28 -354 28q-85 0 -173.5 -9t-88.5 -28q0 -10 52.5 -12t181.5 -2q246 0 382 22zM723 -17v-1q148 -15 257 -15q131 0 235.5 29t211.5 102q118 79 195.5 207t77.5 255q0 94 -31 174q-35 -31 -70 -65t-77.5 -80.5t-66 -72.5t-77.5 -89t-71 -82
q-237 -274 -584 -362zM985 -48q-127 0 -299 22q-97 -22 -211 -32q-91 -9 -211 -9q-247 0 -247 37q0 48 278 48q39 0 78 -1.5t67.5 -3t69 -5.5t59.5 -6.5t63.5 -7.5t58.5 -7q156 33 280.5 119t281.5 266q237 269 402 392q-60 117 -190 175.5t-306 58.5q-175 0 -332.5 -61
t-259.5 -172t-111 -245q-8 -129 65 -195.5t179 -66.5q102 0 199.5 48.5t158 127t60.5 160.5q0 62 -42 108.5t-118 46.5q-94 0 -168.5 -64t-79.5 -152q-1 -12 2 -23q0 -5 -2 -5q-3 0 -5 4.5t-3.5 11t-0.5 12.5q4 93 79.5 161.5t177.5 68.5q94 0 142.5 -58t42.5 -145
q-5 -81 -65 -157t-153.5 -123t-190.5 -47q-60 0 -112.5 16.5t-95 50t-64.5 89.5t-17 129q10 141 111.5 258.5t261.5 183.5t340 66q167 0 303 -67.5t205 -186.5q256 189 511 189q119 0 190.5 -54.5t71.5 -149.5q0 -116 -89.5 -195t-224.5 -79q-67 0 -118 33.5t-51 96.5
q0 35 18 66.5t42 48.5q14 10 16 5q1 -3 -4 -6q-3 -2 -5 -4q-56 -43 -56 -110q0 -54 46.5 -79t106.5 -25q122 0 215 71t93 177q0 89 -70.5 141t-180.5 52q-260 0 -496 -205q39 -83 44 -186q7 -148 -60.5 -282t-203.5 -221q-163 -104 -476 -104z" />
    <glyph glyph-name="E.swash" unicode="&#xe004;" horiz-adv-x="872" 
d="M674 387q89 0 138 -54.5t31 -141.5q-25 -119 -150 -206.5t-275 -91.5q-136 -4 -216.5 69.5t-56.5 210.5q15 86 70.5 161.5t129.5 128.5q96 69 203 98q-13 35 -10 75q3 39 20 78q-71 21 -113 41q-94 44 -147.5 114t-53.5 148q0 102 75.5 169.5t190.5 67.5q102 0 183 -58
q43 -32 65 -71.5t22 -75.5q0 -16 -5 -16q-1 0 -5 16q-7 74 -84 134q-76 57 -178 57q-106 0 -176 -58.5t-71 -152.5q0 -75 53.5 -142.5t144.5 -109.5q52 -24 110 -40q51 88 160.5 141t226.5 55q142 4 217.5 -49t61.5 -136q-10 -57 -60.5 -94t-122.5 -42q-70 -4 -122 18.5
t-65 69.5q-43 -9 -99 -9q-87 0 -162 14q-14 -34 -17 -71q-4 -35 3 -64q28 6 60 6q51 0 82 -14t27 -42q-2 -20 -25 -29.5t-52 -7.5q-94 7 -129 68q-97 -29 -186 -107q-130 -119 -157 -278q-21 -121 36 -192.5t175 -67.5q135 4 249.5 99t140.5 212q14 64 -24 111.5t-116 47.5
q-93 0 -168 -59t-75 -148q0 -27 17 -46.5t48 -21.5q26 -3 55 12q10 7 12 7q5 -5 -10 -14q-32 -17 -61 -16q-38 1 -62.5 26t-24.5 62q0 80 85.5 144.5t186.5 64.5zM613 727v-1q87 -20 188 -20q28 0 62 6q-1 44 29.5 73t66.5 29q20 0 30.5 -11.5t8.5 -27.5q-4 -23 -37 -42.5
t-86 -30.5q13 -39 62.5 -56t114.5 -13q67 4 115.5 38t56.5 80q13 77 -59.5 125.5t-208.5 45.5q-105 -2 -201.5 -56.5t-141.5 -138.5zM957 805q-30 0 -57 -25.5t-26 -65.5q45 9 77 26.5t36 34.5q2 13 -6 21.5t-24 8.5zM650 566q-31 0 -57 -6q16 -60 92 -67q23 -2 41.5 5
t20.5 22q3 23 -25 34.5t-72 11.5z" />
    <glyph glyph-name="F.swash" unicode="&#xe005;" horiz-adv-x="1399" 
d="M575 -112q365 0 668 316q-68 93 -180 113q-39 -95 -157.5 -155.5t-255.5 -60.5q-16 -49 -8 -88q0 -13 -1 -14q-4 -1 -8 11q-8 46 6 91q-71 1 -135 25t-95 68q-60 -131 -71 -267q100 -39 237 -39zM1634 410v1q-38 -32 -176 -30q-87 -114 -173 -199q71 -118 43 -272
q-25 -140 -113.5 -253t-219 -174t-273.5 -52q-192 12 -296 127.5t-104 297.5q0 18 2 62q-96 39 -148.5 111.5t-52.5 174.5q0 115 84 212.5t215.5 151t274.5 53.5q16 0 50 -2q253 184 532 265q313 92 691 73q155 -7 257 -52.5t115 -104.5q6 -22 0 -22q-1 0 -2 1.5t-3 7
t-4 9.5q-29 53 -125.5 83t-215.5 37q-379 21 -705 -64q-278 -72 -518 -235q131 -14 219.5 -74t88.5 -152q0 -32 -11 -63q118 -20 192 -109q79 89 132 164q-58 2 -88.5 -4.5t-58.5 -27.5q-9 -9 -12 -7q-3 1 -0.5 5.5t6.5 8.5q59 50 171 50q331 474 617 490h18.5t16.5 -1
t11.5 -2.5t3.5 -4.5q0 -3 -12 -3q-21 0 -43 -2q-51 -4 -102.5 -25t-99 -57.5t-86.5 -73t-81 -88t-66 -83.5t-56 -78q-24 -36 -53 -74q45 -6 91.5 -4.5t74.5 22.5q55 76 79 59q26 -17 -27 -60q-63 -51 -104 -92q-4 -6 -10 -5q-3 2 -2 4t5 6q27 38 51 74zM1067 391
q0 60 -50 104t-123 64.5t-161 24.5q-225 -182 -318 -377q51 -83 214 -83h19q40 93 147.5 155t237.5 53q1 0 9.5 -1t12.5 -2q12 30 12 62zM336 -141q0 -178 101.5 -291.5t287.5 -126.5q204 -14 368 122t205 349q26 142 -31 252q-306 -292 -691 -291q-136 0 -239 39
q-1 -19 -1 -53zM660 125v-1q129 7 240 61t150 135q-3 0 -9.5 0.5t-10.5 0.5q-120 9 -224 -50t-146 -146zM134 206q0 -97 50 -166t141 -107q14 147 74 277q-6 12 -12 38q-5 29 4 29q1 -1 1.5 -4t1 -9t2.5 -13q2 -11 10 -29q90 187 303 363h-18q-137 0 -265 -49t-210 -137.5
t-82 -192.5z" />
    <glyph glyph-name="G.swash" unicode="&#xe006;" horiz-adv-x="831" 
d="M203 123q0 -158 162 -158q95 0 217 71q99 108 168 169q65 55 99 55q9 0 13.5 -5t1.5 -15t-14 -24q-60 -72 -206 -169q-168 -197 -345 -438q-109 -147 -205 -308q-75 -124 -103 -205q-11 -31 6 -33q13 -1 35 25q48 60 142 195q167 236 235 325q110 141 228 278
q113 128 132 148q50 50 65 61q8 8 11 5q2 -4 -6 -12q-39 -34 -64 -62q-31 -32 -127 -146q-125 -150 -226 -279q-69 -90 -236 -326q-87 -125 -147 -194q-32 -39 -57 -34q-39 12 -25 70q17 68 94 201q95 163 216 328q141 194 300 371v1q-99 -64 -202 -64q-90 0 -150.5 42
t-67.5 130q-10 130 90 298q-68 40 -106 113t-27 158q22 164 187 279.5t379 126.5q280 13 359 -138q65 11 123 10q79 -2 124 -35t45 -94q0 -80 -69.5 -168t-179 -159t-256 -117.5t-288.5 -46.5q-128 0 -234 43q-91 -156 -91 -273zM246 437h1q64 104 168 207
q109 109 266.5 195t336.5 122q-82 141 -349 128q-203 -11 -353.5 -123.5t-171.5 -271.5q-10 -81 18 -149.5t84 -107.5zM528 364q181 0 362 74.5t293.5 186.5t112.5 217q0 54 -37 86.5t-109 34.5q-46 1 -117 -13q28 -79 -5.5 -168.5t-107.5 -148.5q-61 -49 -139 -71t-136 -22
q-18 0 -30 2t-16 4.5t-3 5.5q4 2 4.5 1t14 -2.5t30.5 -1.5q49 0 122.5 26.5t136.5 76.5q74 60 109.5 140t9.5 155q-109 -26 -222.5 -86.5t-193 -122.5t-147.5 -130q-97 -96 -159 -201q98 -43 227 -43zM662 70v-1q125 90 180 152q10 11 11.5 17.5t-1.5 8.5t-7 2
q-21 0 -67 -49q-67 -74 -116 -130z" />
    <glyph glyph-name="H.swash" unicode="&#xe007;" horiz-adv-x="2020" 
d="M709 101q-107 0 -170.5 33.5t-71.5 82.5q-2 16 0 26t5 15.5t5 4.5q1 0 -0.5 -4t-3 -13t1.5 -25q8 -47 70.5 -75.5t163.5 -28.5q152 0 251.5 62t103.5 152q4 103 -118 161.5t-314 38.5q-204 -22 -336.5 -127.5t-132.5 -240.5q0 -71 31 -125.5t80 -86.5t116 -52
t132.5 -26.5t135.5 -4.5q278 9 534 139q-24 55 -9 119q27 118 168 197t331 84q46 54 129 158t142.5 173.5t113.5 120.5v1q-250 -174 -342 -229q-267 -160 -486 -160q-64 0 -103.5 31.5t-38.5 81.5q0 11 4 11q2 1 2.5 -1.5t0.5 -7.5q1 -43 40 -65t96 -22q113 0 240.5 39.5
t238.5 103.5q65 37 193.5 124t177.5 117q24 23 62.5 50t49.5 27q5 0 7.5 -3.5t1 -9t-8.5 -11.5q-24 -20 -67 -43q-62 -67 -195.5 -244t-190.5 -243q79 -4 132.5 -22t72 -39.5t11.5 -40.5q-20 27 -76 56t-149 36q-39 -48 -113 -119.5t-145 -126.5q-125 -97 -255 -160
q29 -57 92.5 -89t139.5 -31q52 0 83 18q8 6 9 5q3 -3 -6 -10q-35 -22 -89 -22q-83 0 -148 31t-101 87q-249 -115 -549 -124q-74 -2 -144 4t-144.5 26.5t-129 54.5t-89.5 92.5t-35 134.5q0 139 150.5 246.5t366.5 128.5q206 21 338.5 -40t127.5 -169q-6 -106 -116 -169
t-274 -63zM1674 395v1q-172 -5 -303 -83t-157 -192q-12 -52 1 -101q117 62 240 163q132 110 219 212zM1726 27v-1q86 32 138 28q20 -2 34 -12t15 -26q43 21 102 73q7 4 9 2q3 -1 -2 -8q-60 -55 -120 -94q-34 -22 -66 -22q24 21 27 40q3 29 -48 29q-60 0 -119 -32
q-22 -15 -37 -21q-18 -5 -20 4q-1 9 11 14q7 3 28 11t29 11q25 12 50 29.5t55 49.5t49 53t55 71.5t50 70.5t57.5 84.5t55.5 81.5q202 295 372.5 430.5t324.5 135.5q49 0 86.5 -14t57 -47t7.5 -80q-12 -48 -51 -86t-88 -58t-96.5 -29.5t-86.5 -7.5q-62 4 -90 22
q-20 16 -19 24q1 1 2 -1t6 -6.5t14 -9.5q29 -16 87 -19q51 -2 111.5 15t116 59t69.5 99q16 64 -23 97.5t-102 33.5q-55 0 -118 -26.5t-140.5 -85t-169 -165.5t-185.5 -254q-121 -190 -228 -307.5t-210 -155.5z" />
    <glyph glyph-name="I.swash" unicode="&#xe008;" horiz-adv-x="1615" 
d="M1210 470q-60 0 -100.5 26t-45.5 75q-49 5 -101 2q-126 -6 -256.5 -63t-207.5 -147q97 -5 153 -40q18 -11 30.5 -26t15.5 -25.5t0 -11.5q-2 -1 -3.5 2t-4.5 8.5t-7.5 12t-14 15t-21.5 16.5q-52 34 -154 39q-60 -74 -67 -159q-13 -158 114 -239q77 -3 148 2
q174 13 320.5 69.5t235.5 149t89 200.5q0 58 -35 99q-30 -5 -88 -5zM124 161q0 51 31 91t81.5 63.5t108.5 36t118 12.5q82 94 225.5 154t275.5 66q37 2 100 0q1 42 23 66q10 10 12 8q1 -1 -7 -11q-18 -28 -18 -64q156 -12 229 -79q89 11 196.5 53t186.5 87q54 31 111 67
t155 101t131 87q104 68 202 112q22 18 66 37q11 5 24 7.5t15 -0.5q8 -11 -5 -21.5t-29 -15.5q-52 -17 -79.5 -34t-64.5 -53q-73 -71 -149 -164.5t-175.5 -229.5t-105.5 -143q-199 -263 -407.5 -382.5t-484.5 -136.5q-244 -16 -383 67q-84 4 -151 19.5t-109.5 37.5t-71 50
t-40 55.5t-11.5 56.5zM1211 498q41 0 66 3q-67 57 -202 69q7 -34 47 -53t89 -19zM556 -58v-1q132 -67 336 -54q229 14 425.5 132.5t337.5 301.5q245 318 320 405q19 22 38 43q145 162 259 226v1q-78 -36 -202 -115q-36 -24 -167.5 -114.5t-206.5 -135.5q-202 -121 -373 -152
q35 -44 35 -104q0 -106 -87 -199.5t-241.5 -155t-344.5 -75.5q-42 -3 -129 -3zM492 -44v1q-121 86 -107 239q7 83 69 158q-56 -1 -107 -12t-94.5 -33t-69.5 -60t-26 -88q0 -69 80.5 -130.5t254.5 -74.5z" />
    <glyph glyph-name="J.swash" unicode="&#xe009;" horiz-adv-x="1995" 
d="M1135 -102q-60 0 -103 23q-95 -107 -300 -161q109 -67 300 -67q113 0 228.5 36.5t209.5 92t186.5 133.5t158.5 148t128 148q-80 8 -130.5 56t-50.5 126q0 123 114.5 248t312.5 223q103 50 235 80t224 30q120 0 121 -24v-3q-1 -5 -5 -7t-20 -5t-31 -7q-84 -24 -161 -74
q-113 -71 -246 -245q32 -28 39 -72.5t-14 -93.5q-37 -83 -128.5 -146.5t-189.5 -83.5q-80 -99 -156 -178t-172.5 -155t-194.5 -127t-217 -82t-244 -31q-205 0 -325 72q-86 -21 -185 -23q-116 -3 -209 23.5t-147.5 87.5t-43.5 147q7 51 44 93t81 63t85 26q19 0 19 -3t-15 -3
q-62 -8 -117 -56t-64 -120q-11 -83 38.5 -141t135.5 -83.5t197 -22.5q95 3 168 21q-139 90 -124 249q7 82 60.5 153t133 116.5t169.5 72.5t177 32q190 10 292 -52t102 -166q0 -74 -59 -137.5t-142.5 -97t-164.5 -33.5zM1138 -92q76 0 152.5 31t129.5 91.5t53 133.5
q0 96 -94.5 157.5t-272.5 52.5q-116 -6 -224.5 -49t-187 -127t-87.5 -190q-14 -153 113 -239q97 24 176.5 65.5t124.5 92.5q-57 40 -51 106q3 26 18 48t39 23q30 2 42.5 -21t9.5 -60q-4 -48 -40 -92q44 -23 99 -23zM1029 -63h1q32 45 35 85q2 30 -9 50t-28 19
q-18 -2 -31.5 -18.5t-15.5 -43.5q-5 -54 48 -92zM1792 424q0 -72 41.5 -114.5t117.5 -48.5q27 34 139 178q122 159 176 221q-26 14 -65 14q-55 0 -99 -27q-7 -4 -13 -9.5t-8 -8t-3 -2.5q-2 1 0.5 5.5t7.5 10.5t12 11q44 29 107 29q42 0 69 -14q129 148 262 232q87 53 174 77
q9 2 17.5 4t13.5 3t8.5 1.5t5 1t1.5 1.5q1 6 -32.5 11t-67.5 5q-91 0 -224 -31t-234 -81q-184 -91 -295 -222t-111 -247zM2296 637h-1q-32 -44 -89.5 -127t-82.5 -116q-21 -29 -100 -129q91 21 169 84t113 143q40 89 -9 145z" />
    <glyph glyph-name="K.swash" unicode="&#xe00a;" horiz-adv-x="2123" 
d="M1789 -36q-29 0 -56 8q-41 -73 -46 -133q0 -11 -4 -12q-5 -1 -5 12q4 65 41 138q-43 16 -65.5 50.5t-15.5 82.5q8 58 63 140q65 93 76 122q13 33 -3 61q-24 -5 -56 -5q-25 0 -44 8t-16 24q3 14 22 19t41 1q41 -8 67 -31q16 6 31 15t34 26t33 31t40 45.5t43 53t55.5 69.5
t63.5 79q51 64 87 104.5t84 83.5t95.5 64t95.5 21q44 0 77 -21.5t37 -55.5q0 -15 -5 -15q-1 0 -4 12q-5 33 -36 51t-71 18q-29 0 -60 -14t-55 -32.5t-55.5 -53t-50 -58t-50.5 -66t-46 -59.5q-123 -154 -194.5 -221.5t-140.5 -87.5q31 -39 22 -88q-7 -40 -61 -122
q-60 -92 -67 -141q-10 -70 36 -95q47 88 108 149q122 125 216 119q30 -2 48 -18.5t14 -45.5q-11 -76 -115 -154t-208 -78zM1740 -13v-1q20 -8 54 -8q98 0 194.5 71.5t107.5 145.5q4 24 -8 41t-35 18q-78 5 -206 -123q-60 -60 -107 -144zM1767 443v1q-17 20 -46 25
q-16 3 -33 0.5t-18 -10.5t8 -13t20 -6.5t22 -1.5q30 0 47 5zM763 666l-1 -1q23 -86 133 -132t253 -46h22q-23 83 -137 128.5t-270 50.5zM1188 973q-111 0 -196 -22.5t-135 -61t-75 -85t-25 -98.5q104 -3 194 -28.5t154 -75t79 -114.5q211 19 412 157q42 29 123.5 102.5
t109.5 96.5q37 32 62 40q69 64 100 64q6 0 7 -5t-4 -10q-16 -16 -76 -42q-39 -38 -158.5 -214.5t-159.5 -227.5q-122 -156 -239.5 -263t-237.5 -168.5t-237.5 -87.5t-255.5 -26q-89 0 -172.5 19.5t-156 58.5t-119.5 106.5t-54 154.5q-10 126 76.5 234t229 168.5t299.5 60.5
h14q1 56 29 107t80.5 93.5t138.5 68t193 25.5q148 0 248.5 -60.5t99.5 -146.5q0 -5 -1.5 -9t-4.5 -3t-3 12q0 53 -46 94.5t-123 63.5t-170 22zM1877 866v1q-5 -2 -22 -14t-20 -14q-11 -9 -102 -92.5t-133 -112.5q-225 -152 -412 -171v-11q0 -91 -70.5 -166.5t-179.5 -116.5
t-228 -41q-69 0 -131.5 15t-110 54t-48.5 95q0 7 1 14t3.5 12t5.5 5q1 0 1.5 -0.5t0 -2.5t-1.5 -5t-1 -8.5v-12.5q1 -39 25.5 -67.5t64.5 -43.5t82 -22t88 -7q118 0 229 37.5t184 107t73 151.5q0 8 -1 11q-4 0 -13.5 -0.5t-14.5 -0.5q-147 -4 -261 53t-135 153h-22
q-114 0 -224 -31.5t-193.5 -86t-132 -134t-41.5 -169.5q6 -83 53 -148t119.5 -103t154 -57t165.5 -19q260 0 469 124t432 407q10 12 55 70.5t62 80t56.5 70.5t63 76.5t54.5 61.5t56 58z" />
    <glyph glyph-name="L.swash" unicode="&#xe00b;" horiz-adv-x="1516" 
d="M385 -67q-78 0 -141.5 15t-101.5 49t-25 82q12 44 84 67.5t181 18.5q84 -4 177 -23t148 -36.5t151 -50.5q217 114 455 390q-83 30 -134 89.5t-51 144.5q0 130 129.5 225.5t306.5 95.5q69 0 133 -22t101 -63q167 94 335 94q89 0 145 -41t56 -113q0 -97 -88 -181.5
t-208 -127.5q-76 -27 -152 -27t-114 26q-40 -50 -131.5 -86t-185.5 -36q-42 0 -88 8q-236 -268 -482 -386q178 -61 296 -67q191 -10 334 113q13 10 15 8q2 -1 -1.5 -5.5t-7.5 -8.5q-1 -1 -14 -12l-19.5 -16.5t-23 -19t-28 -21.5t-31.5 -20t-37 -20t-39.5 -16.5t-44 -13.5
t-46.5 -8t-50 -2q-49 2 -110 17.5t-102.5 30.5t-119.5 45q-217 -96 -471 -96zM1464 452q95 0 180 28.5t121 70.5q-18 14 -19 35q-2 18 5.5 30t19.5 12q23 0 23 -30q0 -20 -15 -45q33 -21 102 -17t148 31q121 42 208 117.5t87 168.5q0 68 -52.5 106.5t-136.5 38.5
q-161 0 -322 -101q23 -36 23 -79q0 -91 -96.5 -156.5t-218.5 -65.5q-13 0 -19 1q-66 -83 -116 -141q33 -4 78 -4zM1825 818q0 43 -23 72q-138 -91 -291 -280h11q120 0 211.5 61.5t91.5 146.5zM1783 595q0 25 -12 25q-9 0 -13.5 -9.5t-2.5 -22.5q1 -16 16 -29q12 16 12 36z
M1564 975q-177 0 -301.5 -85.5t-124.5 -212.5q0 -81 52.5 -133.5t138.5 -76.5q62 76 115 138q-49 12 -78.5 40t-29.5 67q0 18 8 31.5t16.5 18t10.5 1.5q1 0 -5 -5t-13 -17t-7 -28q0 -37 29 -62t78 -34q168 195 334 292q-70 66 -223 66zM385 -56q246 0 448 96
q-124 49 -232 79t-222 35q-104 4 -168 -16.5t-75 -58.5q-11 -42 26.5 -73.5t97.5 -46.5t125 -15z" />
    <glyph glyph-name="M.swash" unicode="&#xe00c;" horiz-adv-x="2164" 
d="M126 218q0 112 74 209t198.5 159.5t275.5 83.5q37 6 73 7q58 91 200 135t323 34q224 -13 617 -92q163 146 244 198q56 36 77 21q22 -15 4 -44q-13 -21 -45.5 -57.5t-56 -60.5t-84.5 -85q37 -7 109 -21q125 101 271 191q228 139 347 139q87 0 110 -58q54 -4 94 -31.5
t44 -74.5q8 -76 -57 -133.5t-165.5 -84.5t-211.5 -24q-114 3 -295 35q-97 -78 -193 -172q-119 -117 -197 -225t-93 -183q-11 -51 12 -87t70 -36q91 0 183 94q23 23 40.5 50t27 53.5t10.5 49t-10.5 38t-34.5 18.5q-61 9 -131 -64q-58 -60 -57 -119q0 -11 -3 -12q-2 -1 -4 3.5
t-2 7.5q-3 31 14.5 67.5t42.5 62.5q29 31 66.5 50t71.5 15q43 -7 57 -46.5t-4.5 -92t-62.5 -95.5q-95 -91 -205 -91q-58 0 -90.5 34.5t-27.5 95.5q15 169 291 445q59 58 167 152q-13 3 -36.5 7.5t-33.5 6.5q-106 -87 -215 -189q-247 -244 -544 -579q-35 -37 -57 -24
q-27 14 2 75q44 91 165.5 249.5t253.5 295.5q62 64 216 209q-13 2 -37 6.5t-30 5.5q-127 -115 -244 -230q-196 -193 -274 -262q-286 -251 -541 -324q-102 -29 -206 -32q-101 -3 -189 13.5t-159.5 54t-113 104t-41.5 154.5zM2842 966q-125 0 -250.5 -68.5t-305.5 -217.5
q157 -23 296 -28q101 -3 194 19.5t156 74.5t56 123q-4 47 -47 72t-99 25zM136 219q0 -84 42.5 -144.5t116 -92.5t160.5 -45.5t187 -9.5t193.5 26.5t184.5 70.5t155 86.5t154 117.5t130.5 117t130.5 127q35 34 52 51q97 96 235 221q-360 66 -603 74q-173 6 -309 -30
t-198 -111q181 2 304.5 -65t123.5 -190q0 -90 -76 -167t-190 -118.5t-233 -41.5q-66 0 -127.5 17.5t-105.5 56.5t-47 91q-1 14 1.5 26t6 17t5.5 4q1 -1 0 -6t-3 -14t0 -25q5 -40 30 -68.5t63 -44t79 -22t87 -6.5q117 0 232 38.5t191.5 109t76.5 152.5q0 64 -37 110.5
t-100 70.5t-138.5 33t-161.5 4q-24 -49 -20 -110q6 -77 69.5 -122t141.5 -45q15 0 26 3t15.5 5t5.5 1q1 -2 -3 -6t-16 -8t-29 -4q-80 -1 -147 45.5t-74 130.5q-6 60 15 108q-29 -1 -62 -6q-144 -20 -264.5 -77.5t-195 -146t-74.5 -188.5zM2748 1018q-119 0 -336 -133
q-127 -78 -259 -183q57 -10 69 -11q177 143 323 213q159 74 307 74q-21 40 -104 40zM1971 737h1q34 31 87 79t83 76t46 46q1 2 4.5 5.5t5 5.5t3 5t1 5.5t-2.5 4.5q-10 9 -54 -18q-75 -47 -240 -196q22 -3 66 -13zM2017 715h-1q-167 -163 -233 -232q-117 -123 -254 -289.5
t-179 -237.5q-25 -43 -16 -48q11 -6 40 28q251 286 512 546q115 114 237 212q-85 17 -106 21z" />
    <glyph glyph-name="N.swash" unicode="&#xe00d;" horiz-adv-x="1838" 
d="M1803 610l-1 1q-187 -256 -431 -454q-364 -296 -753 -296q-73 0 -141.5 12t-132.5 39t-112 66t-76.5 97.5t-28.5 128.5q0 129 89 237t231 167.5t300 59.5q110 0 204.5 -29t156.5 -88.5t62 -138.5q0 -91 -70 -166.5t-179 -116t-227 -40.5q-107 0 -195 43t-97 121
q-2 16 1 27.5t7.5 16t7.5 2.5q1 -1 -1.5 -5.5t-4.5 -15t0 -22.5q10 -73 86 -107t174 -34q118 0 229.5 37.5t185 107t73.5 152.5q0 54 -37 96.5t-98.5 68t-134 38.5t-149.5 13q-115 0 -223 -30t-192.5 -83.5t-136 -134t-51.5 -174.5q0 -83 43.5 -146t116 -98t154 -52
t168.5 -17q398 0 743 276q255 203 443 465q16 112 48 164q36 59 119 79q50 57 102 68q23 6 44 1.5t24 -17.5q3 -14 -14 -22t-54 -16q-61 -12 -89 -19q-28 -30 -65 -87q-35 -51 -63 -105q-8 -104 -21 -225q-12 -117 -41 -225l1 -1q94 125 212 249.5t233 215.5q120 96 215 161
t204 122t220 84.5t229 27.5q65 0 125.5 -13t116 -40.5t90.5 -77.5t38 -116q5 -99 -71 -181t-197.5 -126t-254.5 -44q-118 0 -193.5 47t-79.5 128q-4 70 53 121t133 55q13 0 22.5 -2t13.5 -5t4 -5q0 -1 -4 0t-14 3t-22 1q-71 -5 -124.5 -53t-49.5 -113q4 -72 85 -110t198 -38
q127 0 240 38.5t184 113t66 167.5q-3 56 -40.5 97.5t-95.5 63t-118 31.5t-121 10q-128 0 -237.5 -22.5t-213 -72t-191.5 -109t-204 -152.5q-117 -94 -240 -225t-219 -259q-38 -136 -78 -197q-18 -29 -43.5 -49t-35.5 -15q-12 6 15 62q40 85 95 164q8 33 14 70t9 63.5
t8.5 77.5t9.5 84q12 104 20 149zM1994 883v-1q15 3 44 9.5t36 7.5q54 11 59 22q1 2 1 5q-2 19 -55 7q-39 -9 -85 -50zM1737 139h-1q-35 -52 -79 -140q-21 -45 -17 -47t16 10t28 40t28 62q3 8 8 24t9 28.5t8 22.5zM1859 701h1q19 39 51 89q29 44 56 76h-1q-79 -20 -98 -83
q-6 -20 -9 -82z" />
    <glyph glyph-name="O.swash" unicode="&#xe00e;" horiz-adv-x="1414" 
d="M368 135h-1q-130 43 -197.5 135.5t-44.5 209.5q25 126 136.5 198t279.5 70q106 -2 174 -47q169 165 366.5 255.5t352.5 85.5q99 -3 162 -47.5t82.5 -115.5t8 -159t-55.5 -183.5t-112 -183.5q-97 -125 -214.5 -223.5t-235.5 -149.5q-1 -4 -2.5 -12.5t-2.5 -12.5
q-17 -67 -57 -131t-98.5 -117t-141 -80.5t-173.5 -16.5q-161 19 -225 162.5t-1 362.5zM397 147h1q110 -30 243 -24q-4 88 39 195.5t118 207.5q59 79 141 155.5t170 135t177.5 88.5t155.5 16q47 -10 72.5 -43t26 -70t-6.5 -73q-26 -97 -103 -200.5t-187.5 -193.5t-260 -154.5
t-304.5 -80.5q0 -143 142 -161q106 -13 235 51q7 48 -4 81q-1 6 -2.5 10.5t-2.5 7t-1 4.5l-1 2v1q4 3 7.5 -2.5t7.5 -15.5q13 -31 11 -80q211 111 412 371q67 87 112.5 178t61 174.5t1 150t-72 108t-152.5 45.5q-153 6 -344.5 -84.5t-356.5 -255.5q15 -11 27.5 -28t15.5 -31
q0 -15 -1 -15t-9 14q-15 27 -44 48q-127 -130 -215 -286q-72 -129 -109 -246zM392 128h-1q-59 -216 -1.5 -353t205.5 -155q86 -11 164.5 15t135 76.5t95.5 114t58 131.5q0 2 0.5 4.5t1.5 5.5t1 5q-124 -50 -231 -37q-82 9 -125.5 53t-52.5 114q-131 -9 -250 26zM681 127h-1
q123 13 242.5 55.5t217 104.5t177.5 137t132 155t73 156q7 35 7.5 70t-23 66t-67.5 40q-62 14 -145.5 -21t-165 -100.5t-154.5 -141t-131 -152.5q-60 -79 -107.5 -182t-54.5 -187zM374 154h1q35 118 107 244q88 158 221 292q-66 36 -161 38q-160 2 -271 -65t-134 -184
q-23 -113 43.5 -198.5t193.5 -126.5z" />
    <glyph glyph-name="P.swash" unicode="&#xe00f;" horiz-adv-x="1253" 
d="M1471 418q-37 0 -73 11q-169 -207 -302 -320q18 -52 8 -120q-28 -178 -183.5 -305t-338.5 -121q-160 5 -242.5 107.5t-66.5 267.5q-174 87 -145 275q17 107 106.5 203t213 153t247.5 64q56 44 99 74q188 130 399.5 202t399.5 69q135 -1 228 -59q214 140 413 140
q122 0 203 -59.5t65 -157.5q-17 -110 -129.5 -183t-236.5 -74q-36 0 -43 11v4q1 1 4 -0.5t13.5 -3.5t25.5 -2q117 2 220.5 74.5t119.5 176.5q14 93 -58 148t-187 55q-202 0 -393 -142q40 -31 58 -80q19 -47 6 -109t-57 -119q-60 -79 -161.5 -129.5t-212.5 -50.5zM515 -113
q-127 0 -227 44q-15 -155 64.5 -253.5t231.5 -103.5q84 -3 168 30t150 89.5t112.5 134t59.5 159.5q9 55 -2 104q-254 -204 -557 -204zM518 -102q156 0 286.5 60.5t254.5 174.5q-48 103 -167 120q-48 -43 -105.5 -69.5t-101.5 -26.5q-15 0 -25.5 1.5t-19 8t-8.5 17.5
q1 34 71.5 57t144.5 23h29q71 69 84 152q15 92 -53 147t-175 58q-187 -149 -299 -317q-121 -182 -144 -356q94 -50 228 -50zM741 632v-1q72 -3 130.5 -27t93 -72.5t24.5 -111.5q-13 -84 -91 -159q122 -19 178 -111q112 106 272 305q-62 45 -49 121q12 72 70 114q8 6 17 10
t14 4.5t7 -0.5q1 -1 -0.5 -1.5t-4 -2t-6 -3t-9.5 -5.5t-11 -8q-20 -15 -40.5 -43t-25.5 -63q-12 -72 45 -114q90 118 198 227q125 129 254 218q-81 55 -214 58q-182 3 -381.5 -70.5t-390.5 -206.5q-17 -12 -80 -58zM851 256q-64 0 -132 -20.5t-69 -48.5q-1 -11 9.5 -16
t28.5 -5q41 0 91.5 24.5t91.5 64.5q-5 1 -20 1zM1475 429q96 0 183 52.5t144 136.5q76 112 59 201q-8 43 -38 75q-112 -84 -237 -231q-26 -30 -180 -224q30 -10 69 -10zM686 621v1q-180 -13 -340 -136t-185 -280q-26 -166 114 -250q22 174 138 359q102 163 273 306z" />
    <glyph glyph-name="Q.swash" unicode="&#xe010;" horiz-adv-x="1234" 
d="M556 -61q87 0 201 62.5t210 161.5q88 90 145.5 184.5t72.5 168.5q9 46 -5 47q-4 0 -6.5 -2t-5.5 -7.5t-6 -11.5t-9.5 -18t-12.5 -23q-60 -107 -147 -186q-157 -140 -258 -121q-82 16 -79 112q2 64 47.5 149t114.5 157q107 114 236 181.5t237 54.5q63 -8 93 -52t29 -104
q0 -21 -4 -69q41 33 66.5 80t26.5 95q2 90 -61.5 137.5t-173.5 47.5q-133 0 -267.5 -59.5t-238.5 -147.5t-196 -202q-43 -54 -82 -120t-69.5 -137.5t-41 -138.5t-0.5 -120.5t56.5 -86t127.5 -32.5zM2 -184q0 -29 79.5 -42.5t195.5 -11.5q142 2 260 29v1q-206 59 -358 64
q-177 6 -177 -40zM-12 -184q0 56 193 50q159 -4 401 -60q264 75 477 274q137 127 220 262.5t109 255.5q-26 -14 -48 -21q-12 -4 -25.5 -6t-15.5 3q0 2 3 2.5t13.5 2t23.5 6.5q23 8 52 28q8 45 8 79q0 131 -111 145q-100 12 -214 -55.5t-220 -176.5q-77 -81 -126.5 -163.5
t-53.5 -143.5q-2 -35 14 -62t50 -33q98 -18 247 120q95 90 144 179q4 8 9.5 18t8.5 16t7 12.5t6.5 10t6 7t6.5 4.5t7 1q15 -1 18 -16.5t-3 -40.5q-12 -73 -70.5 -172t-146.5 -190q-93 -96 -212.5 -160t-212.5 -64q-83 0 -137 31t-74 83.5t-18 121.5t27.5 144t67.5 151
t96 143q137 170 341 280.5t411 110.5q123 0 192 -48t66 -146q-2 -57 -35 -108.5t-84 -84.5q-22 -129 -102.5 -272.5t-222.5 -274.5q-193 -177 -473 -259v-1q92 -21 154.5 -33t157 -22.5t183.5 -10.5q271 0 343 131q15 29 15 45q0 9 3 9t3 -11q0 -23 -11 -47
q-34 -70 -127 -120t-230 -50q-102 0 -208.5 16.5t-163 31t-165.5 46.5q-138 -33 -286 -33q-288 0 -288 65z" />
    <glyph glyph-name="R.swash" unicode="&#xe011;" horiz-adv-x="1812" 
d="M-9 14q0 33 32 56.5t74 33t87 9.5q159 0 350 -68q32 -11 87.5 -34.5t78.5 -31.5q160 55 318 190q-15 26 -61 90.5t-75.5 122t-38.5 119.5q-16 106 26 202.5t127.5 166t214 108t277.5 32.5q167 -7 271 -93q210 143 420 143q122 0 203 -59.5t65 -157.5q-11 -74 -70 -134
t-138 -91t-159 -31q-15 0 -26 3t-14.5 6.5t-1.5 5.5q1 1 3 -0.5t12 -4t27 -2.5q117 2 220.5 74.5t120.5 176.5q15 93 -58 148t-188 55q-206 0 -401 -147q57 -56 67.5 -125t-32.5 -146q-41 -68 -131 -118.5t-215 -59.5v-1q89 -22 84 -97q-2 -33 -20 -64.5t-57 -82.5
q-26 -34 -43.5 -69.5t-24 -70.5t13 -59.5t65.5 -29.5q87 -8 187 66.5t123 172.5q7 30 -8 52.5t-47 22.5q-74 0 -140.5 -66t-81.5 -137l-3 -14q-3 0 -3 12q2 65 74.5 142.5t154.5 77.5q42 0 65 -26.5t13 -71.5q-14 -58 -71 -117t-132 -94.5t-136 -29.5q-59 5 -89.5 31.5
t-31.5 64t15.5 79.5t48.5 82q49 62 71 98t23 63q0 58 -95 62q-50 3 -59 4q-152 -191 -308 -312q14 -36 16 -77q1 -67 -52.5 -104.5t-128.5 -37.5q-86 0 -189 36q-148 -42 -368 -44q-338 -2 -338 100zM1300 466v1q-62 23 -96 67t-27 98q6 45 31 80t57 53.5t56 27.5t40 11
q17 2 17 -3q0 -1 -16 -5q-14 -1 -37.5 -10.5t-53 -27.5t-53 -51t-28.5 -74q-7 -52 25.5 -93.5t90.5 -63.5q87 110 205.5 231.5t234.5 201.5q-40 38 -110 62.5t-148 27.5q-119 5 -223.5 -19t-180.5 -70t-127.5 -108.5t-72.5 -138.5t-8 -157q9 -60 35 -115t67.5 -119t54.5 -90
q108 96 267 284zM888 -69q73 0 122 36t45 95q-1 32 -16 69q-147 -111 -314 -164q93 -36 163 -36zM1410 458q69 0 130.5 19t105 51t72.5 63t51 65q37 59 35.5 124t-42.5 113q-151 -118 -396 -432q21 -3 44 -3zM1 15q0 -91 330 -91q202 0 341 44q-60 22 -159 60
q-106 40 -177.5 57t-153.5 17q-71 0 -126 -22.5t-55 -64.5z" />
    <glyph glyph-name="S.swash" unicode="&#xe012;" horiz-adv-x="1442" 
d="M2171 957q44 0 66 -17.5t20 -47.5q-4 -56 -88 -122.5t-216 -122.5q-18 -117 -154 -227.5t-351 -172.5q-168 -184 -363 -279.5t-444 -106.5q-82 -4 -157 5t-142.5 33.5t-116.5 62t-76 94.5t-23 128q6 119 98 217.5t234.5 156t304.5 67.5q117 7 208 -15q73 39 171 62
q-10 58 50 111.5t158.5 85.5t203.5 35q101 3 186 -20t134 -62q174 135 297 135zM1365 230v1q-127 -29 -255 -21q-72 -58 -176.5 -91.5t-212.5 -33.5q-67 0 -126.5 16.5t-104 55t-50.5 92.5q-3 22 3.5 43t15 30.5t12.5 7.5q1 0 -5 -9.5t-12 -28.5t-2 -40q24 -141 250 -141
q99 0 200 27.5t175 74.5q-116 13 -188 60t-71 128q1 108 122 187q-93 13 -179 7q-162 -11 -302 -66t-228.5 -145.5t-93.5 -196.5q-4 -84 37 -147.5t114.5 -99t162.5 -51t189 -11.5q221 9 396.5 98.5t328.5 253.5zM1426 535q-118 0 -194 29.5t-88 90.5q-86 -20 -150 -50
q101 -26 162 -77.5t59 -125.5q-3 -100 -92 -179q139 -5 254 23q57 61 178 223q8 10 20.5 27t23 30.5t19.5 25.5q-102 -17 -192 -17zM963 585h-1q-132 -77 -133 -185q-1 -75 72.5 -119t191.5 -55q108 77 111 175q2 71 -65.5 117.5t-175.5 66.5zM1319 694q142 0 185 -50
q14 -17 8 -21q-1 -1 -1.5 0t-4.5 5l-9 9q-48 40 -178 40q-79 0 -164 -19q11 -55 85 -82.5t186 -28.5q96 0 200 17q126 160 238 251q-43 33 -129 54t-183 18q-98 -3 -192.5 -31.5t-155 -78t-51.5 -103.5q83 20 166 20zM2168 948q-115 0 -271 -146q23 -23 41 -63
q17 -40 15 -75q120 54 196.5 117t83.5 113q1 8 -0.5 15.5t-6.5 17t-20 15.5t-38 6zM1700 578v-1q111 24 243 83q2 38 -15 75q-17 39 -39 59q-77 -71 -189 -216zM1461 266v-1q198 61 329 165.5t152 212.5q-144 -58 -251 -81l-63 -84q-105 -143 -167 -212z" />
    <glyph glyph-name="T.swash" unicode="&#xe013;" horiz-adv-x="1696" 
d="M581 -114q-78 0 -133 4v-31q0 -178 101 -291.5t287 -126.5q139 -10 267 54.5t212.5 182.5t101.5 261q-6 0 -16.5 -1t-19.5 -1.5t-17 -0.5q-122 0 -283 38q-159 -66 -371 -84q2 -51 19 -97q5 -13 12.5 -24t14.5 -16.5t13 -9.5l9 -6t3 -3q-1 -3 -11.5 1t-25 18.5
t-23.5 34.5q-18 40 -23 102q-49 -4 -117 -4zM123 25q0 53 88 80.5t239 17.5q28 -3 29 -3q49 125 144 254t235 235q275 209 632 292q283 67 592 56q154 -5 257 -51t116 -106q6 -22 -1 -22q-1 0 -2 1.5t-3 7t-4 9.5q-30 54 -127.5 85t-213.5 34q-357 12 -608 -44
q-368 -81 -615 -265q-147 -110 -243 -237.5t-145 -248.5q105 -10 244 -37q15 38 41 73q64 87 163 134t203 42q143 -8 227 -114q69 75 148 187q333 477 618 493q51 2 51 -8q0 -1 -0.5 -1.5t-2.5 -0.5h-4.5h-7h-10t-14 -0.5t-18.5 -1.5q-51 -4 -102.5 -25t-98.5 -57.5
t-86.5 -73.5t-81 -88t-66 -84t-55.5 -78q-127 -183 -245 -295q57 -93 51 -213q131 18 247 119q15 9 16 8q4 -3 -9 -14q-37 -34 -62 -54.5t-80.5 -49t-113.5 -39.5q-16 -145 -103.5 -266t-223.5 -188t-284 -57q-192 13 -296 128t-104 297v35q-154 12 -232.5 48.5t-78.5 85.5z
M581 -102q68 0 117 4q-1 84 31 165q-143 31 -240 40q-34 -96 -41 -205q55 -4 133 -4zM1050 -18v1q-45 11 -145.5 38.5t-155.5 40.5q-36 -77 -39 -158q195 16 340 78zM137 25q0 -44 76 -77.5t223 -45.5q5 99 38 206q-5 1 -14.5 1.5t-12.5 0.5q-142 11 -226 -13t-84 -72z
M1122 -4v-1q143 -27 261 -27q7 0 18.5 0.5t17.5 0.5q6 121 -37 203q-118 -110 -260 -176zM1361 205v1q-78 108 -219 115q-97 6 -190 -42.5t-156 -134.5q-20 -27 -40 -65q68 -14 180.5 -41t151.5 -36q149 74 273 203z" />
    <glyph glyph-name="U.swash" unicode="&#xe014;" horiz-adv-x="1491" 
d="M554 -44q-29 0 -50.5 16.5t-21.5 55.5q0 20 5.5 42t19.5 48t26.5 47.5t37.5 54t41 52.5t49 57t48.5 54.5t53.5 58t51 54.5q20 21 56 60t53.5 58.5t44.5 50.5t39.5 50t26.5 43t19 44.5t4 39.5q-4 62 -59 92.5t-125 30.5q-276 0 -521 -197q-95 -77 -151 -173.5t-53 -179.5
q3 -70 45.5 -107.5t110.5 -37.5q66 0 139 36t129 87.5t95 108.5t45 99q7 51 -21 87t-89 34q-39 -1 -74 -21q-12 -7 -13 -7q-2 4 10 12q34 24 77 25q65 3 97.5 -36.5t25.5 -93.5q-10 -74 -69 -152.5t-155.5 -133.5t-198.5 -55q-70 0 -117 41t-50 117q-3 88 53 188t152 178
q115 93 252.5 143.5t280.5 49.5q37 0 72.5 -7t71 -22t58.5 -43.5t25 -67.5q2 -25 -2.5 -49.5t-19.5 -52t-26.5 -47.5t-40 -53.5t-44 -50.5t-54 -58t-55.5 -59q-21 -23 -65 -69.5t-69 -74.5t-63 -70t-60 -71.5t-44.5 -63t-33 -60t-10.5 -47.5q0 -22 13.5 -32.5t30.5 -10.5
q111 0 300 201q25 27 154 169t207 219q301 295 481 426q12 8 34 22.5t32 21.5q10 6 29 12t32 3q19 -3 19 -19q0 -23 -44 -57q-29 -22 -95 -77q-44 -37 -101 -92t-135.5 -133.5t-132.5 -130.5q-82 -78 -153 -155.5t-132.5 -170t-61.5 -148.5q0 -87 98 -95q26 131 114 245
q59 75 132 122.5t133 47.5q32 0 52 -16t20 -48q0 -55 -42 -122.5t-110 -123.5q-64 -53 -141.5 -84t-147.5 -31q-11 -63 -6 -109l2 -20q-3 -1 -5.5 3.5t-3.5 14.5q-8 43 1 111q-57 2 -96.5 30.5t-39.5 92.5q0 53 35 120t100 143t115.5 128.5t122.5 121.5q214 206 363 329
q65 56 104 81q28 20 28 28q0 5 -9 5q-12 0 -38 -15q-38 -22 -66 -43q-210 -159 -485 -431q-74 -73 -206.5 -219t-150.5 -165q-92 -98 -167.5 -151t-141.5 -53zM1466 371q-52 0 -124 -48.5t-128 -120.5q-39 -51 -70.5 -118t-42.5 -120q61 0 138.5 34t137.5 84
q67 58 109.5 123t42.5 110q0 56 -63 56z" />
    <glyph glyph-name="V.swash" unicode="&#xe015;" horiz-adv-x="838" 
d="M1094 741v1q-273 -236 -517 -286q-88 -20 -168.5 -15t-143.5 27.5t-103.5 68.5t-47.5 110q-9 84 44 160.5t146.5 129t208.5 76.5q70 17 141 14.5t129 -17t96.5 -48t43.5 -80.5q8 -74 -68.5 -144.5t-188.5 -103.5q-119 -38 -214 -24t-107 81q-11 57 48 105.5t145 67.5
q106 24 175 -8q14 -6 21.5 -12t9 -9.5t0.5 -4.5q-1 0 -3 2t-10.5 7t-20.5 9q-64 19 -168 -3q-79 -18 -137.5 -60t-49.5 -92q10 -56 94.5 -66.5t211.5 26.5q103 29 180.5 94.5t70.5 134.5q-4 43 -42.5 72t-95.5 40t-123 10t-130 -14q-171 -36 -289 -131.5t-107 -210.5
q6 -59 46 -101t101.5 -60.5t138.5 -22t157 14.5q156 30 296.5 109.5t294.5 226.5q75 70 121 111q69 60 91 54q12 -5 2 -17.5t-33 -33.5q-58 -53 -145 -114q-189 -196 -334 -382q-281 -363 -312 -449q-12 -35 1 -40q18 -10 56 28q39 39 193 208.5t270 280.5q300 286 607 468
q152 90 330.5 147.5t336.5 57.5q211 0 328 -85.5t96 -252.5q-12 -98 -91 -181.5t-190 -134t-236 -69.5q-80 -14 -163.5 -7.5t-153 26t-117.5 62.5t-56 101q-13 90 53.5 168.5t176.5 122t228 43.5q70 0 129 -13t107.5 -48t62.5 -89q7 -30 0 -30q-1 0 -1.5 2t-2 9t-4.5 16
q-23 69 -103.5 98.5t-170.5 29.5q-118 0 -229 -40.5t-179 -113t-56 -154.5q8 -54 54.5 -92t114.5 -54.5t150 -21t160 10.5q120 19 229 66t188 124t90 166q10 79 -18 136.5t-89 90.5t-140.5 49t-180.5 16q-141 0 -311.5 -51t-317.5 -138q-300 -179 -613 -462
q-76 -68 -164 -154.5t-179.5 -179.5t-130.5 -131q-44 -44 -68 -35t-19 46q6 57 64.5 163t163.5 240q101 130 340 358z" />
    <glyph glyph-name="W.swash" unicode="&#xe016;" horiz-adv-x="1195" 
d="M1274 882v1q-41 -16 -241 -76.5t-261 -81.5q-149 -52 -285 -128t-213 -155q-179 -185 -121 -337q13 -34 54 -66t102 -40q49 -7 79 -1.5t45 10t16 2.5q2 -3 -5.5 -7.5t-22 -9t-33 -8t-39.5 -4.5t-42 2q-122 17 -166 120q-13 31 -15.5 71t6.5 86.5t38 99.5t75 101
q82 85 211.5 150t308.5 128q75 26 268.5 81.5t251.5 76.5q21 20 37 32q69 58 98 51q13 -5 1 -18.5t-34 -27.5q-14 -10 -86 -43q-215 -226 -396 -459q-246 -319 -296 -409q-39 -72 -17 -78q22 -9 79 54q14 15 83 96t132.5 151.5t126.5 134.5q68 69 139.5 135t111 100.5
t136.5 116.5t136 115q44 37 52 29q4 -2 -10 -18q-11 -12 -17 -19q-208 -233 -350 -420q-83 -108 -171.5 -233.5t-111.5 -166.5q-14 -24 -20.5 -41t-6 -25.5t6.5 -10.5q20 -7 92 71q28 29 113 120.5t143 152.5t119 122q310 310 610 503q153 99 331 160.5t330 61.5
q138 0 240.5 -35.5t158.5 -113t42 -189.5q-19 -146 -170.5 -251t-347.5 -134q-79 -14 -162.5 -7.5t-152.5 26t-117 62.5t-57 101q-13 90 53.5 168.5t176.5 122t228 43.5q70 0 129 -13t107.5 -48t62.5 -89q7 -30 0 -30q-1 0 -1.5 2t-2 9t-4.5 16q-24 69 -104 98.5t-170 29.5
q-118 0 -229.5 -40.5t-179.5 -113t-56 -154.5q8 -54 55 -92t114.5 -54.5t150 -21t160.5 10.5q120 19 229 66t188 124t90 166q11 79 -17.5 136.5t-89.5 90.5t-140 49t-180 16q-144 0 -322.5 -56t-324.5 -149q-329 -210 -616 -490q-235 -230 -381 -386q-73 -79 -99 -71
q-33 10 -19 65q30 108 212 367q100 142 264 319v1q-138 -106 -344 -316q-84 -84 -206.5 -224.5t-134.5 -153.5q-60 -64 -91 -58q-27 10 -19 56q10 66 77.5 178t149.5 216q53 68 177.5 201t209.5 213q72 69 91 85z" />
    <glyph glyph-name="X.swash" unicode="&#xe017;" horiz-adv-x="1857" 
d="M650 107q-97 0 -174.5 37.5t-87.5 110.5q-2 17 2 32t9.5 21.5t9.5 4.5q1 0 -2 -6t-6.5 -20t-1.5 -30q10 -65 77 -96t155 -31q106 0 206 34t164.5 96.5t61.5 136.5q-2 65 -59 110t-141.5 63.5t-185.5 14.5q-135 -6 -257.5 -52.5t-203.5 -132t-81 -188.5q0 -76 36 -134
t98 -92t139.5 -50t165.5 -13q128 4 259.5 48.5t245 116.5t207.5 153t172 170q98 113 169.5 230.5t90.5 204.5q36 166 -94 190q-76 13 -167 -32.5t-161 -124.5q-62 -68 -95.5 -149t-22.5 -143q2 -11 5.5 -20.5t7.5 -15.5t8.5 -10.5t8.5 -7t7.5 -4.5t5 -2.5t0.5 -1.5
q-2 -4 -12 -0.5t-23 18.5t-18 40q-15 66 17.5 158t93.5 159q71 77 168.5 119t181.5 27q41 -7 69.5 -25.5t42.5 -41.5t20 -52.5t4.5 -55.5t-7.5 -53q-17 -83 -94.5 -213t-176.5 -240q-396 -441 -913 -458q-91 -3 -170.5 13.5t-142.5 52.5t-100 97t-37 140q0 87 47.5 163.5
t125 129t176.5 84t203 35.5q164 5 278.5 -56t118.5 -168q2 -82 -59.5 -150t-159 -104.5t-204.5 -36.5zM2702 1089q-274 0 -555 -168q-288 -172 -534 -496q-159 -209 -165 -339q-3 -59 23 -92.5t74 -37.5q91 -7 191 99q72 74 83 145q4 26 -7 44.5t-37 22.5q-63 9 -128 -58
q-54 -55 -61 -122q-2 -19 -4 -20q-7 0 -4 18q3 74 59 134q66 69 139 59q33 -4 49.5 -28.5t11.5 -59.5q-12 -77 -81 -149q-43 -44 -98.5 -72.5t-112.5 -23.5q-58 5 -91 40t-32 101q4 143 173 367q116 155 240.5 276.5t285.5 218.5q134 81 290 126t291 45q92 0 168.5 -17.5
t136.5 -52.5t91 -93.5t25 -135.5q-11 -136 -153.5 -245.5t-363.5 -134.5q-61 -9 -130 -3t-128.5 21t-103 51.5t-53.5 88.5q-16 81 35.5 155.5t144 121t198.5 55.5q92 8 176 -21t113 -88q4 -9 5 -19.5t-1 -16.5t-4 -6t-2.5 5t-2 14t-5.5 17q-27 55 -103 77.5t-151 16.5
q-106 -10 -201 -53.5t-150 -113t-41 -142.5q9 -48 51.5 -81t100.5 -45.5t125 -17t125 5.5q111 14 206 50t159 84.5t101 106t42 115.5q6 75 -23 129t-87.5 84t-132.5 44t-167 14z" />
    <glyph glyph-name="Y.swash" unicode="&#xe018;" horiz-adv-x="1595" 
d="M828 342q69 0 149 33.5t142.5 82t106.5 103t50 94.5q8 56 -29 92.5t-120 36.5q-175 0 -393 -124q-65 -93 -68 -171q-4 -73 43 -110t119 -37zM343 -36q62 0 111.5 50.5t48.5 105.5q0 34 -21 53t-55 20q-83 3 -179 -77q-4 -19 -4 -43q0 -57 31.5 -83t67.5 -26zM347 -47
q-45 0 -82 29.5t-36 91.5q0 3 1 14t1 16q-60 -55 -105 -119q-42 -62 -64.5 -130.5t-19.5 -113.5q7 -88 64 -108q12 -4 21 -4t10 1.5t4 -1.5q1 -3 -4 -5q-18 -7 -39 0q-78 24 -80 119q-3 115 91 248q49 69 125 133q15 74 67 161.5t135 172.5q117 121 293 221q55 76 171 170
q122 99 280.5 157t294.5 42q65 -7 117 -41.5t52 -95.5q0 -26 -8 -54.5t-18.5 -52.5t-33 -57.5t-37.5 -54.5t-47.5 -58.5t-48 -54.5t-53.5 -57.5t-50 -54.5q-22 -24 -64.5 -69.5t-69 -74.5t-63 -70t-59.5 -71t-45 -63t-32.5 -59.5t-10.5 -47.5q0 -22 12.5 -32.5t30.5 -10.5
q31 0 80.5 31t125 101t133 127t164 166.5t158.5 161.5q122 122 258.5 238.5t240.5 185.5q99 66 144 62q30 -1 22 -23q-6 -17 -38 -41q-14 -11 -51.5 -38t-52.5 -38q-159 -121 -368.5 -334t-414.5 -461q-184 -222 -320 -404.5t-268 -401.5q-78 -128 -104 -205q-11 -31 6 -33
q11 -1 34 25q36 45 143 195q141 203 235 324q101 130 227 280q68 79 133 147q40 42 64 61q8 9 12 5q3 -4 -7 -12q-27 -23 -63 -61q-53 -56 -129 -146q-78 -92 -223 -280q-88 -113 -239 -326q-101 -141 -146 -195q-33 -38 -56 -32q-40 11 -26 68q18 73 97 203
q130 216 271 406.5t326 413.5q225 271 429.5 473t366.5 320q20 14 40 27t42 25.5t30 17.5q32 21 20 26q-2 1 -5 1q-33 4 -127 -57q-100 -67 -234.5 -183.5t-266.5 -248.5q-48 -48 -149 -152.5t-160.5 -163.5t-136.5 -130t-130.5 -104.5t-88.5 -33.5q-29 0 -49.5 20t-20.5 59
q0 25 9 53.5t31 63.5t40.5 61.5t57 70.5t59.5 67.5t68.5 74.5t65.5 70q145 158 186 209q112 140 112 223q0 49 -40.5 75t-95.5 32q-131 14 -287 -42.5t-274 -152.5q-98 -80 -154 -151v-1q201 105 375 105q85 0 128 -38t34 -100q-7 -49 -46 -105t-98.5 -105t-145 -81
t-174.5 -32q-77 0 -127 39.5t-46 120.5q3 71 58 157v1q-149 -95 -257 -206q-79 -79 -132 -160t-70 -148q94 70 175 67q41 -2 65.5 -23.5t24.5 -59.5q0 -67 -49 -117t-121 -50z" />
    <glyph glyph-name="Z.swash" unicode="&#xe019;" horiz-adv-x="1828" 
d="M244 -60q-47 0 -86 18t-37 53q4 61 104.5 101.5t232.5 40.5q143 0 270 -44q152 94 402 309q-88 -2 -89 21q-3 33 93 22q6 0 19 -1.5t16 -1.5q271 248 403 349q-130 13 -270 94q-4 2 -26 15t-30 17l-31 15.5t-36.5 16t-38 13t-45 12t-47.5 6.5t-54 3q-88 0 -165 -22.5
t-133 -75t-65 -126.5q-10 -86 57 -134t160 -48q100 0 176.5 40t85.5 104q6 42 -21.5 68t-68.5 26q-64 0 -100 -33q-5 -5 -10 -11l-7.5 -9t-3.5 -3q-6 4 13 27q16 18 46 30.5t63 12.5q54 0 89 -28t29 -77q-8 -70 -96.5 -113.5t-195.5 -43.5q-64 0 -117 19.5t-86 64.5t-26 108
q9 78 69 135.5t148 85t191 27.5q168 0 323 -86q16 -9 53 -31t61 -35.5t59 -28.5t65 -21q202 153 316 153q24 0 38.5 -10t11.5 -29q-7 -53 -109.5 -91.5t-230.5 -38.5q-12 0 -18 1q-137 -106 -401 -350q84 -8 136 -8q14 0 14 -6q-1 -3 -14 -3q-81 -6 -132 -13q-37 -5 -38 -5
q-257 -222 -411 -320q67 -26 239 -113q103 128 256 210t317 82q98 0 158.5 -44t60.5 -117q0 -81 -68.5 -143t-177.5 -92t-235 -26q-175 5 -336 78q-48 -71 -61 -129q-5 -21 -5 -38q0 -5 -2 -5q-1 0 -2 1.5t-2 5t-1 9t0.5 13t2.5 16.5q10 54 61 133q-184 97 -252 131
q-235 -133 -458 -133zM249 -48q207 0 434 130q-116 54 -230 54q-123 0 -219 -35.5t-100 -88.5q-2 -31 34 -45.5t81 -14.5zM1768 119q0 65 -56.5 98.5t-145.5 33.5q-163 0 -315.5 -72.5t-252.5 -195.5q188 -95 358 -100q107 -3 200.5 24t152.5 83t59 129zM1902 958
q-109 0 -293 -140q3 0 12 -0.5t13 -0.5q109 0 200.5 36.5t98.5 80.5q1 11 -8.5 17.5t-22.5 6.5z" />
    <glyph glyph-name="a.begin" unicode="&#xe01a;" horiz-adv-x="288" 
d="M196 133h1q35 38 56 38q15 1 18 -3t-3 -13q-57 -66 -58 -67q-27 -34 -36 -48q-11 -16 -2 -23q6 -5 23 4q16 7 45 31q26 21 48 41q11 9 13 7q3 -3 -8 -14q-30 -30 -60 -52q-50 -40 -86 -40q-27 0 -29 21q-2 17 14 36h-1q-62 -54 -110 -57q-19 -1 -31.5 8t-10.5 32
q4 45 74 97q26 19 62.5 31.5t59.5 8.5q14 -2 20 -13.5t1 -24.5zM171 161q-28 0 -90 -62q-60 -60 -58 -80q1 -10 13 -10q14 0 38.5 14t45.5 33q25 22 46.5 48.5t22.5 38.5q1 18 -18 18z" />
    <glyph glyph-name="aacute.begin" unicode="&#xe01b;" horiz-adv-x="288" 
d="M196 133h1q35 38 56 38q15 1 18 -3t-3 -13q-57 -66 -58 -67q-27 -34 -36 -48q-11 -16 -2 -23q6 -5 23 4q16 7 45 31q26 21 48 41q11 9 13 7q3 -3 -8 -14q-30 -30 -60 -52q-50 -40 -86 -40q-27 0 -29 21q-2 17 14 36h-1q-62 -54 -110 -57q-19 -1 -31.5 8t-10.5 32
q4 45 74 97q26 19 62.5 31.5t59.5 8.5q14 -2 20 -13.5t1 -24.5zM171 161q-28 0 -90 -62q-60 -60 -58 -80q1 -10 13 -10q14 0 38.5 14t45.5 33q25 22 46.5 48.5t22.5 38.5q1 18 -18 18zM263 304q6 0 8 -5q10 -16 -7 -33q-25 -25 -83 -57q-10 -5 -12 -3q-1 1 0 3t3 4t2 3
q35 31 75 79q7 9 14 9z" />
    <glyph glyph-name="acircumflex.begin" unicode="&#xe01c;" horiz-adv-x="288" 
d="M196 133h1q35 38 56 38q15 1 18 -3t-3 -13q-57 -66 -58 -67q-27 -34 -36 -48q-11 -16 -2 -23q6 -5 23 4q16 7 45 31q26 21 48 41q11 9 13 7q3 -3 -8 -14q-30 -30 -60 -52q-50 -40 -86 -40q-27 0 -29 21q-2 17 14 36h-1q-62 -54 -110 -57q-19 -1 -31.5 8t-10.5 32
q4 45 74 97q26 19 62.5 31.5t59.5 8.5q14 -2 20 -13.5t1 -24.5zM171 161q-28 0 -90 -62q-60 -60 -58 -80q1 -10 13 -10q14 0 38.5 14t45.5 33q25 22 46.5 48.5t22.5 38.5q1 18 -18 18zM232 281q2 0 6 -7q19 -41 34 -66q3 -6 2 -7q-2 -3 -11 3q-25 17 -43 42
q-55 -32 -105 -47q-1 -1 -4.5 -1t-4.5 2t7 6q75 45 109 70q5 5 10 5z" />
    <glyph glyph-name="acute.cap" unicode="&#xe01d;" 
d="M404 528q8 0 10 -11q3 -17 -21 -30q-42 -20 -118 -37q-11 -4 -12 0q-1 3 8 8q48 20 120 66q7 4 13 4z" />
    <glyph glyph-name="adieresis.begin" unicode="&#xe01e;" horiz-adv-x="288" 
d="M196 133h1q35 38 56 38q15 1 18 -3t-3 -13q-57 -66 -58 -67q-27 -34 -36 -48q-11 -16 -2 -23q6 -5 23 4q16 7 45 31q26 21 48 41q11 9 13 7q3 -3 -8 -14q-30 -30 -60 -52q-50 -40 -86 -40q-27 0 -29 21q-2 17 14 36h-1q-62 -54 -110 -57q-19 -1 -31.5 8t-10.5 32
q4 45 74 97q26 19 62.5 31.5t59.5 8.5q14 -2 20 -13.5t1 -24.5zM171 161q-28 0 -90 -62q-60 -60 -58 -80q1 -10 13 -10q14 0 38.5 14t45.5 33q25 22 46.5 48.5t22.5 38.5q1 18 -18 18zM278 258q11 0 13.5 -6.5t-5.5 -16.5q-18 -24 -43 -24q-7 9 0 30q6 17 35 17zM177 258
q11 0 13.5 -6.5t-4.5 -16.5q-18 -24 -43 -24q-7 9 0 30q7 17 34 17z" />
    <glyph glyph-name="ae.begin" unicode="&#xe01f;" horiz-adv-x="355" 
d="M250 150v-1q30 22 55 22q15 0 23 -8.5t7 -17.5q-2 -30 -64 -61q-36 -17 -87 -32q-4 -8 -6 -22q-1 -10 5.5 -16.5t17.5 -6.5q33 -2 91 36q32 21 64 51q10 10 13 6q3 -3 -8 -14q-29 -29 -63 -52q-62 -43 -117 -43q-27 0 -40 11t-12 30q2 15 7 23h-1q-21 -20 -54 -40
t-60 -21q-19 -1 -31 8t-10 32q3 33 49 76q18 17 66 41q32 15 80 19q7 0 15 -0.5t13 -2t5 -2.5q0 -3 -4.5 -4t-14.5 -2t-18 -3q-41 -8 -91 -58q-59 -59 -57 -79q1 -10 13 -10q30 0 83 47q24 22 49 47.5t40.5 41.5t23.5 22q18 13 29 13q10 2 12 -0.5t-4 -9.5q-7 -10 -19 -20z
M189 63v-1q37 11 69 31q17 11 28.5 26.5t12.5 25.5q3 13 -12 13q-19 -2 -50 -33q-30 -31 -48 -62z" />
    <glyph glyph-name="agrave.begin" unicode="&#xe020;" horiz-adv-x="288" 
d="M196 133h1q35 38 56 38q15 1 18 -3t-3 -13q-57 -66 -58 -67q-27 -34 -36 -48q-11 -16 -2 -23q6 -5 23 4q16 7 45 31q26 21 48 41q11 9 13 7q3 -3 -8 -14q-30 -30 -60 -52q-50 -40 -86 -40q-27 0 -29 21q-2 17 14 36h-1q-62 -54 -110 -57q-19 -1 -31.5 8t-10.5 32
q4 45 74 97q26 19 62.5 31.5t59.5 8.5q14 -2 20 -13.5t1 -24.5zM171 161q-28 0 -90 -62q-60 -60 -58 -80q1 -10 13 -10q14 0 38.5 14t45.5 33q25 22 46.5 48.5t22.5 38.5q1 18 -18 18zM156 302q8 0 12 -10q19 -44 50 -86q4 -8 2 -9q-1 -1 -10 4q-55 46 -66 67q-5 7 -5 15
q0 7 5.5 13t11.5 6z" />
    <glyph glyph-name="ampersand.alt" unicode="&#xe021;" horiz-adv-x="552" 
d="M492 258q-18 0 -37.5 -11.5t-29.5 -20.5t-32 -32q-11 -12 -71 -92q79 -79 79 -157q0 -25 -8 -52q56 0 108.5 -11t98.5 -34t73 -63.5t24 -93.5q-3 -57 -52.5 -98t-101.5 -49q-27 -5 -27 3q0 2 2 2.5t10 1t16 2.5q45 11 80.5 51t37.5 89q3 93 -79.5 141.5t-192.5 48.5
q-29 -94 -126 -191q-76 -75 -165.5 -123t-162.5 -48q-94 0 -94 62q0 47 49 101.5t127 100.5q149 87 316 105q12 50 11 84q-1 58 -41 106q-33 -39 -86 -74q-59 -39 -111 -36q-69 4 -73 48q-4 65 88 131q38 27 95 53q-21 55 0 101q16 35 46.5 57t58.5 18q22 -3 32.5 -17
t8.5 -33q-4 -37 -35.5 -64.5t-92.5 -62.5q20 -35 70 -83q45 57 62 76q70 73 125 73q25 0 42.5 -14t21.5 -38q4 -21 -3 -38.5t-20 -16.5q-17 2 -8 22q2 5 8 12.5t9 13t2 11.5q-3 16 -17 27.5t-35 11.5zM231 209l1 1q94 56 108 116q7 33 -20 38q-23 3 -49 -15t-40 -49
q-19 -43 0 -91zM220 193v1q-50 -26 -88 -58q-67 -59 -62 -115q3 -35 39 -41q43 -6 103 38q41 31 77 79q-46 48 -69 96zM-137 -415q0 -54 73 -54q72 0 150 51.5t144 130.5q77 93 102 167q-166 -21 -301 -103q-75 -44 -121.5 -97.5t-46.5 -94.5z" />
    <glyph glyph-name="aring.begin" unicode="&#xe022;" horiz-adv-x="288" 
d="M196 133h1q35 38 56 38q15 1 18 -3t-3 -13q-57 -66 -58 -67q-27 -34 -36 -48q-11 -16 -2 -23q6 -5 23 4q16 7 45 31q26 21 48 41q11 9 13 7q3 -3 -8 -14q-30 -30 -60 -52q-50 -40 -86 -40q-27 0 -29 21q-2 17 14 36h-1q-62 -54 -110 -57q-19 -1 -31.5 8t-10.5 32
q4 45 74 97q26 19 62.5 31.5t59.5 8.5q14 -2 20 -13.5t1 -24.5zM171 161q-28 0 -90 -62q-60 -60 -58 -80q1 -10 13 -10q14 0 38.5 14t45.5 33q25 22 46.5 48.5t22.5 38.5q1 18 -18 18zM252 250q0 -19 -13 -31.5t-31 -12.5q-19 0 -31.5 12.5t-12.5 31.5q0 18 13 31.5t31 13.5
t31 -13.5t13 -31.5zM234 251q0 11 -7.5 19t-18.5 8q-12 0 -19 -8t-7 -19t7 -18.5t19 -7.5q11 0 18.5 7.5t7.5 18.5z" />
    <glyph glyph-name="atilde.begin" unicode="&#xe023;" horiz-adv-x="288" 
d="M196 133h1q35 38 56 38q15 1 18 -3t-3 -13q-57 -66 -58 -67q-27 -34 -36 -48q-11 -16 -2 -23q6 -5 23 4q16 7 45 31q26 21 48 41q11 9 13 7q3 -3 -8 -14q-30 -30 -60 -52q-50 -40 -86 -40q-27 0 -29 21q-2 17 14 36h-1q-62 -54 -110 -57q-19 -1 -31.5 8t-10.5 32
q4 45 74 97q26 19 62.5 31.5t59.5 8.5q14 -2 20 -13.5t1 -24.5zM171 161q-28 0 -90 -62q-60 -60 -58 -80q1 -10 13 -10q14 0 38.5 14t45.5 33q25 22 46.5 48.5t22.5 38.5q1 18 -18 18zM227 211q-13 0 -32.5 13t-30.5 14q-19 2 -40 -22q-5 -7 -8 -6t1 12q24 41 60 40
q13 -1 31 -14t30 -14q20 -1 40 24q6 6 8 5q3 -1 -1 -11q-22 -41 -58 -41z" />
    <glyph glyph-name="b.alt1" unicode="&#xe024;" horiz-adv-x="298" 
d="M175 233l1 -1q148 60 267 156q112 92 112 148q0 18 -17 20q-32 5 -80 -30q-72 -52 -156 -144q-44 -48 -127 -149zM112 208h-1q-21 -6 -52 -4q-40 3 -60 22.5t-20 45.5q0 36 22 49q6 6 6 3q1 -2 -3 -6q-18 -18 -16 -44q2 -22 22 -38t51 -20t59 4q44 54 61 74
q127 148 253 232q63 43 109 43q20 0 31.5 -10.5t11.5 -27.5q0 -61 -171 -182q-102 -73 -249 -131l-100 -140l2 -3q39 38 83 65q59 34 89 31q35 -5 31 -38q-6 -43 -62 -92q-25 -21 -57 -33.5t-53 -12.5q-30 0 -30 20q1 23 56 40q52 15 66 21q23 26 32 50q9 30 -10 30
q-29 0 -87 -45q-44 -34 -111 -101q-13 -12 -29 -14q-14 -1 -16.5 3.5t2.5 12.5q9 20 41 67q18 26 29 39h-1q-21 -18 -36 -33q-8 -7 -11 -3q-2 2 7 11q60 54 62 55q40 50 49 60zM183 65v1q-14 -8 -52 -20q-21 -7 -33.5 -16t-8.5 -17q1 -4 13 -4q14 1 35 14q29 19 46 42z" />
    <glyph glyph-name="b.alt2" unicode="&#xe025;" horiz-adv-x="298" 
d="M66 78l2 -3q39 38 83 65q59 34 89 31q35 -5 31 -38q-6 -43 -62 -92q-25 -21 -57 -33.5t-53 -12.5q-30 0 -30 20q1 23 56 40q52 15 66 21q23 26 32 50q9 30 -10 30q-29 0 -87 -45q-44 -34 -111 -101q-13 -12 -29 -14q-14 -1 -16.5 3.5t2.5 12.5q9 20 41 67q18 26 28 38v1
q-21 -18 -36 -33q-8 -7 -11 -3q-2 2 7 11q60 54 62 55q59 75 79 99q49 59 117 125t121 105q102 77 196.5 118.5t199.5 44.5q116 3 187 -49.5t67 -132.5q0 -9 -2.5 -17.5t-5 -13.5t-4.5 -3q-1 3 -0.5 4.5t2 10t1.5 19.5q2 72 -63.5 114.5t-197.5 38.5q-115 -4 -192.5 -34.5
t-159.5 -90.5q-71 -52 -216 -234q-44 -55 -126 -174zM183 65v1q-14 -8 -52 -20q-21 -7 -33.5 -16t-8.5 -17q1 -4 13 -4q14 1 35 16q28 17 46 40z" />
    <glyph glyph-name="b.alt3" unicode="&#xe026;" horiz-adv-x="298" 
d="M843 392q85 0 153 14.5t117 51.5t53 92q5 67 -75.5 108t-223.5 37q-110 -3 -212.5 -44.5t-169.5 -90.5q-57 -41 -146 -134q18 -1 215 -17.5t289 -16.5zM66 78l2 -3q39 38 83 65q59 34 89 31q35 -5 31 -38q-6 -43 -62 -92q-25 -21 -57 -33.5t-53 -12.5q-30 0 -30 20
q1 23 56 40q52 15 66 21q23 26 32 50q9 30 -10 30q-29 0 -87 -45q-44 -34 -111 -101q-13 -12 -29 -14q-14 -1 -16.5 3.5t2.5 12.5q9 20 41 67q18 26 29 39h-1q-21 -18 -36 -33q-8 -7 -11 -3q-2 2 7 11q60 54 62 55q6 7 32 40.5t38 47.5q100 120 165 181q-197 5 -243 -78
q-17 -28 -10.5 -62.5t35.5 -48.5q8 -5 8 -6q-1 -1 -6.5 -0.5t-7.5 2.5q-33 15 -45.5 50.5t4.5 67.5q52 95 274 86q67 61 151 124q100 77 219.5 124.5t229.5 49.5q125 3 200.5 -48.5t69.5 -127.5q-5 -68 -64 -111.5t-144 -58t-187 -8.5q-67 4 -226 22t-225 22
q-106 -122 -183 -225q-49 -65 -82 -113zM183 65v1q-14 -8 -52 -20q-21 -7 -33.5 -16t-8.5 -17q1 -4 13 -4q14 1 35 14q29 19 46 42z" />
    <glyph glyph-name="breve.cap" unicode="&#xe027;" 
d="M277 516q1 0 1.5 -1.5t1.5 -3.5t2 -3q14 -23 46 -26q53 -4 90 28q6 6 9 4t-2 -9q-44 -61 -104 -54q-21 2 -35 18t-14 36q0 11 5 11z" />
    <glyph glyph-name="bulletoperator" unicode="&#xe028;" horiz-adv-x="126" 
d="M93 162q13 0 16 -7.5t-5 -18.5q-9 -11 -24 -19t-24 -8q-9 13 0 34q8 19 37 19z" />
    <glyph glyph-name="c.begin" unicode="&#xe029;" horiz-adv-x="213" 
d="M40 -9q-57 0 -54 42q3 43 53 85q26 22 64 39t65 14q33 -4 26 -38q-2 -13 -13 -23.5t-21 -10.5q-12 0 -14 8.5t5 19.5q19 30 4 35q-17 3 -62 -43q-51 -51 -56 -89q-3 -23 23 -23q38 0 91 36q38 26 56 44q11 9 14 6q5 -3 -8 -13q-24 -24 -57 -46q-63 -43 -116 -43z" />
    <glyph glyph-name="caron.cap" unicode="&#xe02a;" 
d="M320 442q-2 0 -6 6q-14 33 -34 66q-5 6 -3 8q5 4 12 -3q21 -13 43 -36q37 19 103 41q10 0 10 -1q3 -3 -6 -7q-82 -49 -109 -70q-8 -4 -10 -4z" />
    <glyph glyph-name="ccedilla.begin" unicode="&#xe02b;" horiz-adv-x="213" 
d="M160 99q-12 0 -14 8.5t5 19.5q19 30 4 35q-17 3 -62 -43q-51 -51 -56 -89q-3 -23 23 -23q38 0 91 36q38 26 56 44q11 9 14 6q5 -3 -8 -13q-24 -24 -57 -46q-63 -43 -116 -43h-7q-6 -4 -27 -25q4 0 6 1h6q22 0 35 -10t11 -27q-3 -18 -24 -30t-50 -11q-42 3 -57 24
q-7 12 -2 15q1 1 3 -2t5 -5q24 -19 51 -19q17 0 30 9t14 22q1 11 -7.5 17.5t-24.5 5.5q-5 0 -8.5 -1.5t-4.5 -2t-2.5 -1t-2.5 0.5q-2 3 4 9q15 17 33 32q-38 6 -35 40q3 43 53 85q26 22 64 39t65 14q33 -4 26 -38q-2 -13 -13 -23.5t-21 -10.5z" />
    <glyph glyph-name="cedilla.cap" unicode="&#xe02c;" 
d="M20 -9l9 -4q-6 -5 -22 -21q1 0 5.5 0.5t6.5 0.5q22 0 35.5 -10t10.5 -27q-3 -18 -24 -30.5t-50 -11.5q-38 1 -57 25q-7 12 -2 15q1 1 3 -2t5 -6q19 -15 49 -14q34 0 40 27q2 10 -4.5 16.5t-20.5 5.5q-4 0 -7.5 -1t-5 -1.5t-3.5 -1t-3 0.5q-2 3 4 9q17 19 31 30z" />
    <glyph glyph-name="circumflex.cap" unicode="&#xe02d;" 
d="M347 522q2 0 6 -6q14 -33 34 -66q4 -6 3 -8q-3 -2 -12 3q-21 13 -43 36q-37 -19 -103 -41q-10 0 -11 1q-1 3 7 7q82 49 109 70q6 4 10 4z" />
    <glyph glyph-name="commaaccent.cap" unicode="&#xe02e;" 
d="M106 -35q0 -5 -6 -15q-35 -41 -79 -65q-11 -6 -12 -5q-2 2 7 11q27 29 33 44q3 5 2 10t0 10q6 17 42 19q13 0 13 -9z" />
    <glyph glyph-name="d.alt1" unicode="&#xe02f;" horiz-adv-x="262" 
d="M196 132h1q25 36 36 82q-46 4 -83 25q-59 35 -59 79q2 44 64 44q47 0 82.5 -35.5t35.5 -87.5q0 -10 -1 -15q26 3 34 9q3 2 5.5 3.5t4 2.5t2.5 1.5t1.5 0.5t1.5 -1q4 -2 -11 -12q-8 -8 -39 -13q-7 -49 -38 -96t-65 -74q-69 -54 -125 -54q-22 0 -35.5 11.5t-13.5 31.5
q0 33 29 66v1q-11 -8 -25 -22q-11 -8 -13 -6q-2 3 7 12q5 5 16.5 14.5t15.5 13.5q23 16 63 36q16 9 42.5 17t44.5 5q13 -2 19 -14t3 -25zM155 353q-16 0 -26 -11t-10 -28q0 -38 44 -66q32 -19 71 -25q2 8 2 21q0 47 -22 78t-59 31zM169 161q-26 0 -81 -55q-20 -22 -36 -47.5
t-16 -39.5q0 -15 16 -17q39 -1 92 60q13 14 27 40t14 41q2 18 -16 18z" />
    <glyph glyph-name="d.alt2" unicode="&#xe030;" horiz-adv-x="262" 
d="M198 136h1q12 18 25 55t14 73q5 141 -113 234q-104 85 -273 85q-115 0 -199.5 -49.5t-91.5 -136.5q-6 -66 49 -110.5t145 -44.5q64 0 115.5 29t54.5 77q2 39 -23.5 62.5t-64.5 26.5q-14 1 -25 -0.5t-15 -2.5t-4 0q-1 3 5 5.5t17.5 4.5t24.5 1q42 -3 76 -27.5t32 -69.5
q-3 -52 -63.5 -84.5t-130.5 -32.5q-99 0 -168 46.5t-63 120.5q5 62 56 108t122.5 67t150.5 21q174 0 291 -81q63 -44 97 -109t32 -133q-4 -134 -105 -226q-23 -20 -59 -37t-66 -17q-21 0 -34.5 11.5t-13.5 31.5q0 34 27 65v1q-4 -4 -11.5 -11t-11.5 -10q-11 -8 -13 -6
q-2 3 7 12q6 6 17.5 15.5t15.5 12.5q26 18 52 31q59 31 95 27q15 -2 21.5 -12.5t4.5 -22.5zM169 161q-26 0 -81 -55q-19 -21 -35.5 -48t-16.5 -39q0 -15 14 -17q41 -1 94 60q13 14 27 40t14 41q2 18 -16 18z" />
    <glyph glyph-name="d.alt3" unicode="&#xe031;" horiz-adv-x="262" 
d="M196 131h1q28 56 36 117q15 107 -37 211t-146 175q-91 69 -218.5 111.5t-266.5 34.5q-160 -10 -256 -81.5t-108 -181.5q-9 -86 34.5 -152t135.5 -91q12 -3 24 -4.5t16.5 -2t4.5 -2.5q-3 -3 -20.5 -2t-28.5 3q-96 21 -154.5 91.5t-51.5 155.5q9 119 118.5 193t285.5 85
q280 15 504 -140q100 -70 158.5 -174t48.5 -206q-5 -52 -16.5 -91.5t-32 -67.5t-30 -38.5t-30.5 -28.5q-18 -17 -55 -35.5t-69 -18.5q-22 0 -35.5 11.5t-13.5 31.5q0 33 29 66l-1 1q-3 -3 -11.5 -10.5t-12.5 -11.5q-11 -8 -13 -6q-2 3 7 12q3 3 33 27q30 21 65 39
q51 24 84 20q28 -5 22 -40zM169 161q-26 0 -81 -55q-19 -21 -35.5 -48t-16.5 -39q0 -15 14 -17q41 -1 94 60q13 14 27 40t14 41q2 18 -16 18z" />
    <glyph glyph-name="d.begin" unicode="&#xe032;" horiz-adv-x="288" 
d="M198 140h1q44 64 126 158q55 65 119 124q17 17 37 17q14 0 15 -7q-22 -21 -115 -124q-45 -52 -126 -152q-50 -62 -80 -116q-11 -17 -4 -22q7 -8 30 6q11 6 39 28q37 30 48 41q12 7 13 7q3 -3 -8 -14q-27 -27 -60 -52q-53 -40 -86 -40q-27 0 -29 21q-2 17 14 36h-1
q-64 -55 -110 -57q-19 -1 -31.5 8t-10.5 32q4 46 73 96q26 19 62 32t61 9q13 -2 19.5 -12t3.5 -19zM171 161q-28 0 -90 -62q-60 -60 -58 -80q1 -10 13 -10q14 0 38.5 14t45.5 33q25 22 46.5 48.5t22.5 38.5q1 18 -18 18z" />
    <glyph glyph-name="d.end" unicode="&#xe033;" horiz-adv-x="235" 
d="M197 133h1q15 22 26 48q-11 8 -39 28t-37 28q-57 46 -55 85q0 40 61 40q47 0 82.5 -35.5t35.5 -87.5q0 -34 -13 -70q78 -59 120 -106q67 -79 64 -140q-2 -41 -34 -67t-64 -26q-4 0 -8 1t-5.5 3t-0.5 3q1 2 13 2q24 0 45.5 22.5t22.5 56.5q2 73 -44 130q-47 57 -113 112
q-28 -61 -87 -115q-64 -54 -126 -54q-22 0 -35 11.5t-13 31.5q0 34 27 65v1q-4 -4 -11.5 -11t-11.5 -10q-11 -8 -13 -6q-2 3 7 12q3 3 33 27q51 33 64 39q53 25 83 20q15 -2 21 -13t4 -25zM155 353q-16 0 -25.5 -9t-9.5 -23q-2 -36 38 -73q12 -11 70 -57q9 29 9 53
q0 42 -24.5 75.5t-57.5 33.5zM169 161q-26 0 -81 -55q-19 -21 -35 -47t-17 -40q0 -15 16 -17q39 -1 92 60q13 14 27 40t14 41q2 18 -16 18z" />
    <glyph glyph-name="dieresis.cap" unicode="&#xe034;" 
d="M405 504q12 0 15.5 -7.5t-5.5 -18.5t-23.5 -18.5t-24.5 -7.5q-8 12 0 33q8 19 38 19zM294 504q12 0 15 -7.5t-5 -18.5q-8 -10 -23 -18t-23 -8q-10 10 -1 33q8 19 37 19z" />
    <glyph glyph-name="divisionslash" unicode="&#xe035;" horiz-adv-x="140" 
d="M240 300q8 0 8 -3q1 -4 -24 -29q-133 -130 -284 -302q-10 -12 -15 -8q-3 3 7 15q142 169 266 300l4 4t4 4.5t3.5 4t4 3.5t3.5 3t4 3t4.5 2t4.5 1.5t4.5 1t5.5 0.5z" />
    <glyph glyph-name="dotaccent.cap" unicode="&#xe036;" 
d="M363 509q12 0 15 -8t-6 -19t-24.5 -19t-24.5 -9q-10 10 -2 34q9 21 42 21z" />
    <glyph glyph-name="e.begin1" unicode="&#xe037;" horiz-adv-x="212" 
d="M162 171q15 0 23 -8.5t7 -17.5q-2 -32 -64 -61q-37 -18 -87 -32q-4 -8 -6 -22q-1 -10 5.5 -16.5t17.5 -6.5q33 -2 91 36q37 24 64 51q9 10 13 6q3 -3 -8 -14q-29 -29 -63 -52q-62 -43 -117 -43q-27 0 -42 11t-13 30q3 47 54 86q25 20 62 36.5t63 16.5zM46 63v-1
q41 12 69 31q39 27 41 52q3 13 -12 13q-16 -2 -44 -27q-30 -28 -54 -68z" />
    <glyph glyph-name="e.begin2" unicode="&#xe038;" horiz-adv-x="293" 
d="M242 171q15 0 23 -8t7 -18q-1 -30 -64 -61q-31 -16 -87 -32q-5 -12 -6 -22q0 -23 24 -23q32 -2 90 36q37 24 64 51q10 8 13 6q3 -3 -8 -14q-22 -23 -63 -52q-63 -43 -117 -43q-27 0 -41.5 11t-12.5 30q0 5 2 15q-26 -1 -45 2q-68 13 -68 61q0 21 18 40.5t38 25.5
q9 3 11 1q0 -1 -5 -4l-3 -1q-40 -18 -40 -55q0 -23 18 -39t43 -20q2 0 36 -3q14 37 48 63q25 21 61 37t64 16zM126 63v-1q42 12 69 31q38 26 42 52q1 13 -13 13q-16 -2 -44 -27q-30 -28 -54 -68z" />
    <glyph glyph-name="eacute.begin1" unicode="&#xe039;" horiz-adv-x="212" 
d="M162 171q15 0 23 -8.5t7 -17.5q-2 -32 -64 -61q-37 -18 -87 -32q-4 -8 -6 -22q-1 -10 5.5 -16.5t17.5 -6.5q33 -2 91 36q37 24 64 51q9 10 13 6q3 -3 -8 -14q-29 -29 -63 -52q-62 -43 -117 -43q-27 0 -42 11t-13 30q3 47 54 86q25 20 62 36.5t63 16.5zM46 63v-1
q41 12 69 31q39 27 41 52q3 13 -12 13q-16 -2 -44 -27q-30 -28 -54 -68zM220 304q6 0 8 -5q10 -16 -7 -33q-25 -25 -83 -57q-10 -5 -12 -3q-1 1 0 3t3 4t2 3q35 31 75 79q7 9 14 9z" />
    <glyph glyph-name="eacute.begin2" unicode="&#xe03a;" horiz-adv-x="293" 
d="M242 171q15 0 23 -8t7 -18q-1 -30 -64 -61q-31 -16 -87 -32q-5 -12 -6 -22q0 -23 24 -23q32 -2 90 36q37 24 64 51q10 8 13 6q3 -3 -8 -14q-22 -23 -63 -52q-63 -43 -117 -43q-27 0 -41.5 11t-12.5 30q0 5 2 15q-26 -1 -45 2q-68 13 -68 61q0 21 18 40.5t38 25.5
q9 3 11 1q0 -1 -5 -4l-3 -1q-40 -18 -40 -55q0 -23 18 -39t43 -20q2 0 36 -3q14 37 48 63q25 21 61 37t64 16zM126 63v-1q42 12 69 31q38 26 42 52q1 13 -13 13q-16 -2 -44 -27q-30 -28 -54 -68zM300 304q6 0 8 -5q10 -16 -7 -33q-25 -25 -83 -57q-10 -5 -12 -3q-1 1 0 3
t3 4t2 3q35 31 75 79q7 9 14 9z" />
    <glyph glyph-name="ecircumflex.begin1" unicode="&#xe03b;" horiz-adv-x="212" 
d="M162 171q15 0 23 -8.5t7 -17.5q-2 -32 -64 -61q-37 -18 -87 -32q-4 -8 -6 -22q-1 -10 5.5 -16.5t17.5 -6.5q33 -2 91 36q37 24 64 51q9 10 13 6q3 -3 -8 -14q-29 -29 -63 -52q-62 -43 -117 -43q-27 0 -42 11t-13 30q3 47 54 86q25 20 62 36.5t63 16.5zM46 63v-1
q41 12 69 31q39 27 41 52q3 13 -12 13q-16 -2 -44 -27q-30 -28 -54 -68zM195 281q3 0 6 -7q19 -41 34 -66q3 -6 2 -7q-2 -3 -11 3q-25 17 -43 42q-55 -32 -105 -47q-1 -1 -4.5 -1t-4.5 2t7 6q75 45 109 70q5 5 10 5z" />
    <glyph glyph-name="ecircumflex.begin2" unicode="&#xe03c;" horiz-adv-x="293" 
d="M242 171q15 0 23 -8t7 -18q-1 -30 -64 -61q-31 -16 -87 -32q-5 -12 -6 -22q0 -23 24 -23q32 -2 90 36q37 24 64 51q10 8 13 6q3 -3 -8 -14q-22 -23 -63 -52q-63 -43 -117 -43q-27 0 -41.5 11t-12.5 30q0 5 2 15q-26 -1 -45 2q-68 13 -68 61q0 21 18 40.5t38 25.5
q9 3 11 1q0 -1 -5 -4l-3 -1q-40 -18 -40 -55q0 -23 18 -39t43 -20q2 0 36 -3q14 37 48 63q25 21 61 37t64 16zM126 63v-1q42 12 69 31q38 26 42 52q1 13 -13 13q-16 -2 -44 -27q-30 -28 -54 -68zM275 281q3 0 6 -7q19 -41 34 -66q3 -6 2 -7q-2 -3 -11 3q-25 17 -43 42
q-55 -32 -105 -47q-1 -1 -4.5 -1t-4.5 2t7 6q75 45 109 70q5 5 10 5z" />
    </font>
</defs>
</svg>
