<?xml version="1.0" standalone="no"?>
<!DOCTYPE svg PUBLIC "-//W3C//DTD SVG 1.1//EN" "http://www.w3.org/Graphics/SVG/1.1/DTD/svg11.dtd" >
<svg>
<metadata>
Created by FontForge 20090622 at Fri May 24 04:42:50 2019
 By deploy user
&#194;&#169; 1997, 1998, 1999, 2004 Adobe Systems Incorporated. All Rights Reserved.
</metadata>
<defs>
<font id="BickhamScriptPro-Regular" horiz-adv-x="191" >
  <font-face 
    font-family="Bickham Script Pro Regular"
    font-weight="400"
    font-style="italic"
    font-stretch="normal"
    units-per-em="1000"
    panose-1="3 3 4 2 4 7 7 13 13 6"
    ascent="680"
    descent="-320"
    x-height="171"
    cap-height="432"
    bbox="-2225.39 -1073 3480.31 1275"
    underline-thickness="30"
    underline-position="-90"
    slope="-39"
    unicode-range="U+0020-U+FB06"
  />
<missing-glyph horiz-adv-x="500" 
d="M0 0v700h500v-700h-500zM250 395l170 255h-340zM280 350l170 -255v510zM80 50h340l-170 255zM50 605v-510l170 255z" />
    <glyph glyph-name="O_n" unicode="On" horiz-adv-x="745" 
d="M356 143q68 85 74 147q3 22 -8 37t-31 17q-71 8 -146 -86q-38 -45 -37 -91t48 -57q34 -8 79 9q8 7 21 24zM662 83q-21 -25 -33 -44q-11 -17 -4 -22q6 -5 24 4q22 11 48 31q18 14 48 41q10 9 13 6q2 -3 -8 -13q-26 -26 -60 -52q-53 -40 -90 -40q-15 0 -23 6.5t-7 19.5
q1 20 42 70l42 49q8 10 1 14q-6 4 -26 -6q-35 -18 -78 -51l-112 -91q-12 -9 -26 -9q-12 0 -15 3t2 13q16 30 44 67l41 52q11 14 7 19q-8 9 -56 -8q-4 -1 -57 -22q-53 -60 -127.5 -98.5t-138.5 -36.5q-90 2 -100 81q-5 49 22 109t80 113q59 58 135 90t153 28q36 -2 65 -21.5
t32 -57.5q3 -29 -15 -49q-11 -13 -14 -8l8 12q14 21 10 44q-5 34 -30.5 50t-55.5 17q-61 3 -132 -39t-117 -93q-49 -56 -74 -116t-19 -101q8 -48 62 -50q96 -3 203 114q-40 -12 -72 -5q-54 10 -59.5 64t38.5 108q32 40 75 61t84 16q28 -3 44.5 -23.5t12.5 -56.5
q-6 -73 -60 -140q27 13 49 21q51 19 74 18q25 -1 25 -23q0 -13 -21 -42l-47 -63l1 -1l92 75q73 54 109 54q34 0 31 -27q-2 -14 -40 -61z" />
    <glyph glyph-name="O_r" unicode="Or" horiz-adv-x="613" 
d="M326 110q98 122 104 180q3 22 -8 37t-31 17q-34 4 -75 -20t-77 -69q-58 -73 -67 -131.5t39 -71.5q34 -7 67 6q32 32 48 52zM564 52q29 23 47 39q11 11 15 8q2 -3 -12 -17q-30 -27 -57 -48q-53 -40 -89 -40q-15 0 -23.5 7t-7.5 19q1 26 48 71l26 22.5l27 22.5t12 12
q3 7 -8 8q-5 1 -32 0q-18 0 -23 2q-9 -10 -63 -46q-52 -36 -110 -55q-92 -75 -201 -72q-90 2 -100 81q-5 49 22 109t80 113q59 58 135 90t153 28q36 -2 65 -21.5t32 -57.5q3 -29 -15 -49q-11 -13 -14 -8l8 12q14 21 10 44q-5 34 -30.5 50t-55.5 17q-61 3 -132 -39t-117 -93
q-49 -56 -74 -116t-19 -101q8 -48 62 -50q74 -2 145 53q-28 -9 -58 -3q-55 11 -52.5 77.5t58.5 137.5q33 41 85 69t91 24q28 -3 44.5 -23.5t12.5 -56.5q-7 -83 -92 -176q-18 -18 -28 -26q42 18 94 51q42 27 56 41q-17 11 0 32q14 17 38 17q15 0 18 -10q-10 -7 -17 -14
q-19 -20 3 -22q57 -2 57 -20q0 -5 -4.5 -12t-10 -13.5l-15.5 -17.5l-16 -18q-26 -30 -34 -47q-8 -14 -1 -19q6 -4 22 4q25 13 45 30z" />
    <glyph glyph-name="d_d" unicode="dd" horiz-adv-x="576" 
d="M170 161q-29 0 -92 -63q-59 -58 -56 -79q1 -10 13 -10q14 0 38.5 14t45.5 33q25 22 46.5 48.5t22.5 38.5q1 18 -18 18zM459 161q-29 0 -92 -63q-59 -58 -56 -79q1 -10 13 -10q14 0 38.5 14t45.5 33q25 22 46.5 48.5t22.5 38.5q1 18 -18 18zM435 -6q-27 0 -29 21
q-2 17 14 36l-1 1q-65 -56 -109 -58q-19 -1 -31.5 8t-10.5 32q2 21 28 52l-1 1l-3 -3q-4 -3 -6 -5l-54 -45q-51 -40 -85 -40q-28 0 -30 21q-2 17 14 36l-1 1q-65 -56 -109 -58h-1q-19 -1 -31.5 8.5t-9.5 31.5q3 23 28 52l-1 1q-7 -7 -13 -12q-7 -5 -9 -3q-3 4 16 21
q8 8 28 22q22 16 48 29q65 32 99 27q13 -2 18.5 -12.5t2.5 -21.5h1q44 63 100 123q83 90 131 117q21 12 43 12q12 0 17 -7q-23 -5 -53.5 -31.5t-92.5 -94.5q-33 -37 -84 -101q-65 -81 -84 -115q-10 -16 -4 -22q8 -7 30 6q17 10 39 28l42 35q12 11 36 28q22 16 48 29
q65 32 99 27q13 -2 18.5 -12.5t2.5 -21.5h1q48 68 119 151q61 72 126 120q28 21 49 21q13 0 15 -7q-37 -15 -133 -124q-42 -48 -116 -143q-67 -86 -83 -115q-11 -18 -3 -23q7 -4 23 4q18 9 45 31q26 21 48 41q11 10 14 7t-13 -18q-28 -26 -56 -48q-50 -40 -86 -40z" />
    <glyph glyph-name="f_b" unicode="fb" horiz-adv-x="463" 
d="M-234 -385q8 -4 25 10q20 16 62.5 72t76.5 110q92 145 136 271h-1q-131 -171 -202 -279q-80 -121 -97 -159q-8 -20 0 -25zM97 118q46 34 167 67q32 40 97 112q84 92 189 163q-19 24 -65 24q-65 0 -147 -79q-87 -84 -241 -287zM321 196q151 46 181 56q114 38 189 83
q95 56 96 113q1 32 -20 49.5t-60 15.5q-66 -4 -143 -56q9 -22 5 -45q-1 -6 -2.5 -10.5t-2.5 -6.5t-2 -1q-1 0 -1 0.5t0.5 1.5t0.5 3t0.5 5.5t0.5 8.5q0 21 -8 37q-58 -47 -103 -98q-66 -74 -131 -156zM257 6q24 2 48 17q27 17 46 42q-14 -7 -62 -19q-29 -7 -43 -14.5
t-13 -16.5q1 -11 24 -9zM59 132l-1 1q-16 -12 -53 -47q-8 -7 -11 -4q-2 2 6 11q42 41 78 65q94 125 194 221q52 50 113.5 82.5t106.5 32.5q48 0 67 -27q79 51 147 55q45 2 68.5 -18t22.5 -56q-1 -63 -100 -122q-59 -36 -193 -83q-42 -14 -116 -36t-76 -23q-37 -47 -87 -118
l1 -1q39 40 94 77q50 33 88 29q36 -3 31 -38q-7 -50 -67 -95q-54 -41 -115 -43q-40 0 -40 20q1 13 16.5 21t48.5 17q58 14 77 23q23 26 32 50q11 30 -10 30q-29 0 -87 -45q-44 -34 -111 -101q-13 -12 -29 -14q-14 -1 -16.5 3.5t2.5 12.5q11 26 41 67q48 67 74 94
q-120 -34 -174 -76q-41 -134 -145 -300q-33 -53 -78.5 -112t-72.5 -78q-22 -16 -37 -13q-25 5 -18 40q8 38 51 113t100 154q67 94 178 231z" />
    <glyph glyph-name="f_f_r" unicode="ffr" horiz-adv-x="526" 
d="M311 166q25 0 63 2q9 0 19 1.5t15 1.5q23 0 21 -23q-1 -14 -21 -42l-30 -40l2 -2l17 17l22 22l18 18q52 50 83 50q33 0 27 -27q-4 -18 -25.5 -33t-36.5 -6q-2 4 0 7l8 12t8 15q4 10 -1 13t-19 -7t-54 -46l-50 -49t-46 -45q-9 -9 -26 -9q-12 0 -15 3t2 13q18 34 44 67
l41 52q9 9 9 18q0 8 -17 8q-28 0 -66 -2l-74 -93q-60 -157 -148 -302q-67 -111 -118 -150q-23 -18 -41 -14q-23 5 -16 38q8 39 51 115.5t98 151.5l106 141l89 112q-17 0 -53 -0.5t-49 -1.5l-64 -83l-118 -161q-43 -58 -100 -153q-50 -83 -72 -140q-1 -4 -3 -9t-2.5 -7.5
t-2 -5t-2.5 -3.5t-3 -1q-5 0 -7.5 7t-1.5 18t2.5 21t3.5 17q9 34 46.5 109.5t84.5 141.5q45 64 99 134q6 21 7.5 48.5t6.5 38.5q9 20 24 28.5t55 11.5q101 131 190 218q49 48 108 80t103 32q39 0 57 -23q111 81 195 81q59 0 93.5 -31.5t28.5 -74.5q-1 -6 -2.5 -11t-3.5 -7.5
t-3 -2.5q-1 2 -0.5 3t2 7t1.5 11q2 34 -31.5 60.5t-87.5 26.5q-101 0 -184 -71q12 -19 12 -43q0 -17 -4 -17q-1 0 -1 1v5.5t-1 9.5q-4 24 -14 37q-10 -8 -14 -12q-54 -50 -173 -199zM21 56l72 96q-48 -3 -60 -32q-5 -11 -6.5 -30.5t-5.5 -33.5zM-59 -384q8 -4 25 9
q38 29 109 144t141 276q-100 -128 -179 -246q-79 -120 -96 -159q-9 -21 0 -24zM156 163q13 1 49 1.5t53 0.5l106 126q75 88 170 162q3 2 8.5 6t7.5 6q-19 19 -55 19q-34 0 -63 -18t-74 -61q-59 -57 -202 -242z" />
    <glyph glyph-name="f_h" unicode="fh" horiz-adv-x="485" 
d="M-234 -385q8 -4 25 10q20 16 62.5 72t76.5 110q92 145 136 271h-1q-131 -171 -202 -279q-80 -121 -97 -159q-8 -20 0 -25zM97 118q46 34 167 67q32 40 97 112q84 92 189 163q-19 24 -65 24q-65 0 -147 -79q-38 -37 -110.5 -123.5t-130.5 -163.5zM321 196q151 46 181 56
q114 38 189 83q95 56 96 113q1 32 -20 49.5t-60 15.5q-66 -4 -143 -56q8 -22 4 -45q-3 -18 -6 -18v2.5t0.5 3t0.5 4.5v6q0 24 -8 40q-58 -47 -103 -98q-66 -74 -131 -156zM81 162q91 121 189 215q53 51 115 84t107 33q48 0 67 -27q79 51 147 55q45 2 68.5 -18t22.5 -56
q-1 -63 -100 -122q-59 -36 -193 -83q-42 -14 -116 -36t-76 -23q-68 -87 -103 -141l1 -1l92 75q73 54 109 54q34 0 31 -27q-2 -13 -40 -61q-21 -25 -33 -44q-11 -17 -4 -22q6 -5 24 4q22 11 48 31q18 14 48 41q10 9 13 6q2 -3 -8 -13q-26 -26 -60 -52q-53 -40 -90 -40
q-15 0 -23 6.5t-7 19.5q1 20 42 70l42 49q8 10 1 14q-8 5 -26 -6q-35 -18 -78 -51l-112 -91q-12 -9 -26 -9q-11 0 -14 3t1 13q11 26 41 67q25 35 73 94q-125 -39 -173 -76q-39 -131 -145 -300q-33 -53 -78.5 -112t-72.5 -78q-22 -16 -37 -13q-25 4 -18 40q8 38 51 113
t100 154q67 94 178 231l-1 1q-16 -12 -53 -47q-8 -7 -11 -4q-2 2 6 11q35 33 81 69z" />
    <glyph glyph-name="f_j" unicode="fj" horiz-adv-x="306" 
d="M-629 -494q-128 -4 -189.5 45.5t-61.5 129.5q0 31 16 64.5t41 55.5l8 6t7 4t3 0q1 -2 -4 -5q-7 -6 -12 -12q-39 -44 -39 -113q0 -73 58 -121.5t173 -44.5q137 4 261 97q-20 30 -9 66q0 -36 17 -60q108 82 268 289l100 130q6 22 8 49t6 38q8 20 25 29t54 10l71 88
q97 120 187 195q124 99 230 102q71 1 108 -27t37 -70t-36 -72q-11 -9 -14 -6q-1 1 8 10q23 25 23 63q0 41 -31 68t-95 25q-94 -3 -211 -114q-64 -61 -148 -169l-73 -91q76 2 93 2q31 0 52 3q10 1 12.5 -5t-5.5 -11q-27 -17 -63 -66q-6 -8 -23.5 -33.5l-47.5 -68.5l-60 -84
q-92 -127 -178 -215q-110 -113 -220 -113q-44 0 -69 21q-136 -85 -277 -89zM-280 -417h1q79 0 180 111q71 78 226 297q81 115 103 139q16 17 32 25v1q-81 0 -113 -2l-64 -86l-125 -165q-160 -210 -302 -302q20 -18 62 -18zM21 53l72 99q-51 -3 -61 -32q-3 -10 -5 -31t-6 -36
zM340 251q-8 12 0 34q8 19 38 19q12 0 15 -7.5t-5 -18.5q-9 -11 -24 -19t-24 -8z" />
    <glyph glyph-name="r_s" unicode="rs" horiz-adv-x="499" 
d="M297 1h1q35 0 66 54q9 15 25.5 55.5t21.5 46.5v1q-12 -12 -48 -38q-26 -18 -50 -30q2 -6 0 -11q-4 -12 -22 -23q-22 -14 -23 -30q-1 -12 7 -18.5t22 -6.5zM387 9q-41 -18 -84 -18q-36 0 -50 17.5t-10 42.5q3 16 11 27q-19 -2 -35 4q-32 14 -22 54q-16 -9 -50 -37
q-39 -34 -101 -94q-9 -9 -26 -9q-12 0 -15 3t2 13q16 30 44 67l40 52q10 13 7 17q-4 5 -15 -1q-17 -8 -39 -27l-43 -38q-14 -12 -17 -9q-2 3 15 19q40 37 52 46q42 33 68 33q25 0 25 -22q0 -14 -21 -43l-30 -40l2 -2q32 32 61 56q32 26 49 37t30 14q14 3 22 -1q11 -8 -4 -16
q-36 -20 -38 -36q-2 -21 16 -28q12 -5 30 -3q13 15 34 15q9 0 14 -5q32 19 53 34q22 16 59 48q4 9 16 17q15 11 29 11q26 0 -1 -19l-4 -2q-3 -2 -12 -7t-12 -8q-7 -7 -7 -27q2 -56 -9 -82q-12 -28 -32 -41q21 8 44 22q30 18 66 50q11 8 13 6q3 -3 -11 -16q-24 -22 -51 -40
q-29 -20 -63 -34z" />
    <glyph glyph-name="r_s_t" unicode="rst" horiz-adv-x="595" 
d="M407 -15h-1q-5 0 -6.5 1t-1 6t6.5 16q9 16 68 109q4 10 6.5 19.5t4.5 14.5q6 15 28 17q35 47 116 133q-23 -9 -52 -9q-39 0 -89.5 13t-70.5 14q-85 3 -95 -58q-7 -43 25 -65q8 -5 6 -8q-1 -2 -10 2q-44 23 -39 70q4 31 31 53.5t82 20.5q29 -1 82 -17t81 -16q33 0 59 11
l7 7q47 47 73 47q10 0 13 -6q-13 -31 -57 -59q-90 -101 -114 -133q23 1 88 1q8 0 11.5 -1.5t2.5 -4.5q-2 -5 -18 -5q-69 0 -92 -1l-16 -22l-28.5 -40t-22.5 -31q-15 -38 -49 -66q-15 -13 -29 -13zM123 106l-30 -40l2 -2q32 32 61 56q26 21 46 34q9 17 29 19q16 2 23 -5
q8 -8 -11 -20q-19 -11 -17 -21q4 -17 43 -15q27 2 59 16q22 10 49 37q5 10 17 19q13 11 30 11q26 0 -1 -19l-4 -2q-3 -2 -9 -5.5t-10.5 -6.5t-6.5 -5q-7 -7 -7 -27q2 -48 -9 -72q-10 -22 -33 -40q-35 -27 -81 -27q-33 0 -47.5 15.5t-11.5 36.5q3 18 15.5 29.5t28.5 11.5
q20 0 20 -18q0 -15 -18 -24q-14 -6 -18.5 -10.5t-4.5 -11.5q0 -8 8.5 -13.5t21.5 -5.5q36 0 67 54q9 14 23.5 47.5t20.5 40.5l-1 1q-15 -15 -37 -25q-33 -16 -63 -17q-34 -1 -52 12q-12 10 -14 27q-35 -25 -54 -42q-39 -34 -101 -94q-9 -9 -26 -9q-12 0 -15 3t2 13
q15 28 44 67l40 52q10 13 7 17q-4 5 -15 -1q-17 -8 -39 -27l-43 -38q-14 -12 -17 -9q-2 3 15 19q40 37 52 46q42 33 68 33q25 0 25 -22q0 -14 -21 -43z" />
    <glyph glyph-name="r_scaron" unicode="r&#x161;" horiz-adv-x="499" 
d="M297 1h1q35 0 66 54q9 15 25.5 55.5t21.5 46.5v1q-12 -12 -48 -38q-26 -18 -50 -30q2 -6 0 -11q-4 -12 -22 -23q-22 -14 -23 -30q-1 -12 7 -18.5t22 -6.5zM387 9q-41 -18 -84 -18q-36 0 -50 17.5t-10 42.5q3 16 11 27q-19 -2 -35 4q-32 14 -22 54q-16 -9 -50 -37
q-39 -34 -101 -94q-9 -9 -26 -9q-12 0 -15 3t2 13q16 30 44 67l40 52q10 13 7 17q-4 5 -15 -1q-17 -8 -39 -27l-43 -38q-14 -12 -17 -9q-2 3 15 19q40 37 52 46q42 33 68 33q25 0 25 -22q0 -14 -21 -43l-30 -40l2 -2q32 32 61 56q32 26 49 37t30 14q14 3 22 -1q11 -8 -4 -16
q-36 -20 -38 -36q-2 -21 16 -28q12 -5 30 -3q13 15 34 15q9 0 14 -5q32 19 53 34q22 16 59 48q4 9 16 17q15 11 29 11q26 0 -1 -19l-4 -2q-3 -2 -12 -7t-12 -8q-7 -7 -7 -27q2 -56 -9 -82q-12 -28 -32 -41q21 8 44 22q30 18 66 50q11 8 13 6q3 -3 -11 -16q-24 -22 -51 -40
q-29 -20 -63 -34zM475 270h-1q-3 0 -5 7q-21 46 -34 66q-4 5 -2 7q3 3 11 -3q25 -17 43 -42q55 32 105 47q8 3 9 -1q1 -1 -7 -6q-75 -45 -109 -70q-7 -5 -10 -5z" />
    <glyph glyph-name="s_f_e" unicode="sfe" horiz-adv-x="602" 
d="M-5 -385q9 -3 25 10q20 16 62.5 72t76.5 110q92 145 136 271h-1q-131 -171 -202 -279q-80 -121 -97 -159q-9 -21 0 -25zM119 21q19 6 44 22q24 15 66 50q25 23 77 65q4 4 6 7q-15 15 -11 31q5 17 21 12q5 -1 7 -20l119 151q-122 -10 -171 -22q-66 -16 -95 -41.5
t-30 -47.5q-1 -17 6 -28q3 -4 6 -6q4 4 6 5q12 8 26 8q26 0 -1 -19l-4 -2q-3 -2 -12 -7t-12 -8q-7 -7 -7 -27q2 -56 -9 -82q-12 -28 -32 -41zM509 353q83 14 168 68q47 29 80 67.5t35 65.5q2 29 -28 29q-39 0 -111 -68q-50 -47 -144 -162zM391 81q-19 8 -31 17
q-17 14 -24 30l-25 -32q-38 -127 -146 -299q-33 -53 -78.5 -112t-72.5 -78q-22 -16 -37 -13q-25 4 -18 40q8 38 51.5 114t99.5 153l174 227l-1 1l-48 -42q-20 -20 -55 -44q-29 -20 -63 -34q-41 -18 -84 -18q-36 0 -50 17.5t-10 42.5q3 22 18 37.5t33 14.5q23 -2 19 -22
q-3 -15 -22 -25q-22 -12 -23 -30q-1 -12 7 -18.5t22 -6.5q36 0 67 54q9 15 25.5 55.5t21.5 46.5v1q-14 -14 -48 -38q-23 -17 -38 -24q-8 -4 -10 -1q-1 4 5 8q23 14 42 28q22 16 59 48q6 10 10 12q-6 2 -11 7q-14 14 -14 35q0 67 131 93q57 11 189 23q61 71 113 122
q124 121 198 121q22 0 33 -12.5t9 -31.5q-2 -28 -37.5 -65.5t-93.5 -72.5q-86 -51 -177 -68l-142 -183q-7 -8 -16 -21q7 -18 24 -32q14 -11 30 -16q28 32 66 53q53 29 89 29q15 0 23 -8t7 -19q-3 -37 -64 -61q-40 -15 -80 -15q-13 -18 -13 -39q0 -23 23 -23q36 0 91 36
q28 19 61 48q8 7 11 4q3 -4 -8 -13q-34 -31 -59 -48q-64 -43 -116 -43q-55 0 -55 41q0 25 18 49zM444 80q30 -3 62 13q41 21 41 53q0 12 -12 12q-14 0 -44 -27q-30 -28 -47 -51z" />
    <glyph glyph-name="s_s" unicode="ss" horiz-adv-x="457" 
d="M255 1h1q35 0 66 54q9 15 25.5 55.5t21.5 46.5v1q-16 -16 -48 -38q-20 -14 -50 -31q1 -5 0 -9q-3 -14 -22 -24q-22 -12 -23 -30q-1 -12 7 -18.5t22 -6.5zM408 43q-29 -20 -63 -34q-41 -18 -84 -18q-36 0 -50 17.5t-9 44.5q-16 -10 -25 -15q-31 -17 -60 -29
q-41 -18 -84 -18h-1q-36 0 -49.5 17.5t-9.5 42.5q3 21 18.5 36t33.5 15q10 0 15 -6.5t3 -14.5q-3 -13 -22 -25q-22 -14 -23 -30q-1 -12 7 -18.5t22 -6.5q28 0 60 39q19 23 44.5 79.5t31.5 63.5v1q-31 -35 -68 -62q-20 -16 -39 -26q-9 -5 -11 -2q-3 4 5 9l42 28q33 24 81 74
q8 11 16 17q13 11 29 11q26 0 -1 -19l-4 -2q-3 -2 -12 -7t-12 -8q-7 -7 -7 -27q2 -50 -22 -99q-17 -34 -41 -50q23 8 52 24q23 12 34 21q15 37 46 37q12 0 16 -6q34 20 53 34q22 16 59 48q7 11 16 17q15 11 29 11q26 0 -1 -19l-4 -2q-3 -2 -12 -7t-12 -8q-7 -7 -7 -27
q2 -56 -9 -82q-12 -28 -32 -41q19 6 44 22q30 18 66 50q11 8 13 6q3 -3 -11 -16q-24 -22 -51 -40z" />
    <glyph glyph-name="w_h" unicode="wh" horiz-adv-x="749" 
d="M555 96l-112 -91q-12 -9 -26 -9q-11 0 -14.5 3t0.5 13q10 23 42 67l40 53q-8 -6 -14 -9q-40 -22 -64 -24q-20 -1 -31 6q-28 -36 -64 -62q-67 -50 -112 -50q-35 0 -35 29q0 17 13 36q9 14 31 40q18 23 24 37q6 13 -4 13q-8 0 -51 -29q-52 -35 -82 -63l-45 -43
q-24 -22 -33 -22h-1q-13 0 -14 12q-1 6 9 18q5 5 22.5 25.5t26.5 32.5q27 34 37 55q5 10 0 14t-15 -1q-15 -7 -39 -27q-27 -22 -42 -37q-7 -7 -10 -4t4 10q25 25 53 47q44 35 70 35q31 0 28 -34q-1 -17 -20 -44q54 43 92 62q23 11 41 11q9 0 15.5 -5t5.5 -15q-1 -21 -28 -56
q-26 -35 -34 -51q-10 -17 0 -26q9 -6 28 2q27 11 57 35q38 31 63 62q-10 13 -5 36q5 26 25 26q15 0 15 -15q0 -18 -18 -44q4 -7 23 -5q24 2 63 24q15 9 28 18q66 86 119 146q51 59 123.5 132.5t108.5 98.5q56 40 85 40q18 0 25.5 -10.5t5.5 -25.5q-3 -17 -19.5 -39.5
t-50.5 -54.5l-59.5 -54.5l-75.5 -63.5q-17 -14 -89 -69.5t-115 -93.5q-21 -24 -83 -115l1 -1l92 75q73 54 109 54q34 0 31 -27q-2 -14 -40 -61q-21 -25 -33 -44q-11 -17 -4 -22q6 -5 24 4q22 11 48 31q18 14 48 41q10 9 13 6q2 -3 -8 -13q-26 -26 -60 -52q-53 -40 -90 -40
q-15 0 -23 6.5t-7 19.5q1 20 42 70l42 49q8 10 1 14q-6 4 -26 -6q-35 -18 -78 -51zM572 184l108.5 90.5t70.5 57.5q90 78 138 127.5t51 79.5q1 19 -17 19q-23 0 -65 -40q-81 -81 -133 -143q-92 -109 -153 -191z" />
    <glyph glyph-name="y_g" unicode="yg" horiz-adv-x="555" 
d="M327 9h1q13 0 38 14t45 33q25 22 46.5 48.5t22.5 38.5q1 18 -18 18q-29 0 -92 -63q-57 -56 -56 -79q1 -10 13 -10zM61 -93l152 205l-1 1q-21 -18 -81 -64q-73 -55 -107 -55q-16 0 -24.5 7.5t-7.5 21.5q2 20 18 40q32 42 71 80q-11 -5 -44 -31q-25 -20 -35 -29
q-12 -10 -15 -8q-3 3 11 16q36 32 71 56q32 22 58 22q16 0 18 -3t-7 -13q-17 -19 -52 -62q-31 -41 -37 -54t-1 -18q6 -6 23 3q31 17 75 51l108 87q15 11 29 11t17.5 -2.5t-3.5 -12.5l-60 -78l-30 -42l-51.5 -72t-45.5 -61q-154 -197 -285 -290q29 -25 90 -29q117 -6 235 106
q15 15 31.5 33.5t36 44.5l31.5 42.5l36 50l32 44.5l101 141l-1 1q-60 -51 -105 -53q-19 -1 -31.5 8t-9.5 32q1 10 10 28.5t22 32.5q30 31 63 48q60 31 98 28q29 -1 25 -34h1q30 34 48 34q28 0 13 -16q-29 -34 -52 -66l-135 -193q-103 -147 -195 -223q-127 -105 -254 -98
q-69 4 -100 31q-141 -96 -291 -100q-129 -4 -190 44.5t-61 127.5q0 73 57 123l9 7t6 3.5t3 -0.5t-0.5 -2t-6 -5t-9.5 -10q-39 -46 -39 -113q0 -73 58 -121.5t173 -44.5q144 4 277 110q-20 32 -8 65q-1 -31 17 -58q101 82 251 275z" />
    <glyph glyph-name="ydieresis_gcommaaccent" unicode="&#xff;&#x123;" horiz-adv-x="552" 
d="M472 218q-13 0 -13 9q0 5 6 15q35 41 79 65q11 6 12 5q2 -2 -7 -11q-27 -29 -33 -44q-3 -5 -2 -10t0 -10q-6 -17 -42 -19zM269 231q-7 9 0 30q6 17 35 17q11 0 13.5 -6.5t-5.5 -16.5q-18 -24 -43 -24zM169 231q-7 9 0 30q7 17 34 17q11 0 13.5 -6.5t-4.5 -16.5
q-18 -24 -43 -24zM327 9h1q13 0 38 14t45 33q25 22 46.5 48.5t22.5 38.5q1 18 -18 18q-29 0 -92 -63q-57 -56 -56 -79q1 -10 13 -10zM61 -93l152 205l-1 1q-21 -18 -81 -64q-73 -55 -107 -55q-16 0 -24.5 7.5t-7.5 21.5q2 20 18 40q32 42 71 80q-11 -5 -44 -31
q-25 -20 -35 -29q-12 -10 -15 -8q-3 3 11 16q36 32 71 56q32 22 58 22q16 0 18 -3t-7 -13q-17 -19 -52 -62q-31 -41 -37 -54t-1 -18q6 -6 23 3q31 17 75 51l108 87q15 11 29 11t17.5 -2.5t-3.5 -12.5l-60 -78l-30 -42l-51.5 -72t-45.5 -61q-154 -197 -285 -290
q29 -25 90 -29q117 -6 235 106q15 15 31.5 33.5t36 44.5l31.5 42.5l36 50l32 44.5l101 141l-1 1q-60 -51 -105 -53q-19 -1 -31.5 8t-9.5 32q1 10 10 28.5t22 32.5q30 31 63 48q60 31 98 28q29 -1 25 -34h1q30 34 48 34q28 0 13 -16q-29 -34 -52 -66l-135 -193
q-103 -147 -195 -223q-127 -105 -254 -98q-69 4 -100 31q-141 -96 -291 -100q-129 -4 -190 44.5t-61 127.5q0 73 57 123l9 7t6 3.5t3 -0.5t-0.5 -2t-6 -5t-9.5 -10q-39 -46 -39 -113q0 -73 58 -121.5t173 -44.5q144 4 277 110q-20 32 -8 65q-1 -31 17 -58q101 82 251 275z
" />
    <glyph glyph-name=".notdef" horiz-adv-x="500" 
d="M0 0v700h500v-700h-500zM250 395l170 255h-340zM280 350l170 -255v510zM80 50h340l-170 255zM50 605v-510l170 255z" />
    <glyph glyph-name=".null" horiz-adv-x="0" 
 />
    <glyph glyph-name="nonmarkingreturn" horiz-adv-x="333" 
 />
    <glyph glyph-name="space" unicode=" " horiz-adv-x="153" 
 />
    <glyph glyph-name="exclam" unicode="!" horiz-adv-x="239" 
d="M305 339q12 0 12 -5q-1 -6 -19 -30q-34 -45 -101 -118.5t-105 -111.5q-9 -9 -13 -7t6 16q97 128 160 224q22 32 60 32zM67 44q12 0 15.5 -7.5t-5.5 -18.5q-8 -11 -23 -19t-24 -8q-10 13 -1 34q8 19 38 19z" />
    <glyph glyph-name="quotedbl" unicode="&#x22;" horiz-adv-x="190" 
d="M187 340q14 0 16.5 -6t-10.5 -17q-48 -43 -78 -66q-9 -7 -11 -5q-2 1 4 11l40 64q11 19 39 19zM266 340q14 0 16.5 -6t-10.5 -17q-48 -43 -78 -66q-8 -6 -11 -5t4 11q8 11 22 34t19 30q11 19 38 19z" />
    <glyph glyph-name="numbersign" unicode="#" horiz-adv-x="356" 
d="M246 281q11 0 11 -4q1 -7 -17 -28l-52 -62q26 0 92 -2l25.5 33.5l31.5 42.5q1 1 6 7t6 7t4.5 5t6 5t6.5 2t9 1q11 0 12 -4q0 -6 -18 -28l-59 -71h51q16 0 16 -4t-16 -4h-58l-55 -67h24.5h27.5l13 -1q16 0 16 -4t-16 -4h-72l-88 -108q-9 -13 -16 -9q-4 3 5 15l75 102
q-17 -1 -49.5 -1.5t-49.5 -0.5l-93 -113q-11 -14 -17 -9q-4 4 5 15l80 107h-41q-23 0 -24 6q0 7 21 7h53l48 63h-50q-23 0 -24 5q0 3 3.5 5t7.5 2.5t10 0.5q11 0 31.5 -0.5t30.5 -0.5l50 66q2 3 6.5 9t6.5 8t6 5.5t8 4.5t10 1zM180 175l-52 -64q63 0 97 -1q13 19 49 66
q-13 0 -45 -0.5t-49 -0.5z" />
    <glyph glyph-name="dollar" unicode="$" horiz-adv-x="245" 
d="M248 272l-66 -100q19 -60 10 -86q-10 -31 -40.5 -49.5t-59.5 -18.5q-9 0 -13 1l-26 -40q-6 -9 -11 -7t2 13l23 36q-23 6 -34.5 21.5t-7.5 34.5q6 31 34 29q9 -1 13.5 -8t2.5 -16q-2 -8 -10 -16.5t-8 -13.5q-2 -15 17 -21l74 113q-17 42 -4 74q10 29 36.5 45.5t57.5 17.5
q7 10 12 18q16 24 23 22q6 -1 -9 -24l-11 -17q18 -4 28 -16t5 -30q-8 -24 -28 -22q-22 3 -12 25q3 6 8.5 13t5.5 11q-1 8 -12 11zM176 187l57 86q-18 0 -35 -11.5t-23 -28.5q-7 -21 1 -46zM154 130l-69 -102q3 -1 10 -1q19 0 35.5 11.5t25.5 28.5q13 25 -2 63z" />
    <glyph glyph-name="percent" unicode="%" horiz-adv-x="392" 
d="M240 -6q-17 0 -27 11t-8 28q5 32 38 67t76 43q3 1 7.5 0.5t4.5 -1.5t-1.5 -1.5t-6 -2.5t-8.5 -5q-18 -11 -46 -46q-30 -41 -34 -64q-3 -17 10 -20q25 -3 57 43q30 41 38 69q5 16 0 22q-1 2 -4 4l-2 1q0 1 2 1.5t5.5 0.5t6.5 -1q23 -8 16 -38q-6 -30 -41 -68
q-43 -43 -83 -43zM306 250q-29 -16 -59 -19q-23 -2 -44 6q5 -11 1 -27q-8 -31 -41 -64q-18 -19 -41.5 -31.5t-40.5 -12.5t-27 11t-8 28q4 33 38 68q32 35 76 43q11 2 11 -1q0 -1 -2 -2l-6 -3l-8 -4q-19 -13 -45 -47q-30 -41 -34 -63q-3 -19 10 -20q25 -3 57 43q27 36 38 69
q5 14 0 21q-1 2 -2.5 3t-2.5 1.5t-1 1.5q2 5 14 1q6 -2 8 -4q20 -11 50 -9q39 5 80 34q25 27 43 27q11 0 6 -7q-4 -6 -23 -25q-136 -133 -283 -302q-11 -11 -16 -8q-3 3 7 15q123 147 245 277z" />
    <glyph glyph-name="ampersand" unicode="&#x26;" horiz-adv-x="452" 
d="M506 299q22 0 33 -11.5t7 -29.5q-3 -14 -14.5 -25t-23.5 -8q-14 3 -10 31q4 20 -14 21q-29 4 -110 -67q-19 -17 -60 -57t-61 -58q54 -77 40 -143q-12 -54 -59.5 -90t-104.5 -36q-46 0 -60 28q-7 14 -2 17q1 0 2 -1.5t2.5 -5t3.5 -6.5q16 -20 54 -20q40 0 71.5 25t43.5 65
q19 68 -18 143q-92 -76 -155 -76q-18 0 -29 11.5t-7 32.5q8 40 85 86q12 7 33.5 18.5l30.5 16.5q-9 34 -4 60q6 28 27 50.5t48 22.5q16 0 23.5 -13.5t0.5 -35.5q-16 -40 -69 -77q4 -11 37 -63q21 19 61 59.5t59 57.5q87 78 139 78zM253 277q-15 0 -29 -17t-19 -39
q-4 -24 3 -46q47 35 60 70q5 13 0.5 22.5t-15.5 9.5zM105 22q40 0 115 59q-23 40 -33 71q-52 -36 -59 -42q-40 -33 -46 -62q-3 -13 4.5 -19.5t18.5 -6.5z" />
    <glyph glyph-name="quotesingle" unicode="'" horiz-adv-x="109" 
d="M188 340q13 0 15 -6t-10 -17q-55 -47 -79 -66q-8 -7 -10 -5q-4 1 3 11l41 64q11 19 40 19z" />
    <glyph glyph-name="parenleft" unicode="(" horiz-adv-x="239" 
d="M72 -92q-4 0 -5 9q-4 19 -4.5 48t3.5 73.5t24.5 98t54.5 100.5q136 190 337 225q9 2 9 -1q0 -2 -9 -5q-70 -20 -151.5 -75t-151.5 -153q-60 -87 -83 -171.5t-22 -139.5q0 -9 -2 -9z" />
    <glyph glyph-name="parenright" unicode=")" horiz-adv-x="239" 
d="M-107 -86q0 1 9 4q67 22 141 80t137 156q55 85 71.5 166t11.5 138q0 8 1 8q3 0 5 -7q43 -163 -54 -315q-38 -60 -84 -105.5t-89.5 -70.5t-76.5 -38t-63 -18q-9 -2 -9 2z" />
    <glyph glyph-name="asterisk" unicode="*" horiz-adv-x="231" 
d="M302 340q0 -4 -17 -4q-35 0 -57 1q13 -27 19 -48q4 -14 1 -15t-9 7q-16 21 -32 48q-41 -39 -54 -50q-13 -12 -16 -8q-3 3 7 16q38 46 45 53q-20 3 -48 10q-13 4 -13 9q1 5 16 5q19 0 46 -3q-10 21 -19 45q-5 14 0 17q4 3 13 -10q13 -18 29 -46q27 27 51 47q15 12 18 10
q3 -3 -7 -17q-19 -26 -41 -51q50 -8 53 -9q15 -3 15 -7z" />
    <glyph glyph-name="plus" unicode="+" horiz-adv-x="356" 
d="M287 250q5 0 8 -0.5t5 -1.5t2.5 -3t-1 -5.5t-5 -9t-9.5 -12.5l-71 -84q65 -2 113 -3q16 0 16 -5t-16 -5q-59 -2 -127 -3l-103 -118q-13 -13 -16 -11q-4 3 5 15l84 113q-15 0 -50 -0.5t-55 -0.5q-11 0 -16.5 1.5t-6.5 3.5t0 5q4 13 21 13q19 0 59.5 -1.5t60.5 -2.5l65 87
q1 1 4.5 5.5t4 5.5t3.5 4.5t4.5 4.5t4 3t5 3t5.5 1.5t6 0.5z" />
    <glyph glyph-name="comma" unicode="," horiz-adv-x="105" 
d="M68 35q0 -8 -8 -17q-33 -41 -87 -73q-12 -6 -13 -5q-1 2 8 12q28 31 37 49q3 5 2 11.5t0 10.5q6 21 46 21q15 0 15 -9z" />
    <glyph glyph-name="hyphen" unicode="-" horiz-adv-x="245" 
d="M150 117q23 0 34.5 -15.5t10.5 -36.5q0 -5 -2 -5t-4 3q-10 16 -40 16q-12 0 -35 -4.5t-40 -4.5q-25 0 -35 13q-2 3 0 5t4 0q8 -4 16 -4q18 0 50 19q20 14 41 14z" />
    <glyph glyph-name="period" unicode="." horiz-adv-x="105" 
d="M50 44q13 0 16 -7.5t-6 -18.5q-8 -11 -23 -19t-24 -8q-8 12 -1 34q7 19 38 19z" />
    <glyph glyph-name="slash" unicode="/" horiz-adv-x="239" 
d="M371 380q12 0 12 -4q0 -7 -23 -31l-393 -424q-10 -10 -15 -6q-3 3 8 16l361 419q27 30 50 30z" />
    <glyph glyph-name="zero" unicode="0" horiz-adv-x="266" 
d="M65 -9h-1q-29 0 -44 17t-12 48q5 61 67 127q26 30 63.5 52t67.5 28q21 4 21 -2q0 -1 -2.5 -1t-7.5 -2t-11 -6q-37 -25 -88 -89q-59 -72 -68 -124q-8 -35 18 -37q37 -4 107 82q55 71 73 134q7 24 -3 34q-3 4 -10 7l-2 2q1 2 8.5 2t14.5 -3q15 -7 22.5 -26t0.5 -44
q-15 -57 -75 -120q-33 -36 -71 -57.5t-68 -21.5z" />
    <glyph glyph-name="one" unicode="1" horiz-adv-x="187" 
d="M178 222q-35 -23 -66 -39q-10 -5 -22 -8.5t-18 -4t-8 1.5q0 2 4 4q26 11 44 21q62 33 87 50q30 19 41 19q12 0 -7 -22q-77 -93 -157 -205q-19 -27 -28.5 -33t-43.5 -13q-15 -2 -15 3q-1 6 20 33q39 51 97.5 118.5t71.5 74.5z" />
    <glyph glyph-name="two" unicode="2" horiz-adv-x="249" 
d="M32 40q16 4 34 3q12 -1 33.5 -8t29.5 -7q35 0 71 38q6 6 8 5q4 -3 -1 -8q-53 -69 -101 -69q-28 0 -56 14q-18 9 -41 9q-16 0 -32 -10q-3 -1 -8 -4.5l-8.5 -6t-5.5 -2.5q-3 -1 -3 2q0 2 1 4q2 6 17 15q7 5 40.5 22t52.5 29q53 31 96 71t53 71q5 17 -2.5 28t-22.5 11
q-37 0 -69 -26q-29 -23 -35 -49q-4 -18 3.5 -26t22.5 -4q6 2 7 0q1 -1 -1.5 -3t-5.5 -3q-11 -4 -23 -3q-29 4 -23 33q7 30 49 63q49 37 98 37q33 0 46 -17.5t5 -46.5q-15 -49 -111 -108q-49 -28 -118 -54z" />
    <glyph glyph-name="three" unicode="3" horiz-adv-x="252" 
d="M161 149q22 -1 36 -12q21 -17 10 -51q-13 -40 -67 -69q-47 -26 -98 -26q-29 1 -47.5 13.5t-14.5 35.5q3 18 17.5 29.5t32.5 11.5q12 0 18.5 -7t4.5 -16t-19 -21q-15 -10 -17 -19t6.5 -14t24.5 -4q64 2 108 88q9 16 8.5 33t-12.5 18q-10 1 -26 -7q-13 -7 -14 -5
q-2 3 3 7.5t14 8.5q43 18 67.5 41t24.5 45q0 19 -24 19q-27 0 -48 -15q-22 -16 -29 -37q-4 -14 -3 -21q0 -2 2 -5q1 -2 0 -3q-5 -3 -10 5q-6 10 -2 26q8 26 41 46q37 22 80 22q41 0 41 -31t-38 -55q-31 -19 -70 -31z" />
    <glyph glyph-name="four" unicode="4" horiz-adv-x="273" 
d="M318 267h1q9 0 4 -7q-1 -1 -3 -4q-68 -85 -153 -204q31 -3 39 -4q8 -2 11.5 -4.5t2.5 -6.5q0 -1 -18 0q-30 2 -42 2q-41 -51 -79 -106q-17 -24 -50 -30q-20 -4 -20 2q0 7 18 33l75 101q-44 0 -78 -3q-21 -1 -41 -5q-13 -3 -13 2q-1 5 15 17q54 43 126 93l162 107
q27 17 43 17zM257 222l-1 1q-59 -34 -137 -90q-85 -62 -113 -85v-1q35 5 108 5q96 128 143 170z" />
    <glyph glyph-name="five" unicode="5" horiz-adv-x="258" 
d="M213 273h1q1 0 8 -7q11 -11 28 -17q14 -5 34 -5q17 0 26 7q7 5 8 4q4 -2 -3 -10q-8 -11 -25 -19q-25 -12 -60 -10q-28 1 -47 15q-31 -40 -74 -81l1 -1q24 11 49 11q29 0 46.5 -16t9.5 -48q-10 -46 -61 -75.5t-109 -29.5q-30 0 -48.5 12t-14.5 37q3 16 16 27.5t27 11.5
q24 0 22 -22q-1 -11 -13 -21q-13 -11 -14 -19t6 -12.5t19 -4.5q40 0 76.5 30t46.5 76q4 20 -2.5 31.5t-22.5 11.5q-18 0 -32 -7q-9 -5 -19 -13q-11 -9 -15 -6q-8 7 10 20q20 16 55 54q26 28 60 69q5 7 11 7z" />
    <glyph glyph-name="six" unicode="6" horiz-adv-x="261" 
d="M19 43v1q0 75 77 154q52 53 122.5 88t121.5 34q47 0 61 -32q5 -11 0 -13q-2 -1 -7 7q-16 26 -53 26q-80 0 -205 -133q-86 -90 -86 -147q0 -29 25 -29q41 2 94 78q22 32 28 57t-10 30q-23 3 -51 -17q-6 -4 -8 -2q-2 3 7 10q32 25 63 21q33 -4 36.5 -40.5t-25.5 -75.5
q-24 -33 -62 -51.5t-71 -18.5q-27 0 -42 15.5t-15 37.5z" />
    <glyph glyph-name="seven" unicode="7" horiz-adv-x="215" 
d="M256 238q-68 -26 -127 -25q-17 0 -29 8t-10 23q2 17 25 28q12 6 23 6l2 -1l-4 -8q-3 -7 -2 -13.5t12.5 -11.5t30.5 -5q48 -1 94 11q4 2 9.5 3t6.5 -2t-2.5 -4.5t-8.5 -2.5q-112 -95 -253 -264q-8 -8 -53 -14q-25 -4 -26.5 -0.5t17.5 22.5q174 169 295 250z" />
    <glyph glyph-name="eight" unicode="8" horiz-adv-x="245" 
d="M239 304h-1q-20 0 -38.5 -14.5t-22.5 -33.5q-7 -31 14 -81q16 -44 15 -68q-3 -48 -48.5 -83.5t-96.5 -32.5q-30 2 -46 20.5t-9 46.5q8 31 39.5 57t71.5 42q22 8 23 4q0 -1 -2 -2.5t-7 -4t-9 -5.5q-52 -35 -67 -85q-8 -26 0 -41.5t28 -16.5q34 -3 58 25t24 62q0 21 -16 61
q-14 34 -12 65q2 39 41 70t80 30q28 -1 41.5 -18.5t7.5 -42.5q-9 -41 -82 -76q-25 -12 -27 -7q0 2 2 4t7 4.5t6 3.5q45 28 55 71q5 19 -3 32.5t-26 13.5z" />
    <glyph glyph-name="nine" unicode="9" horiz-adv-x="267" 
d="M-86 -92h1q62 0 133 57q64 50 122 131q65 94 69 131q3 24 -15 27q-19 5 -47.5 -16t-54.5 -58q-21 -30 -24.5 -54.5t12.5 -29.5q20 -5 49 17q13 9 14 8t0 -3t-4.5 -6t-8.5 -8q-33 -25 -62 -20q-32 5 -35.5 40t24.5 74q26 36 69.5 53.5t72.5 11.5q39 -7 41 -50
q2 -25 -13.5 -63t-43.5 -74q-57 -75 -140.5 -127.5t-156.5 -52.5q-21 0 -37 9t-21 22q-4 13 1 13q1 0 2 -0.5t1.5 -3t1.5 -3.5q13 -25 50 -25z" />
    <glyph glyph-name="colon" unicode=":" horiz-adv-x="163" 
d="M60 44h1q12 0 15 -7.5t-6 -18.5q-8 -11 -23 -19t-24 -8q-8 12 -1 34q7 19 38 19zM108 143h1q12 0 15 -7.5t-6 -18.5q-8 -11 -23 -19t-24 -8q-9 11 0 34q8 19 37 19z" />
    <glyph glyph-name="semicolon" unicode=";" horiz-adv-x="163" 
d="M79 35v-1q0 -7 -8 -16q-33 -41 -87 -73q-11 -7 -13 -5t8 12q28 30 37 49q3 5 2 11.5t0 10.5q6 21 46 21q15 0 15 -9zM107 143h1q13 0 16 -7.5t-6 -18.5q-8 -11 -23 -19t-24 -8q-9 11 0 34q8 19 36 19z" />
    <glyph glyph-name="less" unicode="&#x3c;" horiz-adv-x="282" 
d="M39 129v1q0 5 23 13l234 86q13 5 13 0q0 -4 -15 -10l-210 -92l140 -87q10 -5 7 -9t-12 0l-167 86q-13 7 -13 12z" />
    <glyph glyph-name="equal" unicode="=" horiz-adv-x="331" 
d="M343 161v-1q0 -5 -15 -5q-85 -2 -248 -4q-10 0 -12.5 3t-0.5 9q6 12 23 12q132 -4 237 -9q16 0 16 -5zM306 97v-1q0 -5 -15 -5q-39 -1 -121.5 -2t-126.5 -2q-18 0 -12 13q5 12 22 11q39 -1 119.5 -4t117.5 -4q16 0 16 -6z" />
    <glyph glyph-name="greater" unicode="&#x3e;" horiz-adv-x="282" 
d="M265 130v-1q0 -4 -23 -13l-233 -87q-12 -4 -13 0q-1 2 3 5t11 6l210 92l-56.5 35l-57.5 35t-26 16q-8 6 -6 10q3 5 11 0l168 -86q12 -5 12 -12z" />
    <glyph glyph-name="question" unicode="?" horiz-adv-x="239" 
d="M256 337h1q28 0 41.5 -19t5.5 -47q-17 -57 -117 -104q-37 -18 -62 -33q-30 -17 -35 -32l-4 -11.5t-6.5 -13.5t-8.5 -5q-5 1 -3.5 9.5t5.5 15.5q16 32 55 55q106 64 129 123q7 17 1 29.5t-22 13.5q-35 3 -70 -25q-23 -17 -34.5 -41t-3.5 -39q1 -3 3.5 -4.5t3.5 -2.5t1 -2
q-2 -3 -11 -1q-25 5 -16 38q7 27 51 60q49 36 96 36zM67 44h1q12 0 15 -7.5t-6 -18.5q-8 -11 -23 -19t-24 -8q-10 13 -1 34q8 19 38 19z" />
    <glyph glyph-name="at" unicode="@" horiz-adv-x="495" 
d="M318 264h1q51 0 78.5 -24t25.5 -59q-1 -23 -20 -51q4 -10 4 -19q0 -32 -20 -56q-59 -70 -164 -67q-65 1 -100 33.5t-33.5 76.5t35.5 83q31 36 82.5 59.5t110.5 23.5zM318 256h-1q-47 0 -92 -26.5t-69 -58.5q-31 -39 -35.5 -78.5t22.5 -67t82 -28.5q95 -3 153 64
q21 26 21 49q0 8 -1 11q-6 -8 -9 -11q-42 -44 -81 -44q-34 0 -37 22q-2 11 8 24h-1q-47 -45 -77 -45q-14 0 -22 6t-7 22q4 34 50 68q51 35 86 29q10 -1 14 -8.5t2 -14.5h1q20 23 34 24q19 0 9 -11q-49 -61 -57 -75q-7 -12 -4 -20t15 -8q29 0 59 37q6 7 12 19q-2 6 -7 12
q-4 5 -3 7q1 3 6 -2t8 -9q9 21 10 39q1 31 -22 52.5t-67 21.5zM302 184h-1q-16 0 -60 -42q-36 -38 -36 -54q0 -7 8 -7q18 0 54 32q17 15 32 33t16 26q1 6 -3 9t-10 3z" />
    <glyph glyph-name="A" unicode="A" horiz-adv-x="690" 
d="M21 56v1q0 25 16 42.5t36 18.5q17 1 27 -7t10 -23q0 -18 -23 -34q-18 -13 -18 -25q0 -17 26 -27t72 -6q94 8 208 87q-19 17 -37 48t-18 65q1 46 33.5 76t85.5 29q37 -1 65 -24t39 -48q11 11 47 44q93 84 150 115q69 38 120 38q22 0 35 -10q12 -10 7 -14q-1 0 -11 7
q-8 6 -22 6q-18 0 -32 -11q-36 -29 -81 -94q-95 -131 -187 -282q25 2 56 17q32 17 63 46q6 7 10 3q2 -2 -8 -13q-31 -29 -62 -45t-64 -18q-20 -21 -39 -25q-13 -3 -20 -0.5t-6 6.5l2 8q2 3 4.5 8l3.5 7q-29 3 -65 18q-38 15 -59 35q-119 -84 -221 -92q-61 -5 -102 14t-41 59
zM558 99q59 92 121 172q82 107 161 145v1q-36 -3 -95 -35q-50 -28 -134 -103l-63 -59q11 -30 13 -65q2 -29 -3 -56zM440 286h-1q-37 0 -58.5 -27t-23.5 -65q-1 -28 9.5 -55.5t23.5 -43.5l73 62l71 64q-35 65 -94 65zM397 86q15 -17 52 -35q36 -16 65 -19q4 8 16 26.5
l14 21.5q10 20 6 74q-3 39 -11 58l-70 -64z" />
    <glyph glyph-name="B" unicode="B" horiz-adv-x="640" 
d="M401 -9q-81 0 -81 49q0 23 19.5 39.5t42.5 16.5q31 0 31 -24q0 -18 -26 -29q-22 -9 -24 -20q-2 -12 10 -18t28 -6q50 0 95.5 46.5t48.5 106.5q2 33 -18.5 49t-39.5 14q-18 -3 -29 -3q-7 0 -12.5 0.5t-8.5 2.5t-3 5q1 8 27 8q3 0 30 -3q33 5 62 31t37 60q12 50 -22 71
l-23 -23q-32 -32 -124 -154q-169 -230 -317 -230q-106 0 -106 76q0 47 40.5 107.5t124.5 121.5q82 60 177.5 91t178.5 31q21 0 39 -3q51 36 96 54q51 21 99 21q53 0 70 -27q5 -8 2 -9q-1 0 -6 5q-19 23 -65 23q-47 0 -94 -22q-36 -16 -79 -51q66 -25 55 -82
q-6 -38 -45.5 -63.5t-81.5 -31.5v-1q44 -7 67 -30.5t21 -55.5q-3 -62 -60.5 -102.5t-135.5 -40.5zM38 55q0 -30 16.5 -48t48.5 -18q31 0 59 12.5t56.5 40.5t48.5 52.5l53 67.5l15 20q89 116 185 194q2 2 25 19q-14 3 -32 3q-76 0 -166.5 -31t-166.5 -89
q-75 -58 -108.5 -117.5t-33.5 -105.5z" />
    <glyph glyph-name="C" unicode="C" horiz-adv-x="390" 
d="M266 466q36 0 69.5 -17t53.5 -46q26 8 53 9q54 3 89 -15t27 -60q-8 -43 -67.5 -67.5t-124.5 -24.5q-98 0 -151 40q-57 -51 -93.5 -113.5t-36.5 -110.5q0 -81 86 -81q67 0 145 52q30 21 62 50q19 17 22 14q2 -2 -8 -13q-46 -43 -72 -60q-75 -53 -151 -57
q-65 -2 -103.5 22.5t-40.5 78.5q-2 61 46 126.5t118 116.5q-25 32 -25 63q0 41 30 67t72 26zM368 255q56 0 100.5 24t52.5 60q7 33 -13.5 50t-61.5 16q-29 0 -53 -10q14 -24 17 -55q3 -25 -3 -25q-1 0 -1 2t-1 7t-2 11q-6 31 -24 55q-82 -31 -156 -98q50 -37 145 -37z
M258 453q-34 0 -57.5 -22.5t-23.5 -58.5q0 -30 20 -56q86 57 176 83q-49 54 -115 54z" />
    <glyph glyph-name="D" unicode="D" horiz-adv-x="673" 
d="M356 272v1q0 21 -12 33t-32 13q-38 1 -65 -26q-4 -4 -7 -7.5t-4.5 -5.5t-2.5 -4t-2 -2.5t-2 -0.5q-1 1 -0.5 3.5t4 8t8.5 11.5q30 35 74 32q24 -1 40 -16t16 -41q0 -58 -60 -108q-67 -55 -154 -51q-56 3 -86.5 27.5t-29.5 70.5q1 58 52 107.5t130 77t164 27.5
q146 0 222 -67q34 23 65 35q49 20 98 20q35 0 56 -15q14 -10 9 -15q-1 0 -2 0.5t-4 3.5t-8 6q-18 11 -51 11q-44 0 -93 -21q-39 -17 -60 -36q44 -48 45.5 -114t-34.5 -117q-40 -59 -119 -90t-161 -31q-70 0 -137 5q-56 -6 -99 -6q-132 0 -151 9q-7 4 -7 9q3 24 145 19
q55 -2 134 -15q29 8 59.5 30.5t43 35.5t50 58.5l41.5 50.5q90 107 165 157q-32 33 -90 50.5t-117 17.5q-119 0 -211 -63.5t-93 -147.5q0 -34 19 -56t56 -24q78 -4 141 52q57 52 57 98zM250 11q42 -9 84 -9q158 0 254 132q36 50 41 106t-24 94q-20 -19 -65.5 -82.5
l-57.5 -79.5q-56 -68 -110 -104.5t-122 -56.5z" />
    <glyph glyph-name="E" unicode="E" horiz-adv-x="390" 
d="M225 263q0 28 22 59q-43 33 -43 74q0 30 20.5 48t53.5 20q31 2 65 -13t57 -42q41 7 74 6q49 -2 76 -20t27 -43q0 -33 -44.5 -57t-105.5 -24q-84 0 -140 28q-9 -13 -15 -30q-6 -18 -3 -32q26 5 49 3q57 -2 54 -25q-3 -19 -55 -19q-59 0 -80 27q-47 -17 -91 -60
q-56 -53 -59 -110q-1 -34 21.5 -53.5t60.5 -19.5q69 0 147 52q32 22 71 58q10 9 13 6t-9 -14q-44 -41 -71 -59q-75 -53 -151 -57q-66 -3 -104.5 20t-38.5 69q-1 55 56 104.5t150 70.5q-7 11 -7 33zM425 281q52 0 89.5 19.5t38.5 51.5q2 21 -16.5 37t-59.5 18q-33 0 -68 -12
q10 -20 13 -44q3 -26 -2 -26q-1 0 -1.5 1.5t-1 7t-2.5 11.5q-5 22 -22 44q-36 -17 -73 -51q-14 -12 -28 -31q52 -26 133 -26zM381 405q-19 23 -48 37t-57 13q-27 -2 -45 -17t-18 -41q0 -34 40 -67q8 11 21 22q42 36 107 53zM271 230q6 -23 47 -25q36 -2 36 13q0 12 -36 14
q-21 2 -47 -2z" />
    <glyph glyph-name="F" unicode="F" horiz-adv-x="546" 
d="M347 401q-75 0 -128 -26.5t-66 -80.5q-7 -32 8 -63.5t58 -50.5l13 -6q-1 -4 -19 1q-43 15 -63 50t-15 76q8 57 67 94.5t150 36.5q61 0 170 -30l102 -28q52 28 110 28q28 0 45.5 -8t16.5 -23q-2 -28 -57 -28q-46 0 -111 10q-34 -24 -79 -79l-42 -54l-37 -48q54 -2 85 8
q1 1 4.5 5.5l5.5 7t6 7t7 6.5l7 4.5t8 3.5t8 0q15 -4 -7 -25q-4 -3 -13 -12q-25 -21 -46 -46q-2 -3 -4.5 -6t-3.5 -4t-2 -1q-5 1 4 20q6 13 18 28q-25 -7 -86 -7q-7 -9 -23 -27q-140 -152 -298 -152q-49 0 -84 16.5t-36 53.5q-1 20 12.5 35t35.5 15q14 0 22.5 -9t7.5 -22
q-2 -12 -15 -25t-13 -23q1 -15 21.5 -23.5t46.5 -8.5q111 0 200 97q35 37 61 74q-43 0 -55 -1q-7 0 -17 -2q-9 -1 -9 3q2 6 34 9q11 1 54 1q18 25 51 62q34 37 77 73.5t68 50.5l-42 10t-44 10q-102 23 -169 23zM733 393q-48 0 -87 -25q59 -16 97 -16q41 0 43 20q2 21 -53 21
z" />
    <glyph glyph-name="G" unicode="G" horiz-adv-x="449" 
d="M577 367q0 -39 -35 -78.5t-89 -68.5q-85 -43 -189 -43q-50 0 -90 14q-47 -69 -53 -127q-2 -26 10.5 -42.5t35.5 -17.5q67 -1 164 101q31 31 48 31q14 0 17 -3.5t-4 -12.5q-17 -20 -50 -66l-59 -78v-1q49 27 95 61q35 26 70 56q11 10 14 7t-13 -18q-23 -21 -60 -48
q-48 -37 -117 -74q-59 -85 -124 -161q-59 -69 -127 -115.5t-109 -46.5q-19 0 -31.5 9.5t-10.5 32.5q6 64 155 158q45 28 99 58t93 54l83 115q-68 -68 -134 -73q-45 -4 -73 14t-31 58q-5 69 63 153q-55 36 -55 95q0 57 45.5 91t110.5 34q78 0 124 -49q88 39 148 39
q32 0 55.5 -13.5t23.5 -44.5zM565 369q0 45 -67 45q-61 0 -136 -44q17 -25 23 -54t0 -29q-1 0 -2 2t-2.5 9t-3.5 14q-9 28 -29 50q-54 -36 -104 -86q-36 -36 -64 -78q39 -12 83 -12q91 0 178 47q49 26 86.5 66t37.5 70zM219 423q-56 0 -97.5 -30.5t-41.5 -82.5q0 -53 51 -88
q45 52 89 85q58 44 113 71q-49 45 -114 45zM206 -68q-25 -16 -78.5 -46t-103.5 -63q-48 -31 -88.5 -73.5t-39.5 -73.5q0 -23 23 -26q24 -3 62 20q59 36 128 129q71 94 97 133z" />
    <glyph glyph-name="H" unicode="H" horiz-adv-x="650" 
d="M528 383q-26 -10 -80.5 -11t-133.5 3q-93 3 -155.5 -33t-62.5 -107q0 -28 19.5 -56.5t53.5 -39.5l12 -5q-1 -2 -7.5 -2.5t-11.5 1.5q-37 11 -60.5 40t-25.5 64q-2 72 56.5 117t168.5 42q19 -1 60.5 -4t72.5 -5t62 -0.5t42 7.5q27 15 33 12q4 -3 -5 -11q-5 -4 -8 -7
q-41 -39 -72 -79l-40.5 -52l-29.5 -39h143q37 43 84 87q68 64 126 96q54 30 100 30q25 0 42 -10t21 -22q5 -13 -1 -15q-1 0 -1.5 0.5t-1.5 3.5t-2 5q-14 28 -56 28q-44 0 -91 -34q-37 -27 -91 -85q-39 -42 -70 -84q66 -2 80 -4q23 -3 23 -5q0 -3 -22 -3q-68 0 -91 -1
q-109 -138 -109 -177q0 -17 19 -17q27 0 71 31q16 11 57 47q9 8 12 5q2 -2 -6 -11q-32 -29 -58 -49q-55 -40 -93 -40q-48 0 -48 44q0 53 95 167l-141 -1q-45 -55 -74 -86.5t-71.5 -67.5t-87 -52t-95.5 -16q-41 0 -70.5 19t-29.5 59q0 21 15 37t37 15q15 -1 24 -11t8 -26
q-1 -17 -16 -30q-13 -12 -13 -25q1 -14 16.5 -21.5t33.5 -7.5q19 0 40 7t37.5 15.5t37.5 26.5l33.5 29.5t33.5 36l28.5 33.5t28 35.5t22.5 29.5q-4 0 -74 -2q-18 2 -19 5q1 4 29 6q19 2 74 4q39 47 90.5 96t82.5 70z" />
    <glyph glyph-name="I" unicode="I" horiz-adv-x="440" 
d="M613 413q-11 -3 -39.5 -9.5t-43.5 -10.5q-96 -25 -147 -55q-25 -15 -45 -37.5t-20 -43.5q0 -26 27 -26q14 0 27 9q9 6 10 5q2 -3 -5 -10q-14 -14 -36 -14t-34.5 12t-12.5 30q0 53 87 93q51 25 147 47q86 20 92 23q16 7 20 6q6 -2 5 -8t-7 -8q-40 -18 -93 -92
q-6 -8 -40 -59t-50 -73q-164 -210 -351 -210q-50 0 -86 19t-36 59q0 22 15.5 41t40.5 19q16 0 25.5 -9.5t8.5 -25.5q-2 -16 -19 -30q-1 -1 -5 -4.5t-5.5 -5.5t-4 -5t-3.5 -7t-1 -8q0 -14 18.5 -23.5t48.5 -9.5q76 0 147.5 52t148.5 149q5 6 45.5 57.5l56.5 70.5q25 29 57 55
t57 37z" />
    <glyph glyph-name="J" unicode="J" horiz-adv-x="335" 
d="M161 -21q26 10 54 26t67 44q28 21 51 42q13 12 16 9t-13 -18q-33 -29 -56 -46q-35 -27 -70 -45q-34 -18 -60 -29q-47 -58 -71 -83q-114 -121 -224 -175q-56 -27 -95 -27q-56 0 -56 42q0 63 171 146q82 40 207 87q96 129 192 238q56 64 154 142q19 15 84 60q11 8 11 9
q0 5 -10 5q-96 2 -212 -59q-70 -37 -115.5 -87t-45.5 -93q0 -37 28 -44q6 -2 10.5 -1.5t5.5 1t2 -1.5t-1.5 -3.5t-7 -2t-9.5 -0.5q-23 2 -37 19.5t-14 44.5q0 47 43.5 101t134.5 93q44 19 107 32t115 10q7 -1 11 -2t8 -4t3 -9q-1 -4 -18 -17q-19 -15 -60 -54
q-59 -58 -124 -135zM73 -63q-110 -40 -197 -83q-73 -37 -109.5 -72.5t-33.5 -63.5q3 -23 33 -25q34 -4 84 20q73 36 175 161q17 21 48 63z" />
    <glyph glyph-name="K" unicode="K" horiz-adv-x="606" 
d="M834 367q0 -34 -39.5 -57.5t-84.5 -19.5q-21 2 -36 10q-4 3 -3 6q1 1 6 -1q15 -6 32 -7q41 -4 78.5 17t37.5 52q0 19 -14 30.5t-35 11.5q-9 0 -17.5 -2t-15.5 -4t-15.5 -7.5t-13.5 -9t-13.5 -12t-13 -12.5t-13.5 -15t-12 -15l-13 -17t-13 -16q-62 -81 -151 -108
q20 -13 25 -36q7 -28 -16 -62q-4 -5 -11 -15.5t-10 -16t-7.5 -13t-6 -13.5t-1.5 -12q0 -17 18 -17q23 0 72 38q29 22 46 38q17 14 19 12q3 -3 -7 -13q-26 -24 -55 -47q-54 -44 -94 -44q-46 0 -48 39q0 29 35 78q3 5 15 20t16.5 23.5t4.5 16.5q0 11 -7 20q-12 -6 -30 -6
q-11 0 -20 3.5t-8 10.5q1 15 32 13q17 -2 30 -10q18 7 35.5 21t28.5 27l29.5 36l29.5 36q89 100 174 100q26 0 43 -13.5t17 -37.5zM-21 60q0 20 15 36t37 15q36 -2 33 -36q-1 -17 -17 -31q-13 -13 -13 -25q0 -14 16 -21.5t34 -7.5q26 0 54 12.5t48.5 27t48.5 43t41 43.5
t38.5 48t29.5 37q77 98 128 132v1q-35 -23 -74 -33.5t-63 -10.5q-51 -1 -82 16.5t-25 51.5q4 32 36 53q15 10 28 10q14 0 0 -12q-22 -20 -26 -52q-2 -26 16 -41.5t54 -15.5q46 0 99.5 24t95.5 60q20 20 26 16q5 -5 -9 -19q-23 -23 -62 -73q-15 -19 -42 -56t-37 -49
q-35 -44 -58 -70.5t-57.5 -59t-64 -50t-68.5 -30t-80 -12.5t-70.5 19.5t-29.5 59.5zM442 188h1q11 0 23 5q-6 6 -21 8q-21 2 -21 -6q0 -7 18 -7z" />
    <glyph glyph-name="L" unicode="L" horiz-adv-x="599" 
d="M252 350q0 40 39.5 69t107.5 29q95 0 159 -52q48 19 90 19q42 2 69.5 -17.5t20.5 -52.5q-9 -43 -72 -70.5t-123 -34.5q-58 -7 -110 0q-84 -123 -177 -185q18 -3 75 -18q72 -18 103 -18q44 0 80.5 16t82.5 56q11 9 13 7q3 -3 -9 -15q-61 -57 -94 -77t-79 -20
q-57 0 -108 20l-32 13t-32.5 13.5t-18.5 6.5q-63 -50 -135 -51q-62 -2 -60 23q1 23 50.5 37.5t98.5 13.5q23 0 47 -4q31 29 75 97.5t63 93.5q-53 11 -88.5 38t-35.5 63zM438 249q47 -6 106 2q53 7 104 34.5t61 67.5q5 25 -12 40t-49 14q-41 0 -79 -24q12 -15 19 -34
q4 -12 5.5 -21t0.5 -12.5t-2 -3.5t-1.5 3t-4 12t-9.5 20q-9 16 -23 28q-46 -26 -116 -126zM261 353q0 -34 34.5 -59t86.5 -36q35 44 79.5 81t79.5 51q-65 44 -147 44q-61 0 -97 -24t-36 -57zM224 44q-31 8 -57 7q-31 -1 -55 -11.5t-25 -24.5q-1 -9 8.5 -13t23.5 -3
q23 0 54.5 13t50.5 32z" />
    <glyph glyph-name="M" unicode="M" horiz-adv-x="828" 
d="M85 -30h-1q-114 0 -118 72q-1 26 16.5 47t43.5 21q17 0 28 -9.5t10 -24.5q-2 -18 -22 -34q-18 -18 -19 -25q-3 -15 16 -25t56 -10q63 0 154 40t172 100q32 24 70 56.5l65 57l73.5 69l70.5 66.5q-85 16 -198 16q-88 0 -153.5 -33.5t-79.5 -97.5q-7 -35 8.5 -66t59.5 -46
q3 -1 8 -2t4 -3q-2 -6 -19 -1q-42 12 -64.5 46t-18.5 75q8 71 75 111.5t182 36.5q29 -1 62 -4.5t53.5 -6.5t51 -8.5t38.5 -6.5q12 12 19 18q21 19 32 18q19 -3 -1 -26l-14 -16q42 -7 73 -5q64 2 103 18q47 19 67 46q6 7 7.5 12.5t1.5 8t2 3.5q4 1 6 -5q2 -9 -3 -20
q-10 -22 -38 -50q-106 -110 -167 -187q-106 -132 -107 -173q0 -13 13 -13q26 0 76 41q24 19 48 41q9 8 12 5q2 -3 -9 -14q-26 -24 -56 -48q-49 -39 -82 -40q-44 -2 -45 37q-1 42 74 138q81 105 166 177h-1q-90 -67 -201 -163q-113 -98 -191 -172l-4 -4l-3.5 -3.5t-3.5 -3
t-3 -2.5t-3 -1.5t-3 -0.5t-2.5 0.5t-3.5 1.5q-10 9 3 27q23 32 102.5 155.5t109.5 160.5h-1q-177 -173 -256 -230q-80 -60 -173.5 -101t-167.5 -41zM568 96q98 88 188 161q85 70 155 118v1q-37 -14 -96 -16q-35 0 -77 5q-22 -31 -83 -132.5t-87 -136.5z" />
    <glyph glyph-name="N" unicode="N" horiz-adv-x="645" 
d="M-88 48v1q0 24 17.5 42.5t38.5 18.5q18 0 28.5 -9t10.5 -24q-1 -19 -18 -33q-19 -19 -20 -27q-2 -15 15 -24t53 -9q61 0 137 31t144 84q143 109 217 249q7 14 19 32q22 30 40 31q9 1 11.5 -3t-1.5 -10q-16 -22 -24 -56q-4 -17 -13 -122q-8 -103 -28 -151h1
q119 173 221 281q116 123 195 123q29 0 45 -17t17 -39q0 -10 -3 -10l-5 10q-10 27 -57 27q-85 0 -184 -103q-104 -108 -263 -339q-16 -21 -25 -16q-10 6 -2 27q26 73 33 160q2 18 4 44t3 40.5t3.5 30.5t6.5 27h-1q-29 -55 -85.5 -116.5t-118.5 -108.5q-72 -54 -148.5 -86
t-139.5 -33q-51 -1 -87.5 17.5t-36.5 59.5z" />
    <glyph glyph-name="O" unicode="O" horiz-adv-x="407" 
d="M136 52q0 -22 11 -38q5 -6 4 -7q-2 -3 -8 3q-14 14 -17 43q-6 80 65 171q54 66 118.5 106.5t108.5 35.5q47 -5 40 -72q-2 -30 -23 -76.5t-52 -84.5q-53 -65 -128.5 -107.5t-141.5 -40.5q-90 2 -100 81q-5 49 22 109t80 113q60 59 143 96.5t159 33.5q31 -2 51.5 -15.5
t22.5 -39.5q3 -29 -15 -49q-11 -13 -14 -8l8 12q14 21 10 44q-2 19 -20 30.5t-43 12.5q-61 3 -138.5 -44.5t-124.5 -99.5q-49 -56 -74 -116t-19 -101q8 -48 62 -50q103 -4 228 152q81 101 88 172q5 35 -22 38q-38 4 -97 -37t-110 -105q-74 -94 -74 -162z" />
    <glyph glyph-name="P" unicode="P" horiz-adv-x="567" 
d="M394 282q0 19 -12 31.5t-30 13.5q-36 1 -65 -25q-5 -5 -9.5 -10.5t-6.5 -7.5t-3 -2q-1 1 0 4.5t4.5 9.5t9.5 12q31 31 73 29q23 -1 39 -16t16 -41q0 -58 -62.5 -110t-138.5 -49q-114 3 -111 90t106 148.5t241 61.5q96 0 158 -37q31 24 70 40q48 21 101 21q56 0 73 -27
q4 -8 0 -9l-6 6q-19 21 -66 21q-48 0 -95 -21q-38 -17 -66 -39q21 -17 33 -39.5t11 -55t-24 -65.5q-45 -66 -150 -75q-35 -2 -50 3q-74 -79 -168 -118v-1q84 -15 101 -15q50 0 81 22q12 9 13 8t1 -2.5t-2.5 -5.5t-7.5 -8q-39 -34 -96 -34q-52 0 -128 19q-57 -21 -154 -21
q-91 0 -91 33q0 20 28 30.5t75 8.5q54 -3 161 -28q38 23 72.5 58t87.5 98q114 141 182 186q-18 14 -58.5 26t-83.5 12q-126 0 -213 -57t-94 -149q-2 -32 15.5 -53t53.5 -23q70 -3 127.5 50.5t57.5 101.5zM442 154q15 -4 37 -1q72 9 120 78q26 43 24 78t-22 55
q-27 -24 -80.5 -102t-57.5 -83q-13 -17 -21 -25zM212 15q-102 20 -130 22q-86 7 -86 -16t78 -23q92 0 138 17z" />
    <glyph glyph-name="Q" unicode="Q" horiz-adv-x="500" 
d="M391 280q0 15 -13.5 26t-33.5 10q-28 -1 -50 -19q-4 -3 -7 -6.5t-5 -5.5t-3 -3.5t-2 -2t-2 -0.5q-5 4 13 22q25 25 60 25q27 0 44 -13.5t17 -40.5q0 -42 -45 -82q-57 -51 -139 -51q-35 0 -57 17.5t-24 50.5q-2 37 21.5 77.5t59.5 67.5q40 32 93 49t94 17q55 0 95.5 -24.5
t41.5 -73.5q3 -93 -128 -183q-39 -27 -105.5 -58.5t-109.5 -44.5v-1q89 -21 114 -21q90 0 176 77q10 11 14 7q2 -3 -8 -13q-106 -97 -191 -97q-59 0 -152 27q-73 -25 -146 -25q-82 0 -82 32q0 20 29 32t80 12q64 0 151 -25q111 44 200 122q108 92 108 170t-87 78
q-84 0 -176 -76q-81 -69 -78 -126q1 -28 19.5 -43.5t47.5 -15.5q62 0 124 56q42 37 42 76zM143 20q-80 17 -111 20q-87 6 -87 -19q0 -23 69 -23q68 0 129 22z" />
    <glyph glyph-name="R" unicode="R" horiz-adv-x="659" 
d="M770 439q-39 0 -85 -19q-37 -15 -58 -31q14 -10 26 -23.5t22 -40t-4 -54.5q-15 -35 -55.5 -53.5t-77.5 -18.5v-1q32 -13 35 -42q3 -25 -20 -57q-3 -5 -12.5 -19l-13 -19.5t-7 -15t-3.5 -16.5q0 -17 19 -17q22 0 72 38q25 19 48 40q10 10 14 7q2 -3 -7 -12
q-19 -19 -53 -46q-54 -43 -93 -43q-48 0 -48 40q-1 30 35 77q36 45 35 62q0 14 -18 23q-13 -2 -22 -1q-10 1 -18 5q-17 -24 -28 -38q-49 -60 -92.5 -91t-94.5 -53q27 -6 49 -8q43 -3 73 17q6 4 10 7.5t5 4t2 0.5q1 -1 1 -3t-2.5 -6t-7.5 -8q-37 -33 -94 -33q-29 0 -77 14
q-63 -19 -151 -17q-34 0 -62.5 8t-28.5 25q0 20 28 30.5t75 8.5q28 -2 164 -34q59 29 146 145q121 158 206 214q-44 27 -125 27q-98 0 -183.5 -53t-103.5 -131q-10 -41 3.5 -70.5t48.5 -32.5q7 -1 11.5 -0.5t7.5 1t4.5 1t2 0.5t1.5 -1q1 -2 -2 -4.5t-10.5 -4.5t-16.5 -2
q-47 2 -72.5 33t-16.5 81q15 83 111.5 137.5t214.5 54.5q87 0 139 -26q24 18 64 34q44 19 91 19q55 0 72 -26q2 -4 3 -7.5t1 -5.5t-1 -2t-1.5 0.5t-2.5 3.5t-5 7q-19 21 -67 21zM614 377q-28 -22 -65 -75l-32 -45.5l-31 -44.5q10 0 19 -1q8 -1 20 -5q34 2 64.5 22.5
t43.5 51.5q12 32 6 57.5t-25 39.5zM208 10q-11 2 -38 8.5t-50 11.5t-39 6q-86 9 -86 -16q0 -20 78 -23q85 -2 135 13z" />
    <glyph glyph-name="S" unicode="S" horiz-adv-x="545" 
d="M383 216l156 65q57 86 116 128q34 23 62 24q14 1 24.5 -5.5t9.5 -21.5q-2 -24 -38 -53t-87 -51q-16 -7 -27 -11l-27 -52.5l-24 -46.5q-104 -203 -323 -218q-106 -6 -163 34q-64 -57 -80 -93q-1 -3 -2 -4t-2 -3t-2 -2h-2q-4 1 0 12q15 43 75 100q-41 37 -37 94
q4 46 41.5 82t82 53t85.5 20q46 4 94 -8.5t68 -42.5zM605 305l18 7q46 19 80 45t37 49q1 10 -6 15t-17 3q-21 -3 -46 -28q-28 -27 -66 -91zM249 70q-44 0 -76 21q-36 -24 -60 -42l-33 -26q49 -48 154 -40q78 7 139 58t116 152q32 55 44 73v1q-84 -34 -143 -62q6 -13 6 -31
q-1 -47 -47 -75.5t-100 -28.5zM247 80q45 0 84.5 26.5t41.5 66.5q0 13 -3 24l-67 -31q-65 -32 -122 -69q31 -17 66 -17zM367 208q-16 31 -59 42.5t-87 7.5q-62 -4 -115.5 -41t-58.5 -101q-3 -50 22 -80q13 13 31 26q26 19 58 40q-18 16 -21 38q-2 10 3 10q1 0 3 -8
q5 -19 24 -34q61 37 134 70z" />
    <glyph glyph-name="T" unicode="T" horiz-adv-x="620" 
d="M716 513q-83 0 -127 -51q-10 -11 -15 -27l-5 -14q-4 0 -2 13q2 17 15 34q44 58 135 58q65 0 102.5 -29t27.5 -79q-8 -42 -58 -62.5t-125 -18.5q-22 0 -25 -1q-34 -13 -76 -62q-11 -13 -47 -62t-66 -78q-99 -91 -230 -117v-1q99 -9 159 -9q122 1 195 49q19 12 43 34
q10 8 13 6q3 -3 -8 -13q-26 -23 -45 -37q-83 -58 -212 -58q-94 0 -195 14q-40 -9 -107 -11q-14 -1 -31 -0.5t-32 2t-25 5.5t-9 10q5 25 83 25q53 0 149 -13q28 5 67.5 23t68.5 42q33 28 76.5 80t60.5 69q76 82 154 105v1q-51 5 -136 21q-119 22 -161 24q-70 4 -119.5 -20
t-55.5 -71q-4 -33 24.5 -55t70.5 -24q46 -1 74.5 16.5t30.5 46.5q2 17 -7 29l-4 6q3 3 11 -3q20 -11 20 -34q1 -32 -36.5 -51t-88.5 -19q-49 1 -79.5 26t-26.5 65q5 53 61.5 83.5t136.5 28.5q48 -1 166 -21q96 -16 169 -21q67 -3 110 13.5t49 50.5t-27 58t-91 24z" />
    <glyph glyph-name="U" unicode="U" horiz-adv-x="553" 
d="M407 134q-51 -51 -118.5 -97t-111.5 -46q-50 0 -44 46q4 29 33 68.5t94 112.5q99 113 111 153q6 21 -7.5 30.5t-35.5 9.5q-39 0 -86 -23t-88 -64q-80 -78 -80 -130q0 -41 36 -41q20 0 36 10q5 3 10 7q3 4 5 3t-2 -6.5t-10 -9.5q-19 -13 -41 -13q-45 2 -50 49
q-2 34 18.5 74t58.5 75q42 39 96.5 58.5t96.5 19.5q37 0 59.5 -14.5t21.5 -42.5q-1 -48 -97 -157q-66 -73 -95 -111t-32 -61q-4 -22 14 -24q31 -4 110 54q75 55 147 140q98 112 183 178q57 43 81 41q13 -3 10.5 -15.5t-16.5 -29.5q-23 -25 -75 -63q-68 -51 -91 -70
q-8 -9 -32 -39l-39.5 -52.5l-32 -45t-28.5 -48.5t-8 -32q0 -17 20 -17q22 0 64 31q26 18 49 40q17 15 20 12q2 -3 -10 -15q-21 -20 -53 -45q-52 -40 -88 -40q-47 0 -47 44q0 35 44 96zM574 277q11 9 33 24.5t26 18.5q36 24 66 54q10 11 15.5 19.5t6 13t-2.5 6.5
q-14 5 -54 -38q-53 -55 -90 -98z" />
    <glyph glyph-name="V" unicode="V" horiz-adv-x="482" 
d="M94 3q93 5 189 49q90 39 173 111q87 75 122 138q7 12 5 25q0 12 -11 56q-11 40 12 40q15 0 23 -13t6 -37q-3 -35 -25 -75q-44 -87 -117 -150q-77 -70 -181 -112q-105 -41 -218 -44q-30 -8 -52 -9q-46 -3 -46 7q0 15 38 17q34 2 62 -2q72 31 170 132q112 114 123 200
q5 38 -11.5 57t-48.5 19q-73 0 -149 -59q-32 -25 -54.5 -60.5t-26.5 -66.5q-7 -62 43 -65q45 -4 106 62q40 44 44 81q2 16 -4 26q-4 6 -4 7q2 3 8 -3q13 -13 12 -38q-3 -42 -42 -84q-23 -24 -57 -42.5t-65 -16.5q-33 2 -49 22t-13 53q4 31 28.5 67t63.5 65q81 61 161 61
q51 0 84 -24t27 -81q-10 -83 -132 -196q-37 -35 -91.5 -67.5t-102.5 -49.5z" />
    <glyph glyph-name="W" unicode="W" horiz-adv-x="601" 
d="M305 412q-72 0 -149 -59q-32 -25 -54 -60.5t-26 -66.5q-7 -61 43 -64q47 -2 106 61q40 44 44 81q2 16 -5 26q-3 6 -3 7q2 3 8 -3q13 -13 11 -38q-1 -39 -41 -84q-23 -24 -57 -42.5t-65 -16.5q-33 2 -49.5 22t-12.5 53q4 31 28.5 67t63.5 65q81 61 160 61q51 0 84.5 -24
t26.5 -81q-4 -42 -62 -122t-117 -139v-1q16 11 114 83q73 52 124 92q23 65 44 99q36 57 71 57q14 0 21.5 -11.5t1.5 -28.5q-6 -18 -20 -35.5t-41.5 -41t-29.5 -25.5q-36 -149 -66 -189v-1q19 18 87.5 78l92.5 81q124 113 137 187q3 24 -6 34q-4 3 -10 5q-3 1 -3 2q2 3 10 3
q21 0 32 -14t9 -35q-9 -72 -159 -195q-151 -124 -222 -192q-15 -15 -28 -15q-7 0 -8 5.5t4 11.5q15 20 29 56.5t27.5 81.5t21.5 64v1q-30 -25 -129 -98q-153 -109 -168 -119t-21 -10q-9 0 -11 5.5t5 13.5q76 80 127 152q81 114 91 180q6 37 -11.5 56.5t-49.5 19.5zM527 261
q4 4 17.5 15.5t23 20.5t20 22.5t15.5 24.5q5 14 1 22.5t-14 8.5t-20 -11.5t-16 -24.5q-13 -28 -27 -78z" />
    <glyph glyph-name="X" unicode="X" horiz-adv-x="488" 
d="M475 314q117 102 202 102q22 0 34.5 -12.5t8.5 -31.5q-7 -32 -45.5 -55t-68.5 -27q-14 -2 -15 1q0 2 15 6q29 8 53.5 28.5t29.5 46.5q5 31 -23 33q-49 1 -115 -54.5t-131 -138.5q-83 -107 -96 -164q-8 -41 24 -41q28 0 80 36q19 13 56 46q14 13 17 10t-11 -16
q-35 -32 -57 -48q-55 -42 -100 -44q-35 -1 -49 14t-11 44q2 21 18 46v1q-120 -110 -231 -110q-92 0 -97 62q-2 26 15 47t46 21q15 0 24.5 -8t8.5 -21q-1 -16 -20 -31q-21 -17 -22 -31q-1 -16 13 -23t35 -7q132 0 286 196q37 47 68.5 99t37.5 76q10 45 -39 45q-39 0 -86 -23
t-88 -64q-81 -79 -80 -130q0 -41 36 -41q20 0 36 10q3 2 6 5t5 4t3 1q3 -1 -1 -6.5t-10 -9.5q-19 -13 -40 -13q-22 0 -36 13.5t-15 35.5q-1 36 19 76.5t58 72.5q44 38 98 58t95 20q36 0 56.5 -14.5t19.5 -42.5q-2 -27 -17 -49z" />
    <glyph glyph-name="Y" unicode="Y" horiz-adv-x="499" 
d="M421 148q-55 -58 -127 -107.5t-117 -49.5q-50 0 -44 46q4 29 33 68.5t94 112.5q99 113 111 153q6 21 -7.5 30.5t-35.5 9.5q-39 0 -86 -23t-88 -64q-80 -78 -80 -130q0 -41 36 -41q22 0 36 10q2 1 4.5 3t3.5 3.5t2.5 2.5t2.5 1h2q2 -1 -2 -6.5t-10 -9.5q-19 -13 -41 -13
q-21 0 -35 13.5t-15 35.5q-2 34 19 75t58 74q42 38 96.5 58t96.5 20q37 0 59.5 -14.5t21.5 -42.5q-1 -48 -97 -157q-66 -73 -95 -111t-32 -61q-4 -22 14 -24q31 -4 110 54q79 59 147 140q96 116 157 178q46 44 74 41q14 -1 14.5 -15.5t-11.5 -29.5q-22 -28 -66 -63
q-51 -40 -81 -70l-130 -178l-87 -123q76 2 116.5 -31t31.5 -90q-2 -8 -5 -14.5t-6 -5.5q-1 0 -1 0.5t0.5 2t1 3.5t1 5.5t1.5 7.5q6 54 -33 85t-113 27q-39 -56 -107 -136q-59 -69 -126.5 -115.5t-109.5 -46.5q-17 0 -30.5 9.5t-11.5 32.5q3 39 50.5 89.5t97.5 85.5
q98 65 192 84zM566 278l51 42q41 33 58 54q27 34 13 39t-48 -38q-18 -21 -74 -97zM269 -74q-86 -19 -178 -82q-43 -29 -85 -81.5t-42 -86.5q0 -24 21 -26q24 -3 62 20q58 36 128 129z" />
    <glyph glyph-name="Z" unicode="Z" horiz-adv-x="457" 
d="M433 324q-74 -40 -129 -40q-35 0 -60 13t-22 43q4 34 46 58t86 26q15 0 15 -4q0 -1 -15 -3q-27 -2 -49 -19.5t-24 -43.5q-1 -19 10 -29t28 -12q57 -6 129 31q32 34 55 53q28 23 47 20q6 -1 5.5 -7t-7.5 -14q-24 -26 -74 -54q-39 -39 -115 -102q-73 -61 -106 -83v-1h12
q55 0 88.5 -28.5t35.5 -83.5q33 17 68 49q9 8 12 5q3 -2 -10 -15q-29 -29 -69 -50q-4 -106 -139 -220q-87 -73 -190 -123t-169 -49q-59 2 -63 46q-7 79 211 190q51 27 146.5 68.5t146.5 71.5q15 72 -13 104q-28 30 -85 22q-33 -25 -61 -43q-61 -40 -73 -21q-5 9 11.5 24.5
t45.5 28.5q37 16 72 22q49 35 104 82q51 41 99 88zM330 3q-48 -28 -144 -71t-140 -67q-123 -66 -161 -99q-48 -41 -45 -79q3 -36 51 -36q61 0 150.5 47.5t159.5 119.5q105 108 129 185zM215 140q-24 -4 -52 -17q-21 -9 -34 -19.5t-11 -15.5q5 -9 49 20q30 19 48 32z" />
    <glyph glyph-name="bracketleft" unicode="[" horiz-adv-x="239" 
d="M485 463l-4 -7q-33 -2 -62 -6q-16 -2 -22.5 -5.5t-16.5 -16.5l-187 -245l-187 -228q-14 -17 -12.5 -22.5t19.5 -7.5l59 -6l-5 -6h-111q3 3 37.5 51.5l80 110l85.5 112.5l228 276h98z" />
    <glyph glyph-name="backslash" unicode="\" horiz-adv-x="239" 
d="M139 -86h-1q-4 0 -7 13l-96 414q-5 21 10 39q11 12 17 -12q1 -3 4 -18q12 -57 37 -200t39 -217q3 -19 -3 -19z" />
    <glyph glyph-name="bracketright" unicode="]" horiz-adv-x="239" 
d="M-33 -87h-98l5 7q31 2 62 6q16 2 22.5 5.5t15.5 16.5l187 245l187 228q10 12 12 17.5t-2 8t-16 4.5l-59 6l4 6h111q-125 -177 -202 -273q-139 -176 -229 -277z" />
    <glyph glyph-name="asciicircum" unicode="^" horiz-adv-x="307" 
d="M206 252h1q2 0 10 -11q36 -55 70 -96q6 -8 4 -9q-3 -3 -14 5q-52 39 -80 70q-48 -35 -145 -78q-9 -3 -10 -1q-2 3 8 9q58 38 143 103q10 8 13 8z" />
    <glyph glyph-name="underscore" unicode="_" horiz-adv-x="500" 
d="M445 -105v-30h-509v30h509z" />
    <glyph glyph-name="grave" unicode="`" horiz-adv-x="307" 
d="M191 342h1q7 0 11 -10q19 -44 50 -86q5 -7 2 -9q-2 -1 -10 4q-52 43 -66 67q-5 8 -5 15t5.5 13t11.5 6z" />
    <glyph glyph-name="a" unicode="a" horiz-adv-x="287" 
d="M195 133q36 38 57 38q15 1 18 -3t-5 -13q-40 -46 -56 -66q-24 -30 -35 -49q-10 -18 -3 -23q6 -5 23 4q18 9 45 31q26 21 48 41q11 10 14 7t-13 -18q-28 -26 -56 -48q-50 -40 -86 -40q-27 0 -29 21q-2 17 14 36l-1 1q-63 -56 -110 -58q-19 -1 -31.5 8.5t-9.5 31.5
q3 23 28 52l-1 1q-7 -7 -13 -12q-7 -5 -9 -3q-3 4 14 19q10 10 30 24q22 15 46 28q65 33 100 28q14 -2 20 -13.5t1 -24.5zM170 161q-29 0 -92 -63q-59 -58 -56 -79q1 -10 13 -10q14 0 38.5 14t45.5 33q25 22 46.5 48.5t22.5 38.5q1 18 -18 18z" />
    <glyph glyph-name="b" unicode="b" horiz-adv-x="298" 
d="M271 133q-7 -50 -67 -95q-54 -41 -115 -43q-40 0 -40 20q1 13 16.5 21t48.5 17q58 14 77 23q23 26 32 50q11 30 -10 30q-29 0 -87 -45q-44 -34 -111 -101q-13 -12 -29 -14q-14 -1 -16.5 3.5t2.5 12.5q9 20 41 67q18 26 29 39h-1l-36 -32q-8 -7 -11 -4q-2 2 5 10
q5 4 17.5 15.5l24.5 22l22 18.5q75 96 122 150q46 55 120 129.5t112 101.5q54 40 85 40q18 0 25.5 -10.5t5.5 -25.5q-3 -17 -19.5 -39.5t-50.5 -54.5l-59.5 -54.5l-75.5 -63.5q-18 -15 -94 -73.5t-110 -89.5l-67 -92l1 -1q39 40 94 77q52 34 88 29q36 -3 31 -38zM89 6
q24 2 48 17q27 17 46 42q-14 -7 -62 -19q-29 -7 -43 -14.5t-13 -16.5q1 -11 24 -9zM140 184q51 45 105 87.5t74 60.5q127 114 158 151q29 35 31 56q1 19 -17 19q-23 0 -65 -40q-70 -68 -133 -143q-92 -109 -153 -191z" />
    <glyph glyph-name="c" unicode="c" horiz-adv-x="214" 
d="M40 -9h-1q-56 0 -53 42q3 29 29 60l-1 1q-5 -5 -17 -15q-10 -9 -13 -6q-2 3 6 11q15 14 37 30q23 17 48 30q60 32 92 27q34 -6 27 -38q-3 -14 -13.5 -24t-20.5 -10q-25 0 -8 29q18 31 3 33q-18 3 -62 -42q-51 -51 -56 -89q-3 -23 23 -23q39 0 92 36q24 16 60 48q8 7 11 4
q2 -3 -8 -13q-34 -31 -59 -48q-63 -43 -116 -43z" />
    <glyph glyph-name="d" unicode="d" horiz-adv-x="287" 
d="M170 161q-29 0 -92 -63q-59 -58 -56 -79q1 -10 13 -10q14 0 38.5 14t45.5 33q25 22 46.5 48.5t22.5 38.5q1 18 -18 18zM74 143q64 33 100 28q14 -2 19.5 -12t2.5 -22h1q44 64 128 161q55 65 119 124q17 17 37 17q13 0 15 -7q-43 -41 -114 -124q-52 -60 -125 -153
q-67 -86 -83 -115q-10 -18 -3 -23q6 -5 23 4q18 9 45 31q26 21 48 41q11 10 14 7t-13 -18q-28 -26 -56 -48q-50 -40 -86 -40q-27 0 -29 21q-2 17 14 36l-1 1q-63 -56 -110 -58q-19 -1 -31.5 8.5t-9.5 31.5q3 23 28 52l-1 1q-7 -7 -13 -12q-7 -5 -9 -3q-3 4 16 21q8 8 28 22
q25 17 46 28z" />
    <glyph glyph-name="e" unicode="e" horiz-adv-x="213" 
d="M59 6q37 0 91 37q31 21 61 48q8 7 11 4q3 -4 -8 -13q-31 -29 -63 -50q-61 -41 -113 -41q-27 0 -40.5 10t-12.5 30q1 28 30 62l-1 1q-8 -8 -20 -18q-7 -6 -10 -3q-2 3 6 11q15 14 37 30q21 15 49 30q54 28 86 28h1q15 0 22.5 -8t6.5 -19q-2 -30 -64 -61q-43 -21 -86 -32
q-6 -12 -6 -23q0 -23 23 -23zM48 63q37 9 68 30q39 27 41 52q2 14 -12 14q-13 0 -44 -29q-29 -27 -53 -67z" />
    <glyph glyph-name="f" unicode="f" horiz-adv-x="171" 
d="M505 569h1q16 0 23 -10.5t5 -25.5q-3 -17 -19 -39t-51 -55t-59 -53l-76 -64l-88 -71.5t-110 -91.5q-65 -81 -118 -155q19 4 43 14q32 14 56 29q29 19 57 44q13 13 16 9q3 -2 -9 -14q-26 -26 -65 -51q-33 -20 -79 -37q-18 -7 -25 -16q-7 -10 -14 -32q-30 -97 -84 -190
q-61 -107 -116 -148q-24 -19 -43 -16q-23 4 -16 38q8 39 51 115.5t98 151.5l176 231l-1 1q-16 -12 -53 -47q-8 -7 -11 -4q-2 2 6 11q35 33 81 69l111 137q59 69 126 136.5t105 94.5q54 39 82 39zM149 185l172 148q127 114 158 151q29 35 31 56q2 18 -16 18t-62 -40
q-51 -48 -130 -142q-73 -86 -153 -191zM-9 -25q-57 -72 -126 -176q-79 -120 -96 -159q-9 -19 0 -24q8 -4 25 9q47 36 109 144q53 91 88 206z" />
    <glyph glyph-name="g" unicode="g" horiz-adv-x="284" 
d="M53 -62q-24 -16 -86.5 -53.5t-113.5 -71.5q-68 -46 -113.5 -93t-48.5 -84q-1 -22 15 -27q24 -8 63 16q80 48 183 180zM170 161q-29 0 -92 -63q-59 -58 -56 -79q1 -10 13 -10q14 0 38.5 14t45.5 33q25 22 46.5 48.5t22.5 38.5q1 18 -18 18zM74 143q64 34 100 28
q27 -4 23 -34h1q30 34 48 34q28 0 13 -16q-12 -14 -52 -66l-82 -111q60 36 96 63q39 30 62 51q9 8 12 5t-10 -15q-19 -18 -59 -49q-49 -37 -110 -71q-77 -113 -137 -179q-103 -114 -206 -168q-39 -21 -69 -21q-53 0 -47 42q9 69 202 195l203 124l67 94l-1 1
q-63 -54 -108 -56q-19 -1 -31 8t-10 32q3 23 28 52l-1 1q-7 -7 -13 -12q-7 -5 -9 -3q-3 4 16 21q8 8 28 22q25 17 46 28z" />
    <glyph glyph-name="h" unicode="h" horiz-adv-x="317" 
d="M140 184l108.5 90.5t70.5 57.5q90 78 138 127.5t51 79.5q1 19 -17 19q-23 0 -65 -40q-81 -81 -133 -143q-92 -109 -153 -191zM262 34q-53 -40 -90 -40q-15 0 -23 6.5t-7 19.5q1 20 42 70l21.5 24.5t20.5 24.5q8 10 1 14q-6 4 -26 -6q-35 -18 -78 -51l-112 -91
q-12 -9 -26 -9q-11 0 -14 3t1 13q16 30 41 67q10 15 30 40v1l-38 -34q-8 -7 -11 -3q-1 3 5 9q13 13 65 56q68 90 121 150q51 59 123.5 132.5t108.5 98.5q56 40 85 40q18 0 25.5 -10.5t5.5 -25.5q-3 -17 -19.5 -39.5t-50.5 -54.5l-59.5 -54.5l-75.5 -63.5q-17 -14 -89 -69.5
t-115 -93.5q-18 -20 -83 -115l1 -1l92 75q73 54 109 54q34 0 31 -27q-2 -14 -40 -61q-23 -27 -33 -44t-4 -22t24 4q23 12 48 31q18 14 48 41q10 9 13 6q2 -3 -8 -13q-26 -26 -60 -52z" />
    <glyph glyph-name="i" unicode="i" horiz-adv-x="162" 
d="M220 304h1q10 0 12.5 -7.5t-5.5 -18.5t-23 -19t-24 -8q-10 12 -1 34q8 19 40 19zM81 143q-12 -5 -43 -30q-24 -19 -36 -30q-12 -10 -15 -8q-3 3 11 16q36 32 71 56q32 22 58 22q16 0 18 -3t-7 -13q-25 -28 -54 -64q-22 -27 -35 -49q-9 -16 -3 -22q7 -6 24 3q19 10 44 30
l46 40q13 12 16 9q2 -2 -11 -16q-22 -22 -57 -50q-51 -41 -87 -41q-30 0 -30 26q0 15 15 38q30 47 75 86z" />
    <glyph glyph-name="j" unicode="j" horiz-adv-x="167" 
d="M94 150q-3 0 -16 -8q-17 -11 -40 -29q-24 -19 -36 -30q-12 -10 -15 -8q-3 3 11 16q36 32 71 56q32 22 58 22q16 0 17.5 -3t-6.5 -12l-52 -64l-89 -116q48 24 105 66q35 25 63 51q11 11 15 8q2 -1 -1 -5.5t-10 -10.5q-29 -27 -64 -52q-51 -38 -116 -73q-83 -120 -133 -175
q-73 -81 -151 -135t-127 -54q-18 0 -32 9.5t-10 32.5q11 69 198 192q47 31 105 65.5t96 59.5l69 95q64 84 90 102zM-76 -65q-27 -18 -85.5 -53.5t-107.5 -68.5q-69 -45 -114 -92.5t-48 -84.5q-1 -21 15 -26q25 -8 64 16q81 50 182 179q44 55 94 130zM211 304h1q12 0 15 -7.5
t-6 -18.5q-8 -10 -23.5 -18t-23.5 -8q-10 10 -1 33q8 19 38 19z" />
    <glyph glyph-name="k" unicode="k" horiz-adv-x="312" 
d="M43 119v1l-38 -34q-8 -7 -11 -3q-1 3 5 9q5 5 64 56q69 91 122 150q50 58 120.5 129t111.5 102q55 40 85 40q18 0 25.5 -10.5t5.5 -25.5q-3 -17 -19.5 -39.5t-50.5 -54.5l-59.5 -54.5l-75.5 -63.5q-18 -15 -94 -73.5t-110 -89.5q-20 -22 -80 -110l2 -1q64 57 86 74
q37 29 66 41q26 11 50 9q20 -1 30 -13.5t3 -26.5q-9 -16 -47 -21q-37 -6 -43 -14q-9 -14 -8 -41q3 -34 17 -37q9 -1 26 8q19 11 38 26q28 23 48 41q10 9 13 6q2 -3 -10 -15q-33 -30 -59 -51q-49 -39 -86 -39q-35 0 -34 47q1 34 22 55q13 13 41 17q22 4 31 14q5 6 6 15t-7 14
q-10 4 -31 -5q-32 -15 -76 -50q-20 -16 -60 -52t-50 -43q-14 -10 -26 -10t-15 3t1 13q9 20 41 67zM140 184l108.5 90.5t70.5 57.5l93 83t63.5 66.5t32.5 57.5q1 19 -17 19q-23 0 -65 -40q-81 -81 -133 -143z" />
    <glyph glyph-name="l" unicode="l" horiz-adv-x="168" 
d="M47 122l-1 1l-41 -37q-8 -7 -11 -3q-1 3 5 9q11 11 73 63q66 84 118 143q59 70 119 124q19 17 36 17q15 0 15 -7q-60 -60 -149 -166q-133 -161 -160 -220q-9 -21 -2 -27q9 -6 31 6q17 9 41 28q25 19 44 37q11 12 15 8q2 -2 -7 -12q-25 -25 -61 -52q-53 -40 -90 -40
q-15 0 -23.5 7t-7.5 20q1 32 56 101z" />
    <glyph glyph-name="m" unicode="m" horiz-adv-x="512" 
d="M51 138q42 33 68 33q25 0 25 -22q0 -14 -21 -43l-47 -63l1 -1l92 75q73 54 108 54q18 0 26 -8t6 -21q-3 -14 -39 -57q-26 -30 -36 -44l1 -1q57 49 94 77q73 54 109 54q34 0 31 -27q-2 -14 -40 -61q-18 -21 -33 -44q-11 -17 -4 -22q6 -5 24 4q22 11 48 31q18 14 48 41
q10 9 13 6t-8 -13q-26 -26 -60 -52q-53 -40 -90 -40q-15 0 -23 6.5t-7 19.5q0 6 2.5 12.5t5 11t8 12.5l8 11.5t10 12t8.5 10.5l42 49q8 10 1 14q-6 4 -26 -6q-35 -18 -78 -51l-112 -91q-12 -9 -26 -9q-12 0 -14.5 3t1.5 13q15 32 53 78q8 10 23 27t19 22q9 11 -1 14
q-7 2 -25 -6q-38 -19 -78 -51l-112 -91q-12 -9 -26 -9q-12 0 -15 3t2 13q12 22 44 67l40 52q10 13 7 17q-4 5 -15 -1q-17 -8 -39 -27l-43 -38q-14 -12 -17 -9q-2 3 15 19q40 37 52 46z" />
    <glyph glyph-name="n" unicode="n" horiz-adv-x="352" 
d="M207 -6q-15 0 -23 6.5t-7 19.5q1 20 42 70l42 49q8 10 1 14q-6 4 -26 -6q-35 -18 -78 -51l-112 -91q-12 -9 -26 -9q-12 0 -15 3t2 13q17 32 44 67l40 52q10 13 7 17q-4 5 -15 -1q-17 -8 -39 -27l-43 -38q-14 -12 -17 -9q-2 3 15 19q40 37 52 46q42 33 68 33q25 0 25 -22
q0 -14 -21 -43l-47 -63l1 -1l92 75q73 54 109 54q34 0 31 -27q-2 -14 -40 -61q-21 -25 -33 -44q-11 -17 -4 -22q6 -5 24 4q22 11 48 31q18 14 48 41q10 9 13 6t-8 -13q-26 -26 -60 -52q-53 -40 -90 -40z" />
    <glyph glyph-name="o" unicode="o" horiz-adv-x="249" 
d="M21 100l-18 -16q-10 -9 -13 -6q-2 3 7 12q11 11 31 25q23 16 48 29q49 26 83 27q15 0 15 -4q0 -1 -11 -6q-29 -13 -72 -55q-55 -55 -58 -88q-2 -17 14 -17t42.5 17.5t50.5 43.5q2 21 18 42q13 18 32 26q3 7 3 23q0 4 -0.5 7t-1 4.5t-0.5 2.5t1 2q5 3 14 -6q15 -15 12 -35
q-4 -33 -57 -81q6 -3 19 0q15 3 34 17q14 10 32 26q14 13 17 10t-13 -18q-20 -17 -32 -26q-21 -15 -38 -18q-18 -4 -27 2q-64 -49 -114 -49q-24 0 -37 11.5t-12 32.5q2 32 32 64z" />
    <glyph glyph-name="p" unicode="p" horiz-adv-x="327" 
d="M101 173l-100 -91q-13 -12 -16 -9t14 19l68 63l91 83q22 20 39 20q10 0 13 -1.5t-0.5 -7t-9.5 -12.5l-4 -4q-89 -104 -257 -331q-109 -148 -179 -257q-10 -16 -6 -20t13 6t78 108q17 25 115 155q73 96 121 153q48 55 88 85q53 39 86 39t30 -26q-2 -14 -41 -60
q-28 -32 -35 -43q-11 -17 -3 -23t27 3q21 10 46 30q24 19 46 39q11 11 15 8q2 -3 -8 -13q-25 -25 -61 -52q-53 -40 -90 -40q-18 0 -26 8.5t-6 20.5q3 22 44 67q38 42 43 50q6 10 0 13t-22 -5q-50 -25 -104 -83q-55 -60 -145 -181q-99 -133 -121 -165q-65 -96 -86 -113
q-15 -13 -29 -10q-17 3 -17 21q0 27 38 84q50 76 140 197q103 141 211 275z" />
    <glyph glyph-name="q" unicode="q" horiz-adv-x="273" 
d="M174 171q15 -3 20.5 -14t0.5 -24q36 38 51 38q31 0 16 -16l-65 -77q-37 -46 -133 -177q-105 -143 -177 -256q-10 -16 -5 -20q5 -3 15 8q19 21 73 101l113 154q51 66 119 137q24 25 68 65q13 12 16 9t-12 -17q-25 -22 -57 -55q-63 -65 -126 -145l-119 -164
q-66 -92 -85 -110q-15 -15 -29 -13q-19 2 -19 21q0 18 41 85q49 78 136 196l114 154l-1 1q-58 -55 -109 -58q-19 -1 -31.5 8.5t-9.5 31.5q3 23 28 52l-1 1q-7 -7 -13 -12q-7 -5 -9 -3q-3 4 16 21q8 8 28 22q25 17 46 28q64 34 100 28zM170 161q-29 0 -92 -63
q-59 -58 -56 -79q1 -10 13 -10q14 0 38.5 14t45.5 33q25 22 46.5 48.5t22.5 38.5q1 18 -18 18z" />
    <glyph glyph-name="r" unicode="r" horiz-adv-x="206" 
d="M171 145v-1q0 -6 -5.5 -14t-20 -23.5t-20.5 -22.5q-25 -30 -34 -47q-8 -14 -1 -19q6 -5 22 4q25 13 45 30q29 23 47 39q12 11 15 8t-12 -17q-30 -27 -57 -48q-52 -40 -89 -40q-15 0 -23.5 7t-7.5 19q1 26 48 71l26 22.5l27 22.5t12 12q2 7 -7 8h-33q-18 0 -23 2
q-13 -14 -38 -38l-40 -37q-12 -11 -15 -8t11 16l39 36q22 21 35 35q-17 11 0 32q14 17 38 17q16 0 18 -10q-10 -7 -17 -14q-19 -20 3 -22q57 -2 57 -20z" />
    <glyph glyph-name="s" unicode="s" horiz-adv-x="229" 
d="M119 21q21 8 44 22q30 18 66 50q11 8 13 6q3 -3 -11 -16q-24 -22 -51 -40q-29 -20 -63 -34q-41 -18 -84 -18q-36 0 -50 17.5t-10 42.5q3 22 18 37.5t33 14.5q23 -2 19 -22q-3 -15 -22 -25q-22 -12 -23 -30q-1 -12 7 -18.5t22 -6.5q36 0 67 54q9 15 25.5 55.5t21.5 46.5v1
q-14 -14 -48 -38q-23 -17 -38 -24q-8 -4 -10 -1q-1 4 5 8q23 14 42 28q22 16 59 48q4 9 16 17q15 11 29 11q26 0 -1 -19l-4 -2q-3 -2 -12 -7t-12 -8q-7 -7 -7 -27q2 -56 -9 -82q-12 -28 -32 -41z" />
    <glyph glyph-name="t" unicode="t" horiz-adv-x="167" 
d="M44 120q-16 -13 -40 -35q-9 -8 -12 -5t7 12l73 65q-7 0 -18.5 -0.5t-17.5 -0.5h-4.5t-3.5 0.5t-2.5 1.5t-0.5 3q1 4 27 6q13 1 28 1q52 64 94 104q41 41 63 41q13 0 15 -6q-19 -17 -61 -65q-31 -35 -61 -74q23 1 57 1q4 0 7.5 -0.5t5 -2t1.5 -3.5q-1 -5 -18 -5
q-38 0 -61 -1q-40 -48 -72 -110q-13 -23 -1 -29q9 -4 25 4q21 11 45 30q11 8 28 23t19 17q12 9 14 7q2 -3 -7 -12q-27 -27 -61 -53q-53 -41 -92 -41q-16 0 -23.5 8t-6.5 20q3 32 54 99z" />
    <glyph glyph-name="u" unicode="u" horiz-adv-x="322" 
d="M81 143q-12 -5 -43 -30q-24 -19 -36 -30q-12 -10 -15 -8q-3 3 11 16q36 32 71 56q32 22 58 22q16 0 18 -3t-7 -13q-17 -19 -52 -62q-31 -41 -37 -54t-1 -18q6 -6 23 2q27 14 75 52l108 87q15 11 29 11q15 0 18.5 -2.5t-3.5 -13.5l-22.5 -27l-30.5 -37q-26 -32 -37 -51
q-10 -17 -3 -22t23 3q21 10 45 30q24 19 48 41q11 11 14 7q3 -2 -8 -13q-18 -18 -61 -52q-51 -40 -86 -40q-31 0 -31 24q0 18 16 41q11 16 47 52l-1 1l-80 -63q-73 -55 -107 -55q-16 0 -25 7.5t-8 20.5q1 17 19 41q33 44 71 80z" />
    <glyph glyph-name="v" unicode="v" horiz-adv-x="296" 
d="M222 45q-27 0 -32 19q-16 -10 -42 -24q-54 -29 -96 -42q-21 -7 -34 -7q-14 0 -15 12q-1 6 9 18l49 58q27 34 37 55q5 10 0 14t-15 -1q-15 -7 -39 -27q-27 -22 -42 -37q-7 -7 -10 -4t4 10q25 25 53 47q44 35 70 35q32 0 28 -35q-3 -25 -35 -64q-24 -31 -57 -61q34 9 90 39
q27 14 44 27q1 27 23 57q29 41 48 37q9 -2 9 -13.5t-6 -22.5q-22 -37 -64 -65q3 -14 22 -16q23 -2 48 16q16 12 25 21q12 11 15 8t-10 -15q-8 -8 -24 -20q-27 -19 -53 -19z" />
    <glyph glyph-name="w" unicode="w" horiz-adv-x="427" 
d="M23 -7h-1q-30 0 -26 31q3 26 37 67q25 30 59 59q-18 -8 -52 -35q-23 -18 -40 -34q-12 -11 -15 -8t13 18q38 35 70 56q32 22 65 22q16 0 18.5 -3t-7.5 -13q-40 -40 -60 -64q-27 -33 -34 -52q-5 -12 0 -17q6 -6 25 3q21 10 59 41l101 84q18 14 32 14q15 0 18.5 -3t-3.5 -13
q-22 -25 -45 -56q-26 -36 -33 -51q-10 -19 0 -26q7 -5 28 2q24 8 58 32q18 13 29 25q0 28 24 62q29 41 48 37q8 -2 9 -13t-6 -23q-21 -34 -63 -69q4 -10 20 -12q22 -2 50 18q15 10 25 20t13 7t-9 -15q-8 -8 -25 -20q-29 -21 -55 -19q-20 0 -27 14q-7 -6 -25 -19
q-66 -47 -113 -47q-35 0 -35 29q0 15 13 36q10 16 36 46l-1 1l-75 -62q-63 -50 -100 -50z" />
    <glyph glyph-name="x" unicode="x" horiz-adv-x="285" 
d="M95 49q-37 -55 -75 -55q-19 0 -29 9t-9 28q1 16 12.5 28.5t26.5 12.5q11 0 17 -7.5t2 -17.5q-2 -5 -10 -12t-9 -13q-1 -12 10 -12q25 0 72 67q27 38 32 57q4 19 -12 22q-25 4 -75 -34q-22 -17 -46 -39q-14 -13 -17 -10t12 17q27 25 56 47q43 34 80 34q20 0 34 -13.5
t8 -40.5h1q47 54 79 54q15 0 23 -10t5 -25q-2 -11 -11.5 -19t-20.5 -8q-16 0 -15 15q1 4 5 9.5t5 9.5q2 8 -8 8q-12 0 -38 -24q-17 -16 -38 -44q-20 -26 -25 -45q-7 -24 10 -28q28 -6 81 34q18 13 54 46q6 6 10 3q2 -3 -6 -11q-35 -32 -53 -46q-57 -42 -94 -42
q-24 0 -37 14.5t-7 40.5z" />
    <glyph glyph-name="y" unicode="y" horiz-adv-x="315" 
d="M213 112l-1 1q-21 -18 -81 -64q-73 -55 -107 -55q-16 0 -24.5 7.5t-7.5 21.5q2 18 18 40q32 42 71 80q-11 -5 -44 -31q-25 -20 -35 -29q-12 -10 -15 -8q-3 3 11 16q36 32 71 56q32 22 58 22q16 0 18 -3t-7 -13q-17 -19 -52 -62q-28 -35 -37 -54q-6 -13 -1 -18q6 -6 23 3
q31 17 75 51l108 87q15 11 29 11t17.5 -2.5t-3.5 -12.5l-59 -78l-132 -177q-135 -184 -177 -256q-10 -17 -5 -20t15 8t73 101q82 114 113 154q67 85 128 146q22 22 61 58q10 10 14 7q2 -3 -11 -16l-58 -56q-63 -65 -126 -145q-66 -87 -119 -164q-65 -92 -85 -110
q-16 -14 -29 -13q-19 2 -19 21t41 85q48 75 135 196z" />
    <glyph glyph-name="z" unicode="z" horiz-adv-x="244" 
d="M50 36q14 3 26 2q37 -4 48 -34q26 14 59 39q34 25 61 50q11 9 14 6t-13 -17q-22 -20 -56 -46q-31 -22 -63 -41q2 -6 2 -15q0 -48 -52 -116.5t-110 -119.5q-68 -60 -141.5 -104.5t-115.5 -44.5t-42 35q0 61 155 179q80 60 195 129l76 47q2 20 -5.5 32t-21.5 12
q-33 0 -72 -37q-8 -8 -12 -5q-6 6 3 17q9 12 42 30q17 9 48.5 24t49.5 25q50 30 73 56q6 6 4 9q-1 2 -6 0q-48 -27 -90 -27q-37 0 -49 19q-29 -33 -53 -55q-8 -7 -11 -4t6 11q28 26 54 57q-2 16 10 31t33 15q17 0 17 -10q-13 -7 -16 -16q-2 -8 4.5 -14t23.5 -6q42 0 81 17
q16 6 20 1q6 -6 -6 -23q-26 -35 -86 -68q-18 -9 -45.5 -21.5t-38.5 -18.5zM-287 -394h1q39 0 101.5 46t123.5 111q47 49 94.5 112.5t57.5 98.5l-69 -44q-120 -75 -194 -131q-130 -98 -137 -166q-2 -27 22 -27z" />
    <glyph glyph-name="braceleft" unicode="{" horiz-adv-x="295" 
d="M555 463l-6 -8q-5 0 -18 0.5t-22 0.5q-80 0 -115 -38q-16 -18 -52.5 -83t-73.5 -98q-33 -29 -90 -31q13 -13 14 -37t-16 -51q-16 -22 -47 -60.5t-41 -53.5q-39 -59 32 -78q17 -5 44 -7l-6 -6q-26 0 -49 5q-49 10 -57 41.5t33 90.5q5 6 20.5 26l29 38t22.5 33
q14 27 7.5 44t-25.5 21v1q23 0 53 8.5t46 24.5q19 19 34 40t31.5 50t22.5 38q29 46 67.5 68.5t105.5 22.5z" />
    <glyph glyph-name="bar" unicode="|" horiz-adv-x="144" 
d="M82 750v-1000h-20v1000h20z" />
    <glyph glyph-name="braceright" unicode="}" horiz-adv-x="295" 
d="M253 458l5 5q32 0 49 -4q49 -10 57.5 -41.5t-33.5 -91.5q-2 -2 -29.5 -36.5t-40.5 -54.5q-14 -26 -7 -42t27 -19v-1q-23 3 -53 -9.5t-49 -32.5q-14 -15 -28 -33.5t-21.5 -30.5l-21 -34.5l-17.5 -29.5q-30 -46 -68 -68.5t-105 -22.5l-57 2l6 7h40q82 0 115 38
q16 18 52.5 83t73.5 98q45 38 99 40q-16 11 -20 31.5t13 47.5l42.5 54t45.5 60q38 57 -31 78q-19 5 -44 7z" />
    <glyph glyph-name="asciitilde" unicode="~" horiz-adv-x="307" 
d="M226 214h1q70 0 81 -61q2 -6 -2 -6l-4 6q-18 28 -78 28q-18 0 -58 -11.5t-62 -11.5q-35 0 -51 32q-2 6 0 8q2 1 5 -4q11 -15 32 -15q24 0 69 17.5t67 17.5z" />
    <glyph glyph-name="uni00A0" unicode="&#xa0;" horiz-adv-x="153" 
 />
    <glyph glyph-name="exclamdown" unicode="&#xa1;" horiz-adv-x="239" 
d="M151 118h-1q-12 0 -15 7.5t6 18.5q8 11 23 19t24 8q10 -13 1 -34q-8 -19 -38 -19zM-87 -177h-1q-12 0 -11 5q1 6 19 30q34 45 101 118.5t105 111.5q9 9 13 7t-6 -16q-97 -128 -160 -224q-22 -32 -60 -32z" />
    <glyph glyph-name="cent" unicode="&#xa2;" horiz-adv-x="207" 
d="M188 209l-101 -152q6 -1 19 2q34 9 62 34q10 7 12 5q3 -3 -6 -12q-44 -44 -96 -44q-32 -47 -44 -63q-6 -8 -10 -7q-5 1 2 12l38 59q-43 3 -40 42q3 40 48 85q21 20 52 35.5t56 16.5l17 25q17 26 24 22q5 -3 -10 -25l-15 -23q38 -5 35 -34q-1 -13 -11.5 -24.5t-20.5 -11.5
q-22 0 -10 28q10 23 -1 30zM75 61l99 151q-22 0 -54 -35q-53 -55 -53 -96q0 -14 8 -20z" />
    <glyph glyph-name="sterling" unicode="&#xa3;" horiz-adv-x="510" 
d="M631 301v-1q0 -17 -30 -40t-75 -34q-48 -11 -86 -11l-28 -33l-38 -43q31 0 61 -1q14 0 14 -4t-14 -4q-35 -1 -70 -1q-45 -46 -131 -92q75 -16 101 -16q56 0 93 23q11 7 12 6q3 -3 -4 -10q-53 -50 -123 -50q-35 0 -111 27q-53 -26 -149 -26q-19 0 -38.5 2.5t-36 9.5
t-15.5 17q1 19 39.5 28t90.5 8q50 0 130 -17q12 7 25 19l22 21t24 26t22 24q-40 -1 -124 -1q-20 0 -20 6q0 8 19 8q25 0 133 -3q6 6 17.5 20t18.5 21q27 30 32 35q-43 3 -68 23t-25 51q0 17 12 31t29 19q11 3 11 -1l-9 -4q-33 -12 -33 -45q0 -27 24 -43.5t57 -17.5h14
q42 43 98.5 69.5t96.5 26.5q32 0 32 -23zM621 300v1q0 14 -22 14q-73 0 -150 -87q44 5 81 16q91 28 91 56zM55 -1h1q91 0 135 22q-60 16 -123 18q-95 2 -97 -18q-1 -6 9.5 -11t26.5 -7t28 -3t20 -1z" />
    <glyph glyph-name="currency" unicode="&#xa4;" horiz-adv-x="320" 
d="M284 171v-1q0 -28 -18 -58.5t-43 -50.5q17 -24 27 -45q5 -13 0 -15q-4 -2 -14 9q-12 14 -30 39q-37 -28 -76 -30q-34 -1 -56 23q-5 -3 -47 -30q-17 -10 -20 -7q-5 5 9 15l47 37q-6 12 -6 31q0 57 60 105l-26 45q-7 13 0 15q4 2 13 -9q2 -3 13.5 -17.5l16.5 -20.5
q40 28 79 28q36 0 55 -22l40 28q15 10 19 7t-7 -14q-14 -14 -42 -36q6 -12 6 -26zM245 172v1q0 48 -42 48q-40 -1 -74 -49t-34 -91q0 -24 9.5 -38t30.5 -13q41 1 75.5 50t34.5 92z" />
    <glyph glyph-name="yen" unicode="&#xa5;" horiz-adv-x="371" 
d="M187 126q108 94 182 140q93 56 163 50q9 -1 16.5 -4.5t5.5 -7.5q-2 -1 -2.5 -0.5t-5.5 2t-11 1.5q-49 0 -156 -63q-103 -63 -172 -119q79 0 129 -1q17 0 17 -4q0 -5 -17 -5q-100 -2 -145 -2q-14 -9 -21 -15q-14 -14 -22 -23q107 -2 125 -3q18 0 18 -4t-18 -4
q-37 -1 -137 -1q-29 -33 -76 -76q-12 -12 -19 -8q-4 3 6 15l24 30.5t29 38.5q-9 0 -32 -0.5t-33 -0.5q-25 0 -25 5q0 10 26 10q41 0 73 -1l18 23q9 12 11 15q-12 0 -44.5 -0.5t-52.5 -0.5q-25 0 -25 6q0 10 26 10q30 -1 103 -3q38 56 52 91q19 43 16 67q-2 20 -30 20
q-38 0 -70 -32q-6 -6 -8 -5q-3 2 3 8q39 43 91 43q39 0 51 -24q12 -25 -5 -73q-17 -45 -58 -95z" />
    <glyph glyph-name="brokenbar" unicode="&#xa6;" horiz-adv-x="144" 
d="M82 675v-350h-20v350h20zM62 175h20v-350h-20v350z" />
    <glyph glyph-name="section" unicode="&#xa7;" horiz-adv-x="356" 
d="M42 -104h-1q-35 0 -55 19t-15 45q8 35 38 31q9 -1 14 -8t3 -17q-1 -7 -10.5 -17t-9.5 -17q0 -25 40 -25q53 0 72 43q13 30 -7 86q-18 48 -7 79q10 33 39 51.5t64 18.5q-12 39 -3 67q11 32 41 51t65 18q25 -1 40.5 -15.5t8.5 -36.5q-3 -11 -12 -18t-19 -6q-11 1 -14 10.5
t1 16.5q2 5 5 9.5t5.5 7t3.5 5t1 5.5q-2 13 -24 13q-23 1 -42 -12t-28 -33q-11 -29 6 -71q25 -58 14 -90t-41.5 -52t-64.5 -22q11 -40 3 -65q-12 -34 -44 -52.5t-67 -18.5zM210 175q-25 1 -46.5 -12t-29.5 -32q-11 -29 6 -71q2 -4 4.5 -10.5t2.5 -7.5q53 3 72 45
q12 25 -4 74q-1 3 -3 8t-2 6z" />
    <glyph glyph-name="dieresis" unicode="&#xa8;" horiz-adv-x="307" 
d="M201 298h1q10 0 12.5 -6.5t-4.5 -16.5q-18 -24 -43 -24q-9 11 0 30q6 17 34 17zM301 298h1q10 0 12.5 -6.5t-5.5 -16.5q-18 -24 -43 -24q-8 9 0 30q6 17 35 17z" />
    <glyph glyph-name="copyright" unicode="&#xa9;" horiz-adv-x="509" 
d="M267 290h1q65 0 113 -45t48 -110t-48 -109.5t-114 -44.5t-114.5 45t-48.5 109q0 65 48.5 110t114.5 45zM266 272h-1q-55 0 -95 -41t-40 -97t40 -95.5t96 -39.5t96.5 39.5t40.5 95.5t-40.5 97t-96.5 41zM341 163h-15q-2 42 -44 42q-27 0 -43.5 -18.5t-16.5 -50.5
q0 -33 16 -52t42 -19q37 0 50 37h12l-4 -24q-3 -14 -14 -19q-20 -8 -46 -8q-43 0 -69.5 21t-26.5 61t29.5 63t70.5 23q31 0 45 -8q14 -7 14 -26v-22z" />
    <glyph glyph-name="ordfeminine" unicode="&#xaa;" horiz-adv-x="263" 
d="M293 388q21 23 35 24q19 0 9 -11q-51 -64 -62 -82q-7 -13 -2 -17q5 -3 16 3q14 7 31 21q15 12 35 30q8 7 10 5q3 -3 -6 -11q-17 -17 -42 -37q-33 -26 -56 -26q-21 0 -22 15t9 29h-1q-48 -43 -77 -44q-13 -1 -21.5 5t-7.5 22q4 34 50 68q51 35 86 29q10 -1 14 -8.5
t2 -14.5zM272 403h-1q-18 0 -60 -42q-36 -37 -36 -52q0 -8 8 -8q20 0 57 35q45 39 45 55q0 12 -13 12z" />
    <glyph glyph-name="guillemotleft" unicode="&#xab;" horiz-adv-x="279" 
d="M104 4h-1q-1 0 -5 7q-14 32 -42 76q-5 10 -4 12q1 4 10 8q49 27 92 55q7 5 8 4q4 -3 -3 -11q-34 -39 -72 -62q18 -46 20 -80q0 -9 -3 -9zM188 4h-1q-1 0 -5 7q-10 26 -42 76q-5 10 -4 12q1 3 11 8q53 29 91 55q7 5 9 4q3 -3 -3 -11q-33 -38 -73 -62q18 -45 20 -80
q0 -9 -3 -9z" />
    <glyph glyph-name="logicalnot" unicode="&#xac;" horiz-adv-x="457" 
d="M80 159v1q0 6 19 6q75 0 297 7q7 0 12 -2.5t5 -6t-2 -6.5q-75 -84 -103 -120q-14 -18 -20 -13q-5 3 6 19l72 101q-45 1 -92.5 2.5t-98.5 2.5t-76 2q-19 0 -19 7z" />
    <glyph glyph-name="uni00AD" unicode="&#xad;" horiz-adv-x="245" 
d="M150 117q23 0 34.5 -15.5t10.5 -36.5q0 -5 -2 -5t-4 3q-10 16 -40 16q-12 0 -35 -4.5t-40 -4.5q-25 0 -35 13q-2 3 0 5t4 0q8 -4 16 -4q18 0 50 19q20 14 41 14z" />
    <glyph glyph-name="registered" unicode="&#xae;" horiz-adv-x="453" 
d="M366 286v-1q0 -51 -39.5 -88.5t-92.5 -37.5q-54 0 -94 37.5t-40 89.5t40 90t94 38q53 0 92.5 -38t39.5 -90zM344 286v1q0 45 -33 77.5t-78 32.5q-46 0 -78.5 -32.5t-32.5 -78.5q0 -45 32.5 -77.5t78.5 -32.5q45 0 78 32.5t33 77.5zM319 231v-10h-24q-20 0 -41 29
q-9 13 -16 27q-5 -1 -11 -1l-9 1v-17q0 -16 4 -21.5t18 -5.5v-11h-73v11q14 0 17.5 5.5t3.5 22.5v56q0 14 -4 18.5t-17 4.5v11h69q51 0 51 -34q0 -19 -23 -30q11 -21 20 -32q15 -21 35 -24zM218 339v-51q38 -2 38 28q0 26 -38 23z" />
    <glyph glyph-name="macron" unicode="&#xaf;" horiz-adv-x="307" 
d="M319 277v-1q0 -2 -4 -6q-12 -11 -20 -11q-78 2 -134 0q-7 0 -9 0.5t1 5.5q8 10 29 13q62 7 124 4q13 -1 13 -5z" />
    <glyph glyph-name="degree" unicode="&#xb0;" horiz-adv-x="155" 
d="M124 264h1q17 0 30.5 -13t13.5 -32q0 -18 -13.5 -31t-31.5 -13q-19 0 -32 13t-13 31q0 19 13 32t32 13zM124 249h-1q-11 0 -20 -9t-9 -21t9 -20.5t21 -8.5t21 8.5t9 20.5t-9 21t-21 9z" />
    <glyph glyph-name="plusminus" unicode="&#xb1;" horiz-adv-x="359" 
d="M299 276h1q15 0 15 -6q0 -7 -16 -26l-53 -63q65 -2 113 -3q15 0 16 -5q0 -5 -15 -5q-78 -2 -127 -2l-59 -65q-14 -14 -19 -11q-4 4 5 16q7 11 42 59q-33 -1 -104 -1q-12 0 -17.5 1t-6.5 3t0 6q4 12 21 12q19 0 60 -2t60 -2l47 66q1 1 5.5 7t5.5 7.5t4.5 5.5t6 5t6.5 2
t9 1zM303 66v-1q0 -5 -15 -5q-86 -2 -248 -4q-15 0 -12 12q5 12 23 12q131 -4 237 -9q15 0 15 -5z" />
    <glyph glyph-name="two.superior" unicode="&#xb2;" 
d="M115 185q14 3 23 2q7 -1 19.5 -5t17.5 -4q18 0 37 19q5 5 7 4t-1 -6q-34 -41 -60 -41q-16 0 -36 9q-11 5 -25 5q-11 0 -20 -6q-2 -1 -4.5 -3l-4.5 -3.5t-3 -1.5q-3 0 -1 5q1 4 10 9q4 3 12 7.5l21 11.5l23 12q74 42 86 81q7 23 -15 23q-21 0 -39 -15q-15 -12 -19 -27
q-2 -10 2 -14.5t12 -2.5q4 1 4 -1t-4 -4q-6 -3 -14 -3q-18 1 -13 22t29 38q30 22 58 22q20 0 30 -10.5t6 -27.5q-7 -31 -69 -65q-39 -21 -69 -30z" />
    <glyph glyph-name="three.superior" unicode="&#xb3;" 
d="M188 248q12 0 21 -7q13 -10 6 -31q-9 -26 -39 -42q-30 -15 -60 -15q-44 0 -40 30q1 10 10.5 18t20.5 9q9 1 13 -3.5t3 -10.5q-2 -8 -11 -13q-10 -5 -11 -11q-1 -5 3.5 -8t12.5 -3q15 0 34 12.5t31 37.5q13 28 -3 29q-5 0 -15 -5q-8 -4 -9 -1q-1 1 0 2.5t4 3.5t7 4
q55 23 55 48q0 12 -15 12t-29 -10q-12 -7 -16 -18q-3 -7 -1 -13q2 -5 1 -5q-4 -2 -8 4t-1 15q4 14 25 27q23 14 48 14q26 0 28 -19q1 -19 -22 -33q-16 -10 -43 -18z" />
    <glyph glyph-name="acute" unicode="&#xb4;" horiz-adv-x="307" 
d="M317 334h1q4 0 7 -5q10 -16 -7 -33q-25 -25 -83 -57q-10 -5 -12 -3q-2 3 5 10q42 40 75 79q7 9 14 9z" />
    <glyph glyph-name="mu" unicode="&#xb5;" horiz-adv-x="322" 
d="M71 21q27 14 75 52l108 87q15 11 29 11q15 0 18.5 -2.5t-3.5 -13.5l-22.5 -27l-30.5 -37q-26 -32 -37 -51q-10 -17 -3 -22t23 3q21 10 45 30q24 19 48 41q11 11 14 7q3 -2 -8 -13q-18 -18 -61 -52q-51 -40 -86 -40q-31 0 -31 24q0 18 16 41q11 16 47 52l-1 1l-80 -63
q-73 -55 -104 -55q-19 0 -24 13q-10 -15 -19 -33q-16 -30 -20 -56q-2 -10 0 -20q1 -3 -1.5 -4.5t-6.5 0.5q-13 7 -13 28q0 22 16 56q20 42 49 82q25 38 74 83q-12 -4 -45 -31q-25 -20 -35 -29q-12 -10 -15 -8q-3 3 11 16q36 32 71 56q32 22 58 22q16 0 18 -3t-7 -13
q-17 -19 -52 -62q-31 -41 -37 -54t-1 -18q6 -6 23 2z" />
    <glyph glyph-name="paragraph" unicode="&#xb6;" horiz-adv-x="417" 
d="M567 400h1q41 0 41 -15q0 -9 -11 -9q-6 0 -19 11q-8 6 -21 5q-47 -5 -113 -82q14 -4 24 -12q7 -6 5 -8t-8 2q-10 7 -27 12q-25 -30 -49 -62q-87 -116 -140 -170q-89 -89 -154 -90q-9 0 -15 2q-57 -38 -106 -38q-36 0 -57 16t-16 41q4 16 15 24.5t24 6.5q9 -1 14 -8t3 -17
q-2 -9 -11 -18.5t-9 -15.5q-1 -8 9.5 -14t28.5 -6q51 0 111 50q41 35 98 107q-51 6 -67 53t24 96q63 69 219 65q32 -1 60 -8q84 82 146 82zM380 314q-4 1 -13 1q-122 0 -179 -75q-35 -50 -30 -82.5t33 -38.5q3 3 9 11q127 164 180 184zM89 -10q4 -2 9 -2q39 0 107 69
q15 15 31 34l26.5 32l33 43t33.5 43q59 75 87 102q-10 2 -14 2q-8 0 -10 -1q-5 -2 -11 -5.5t-13 -10l-13.5 -12.5t-16 -16.5l-16 -18l-17.5 -21l-17.5 -21.5l-19 -24t-18.5 -23q-102 -127 -147 -160q-8 -6 -14 -10z" />
    <glyph glyph-name="periodcentered" unicode="&#xb7;" horiz-adv-x="126" 
d="M93 162h1q12 0 15 -7.5t-5 -18.5q-9 -11 -24 -19t-24 -8q-9 13 0 34q8 19 37 19z" />
    <glyph glyph-name="cedilla" unicode="&#xb8;" horiz-adv-x="307" 
d="M26 -98h1q17 0 30 9t14 22q1 11 -7 17.5t-23 5.5q-4 0 -9 -2t-6.5 -2.5t-4.5 0.5q-2 3 4 9q17 19 42 40l8 -5q-19 -14 -32 -30q6 2 14 2q22 0 34 -9.5t10 -28.5t-23.5 -31t-50.5 -11q-40 1 -57 25q-10 13 -3 15q1 0 8 -7q17 -19 51 -19z" />
    <glyph glyph-name="one.superior" unicode="&#xb9;" 
d="M199 288l-40 -23q-6 -3 -12 -4t-9.5 -1t-4.5 2q0 1 3 3q11 4 26 12q28 14 52 30q19 11 25 11q5 1 5 -2t-6 -11q-43 -53 -94 -123q-12 -16 -19 -20t-27 -8q-10 -2 -10 2t12 20q80 103 99 112z" />
    <glyph glyph-name="ordmasculine" unicode="&#xba;" horiz-adv-x="263" 
d="M194 287h-1q-16 0 -25 8t-8 22q1 31 34 58q36 31 83 37q11 2 11 -2q0 -1 -8 -5q-26 -14 -50 -38q-38 -36 -40 -60q-2 -12 9 -12q27 0 65 41q2 14 13 30q12 15 22 17q4 8 2 18q-1 10 0 10q4 1 9 -4q10 -10 9 -25q-3 -23 -39 -54q4 -3 13 -1q8 2 23 12q13 9 23 19q7 8 10 5
t-5 -10q-10 -10 -22 -19q-18 -13 -28 -15q-12 -3 -20 1q-48 -33 -80 -33z" />
    <glyph glyph-name="guillemotright" unicode="&#xbb;" horiz-adv-x="279" 
d="M165 166h1q2 0 5 -7q14 -32 42 -76q5 -9 4 -12t-10 -8q-59 -32 -92 -55q-7 -5 -8 -4q-4 3 3 11q9 12 31 31.5t41 30.5q-18 45 -20 79q0 10 3 10zM83 166h1q2 0 5 -7q11 -26 41 -76q6 -9 5 -12q-1 -2 -11 -8q-61 -33 -91 -55q-7 -6 -9 -4q-3 3 3 11q33 38 73 62
q-20 51 -20 79q0 10 3 10z" />
    <glyph glyph-name="onequarter" unicode="&#xbc;" horiz-adv-x="389" 
d="M183 52q0 2 13 11q18 13 65 41l65 38q29 15 41 15q6 0 3 -5l-66 -89q12 0 24 -3l6 -2t4 -2.5t1 -2.5q-1 -1 -14 -1h-28q-19 -24 -34 -47q-7 -10 -30 -14q-10 -1 -11 1.5t7 15.5q9 14 32 44q-28 0 -43 -1q-17 -1 -28 -3q-7 -2 -7 4zM332 137l-65 -38l-31 -20t-28 -17v-1
q26 3 61 3zM355 300q11 0 6 -7q-4 -6 -23 -25q-146 -144 -283 -302q-10 -12 -16 -8q-3 3 7 15q142 169 266 300q25 27 43 27zM160 236q-36 -21 -40 -23q-6 -3 -12 -4t-9.5 -1t-4.5 2q0 1 3 3q11 4 26 12q28 14 52 30q18 11 25 11q10 0 -1 -13q-43 -53 -94 -123
q-12 -16 -19 -20t-27 -8q-10 -2 -10 2t12 20q80 103 99 112z" />
    <glyph glyph-name="onehalf" unicode="&#xbd;" horiz-adv-x="407" 
d="M239 25q14 2 22 1q7 -1 19.5 -5t17.5 -4q20 0 37 20q4 4 6 3q3 -1 0 -4q-33 -42 -60 -42q-14 0 -36 8q-15 5 -25 5q-13 0 -19 -5q-10 -8 -11 -8q-2 -1 -3 0.5t0 3.5q2 4 10 9q4 3 12.5 7.5l21.5 11.5l22 12q76 44 86 81q7 23 -15 23q-20 0 -39 -15q-15 -12 -19 -26
q-2 -10 2 -15.5t12 -3.5q5 2 5 0t-4 -4q-9 -4 -16 -3q-17 2 -12 22q4 19 29 38q29 22 58 22q20 0 29.5 -10.5t4.5 -27.5q-9 -29 -67 -65q-36 -21 -68 -29zM356 300q11 0 6 -7q-4 -6 -23 -25q-146 -144 -283 -302q-10 -12 -16 -8q-3 3 7 15q142 169 266 300q25 27 43 27z
M160 236q-36 -21 -40 -23q-6 -3 -12 -4t-9.5 -1t-4.5 2q0 1 3 3q11 4 26 12q28 14 52 30q18 11 25 11q10 0 -1 -13q-43 -53 -94 -123q-12 -16 -19 -20t-27 -8q-10 -2 -10 2t12 20q80 103 99 112z" />
    <glyph glyph-name="threequarters" unicode="&#xbe;" horiz-adv-x="420" 
d="M149 197q12 0 21 -7q13 -10 6 -31q-8 -26 -39 -42q-30 -15 -60 -15q-44 2 -40 30q2 11 11 19t19 8q9 0 13.5 -4t3.5 -10t-11 -13q-10 -8 -11 -11q-1 -5 3.5 -8t12.5 -3q41 2 65 50q13 28 -3 29q-5 0 -15 -5q-7 -4 -9 -1q-1 1 0 2.5t4 3.5t7 4q55 23 55 48q0 12 -15 12
q-13 0 -29 -10q-12 -7 -16 -18q-3 -7 -1 -12l1 -6q-4 -2 -8 4q-3 7 -1 15q4 14 24 27q23 14 49 14q28 0 28 -19q0 -20 -22 -33q-17 -11 -43 -18zM214 52q0 2 13 11q18 13 65 41l65 38q29 15 41 15q6 0 3 -5l-66 -89q12 0 24 -3l6 -2t4 -2.5t1 -2.5t-14 -1h-28
q-19 -24 -34 -47q-7 -10 -30 -14q-10 -1 -11 1.5t7 15.5q9 14 32 44q-28 0 -43 -1q-17 -1 -28 -3q-7 -2 -7 4zM364 136l-1 1l-65 -38l-22 -14l-22 -13.5t-15 -9.5v-1q25 3 61 3q51 62 64 72zM386 300q11 0 6 -7q-4 -6 -23 -25q-146 -144 -283 -302q-10 -12 -16 -8q-3 3 7 15
q142 169 266 300q25 27 43 27z" />
    <glyph glyph-name="questiondown" unicode="&#xbf;" horiz-adv-x="239" 
d="M-35 -175h-1q-28 0 -41.5 19t-5.5 47q17 57 117 104q37 18 62 33q30 17 35 32q1 2 4 11t6.5 14t8.5 5q5 -1 3.5 -9.5t-5.5 -15.5q-16 -32 -55 -55q-106 -64 -129 -123q-7 -17 -1 -29.5t22 -13.5q35 -3 70 25q23 17 34.5 41t3.5 39q-1 3 -3.5 4.5t-3.5 2.5t-1 2q2 3 11 1
q25 -5 16 -38q-7 -27 -51 -60q-49 -36 -96 -36zM154 118h-1q-12 0 -15 7.5t6 18.5q8 11 23 19t24 8q10 -13 1 -34q-8 -19 -38 -19z" />
    <glyph glyph-name="Agrave" unicode="&#xc0;" horiz-adv-x="690" 
d="M21 56v1q0 25 16 42.5t36 18.5q17 1 27 -7t10 -23q0 -18 -23 -34q-18 -13 -18 -25q0 -17 26 -27t72 -6q94 8 208 87q-19 17 -37 48t-18 65q1 46 33.5 76t85.5 29q37 -1 65 -24t39 -48q11 11 47 44q93 84 150 115q69 38 120 38q22 0 35 -10q12 -10 7 -14q-1 0 -11 7
q-8 6 -22 6q-18 0 -32 -11q-36 -29 -81 -94q-95 -131 -187 -282q25 2 56 17q32 17 63 46q6 7 10 3q2 -2 -8 -13q-31 -29 -62 -45t-64 -18q-20 -21 -39 -25q-13 -3 -20 -0.5t-6 6.5l2 8q2 3 4.5 8l3.5 7q-29 3 -65 18q-38 15 -59 35q-119 -84 -221 -92q-61 -5 -102 14t-41 59
zM558 99q59 92 121 172q82 107 161 145v1q-36 -3 -95 -35q-50 -28 -134 -103l-63 -59q11 -30 13 -65q2 -29 -3 -56zM440 286h-1q-37 0 -58.5 -27t-23.5 -65q-1 -28 9.5 -55.5t23.5 -43.5l73 62l71 64q-35 65 -94 65zM397 86q15 -17 52 -35q36 -16 65 -19q4 8 16 26.5
l14 21.5q10 20 6 74q-3 39 -11 58l-70 -64zM793 524q-23 15 -12 34q5 7 11 7t13 -6q35 -30 90 -69q8 -6 6 -8q-2 -3 -12 0q-66 23 -96 42z" />
    <glyph glyph-name="Aacute" unicode="&#xc1;" horiz-adv-x="690" 
d="M21 56v1q0 25 16 42.5t36 18.5q17 1 27 -7t10 -23q0 -18 -23 -34q-18 -13 -18 -25q0 -17 26 -27t72 -6q94 8 208 87q-19 17 -37 48t-18 65q1 46 33.5 76t85.5 29q37 -1 65 -24t39 -48q11 11 47 44q93 84 150 115q69 38 120 38q22 0 35 -10q12 -10 7 -14q-1 0 -11 7
q-8 6 -22 6q-18 0 -32 -11q-36 -29 -81 -94q-95 -131 -187 -282q25 2 56 17q32 17 63 46q6 7 10 3q2 -2 -8 -13q-31 -29 -62 -45t-64 -18q-20 -21 -39 -25q-13 -3 -20 -0.5t-6 6.5l2 8q2 3 4.5 8l3.5 7q-29 3 -65 18q-38 15 -59 35q-119 -84 -221 -92q-61 -5 -102 14t-41 59
zM558 99q59 92 121 172q82 107 161 145v1q-36 -3 -95 -35q-50 -28 -134 -103l-63 -59q11 -30 13 -65q2 -29 -3 -56zM440 286h-1q-37 0 -58.5 -27t-23.5 -65q-1 -28 9.5 -55.5t23.5 -43.5l73 62l71 64q-35 65 -94 65zM397 86q15 -17 52 -35q36 -16 65 -19q4 8 16 26.5
l14 21.5q10 20 6 74q-3 39 -11 58l-70 -64zM775 480q-1 3 8 8q48 20 120 66q7 4 13 4q8 0 10 -11q3 -17 -21 -30q-42 -20 -118 -37q-11 -4 -12 0z" />
    <glyph glyph-name="Acircumflex" unicode="&#xc2;" horiz-adv-x="690" 
d="M21 56v1q0 25 16 42.5t36 18.5q17 1 27 -7t10 -23q0 -18 -23 -34q-18 -13 -18 -25q0 -17 26 -27t72 -6q94 8 208 87q-19 17 -37 48t-18 65q1 46 33.5 76t85.5 29q37 -1 65 -24t39 -48q11 11 47 44q93 84 150 115q69 38 120 38q22 0 35 -10q12 -10 7 -14q-1 0 -11 7
q-8 6 -22 6q-18 0 -32 -11q-36 -29 -81 -94q-95 -131 -187 -282q25 2 56 17q32 17 63 46q6 7 10 3q2 -2 -8 -13q-31 -29 -62 -45t-64 -18q-20 -21 -39 -25q-13 -3 -20 -0.5t-6 6.5l2 8q2 3 4.5 8l3.5 7q-29 3 -65 18q-38 15 -59 35q-119 -84 -221 -92q-61 -5 -102 14t-41 59
zM558 99q59 92 121 172q82 107 161 145v1q-36 -3 -95 -35q-50 -28 -134 -103l-63 -59q11 -30 13 -65q2 -29 -3 -56zM440 286h-1q-37 0 -58.5 -27t-23.5 -65q-1 -28 9.5 -55.5t23.5 -43.5l73 62l71 64q-35 65 -94 65zM397 86q15 -17 52 -35q36 -16 65 -19q4 8 16 26.5
l14 21.5q10 20 6 74q-3 39 -11 58l-70 -64zM764 470q-10 -3 -11 1q-1 3 7 7q82 49 109 70q6 4 10 4t6 -6q14 -33 34 -66q3 -7 3 -8q-3 -2 -12 3q-21 13 -43 36q-37 -19 -103 -41z" />
    <glyph glyph-name="Atilde" unicode="&#xc3;" horiz-adv-x="690" 
d="M21 56v1q0 25 16 42.5t36 18.5q17 1 27 -7t10 -23q0 -18 -23 -34q-18 -13 -18 -25q0 -17 26 -27t72 -6q94 8 208 87q-19 17 -37 48t-18 65q1 46 33.5 76t85.5 29q37 -1 65 -24t39 -48q11 11 47 44q93 84 150 115q69 38 120 38q22 0 35 -10q12 -10 7 -14q-1 0 -11 7
q-8 6 -22 6q-18 0 -32 -11q-36 -29 -81 -94q-95 -131 -187 -282q25 2 56 17q32 17 63 46q6 7 10 3q2 -2 -8 -13q-31 -29 -62 -45t-64 -18q-20 -21 -39 -25q-13 -3 -20 -0.5t-6 6.5l2 8q2 3 4.5 8l3.5 7q-29 3 -65 18q-38 15 -59 35q-119 -84 -221 -92q-61 -5 -102 14t-41 59
zM558 99q59 92 121 172q82 107 161 145v1q-36 -3 -95 -35q-50 -28 -134 -103l-63 -59q11 -30 13 -65q2 -29 -3 -56zM440 286h-1q-37 0 -58.5 -27t-23.5 -65q-1 -28 9.5 -55.5t23.5 -43.5l73 62l71 64q-35 65 -94 65zM397 86q15 -17 52 -35q36 -16 65 -19q4 8 16 26.5
l14 21.5q10 20 6 74q-3 39 -11 58l-70 -64zM778 482q-4 2 1 11q22 41 60 40q13 -1 32 -11.5t29 -11.5q22 -1 40 19q6 6 8 5q3 -1 -1 -10q-23 -42 -57 -42q-13 0 -33 11t-31 12q-26 3 -41 -18q-4 -7 -7 -5z" />
    <glyph glyph-name="Adieresis" unicode="&#xc4;" horiz-adv-x="690" 
d="M21 56v1q0 25 16 42.5t36 18.5q17 1 27 -7t10 -23q0 -18 -23 -34q-18 -13 -18 -25q0 -17 26 -27t72 -6q94 8 208 87q-19 17 -37 48t-18 65q1 46 33.5 76t85.5 29q37 -1 65 -24t39 -48q11 11 47 44q93 84 150 115q69 38 120 38q22 0 35 -10q12 -10 7 -14q-1 0 -11 7
q-8 6 -22 6q-18 0 -32 -11q-36 -29 -81 -94q-95 -131 -187 -282q25 2 56 17q32 17 63 46q6 7 10 3q2 -2 -8 -13q-31 -29 -62 -45t-64 -18q-20 -21 -39 -25q-13 -3 -20 -0.5t-6 6.5l2 8q2 3 4.5 8l3.5 7q-29 3 -65 18q-38 15 -59 35q-119 -84 -221 -92q-61 -5 -102 14t-41 59
zM558 99q59 92 121 172q82 107 161 145v1q-36 -3 -95 -35q-50 -28 -134 -103l-63 -59q11 -30 13 -65q2 -29 -3 -56zM440 286h-1q-37 0 -58.5 -27t-23.5 -65q-1 -28 9.5 -55.5t23.5 -43.5l73 62l71 64q-35 65 -94 65zM397 86q15 -17 52 -35q36 -16 65 -19q4 8 16 26.5
l14 21.5q10 20 6 74q-3 39 -11 58l-70 -64zM887 482q-8 12 0 33q8 19 38 19q12 0 15.5 -7.5t-5.5 -18.5t-23.5 -18.5t-24.5 -7.5zM778 482q-9 11 -1 33q8 19 37 19q12 0 15 -7.5t-5 -18.5q-8 -10 -23 -18t-23 -8z" />
    <glyph glyph-name="Aring" unicode="&#xc5;" horiz-adv-x="690" 
d="M21 56v1q0 25 16 42.5t36 18.5q17 1 27 -7t10 -23q0 -18 -23 -34q-18 -13 -18 -25q0 -17 26 -27t72 -6q94 8 208 87q-19 17 -37 48t-18 65q1 46 33.5 76t85.5 29q37 -1 65 -24t39 -48q11 11 47 44q93 84 150 115q69 38 120 38q22 0 35 -10q12 -10 7 -14q-1 0 -11 7
q-8 6 -22 6q-18 0 -32 -11q-36 -29 -81 -94q-95 -131 -187 -282q25 2 56 17q32 17 63 46q6 7 10 3q2 -2 -8 -13q-31 -29 -62 -45t-64 -18q-20 -21 -39 -25q-13 -3 -20 -0.5t-6 6.5l2 8q2 3 4.5 8l3.5 7q-29 3 -65 18q-38 15 -59 35q-119 -84 -221 -92q-61 -5 -102 14t-41 59
zM558 99q59 92 121 172q82 107 161 145v1q-36 -3 -95 -35q-50 -28 -134 -103l-63 -59q11 -30 13 -65q2 -29 -3 -56zM440 286h-1q-37 0 -58.5 -27t-23.5 -65q-1 -28 9.5 -55.5t23.5 -43.5l73 62l71 64q-35 65 -94 65zM397 86q15 -17 52 -35q36 -16 65 -19q4 8 16 26.5
l14 21.5q10 20 6 74q-3 39 -11 58l-70 -64zM869 478q-19 0 -31 12.5t-12 31.5q0 18 12.5 31.5t30.5 13.5t31 -13.5t13 -31.5q0 -19 -13 -31.5t-31 -12.5zM869 498q11 0 18 7t7 18q0 9 -7.5 16.5t-17.5 7.5q-11 0 -17.5 -7t-6.5 -17q0 -25 24 -25z" />
    <glyph glyph-name="AE" unicode="&#xc6;" horiz-adv-x="913" 
d="M885 216v1q0 10 -38 13q-27 2 -47 -1q4 -10 17.5 -17t27.5 -8q40 -2 40 12zM578 105q20 51 73 85q47 31 112 42q-10 10 -5.5 43.5t28.5 61.5q22 26 60 44.5t71 24.5v1q-8 1 -25 1q-66 0 -132 -33q-80 -40 -148 -98q-24 -20 -61 -55q27 -54 27 -117zM440 285h-1
q-37 0 -58.5 -27t-23.5 -65q-1 -28 9.5 -55.5t23.5 -43.5q61 50 145 132q-35 59 -95 59zM569 54q-2 13 2 31q-3 71 -29 129q-78 -74 -145 -129q33 -35 103 -41q38 -3 69 10zM843 23q-69 -48 -143 -51q-51 -2 -87.5 16t-42.5 56q-27 -13 -70 -11q-76 4 -116 42
q-115 -84 -220 -92q-61 -5 -102 14t-41 59q0 26 16 43.5t36 18.5q17 1 27 -7.5t10 -23.5q-1 -17 -23 -33q-19 -13 -18 -25q0 -17 26 -27t72 -6q96 9 207 87q-18 14 -36 46.5t-18 66.5q1 46 33.5 76t85.5 29q32 -1 60 -20t45 -47q27 26 59 53q72 62 151 99q67 31 139 31
q22 0 43 -7q34 5 59 4q50 -2 79 -19.5t29 -42.5q0 -37 -45.5 -56.5t-102.5 -13.5q-41 4 -56 24q-4 6 -2 7l7 -5q18 -15 49 -18q50 -4 88.5 12.5t38.5 47.5q0 23 -20 39.5t-62 16.5q-40 0 -82 -21q-37 -17 -74 -54q-43 -46 -43 -94q21 4 49 2q56 -2 56 -24q0 -19 -55 -19
q-58 0 -81 28q-117 -37 -139 -142q-9 -46 12 -70.5t68 -24.5q63 0 130 45q32 22 71 58q10 9 13 6t-9 -14q-44 -41 -71 -59z" />
    <glyph glyph-name="Ccedilla" unicode="&#xc7;" horiz-adv-x="390" 
d="M25 67q-2 61 46 126.5t118 116.5q-25 32 -25 63q0 41 30 67t72 26q36 0 69.5 -17t53.5 -46q26 8 53 9q54 3 89 -15t27 -60q-8 -43 -67.5 -67.5t-124.5 -24.5q-98 0 -151 40q-57 -51 -93.5 -113.5t-36.5 -110.5q0 -81 86 -81q67 0 145 52q30 21 62 50q19 17 22 14
q2 -2 -8 -13q-46 -43 -72 -60q-75 -53 -151 -57q-38 0 -56 4q-18 -15 -22 -22q6 2 11 2q22 0 35.5 -10t10.5 -27q-2 -18 -23.5 -30.5t-49.5 -11.5q-40 1 -57 25q-8 11 -3 15q1 0 8 -7q23 -16 49 -16q15 1 27 8t14 19q2 10 -5 17t-21 6q-4 0 -8.5 -1.5l-6 -2t-3.5 0.5
q-4 2 3 9q14 14 30 28q-73 19 -77 95zM368 255q56 0 100.5 24t52.5 60q7 33 -13.5 50t-61.5 16q-29 0 -53 -10q14 -24 17 -55q2 -25 -3 -25q-1 0 -1 2t-1 7t-2 11q-6 31 -24 55q-82 -31 -156 -98q50 -37 145 -37zM258 453q-34 0 -57.5 -22.5t-23.5 -58.5q0 -30 20 -56
q86 57 176 83q-49 54 -115 54z" />
    <glyph glyph-name="Egrave" unicode="&#xc8;" horiz-adv-x="390" 
d="M225 263q0 28 22 59q-43 33 -43 74q0 30 20.5 48t53.5 20q31 2 65 -13t57 -42q41 7 74 6q49 -2 76 -20t27 -43q0 -33 -44.5 -57t-105.5 -24q-84 0 -140 28q-9 -13 -15 -30q-6 -18 -3 -32q26 5 49 3q57 -2 54 -25q-3 -19 -55 -19q-59 0 -80 27q-47 -17 -91 -60
q-56 -53 -59 -110q-1 -34 21.5 -53.5t60.5 -19.5q69 0 147 52q32 22 71 58q10 9 13 6t-9 -14q-44 -41 -71 -59q-75 -53 -151 -57q-66 -3 -104.5 20t-38.5 69q-1 55 56 104.5t150 70.5q-7 11 -7 33zM425 281q52 0 89.5 19.5t38.5 51.5q2 21 -16.5 37t-59.5 18q-33 0 -68 -12
q10 -20 13 -44q3 -26 -2 -26q-1 0 -1.5 1.5t-1 7t-2.5 11.5q-5 22 -22 44q-36 -17 -73 -51q-14 -12 -28 -31q52 -26 133 -26zM381 405q-19 23 -48 37t-57 13q-27 -2 -45 -17t-18 -41q0 -34 40 -67q8 11 21 22q42 36 107 53zM271 230q6 -23 47 -25q36 -2 36 13q0 12 -36 14
q-21 2 -47 -2zM434 524q-23 15 -12 34q5 7 11 7t13 -6q35 -30 90 -69q8 -6 6 -8q-2 -3 -12 0q-66 23 -96 42z" />
    <glyph glyph-name="Eacute" unicode="&#xc9;" horiz-adv-x="390" 
d="M225 263q0 28 22 59q-43 33 -43 74q0 30 20.5 48t53.5 20q31 2 65 -13t57 -42q41 7 74 6q49 -2 76 -20t27 -43q0 -33 -44.5 -57t-105.5 -24q-84 0 -140 28q-9 -13 -15 -30q-6 -18 -3 -32q26 5 49 3q57 -2 54 -25q-3 -19 -55 -19q-59 0 -80 27q-47 -17 -91 -60
q-56 -53 -59 -110q-1 -34 21.5 -53.5t60.5 -19.5q69 0 147 52q32 22 71 58q10 9 13 6t-9 -14q-44 -41 -71 -59q-75 -53 -151 -57q-66 -3 -104.5 20t-38.5 69q-1 55 56 104.5t150 70.5q-7 11 -7 33zM425 281q52 0 89.5 19.5t38.5 51.5q2 21 -16.5 37t-59.5 18q-33 0 -68 -12
q10 -20 13 -44q3 -26 -2 -26q-1 0 -1.5 1.5t-1 7t-2.5 11.5q-5 22 -22 44q-36 -17 -73 -51q-14 -12 -28 -31q52 -26 133 -26zM381 405q-19 23 -48 37t-57 13q-27 -2 -45 -17t-18 -41q0 -34 40 -67q8 11 21 22q42 36 107 53zM271 230q6 -23 47 -25q36 -2 36 13q0 12 -36 14
q-21 2 -47 -2zM444 480q-1 3 8 8q48 20 120 66q7 4 13 4q8 0 10 -11q3 -17 -21 -30q-42 -20 -118 -37q-11 -4 -12 0z" />
    <glyph glyph-name="Ecircumflex" unicode="&#xca;" horiz-adv-x="390" 
d="M225 263q0 28 22 59q-43 33 -43 74q0 30 20.5 48t53.5 20q31 2 65 -13t57 -42q41 7 74 6q49 -2 76 -20t27 -43q0 -33 -44.5 -57t-105.5 -24q-84 0 -140 28q-9 -13 -15 -30q-6 -18 -3 -32q26 5 49 3q57 -2 54 -25q-3 -19 -55 -19q-59 0 -80 27q-47 -17 -91 -60
q-56 -53 -59 -110q-1 -34 21.5 -53.5t60.5 -19.5q69 0 147 52q32 22 71 58q10 9 13 6t-9 -14q-44 -41 -71 -59q-75 -53 -151 -57q-66 -3 -104.5 20t-38.5 69q-1 55 56 104.5t150 70.5q-7 11 -7 33zM425 281q52 0 89.5 19.5t38.5 51.5q2 21 -16.5 37t-59.5 18q-33 0 -68 -12
q10 -20 13 -44q3 -26 -2 -26q-1 0 -1.5 1.5t-1 7t-2.5 11.5q-5 22 -22 44q-36 -17 -73 -51q-14 -12 -28 -31q52 -26 133 -26zM381 405q-19 23 -48 37t-57 13q-27 -2 -45 -17t-18 -41q0 -34 40 -67q8 11 21 22q42 36 107 53zM271 230q6 -23 47 -25q36 -2 36 13q0 12 -36 14
q-21 2 -47 -2zM436 470q-10 -3 -11 1q-1 3 7 7q82 49 109 70q6 4 10 4t6 -6q14 -33 34 -66q3 -7 3 -8q-3 -2 -12 3q-21 13 -43 36q-37 -19 -103 -41z" />
    <glyph glyph-name="Edieresis" unicode="&#xcb;" horiz-adv-x="390" 
d="M225 263q0 28 22 59q-43 33 -43 74q0 30 20.5 48t53.5 20q31 2 65 -13t57 -42q41 7 74 6q49 -2 76 -20t27 -43q0 -33 -44.5 -57t-105.5 -24q-84 0 -140 28q-9 -13 -15 -30q-6 -18 -3 -32q26 5 49 3q57 -2 54 -25q-3 -19 -55 -19q-59 0 -80 27q-47 -17 -91 -60
q-56 -53 -59 -110q-1 -34 21.5 -53.5t60.5 -19.5q69 0 147 52q32 22 71 58q10 9 13 6t-9 -14q-44 -41 -71 -59q-75 -53 -151 -57q-66 -3 -104.5 20t-38.5 69q-1 55 56 104.5t150 70.5q-7 11 -7 33zM425 281q52 0 89.5 19.5t38.5 51.5q2 21 -16.5 37t-59.5 18q-33 0 -68 -12
q10 -20 13 -44q3 -26 -2 -26q-1 0 -1.5 1.5t-1 7t-2.5 11.5q-5 22 -22 44q-36 -17 -73 -51q-14 -12 -28 -31q52 -26 133 -26zM381 405q-19 23 -48 37t-57 13q-27 -2 -45 -17t-18 -41q0 -34 40 -67q8 11 21 22q42 36 107 53zM271 230q6 -23 47 -25q36 -2 36 13q0 12 -36 14
q-21 2 -47 -2zM553 482q-8 12 0 33q8 19 38 19q12 0 15.5 -7.5t-5.5 -18.5t-23.5 -18.5t-24.5 -7.5zM444 482q-9 11 -1 33q8 19 37 19q12 0 15 -7.5t-5 -18.5q-8 -10 -23 -18t-23 -8z" />
    <glyph glyph-name="Igrave" unicode="&#xcc;" horiz-adv-x="440" 
d="M613 413q-11 -3 -39.5 -9.5t-43.5 -10.5q-96 -25 -147 -55q-25 -15 -45 -37.5t-20 -43.5q0 -26 27 -26q14 0 27 9q9 6 10 5q2 -3 -5 -10q-14 -14 -36 -14t-34.5 12t-12.5 30q0 53 87 93q51 25 147 47q86 20 92 23q16 7 20 6q6 -2 5 -8t-7 -8q-40 -18 -93 -92
q-6 -8 -40 -59t-50 -73q-164 -210 -351 -210q-50 0 -86 19t-36 59q0 22 15.5 41t40.5 19q16 0 25.5 -9.5t8.5 -25.5q-2 -16 -19 -30q-1 -1 -5 -4.5t-5.5 -5.5t-4 -5t-3.5 -7t-1 -8q0 -14 18.5 -23.5t48.5 -9.5q76 0 147.5 52t148.5 149q5 6 45.5 57.5l56.5 70.5q25 29 57 55
t57 37zM548 524q-23 15 -12 34q5 7 11 7q5 0 13 -6q35 -30 90 -69q8 -6 6 -8q-2 -3 -12 0q-66 23 -96 42z" />
    <glyph glyph-name="Iacute" unicode="&#xcd;" horiz-adv-x="440" 
d="M613 413q-11 -3 -39.5 -9.5t-43.5 -10.5q-96 -25 -147 -55q-25 -15 -45 -37.5t-20 -43.5q0 -26 27 -26q14 0 27 9q9 6 10 5q2 -3 -5 -10q-14 -14 -36 -14t-34.5 12t-12.5 30q0 53 87 93q51 25 147 47q86 20 92 23q16 7 20 6q6 -2 5 -8t-7 -8q-40 -18 -93 -92
q-6 -8 -40 -59t-50 -73q-164 -210 -351 -210q-50 0 -86 19t-36 59q0 22 15.5 41t40.5 19q16 0 25.5 -9.5t8.5 -25.5q-2 -16 -19 -30q-1 -1 -5 -4.5t-5.5 -5.5t-4 -5t-3.5 -7t-1 -8q0 -14 18.5 -23.5t48.5 -9.5q76 0 147.5 52t148.5 149q5 6 45.5 57.5l56.5 70.5q25 29 57 55
t57 37zM535 480q-1 3 8 8q48 20 120 66q7 4 13 4q8 0 10 -11q3 -17 -21 -30q-42 -20 -118 -37q-11 -4 -12 0z" />
    <glyph glyph-name="Icircumflex" unicode="&#xce;" horiz-adv-x="440" 
d="M613 413q-11 -3 -39.5 -9.5t-43.5 -10.5q-96 -25 -147 -55q-25 -15 -45 -37.5t-20 -43.5q0 -26 27 -26q14 0 27 9q9 6 10 5q2 -3 -5 -10q-14 -14 -36 -14t-34.5 12t-12.5 30q0 53 87 93q51 25 147 47q86 20 92 23q16 7 20 6q6 -2 5 -8t-7 -8q-40 -18 -93 -92
q-6 -8 -40 -59t-50 -73q-164 -210 -351 -210q-50 0 -86 19t-36 59q0 22 15.5 41t40.5 19q16 0 25.5 -9.5t8.5 -25.5q-2 -16 -19 -30q-1 -1 -5 -4.5t-5.5 -5.5t-4 -5t-3.5 -7t-1 -8q0 -14 18.5 -23.5t48.5 -9.5q76 0 147.5 52t148.5 149q5 6 45.5 57.5l56.5 70.5q25 29 57 55
t57 37zM540 470q-10 -3 -11 1q-1 3 7 7q82 49 109 70q6 4 10 4t6 -6q14 -33 34 -66q3 -7 3 -8q-3 -2 -12 3q-21 13 -43 36q-37 -19 -103 -41z" />
    <glyph glyph-name="Idieresis" unicode="&#xcf;" horiz-adv-x="440" 
d="M613 413q-11 -3 -39.5 -9.5t-43.5 -10.5q-96 -25 -147 -55q-25 -15 -45 -37.5t-20 -43.5q0 -26 27 -26q14 0 27 9q9 6 10 5q2 -3 -5 -10q-14 -14 -36 -14t-34.5 12t-12.5 30q0 53 87 93q51 25 147 47q86 20 92 23q16 7 20 6q6 -2 5 -8t-7 -8q-40 -18 -93 -92
q-6 -8 -40 -59t-50 -73q-164 -210 -351 -210q-50 0 -86 19t-36 59q0 22 15.5 41t40.5 19q16 0 25.5 -9.5t8.5 -25.5q-2 -16 -19 -30q-1 -1 -5 -4.5t-5.5 -5.5t-4 -5t-3.5 -7t-1 -8q0 -14 18.5 -23.5t48.5 -9.5q76 0 147.5 52t148.5 149q5 6 45.5 57.5l56.5 70.5q25 29 57 55
t57 37zM665 482q-8 12 0 33q8 19 38 19q12 0 15.5 -7.5t-5.5 -18.5t-23.5 -18.5t-24.5 -7.5zM556 482q-9 11 -1 33q8 19 37 19q12 0 15 -7.5t-5 -18.5q-8 -10 -23 -18t-23 -8z" />
    <glyph glyph-name="Eth" unicode="&#xd0;" horiz-adv-x="673" 
d="M482 173q40 0 65 -1q10 0 10 -4q0 -3 -10 -3q-30 -1 -73 -1q-53 -64 -105 -98t-119 -55q42 -9 84 -9q158 0 254 132q36 50 41 106t-24 94q-20 -19 -64 -80.5t-59 -80.5zM407 161h-35q-16 0 -16 6q0 7 15 7h46q2 2 6 6.5t6 7.5q90 107 165 157q-32 33 -90 50.5t-117 17.5
q-119 0 -211 -63.5t-93 -147.5q0 -34 19 -56t56 -24q76 -6 141 52q57 52 57 98q0 21 -12 33.5t-32 13.5q-38 1 -65 -26q-5 -5 -9 -11t-6 -7.5t-3 -1.5q-1 1 -0.5 3.5t4 8t8.5 11.5q30 35 74 32q24 -1 40 -16t16 -41q0 -58 -60 -108q-67 -55 -154 -51q-56 3 -86.5 27.5
t-29.5 70.5q1 58 52 107.5t130 77t164 27.5q146 0 222 -67q34 23 65 35q56 20 98 20q35 0 56 -15q14 -10 9 -15q-1 0 -2 0.5t-4 3.5t-8 6q-18 11 -51 11q-44 0 -93 -21q-39 -17 -60 -36q44 -48 45.5 -114t-34.5 -117q-40 -59 -119 -90t-161 -31q-92 0 -137 5q-56 -6 -99 -6
q-132 0 -151 9q-7 4 -7 9q3 24 145 19q55 -2 134 -15q13 4 26.5 10.5t23 12t23.5 18t20 17t21.5 22l18.5 21l20.5 24.5t18.5 23z" />
    <glyph glyph-name="Ntilde" unicode="&#xd1;" horiz-adv-x="645" 
d="M-88 48v1q0 24 17.5 42.5t38.5 18.5q18 0 28.5 -9t10.5 -24q-1 -19 -18 -33q-19 -19 -20 -27q-2 -15 15 -24t53 -9q61 0 137 31t144 84q143 109 217 249q7 14 19 32q22 30 40 31q9 1 11.5 -3t-1.5 -10q-16 -22 -24 -56q-4 -17 -13 -122q-8 -103 -28 -151h1
q119 173 221 281q116 123 195 123q29 0 45 -17t17 -39q0 -10 -3 -10l-5 10q-10 27 -57 27q-85 0 -184 -103q-104 -108 -263 -339q-16 -21 -25 -16q-10 6 -2 27q26 73 33 160q2 18 4 44t3 40.5t3.5 30.5t6.5 27h-1q-29 -55 -85.5 -116.5t-118.5 -108.5q-72 -54 -148.5 -86
t-139.5 -33q-51 -1 -87.5 17.5t-36.5 59.5zM671 482q-4 2 1 11q22 41 60 40q13 -1 32 -11.5t29 -11.5q22 -1 40 19q6 6 8 5q3 -1 -1 -10q-23 -42 -57 -42q-13 0 -33 11t-31 12q-26 3 -41 -18q-4 -7 -7 -5z" />
    <glyph glyph-name="Ograve" unicode="&#xd2;" horiz-adv-x="407" 
d="M136 52q0 -22 11 -38q5 -6 4 -7q-2 -3 -8 3q-14 14 -17 43q-6 80 65 171q54 66 118.5 106.5t108.5 35.5q47 -5 40 -72q-2 -30 -23 -76.5t-52 -84.5q-53 -65 -128.5 -107.5t-141.5 -40.5q-90 2 -100 81q-5 49 22 109t80 113q60 59 143 96.5t159 33.5q31 -2 51.5 -15.5
t22.5 -39.5q3 -29 -15 -49q-11 -13 -14 -8l8 12q14 21 10 44q-2 19 -20 30.5t-43 12.5q-61 3 -138.5 -44.5t-124.5 -99.5q-49 -56 -74 -116t-19 -101q8 -48 62 -50q103 -4 228 152q81 101 88 172q5 35 -22 38q-38 4 -97 -37t-110 -105q-74 -94 -74 -162zM380 524
q-23 15 -12 34q5 7 11 7q5 0 13 -6q35 -30 90 -69q8 -6 6 -8q-2 -3 -12 0q-66 23 -96 42z" />
    <glyph glyph-name="Oacute" unicode="&#xd3;" horiz-adv-x="407" 
d="M136 52q0 -22 11 -38q5 -6 4 -7q-2 -3 -8 3q-14 14 -17 43q-6 80 65 171q54 66 118.5 106.5t108.5 35.5q47 -5 40 -72q-2 -30 -23 -76.5t-52 -84.5q-53 -65 -128.5 -107.5t-141.5 -40.5q-90 2 -100 81q-5 49 22 109t80 113q60 59 143 96.5t159 33.5q31 -2 51.5 -15.5
t22.5 -39.5q3 -29 -15 -49q-11 -13 -14 -8l8 12q14 21 10 44q-2 19 -20 30.5t-43 12.5q-61 3 -138.5 -44.5t-124.5 -99.5q-49 -56 -74 -116t-19 -101q8 -48 62 -50q103 -4 228 152q81 101 88 172q5 35 -22 38q-38 4 -97 -37t-110 -105q-74 -94 -74 -162zM359 480q-1 3 8 8
q48 20 120 66q7 4 13 4q8 0 10 -11q3 -17 -21 -30q-42 -20 -118 -37q-11 -4 -12 0z" />
    <glyph glyph-name="Ocircumflex" unicode="&#xd4;" horiz-adv-x="407" 
d="M136 52q0 -22 11 -38q5 -6 4 -7q-2 -3 -8 3q-14 14 -17 43q-6 80 65 171q54 66 118.5 106.5t108.5 35.5q47 -5 40 -72q-2 -30 -23 -76.5t-52 -84.5q-53 -65 -128.5 -107.5t-141.5 -40.5q-90 2 -100 81q-5 49 22 109t80 113q60 59 143 96.5t159 33.5q31 -2 51.5 -15.5
t22.5 -39.5q3 -29 -15 -49q-11 -13 -14 -8l8 12q14 21 10 44q-2 19 -20 30.5t-43 12.5q-61 3 -138.5 -44.5t-124.5 -99.5q-49 -56 -74 -116t-19 -101q8 -48 62 -50q103 -4 228 152q81 101 88 172q5 35 -22 38q-38 4 -97 -37t-110 -105q-74 -94 -74 -162zM343 470
q-10 -3 -11 1q-1 3 7 7q82 49 109 70q6 4 10 4t6 -6q14 -33 34 -66q4 -7 3 -8q-3 -2 -12 3q-21 13 -43 36q-37 -19 -103 -41z" />
    <glyph glyph-name="Otilde" unicode="&#xd5;" horiz-adv-x="407" 
d="M136 52q0 -22 11 -38q5 -6 4 -7q-2 -3 -8 3q-14 14 -17 43q-6 80 65 171q54 66 118.5 106.5t108.5 35.5q47 -5 40 -72q-2 -30 -23 -76.5t-52 -84.5q-53 -65 -128.5 -107.5t-141.5 -40.5q-90 2 -100 81q-5 49 22 109t80 113q60 59 143 96.5t159 33.5q31 -2 51.5 -15.5
t22.5 -39.5q3 -29 -15 -49q-11 -13 -14 -8l8 12q14 21 10 44q-2 19 -20 30.5t-43 12.5q-61 3 -138.5 -44.5t-124.5 -99.5q-49 -56 -74 -116t-19 -101q8 -48 62 -50q103 -4 228 152q81 101 88 172q5 35 -22 38q-38 4 -97 -37t-110 -105q-74 -94 -74 -162zM357 482q-4 2 1 11
q22 41 60 40q13 -1 32 -11.5t29 -11.5q22 -1 40 19q6 6 8 5q3 -1 -1 -10q-23 -42 -57 -42q-13 0 -33 11t-31 12q-26 3 -41 -18q-4 -7 -7 -5z" />
    <glyph glyph-name="Odieresis" unicode="&#xd6;" horiz-adv-x="407" 
d="M136 52q0 -22 11 -38q5 -6 4 -7q-2 -3 -8 3q-14 14 -17 43q-6 80 65 171q54 66 118.5 106.5t108.5 35.5q47 -5 40 -72q-2 -30 -23 -76.5t-52 -84.5q-53 -65 -128.5 -107.5t-141.5 -40.5q-90 2 -100 81q-5 49 22 109t80 113q60 59 143 96.5t159 33.5q31 -2 51.5 -15.5
t22.5 -39.5q3 -29 -15 -49q-11 -13 -14 -8l8 12q14 21 10 44q-2 19 -20 30.5t-43 12.5q-61 3 -138.5 -44.5t-124.5 -99.5q-49 -56 -74 -116t-19 -101q8 -48 62 -50q103 -4 228 152q81 101 88 172q5 35 -22 38q-38 4 -97 -37t-110 -105q-74 -94 -74 -162zM472 482q-8 12 0 33
q8 19 38 19q12 0 15.5 -7.5t-5.5 -18.5t-23.5 -18.5t-24.5 -7.5zM363 482q-9 11 -1 33q8 19 37 19q12 0 15 -7.5t-5 -18.5q-8 -10 -23 -18t-23 -8z" />
    <glyph glyph-name="multiply" unicode="&#xd7;" horiz-adv-x="314" 
d="M174 140l100 77q34 25 51 23q12 -1 12 -4q1 -5 -30 -27q-6 -5 -128 -88q6 -28 20 -88q4 -16 0 -19q-3 -1 -5 1.5t-5 9.5l-29 83l-129 -87q-20 -13 -22 -9q-3 3 12 14l133 99q-20 55 -28 79q-9 22 9 33q16 9 20 -11q2 -7 8 -36.5t11 -49.5z" />
    <glyph glyph-name="Oslash" unicode="&#xd8;" horiz-adv-x="407" 
d="M449 398l-356 -397q14 -7 30 -7q103 -4 228 152q75 94 88 169q4 18 0 33q-1 6 -3 11t-2.5 5.5t0.5 2.5q2 1 6 -3.5t8 -15.5q11 -27 8 -54q-2 -30 -22 -76.5t-51 -84.5q-53 -64 -128.5 -107t-141.5 -41q-16 0 -31 4l-72 -74q-8 -8 -11 -5q-2 3 5 12l64 71q-47 17 -55 73
q-5 49 22 108t80 114q60 62 143 98t159 32q13 0 25 -4l59 68q11 12 18 8q6 -4 -4 -16l-57 -66q31 -15 33 -45q3 -27 -16 -48q-10 -12 -13 -9v1q1 1 3 4t5 7q13 22 10 44q-2 25 -31 36zM82 8l351 395q-8 2 -16 2q-61 3 -138.5 -44.5t-124.5 -99.5q-49 -56 -74 -116t-19 -101
q4 -24 21 -36z" />
    <glyph glyph-name="Ugrave" unicode="&#xd9;" horiz-adv-x="553" 
d="M407 134q-51 -51 -118.5 -97t-111.5 -46q-50 0 -44 46q4 29 33 68.5t94 112.5q99 113 111 153q6 21 -7.5 30.5t-35.5 9.5q-39 0 -86 -23t-88 -64q-80 -78 -80 -130q0 -41 36 -41q20 0 36 10q5 3 10 7q3 4 5 3t-2 -6.5t-10 -9.5q-19 -13 -41 -13q-45 2 -50 49
q-2 34 18.5 74t58.5 75q42 39 96.5 58.5t96.5 19.5q37 0 59.5 -14.5t21.5 -42.5q-1 -48 -97 -157q-66 -73 -95 -111t-32 -61q-4 -22 14 -24q31 -4 110 54q75 55 147 140q98 112 183 178q57 43 81 41q13 -3 10.5 -15.5t-16.5 -29.5q-23 -25 -75 -63q-68 -51 -91 -70
q-8 -9 -32 -39l-39.5 -52.5l-32 -45t-28.5 -48.5t-8 -32q0 -17 20 -17q22 0 64 31q26 18 49 40q17 15 20 12q2 -3 -10 -15q-21 -20 -53 -45q-52 -40 -88 -40q-47 0 -47 44q0 35 44 96zM574 277q11 9 33 24.5t26 18.5q36 24 66 54q10 11 15.5 19.5t6 13t-2.5 6.5
q-14 5 -54 -38q-53 -55 -90 -98zM494 512q-23 15 -12 34q5 7 11 7t13 -6q35 -30 90 -69q8 -6 6 -8q-2 -3 -12 0q-66 23 -96 42z" />
    <glyph glyph-name="Uacute" unicode="&#xda;" horiz-adv-x="553" 
d="M407 134q-51 -51 -118.5 -97t-111.5 -46q-50 0 -44 46q4 29 33 68.5t94 112.5q99 113 111 153q6 21 -7.5 30.5t-35.5 9.5q-39 0 -86 -23t-88 -64q-80 -78 -80 -130q0 -41 36 -41q20 0 36 10q5 3 10 7q3 4 5 3t-2 -6.5t-10 -9.5q-19 -13 -41 -13q-45 2 -50 49
q-2 34 18.5 74t58.5 75q42 39 96.5 58.5t96.5 19.5q37 0 59.5 -14.5t21.5 -42.5q-1 -48 -97 -157q-66 -73 -95 -111t-32 -61q-4 -22 14 -24q31 -4 110 54q75 55 147 140q98 112 183 178q57 43 81 41q13 -3 10.5 -15.5t-16.5 -29.5q-23 -25 -75 -63q-68 -51 -91 -70
q-8 -9 -32 -39l-39.5 -52.5l-32 -45t-28.5 -48.5t-8 -32q0 -17 20 -17q22 0 64 31q26 18 49 40q17 15 20 12q2 -3 -10 -15q-21 -20 -53 -45q-52 -40 -88 -40q-47 0 -47 44q0 35 44 96zM574 277q11 9 33 24.5t26 18.5q36 24 66 54q10 11 15.5 19.5t6 13t-2.5 6.5
q-14 5 -54 -38q-53 -55 -90 -98zM509 468q-1 3 8 8q48 20 120 66q7 4 13 4q8 0 10 -11q3 -17 -21 -30q-42 -20 -118 -37q-11 -4 -12 0z" />
    <glyph glyph-name="Ucircumflex" unicode="&#xdb;" horiz-adv-x="553" 
d="M407 134q-51 -51 -118.5 -97t-111.5 -46q-50 0 -44 46q4 29 33 68.5t94 112.5q99 113 111 153q6 21 -7.5 30.5t-35.5 9.5q-39 0 -86 -23t-88 -64q-80 -78 -80 -130q0 -41 36 -41q20 0 36 10q5 3 10 7q3 4 5 3t-2 -6.5t-10 -9.5q-19 -13 -41 -13q-45 2 -50 49
q-2 34 18.5 74t58.5 75q42 39 96.5 58.5t96.5 19.5q37 0 59.5 -14.5t21.5 -42.5q-1 -48 -97 -157q-66 -73 -95 -111t-32 -61q-4 -22 14 -24q31 -4 110 54q75 55 147 140q98 112 183 178q57 43 81 41q13 -3 10.5 -15.5t-16.5 -29.5q-23 -25 -75 -63q-68 -51 -91 -70
q-8 -9 -32 -39l-39.5 -52.5l-32 -45t-28.5 -48.5t-8 -32q0 -17 20 -17q22 0 64 31q26 18 49 40q17 15 20 12q2 -3 -10 -15q-21 -20 -53 -45q-52 -40 -88 -40q-47 0 -47 44q0 35 44 96zM574 277q11 9 33 24.5t26 18.5q36 24 66 54q10 11 15.5 19.5t6 13t-2.5 6.5
q-14 5 -54 -38q-53 -55 -90 -98zM475 470q-10 -3 -11 1q-1 3 7 7q82 49 109 70q6 4 10 4t6 -6q14 -33 34 -66q4 -7 3 -8q-3 -2 -12 3q-21 13 -43 36q-37 -19 -103 -41z" />
    <glyph glyph-name="Udieresis" unicode="&#xdc;" horiz-adv-x="553" 
d="M407 134q-51 -51 -118.5 -97t-111.5 -46q-50 0 -44 46q4 29 33 68.5t94 112.5q99 113 111 153q6 21 -7.5 30.5t-35.5 9.5q-39 0 -86 -23t-88 -64q-80 -78 -80 -130q0 -41 36 -41q20 0 36 10q5 3 10 7q3 4 5 3t-2 -6.5t-10 -9.5q-19 -13 -41 -13q-45 2 -50 49
q-2 34 18.5 74t58.5 75q42 39 96.5 58.5t96.5 19.5q37 0 59.5 -14.5t21.5 -42.5q-1 -48 -97 -157q-66 -73 -95 -111t-32 -61q-4 -22 14 -24q31 -4 110 54q75 55 147 140q98 112 183 178q57 43 81 41q13 -3 10.5 -15.5t-16.5 -29.5q-23 -25 -75 -63q-68 -51 -91 -70
q-8 -9 -32 -39l-39.5 -52.5l-32 -45t-28.5 -48.5t-8 -32q0 -17 20 -17q22 0 64 31q26 18 49 40q17 15 20 12q2 -3 -10 -15q-21 -20 -53 -45q-52 -40 -88 -40q-47 0 -47 44q0 35 44 96zM574 277q11 9 33 24.5t26 18.5q36 24 66 54q10 11 15.5 19.5t6 13t-2.5 6.5
q-14 5 -54 -38q-53 -55 -90 -98zM604 482q-8 12 0 33q8 19 38 19q12 0 15.5 -7.5t-5.5 -18.5t-23.5 -18.5t-24.5 -7.5zM495 482q-9 11 -1 33q8 19 37 19q12 0 15 -7.5t-5 -18.5q-8 -10 -23 -18t-23 -8z" />
    <glyph glyph-name="Yacute" unicode="&#xdd;" horiz-adv-x="499" 
d="M421 148q-55 -58 -127 -107.5t-117 -49.5q-50 0 -44 46q4 29 33 68.5t94 112.5q99 113 111 153q6 21 -7.5 30.5t-35.5 9.5q-39 0 -86 -23t-88 -64q-80 -78 -80 -130q0 -41 36 -41q22 0 36 10q2 1 4.5 3t3.5 3.5t2.5 2.5t2.5 1h2q2 -1 -2 -6.5t-10 -9.5q-19 -13 -41 -13
q-21 0 -35 13.5t-15 35.5q-2 34 19 75t58 74q42 38 96.5 58t96.5 20q37 0 59.5 -14.5t21.5 -42.5q-1 -48 -97 -157q-66 -73 -95 -111t-32 -61q-4 -22 14 -24q31 -4 110 54q79 59 147 140q96 116 157 178q46 44 74 41q14 -1 14.5 -15.5t-11.5 -29.5q-22 -28 -66 -63
q-51 -40 -81 -70l-130 -178l-87 -123q76 2 116.5 -31t31.5 -90q-2 -8 -5 -14.5t-6 -5.5q-1 0 -1 0.5t0.5 2t1 3.5t1 5.5t1.5 7.5q6 54 -33 85t-113 27q-39 -56 -107 -136q-59 -69 -126.5 -115.5t-109.5 -46.5q-17 0 -30.5 9.5t-11.5 32.5q3 39 50.5 89.5t97.5 85.5
q98 65 192 84zM566 278l51 42q41 33 58 54q27 34 13 39t-48 -38q-18 -21 -74 -97zM269 -74q-86 -19 -178 -82q-43 -29 -85 -81.5t-42 -86.5q0 -24 21 -26q24 -3 62 20q58 36 128 129zM486 480q-1 3 8 8q48 20 120 66q7 4 13 4q8 0 10 -11q3 -17 -21 -30q-42 -20 -118 -37
q-11 -4 -12 0z" />
    <glyph glyph-name="Thorn" unicode="&#xde;" horiz-adv-x="586" 
d="M210 96q-81 -48 -163 -110q-81 -65 -81 -88q0 -12 15 -12q33 2 85.5 48t143.5 162zM476 358q36 8 74 22q80 31 82 57q1 11 -5.5 16.5t-19.5 4.5q-35 -2 -82 -49q-7 -6 -49 -51zM368 224q107 94 160 94q23 0 38.5 -14.5t15.5 -44.5q0 -44 -47 -104q-52 -67 -131 -106.5
t-129 -33.5q-14 1 -24 5.5t-13 9t-1 7.5q1 1 4 -1.5t12 -6t21 -4.5q41 -4 106.5 40t115.5 108q70 89 43 121q-9 10 -23 10q-47 0 -169 -110q-3 -4 -20 -25l-21 -26l-19.5 -24l-21 -25.5l-19.5 -23t-22 -25l-21 -22.5t-23 -23.5l-22.5 -21l-24.5 -22.5q-87 -78 -149 -82
q-30 0 -30 24q0 28 85 96q82 64 185 123l28 36.5l38 48.5q66 81 120 132v1q-52 -9 -87 -9q-120 0 -120 57q0 22 20 38t46 21q33 6 33 -2q0 -1 -3.5 -1t-11.5 -0.5t-16 -3.5q-44 -16 -43 -53q3 -47 94 -47q38 0 99 11q32 35 75 67q68 53 112 54q16 1 26 -7.5t9 -22.5
q-2 -34 -93 -66q-33 -12 -81 -24q-57 -65 -101 -123z" />
    <glyph glyph-name="germandbls" unicode="&#xdf;" horiz-adv-x="339" 
d="M229 21q19 6 56 30q27 18 52 40q11 11 15 8q2 -3 -12 -17q-22 -20 -50 -39q-31 -20 -64 -34q-38 -18 -87 -18q-32 0 -45.5 18t-8.5 41q5 24 20 38.5t33 12.5q9 -1 14 -7.5t3 -13.5q-2 -12 -23 -25t-22 -29q-1 -11 6.5 -18t20.5 -7q38 0 66 49q11 19 15.5 47t-1.5 51
q-1 5 -6.5 21t-7 23t0 19t7.5 22q6 9 24 17t45 18.5t46 22.5q60 38 68 83q2 14 -4.5 22.5t-17.5 9.5q-51 5 -120 -75q-12 -13 -29.5 -37.5l-43.5 -62.5l-38 -55q-104 -147 -136 -188q-44 -56 -101 -101t-108 -45q-68 0 -72 32q-1 12 6 19.5t18 7.5q4 0 7 -1.5t5 -3t5 -5
t4 -5.5t3 -6.5t3 -5.5q12 -22 26 -22q36 0 71 30.5t91 108.5q20 27 56 82l38 58v1q-33 -27 -52 -46q-9 -9 -12 -5q-2 3 7 12l80 71q79 110 100 134q57 67 108.5 94t85.5 23q26 -2 36.5 -22t1.5 -45q-12 -37 -65 -66q-19 -11 -49 -20.5t-51 -17.5t-26 -16q-7 -6 -4 -19t7 -20
t12.5 -20.5t11.5 -20.5q27 -50 12 -88q-10 -25 -31 -39z" />
    <glyph glyph-name="agrave" unicode="&#xe0;" horiz-adv-x="287" 
d="M166 352h1q7 0 11 -10q19 -44 50 -86q5 -7 2 -9q-2 -1 -10 4q-52 43 -66 67q-5 8 -5 15t5.5 13t11.5 6zM195 133q36 38 57 38q15 1 18 -3t-5 -13q-40 -46 -56 -66q-24 -30 -35 -49q-10 -18 -3 -23q6 -5 23 4q18 9 45 31q26 21 48 41q11 10 14 7t-13 -18q-28 -26 -56 -48
q-50 -40 -86 -40q-27 0 -29 21q-2 17 14 36l-1 1q-63 -56 -110 -58q-19 -1 -31.5 8.5t-9.5 31.5q3 23 28 52l-1 1q-7 -7 -13 -12q-7 -5 -9 -3q-3 4 14 19q10 10 30 24q22 15 46 28q65 33 100 28q14 -2 20 -13.5t1 -24.5zM170 161q-29 0 -92 -63q-59 -58 -56 -79
q1 -10 13 -10q14 0 38.5 14t45.5 33q25 22 46.5 48.5t22.5 38.5q1 18 -18 18z" />
    <glyph glyph-name="aacute" unicode="&#xe1;" horiz-adv-x="287" 
d="M273 344h1q4 0 7 -5q10 -16 -7 -33q-25 -25 -83 -57q-10 -5 -12 -3q-2 3 5 10q42 40 75 79q7 9 14 9zM195 133q36 38 57 38q15 1 18 -3t-5 -13q-40 -46 -56 -66q-24 -30 -35 -49q-10 -18 -3 -23q6 -5 23 4q18 9 45 31q26 21 48 41q11 10 14 7t-13 -18q-28 -26 -56 -48
q-50 -40 -86 -40q-27 0 -29 21q-2 17 14 36l-1 1q-63 -56 -110 -58q-19 -1 -31.5 8.5t-9.5 31.5q3 23 28 52l-1 1q-7 -7 -13 -12q-7 -5 -9 -3q-3 4 14 19q10 10 30 24q22 15 46 28q65 33 100 28q14 -2 20 -13.5t1 -24.5zM170 161q-29 0 -92 -63q-59 -58 -56 -79
q1 -10 13 -10q14 0 38.5 14t45.5 33q25 22 46.5 48.5t22.5 38.5q1 18 -18 18z" />
    <glyph glyph-name="acircumflex" unicode="&#xe2;" horiz-adv-x="287" 
d="M242 321h1q3 0 5 -7q21 -46 34 -66q4 -5 2 -7q-3 -3 -11 3q-25 17 -43 42q-55 -32 -105 -47q-8 -3 -9 1q0 1 0.5 2t3 2.5t3.5 1.5q75 45 109 70q7 5 10 5zM195 133q36 38 57 38q15 1 18 -3t-5 -13q-40 -46 -56 -66q-24 -30 -35 -49q-10 -18 -3 -23q6 -5 23 4q18 9 45 31
q26 21 48 41q11 10 14 7t-13 -18q-28 -26 -56 -48q-50 -40 -86 -40q-27 0 -29 21q-2 17 14 36l-1 1q-63 -56 -110 -58q-19 -1 -31.5 8.5t-9.5 31.5q3 23 28 52l-1 1q-7 -7 -13 -12q-7 -5 -9 -3q-3 4 14 19q10 10 30 24q22 15 46 28q65 33 100 28q14 -2 20 -13.5t1 -24.5z
M170 161q-29 0 -92 -63q-59 -58 -56 -79q1 -10 13 -10q14 0 38.5 14t45.5 33q25 22 46.5 48.5t22.5 38.5q1 18 -18 18z" />
    <glyph glyph-name="atilde" unicode="&#xe3;" horiz-adv-x="287" 
d="M238 251h-1q-12 0 -32 13t-31 14q-21 2 -40 -22q-5 -7 -8 -6q-4 2 1 12q24 41 59 40q13 -1 31.5 -14t30.5 -14q20 -1 40 24q4 6 8 5t-1 -11q-21 -41 -57 -41zM195 133q36 38 57 38q15 1 18 -3t-5 -13q-40 -46 -56 -66q-24 -30 -35 -49q-10 -18 -3 -23q6 -5 23 4
q18 9 45 31q26 21 48 41q11 10 14 7t-13 -18q-28 -26 -56 -48q-50 -40 -86 -40q-27 0 -29 21q-2 17 14 36l-1 1q-63 -56 -110 -58q-19 -1 -31.5 8.5t-9.5 31.5q3 23 28 52l-1 1q-7 -7 -13 -12q-7 -5 -9 -3q-3 4 14 19q10 10 30 24q22 15 46 28q65 33 100 28q14 -2 20 -13.5
t1 -24.5zM170 161q-29 0 -92 -63q-59 -58 -56 -79q1 -10 13 -10q14 0 38.5 14t45.5 33q25 22 46.5 48.5t22.5 38.5q1 18 -18 18z" />
    <glyph glyph-name="adieresis" unicode="&#xe4;" horiz-adv-x="287" 
d="M188 298h1q10 0 12.5 -6.5t-4.5 -16.5q-18 -24 -43 -24q-9 11 0 30q6 17 34 17zM288 298h1q10 0 12.5 -6.5t-5.5 -16.5q-18 -24 -43 -24q-7 9 0 30q6 17 35 17zM195 133q36 38 57 38q15 1 18 -3t-5 -13q-40 -46 -56 -66q-24 -30 -35 -49q-10 -18 -3 -23q6 -5 23 4
q18 9 45 31q26 21 48 41q11 10 14 7t-13 -18q-28 -26 -56 -48q-50 -40 -86 -40q-27 0 -29 21q-2 17 14 36l-1 1q-63 -56 -110 -58q-19 -1 -31.5 8.5t-9.5 31.5q3 23 28 52l-1 1q-7 -7 -13 -12q-7 -5 -9 -3q-3 4 14 19q10 10 30 24q22 15 46 28q65 33 100 28q14 -2 20 -13.5
t1 -24.5zM170 161q-29 0 -92 -63q-59 -58 -56 -79q1 -10 13 -10q14 0 38.5 14t45.5 33q25 22 46.5 48.5t22.5 38.5q1 18 -18 18z" />
    <glyph glyph-name="aring" unicode="&#xe5;" horiz-adv-x="287" 
d="M218 335h1q17 0 30 -14t13 -31q0 -19 -13 -31.5t-31 -12.5q-19 0 -31.5 12.5t-12.5 31.5q0 18 13 31.5t31 13.5zM218 317h-1q-11 0 -18 -8t-7 -19t7 -18.5t19 -7.5q11 0 18.5 7.5t7.5 18.5t-7.5 19t-18.5 8zM195 133q36 38 57 38q15 1 18 -3t-5 -13q-40 -46 -56 -66
q-24 -30 -35 -49q-10 -18 -3 -23q6 -5 23 4q18 9 45 31q26 21 48 41q11 10 14 7t-13 -18q-28 -26 -56 -48q-50 -40 -86 -40q-27 0 -29 21q-2 17 14 36l-1 1q-63 -56 -110 -58q-19 -1 -31.5 8.5t-9.5 31.5q3 23 28 52l-1 1q-7 -7 -13 -12q-7 -5 -9 -3q-3 4 14 19q10 10 30 24
q22 15 46 28q65 33 100 28q14 -2 20 -13.5t1 -24.5zM170 161q-29 0 -92 -63q-59 -58 -56 -79q1 -10 13 -10q14 0 38.5 14t45.5 33q25 22 46.5 48.5t22.5 38.5q1 18 -18 18z" />
    <glyph glyph-name="ae" unicode="&#xe6;" horiz-adv-x="353" 
d="M199 6q37 0 91 37q28 19 61 48q8 7 11 4q3 -4 -8 -13q-34 -31 -59 -48q-65 -43 -115 -43q-27 0 -40 10.5t-12 30.5q0 12 7 23h-1q-61 -58 -114 -61q-19 -1 -31.5 8.5t-9.5 31.5q3 23 28 52l-1 1q-6 -6 -11 -10q-8 -7 -11 -4q-2 3 9 14q17 16 31 25q26 19 50 31
q47 25 100 27q7 0 15 -0.5t13 -2t5 -3.5q0 -3 -5 -3.5l-14.5 -1.5t-17.5 -3q-42 -8 -92 -58q-59 -58 -56 -79q1 -10 13 -10q14 0 38.5 14t45.5 33q32 28 68 66.5t44 44.5q14 12 29 13q10 1 12 -0.5t-4 -9.5q-9 -12 -19 -20q32 22 54 22q15 0 22.5 -8t6.5 -19q-2 -30 -64 -61
q-43 -21 -86 -32q-6 -12 -6 -23q0 -23 23 -23zM188 63q37 9 68 30q39 27 41 52q2 14 -12 14t-43 -28q-30 -28 -54 -68z" />
    <glyph glyph-name="ccedilla" unicode="&#xe7;" horiz-adv-x="214" 
d="M40 -9h-8q-13 -9 -26 -25q6 2 13 2q22 0 35 -10.5t10 -27.5q-3 -19 -24 -31t-50 -11q-40 1 -57 25q-9 11 -3 15q1 0 8 -7q17 -19 51 -19h1q17 0 30 9t14 22q1 11 -7.5 17.5t-24.5 5.5q-5 0 -9 -2t-5.5 -2.5t-3.5 0.5q-2 2 4 9q21 23 33 32q-38 6 -35 40q3 29 29 60l-1 1
q-5 -5 -17 -15q-10 -9 -13 -6q-2 3 6 11q15 14 37 30q23 17 48 30q60 32 92 27q34 -6 27 -38q-3 -14 -13.5 -24t-20.5 -10q-25 0 -8 29q18 31 3 33q-18 3 -62 -42q-51 -51 -56 -89q-3 -23 23 -23q39 0 92 36q24 16 60 48q8 7 11 4q3 -4 -8 -13q-34 -31 -59 -48
q-63 -43 -116 -43z" />
    <glyph glyph-name="egrave" unicode="&#xe8;" horiz-adv-x="213" 
d="M142 349h1q7 0 11 -10q19 -44 50 -86q5 -7 2 -9q-2 -1 -10 4q-52 43 -66 67q-5 7 -5 15q0 7 5.5 13t11.5 6zM59 6q37 0 91 37q31 21 61 48q8 7 11 4q3 -4 -8 -13q-31 -29 -63 -50q-61 -41 -113 -41q-27 0 -40.5 10t-12.5 30q1 28 30 62l-1 1q-8 -8 -20 -18q-7 -6 -10 -3
q-2 3 6 11q15 14 37 30q21 15 49 30q54 28 86 28h1q15 0 22.5 -8t6.5 -19q-2 -30 -64 -61q-43 -21 -86 -32q-6 -12 -6 -23q0 -23 23 -23zM48 63q37 9 68 30q39 27 41 52q2 14 -12 14q-13 0 -44 -29q-29 -27 -53 -67z" />
    <glyph glyph-name="eacute" unicode="&#xe9;" horiz-adv-x="213" 
d="M240 344h1q4 0 7 -5q10 -16 -7 -33q-25 -25 -83 -57q-10 -5 -12 -3q-2 3 5 10q42 40 75 79q7 9 14 9zM59 6q37 0 91 37q31 21 61 48q8 7 11 4q3 -4 -8 -13q-31 -29 -63 -50q-61 -41 -113 -41q-27 0 -40.5 10t-12.5 30q1 28 30 62l-1 1q-8 -8 -20 -18q-7 -6 -10 -3
q-2 3 6 11q15 14 37 30q21 15 49 30q54 28 86 28h1q15 0 22.5 -8t6.5 -19q-2 -30 -64 -61q-43 -21 -86 -32q-6 -12 -6 -23q0 -23 23 -23zM48 63q37 9 68 30q39 27 41 52q2 14 -12 14q-13 0 -44 -29q-29 -27 -53 -67z" />
    <glyph glyph-name="ecircumflex" unicode="&#xea;" horiz-adv-x="213" 
d="M205 321h1q3 0 5 -7q21 -46 34 -66q4 -5 2 -7q-3 -3 -11 3q-25 17 -43 42q-55 -32 -105 -47q-8 -3 -9 1q-1 1 7 6q75 45 109 70q7 5 10 5zM59 6q37 0 91 37q31 21 61 48q8 7 11 4q3 -4 -8 -13q-31 -29 -63 -50q-61 -41 -113 -41q-27 0 -40.5 10t-12.5 30q1 28 30 62l-1 1
q-8 -8 -20 -18q-7 -6 -10 -3q-2 3 6 11q15 14 37 30q21 15 49 30q54 28 86 28h1q15 0 22.5 -8t6.5 -19q-2 -30 -64 -61q-43 -21 -86 -32q-6 -12 -6 -23q0 -23 23 -23zM48 63q37 9 68 30q39 27 41 52q2 14 -12 14q-13 0 -44 -29q-29 -27 -53 -67z" />
    <glyph glyph-name="edieresis" unicode="&#xeb;" horiz-adv-x="213" 
d="M143 298h1q10 0 12.5 -6.5t-4.5 -16.5q-18 -24 -43 -24q-9 11 0 30q6 17 34 17zM243 298h1q10 0 12.5 -6.5t-5.5 -16.5q-18 -24 -43 -24q-8 9 0 30q6 17 35 17zM59 6q37 0 91 37q31 21 61 48q8 7 11 4q3 -4 -8 -13q-31 -29 -63 -50q-61 -41 -113 -41q-27 0 -40.5 10
t-12.5 30q1 28 30 62l-1 1q-8 -8 -20 -18q-7 -6 -10 -3q-2 3 6 11q15 14 37 30q21 15 49 30q54 28 86 28h1q15 0 22.5 -8t6.5 -19q-2 -30 -64 -61q-43 -21 -86 -32q-6 -12 -6 -23q0 -23 23 -23zM48 63q37 9 68 30q39 27 41 52q2 14 -12 14q-13 0 -44 -29q-29 -27 -53 -67z
" />
    <glyph glyph-name="igrave" unicode="&#xec;" horiz-adv-x="162" 
d="M132 345h1q7 0 11 -10q19 -44 50 -86q5 -7 2 -9q-2 -1 -10 4q-52 43 -66 67q-5 7 -5 15q0 7 5.5 13t11.5 6zM81 143q-11 -5 -44 -31q-25 -20 -35 -29q-12 -10 -15 -8q-3 3 11 16q36 32 71 56q32 22 58 22q16 0 18 -3t-7 -13q-16 -18 -53 -64q-26 -31 -36 -49
q-9 -16 -3 -22q7 -6 24 3q19 10 44 30l46 40q13 12 16 9q2 -2 -11 -16q-22 -22 -57 -50q-51 -41 -87 -41q-30 0 -30 26q0 15 15 38q30 47 75 86z" />
    <glyph glyph-name="iacute" unicode="&#xed;" horiz-adv-x="162" 
d="M212 344h1q4 0 7 -5q10 -16 -7 -33q-25 -25 -83 -57q-10 -5 -12 -3q-2 3 5 10q42 40 75 79q7 9 14 9zM81 143q-11 -5 -44 -31q-25 -20 -35 -29q-12 -10 -15 -8q-3 3 11 16q36 32 71 56q32 22 58 22q16 0 18 -3t-7 -13q-16 -18 -53 -64q-26 -31 -36 -49q-9 -16 -3 -22
q7 -6 24 3q19 10 44 30l46 40q13 12 16 9q2 -2 -11 -16q-22 -22 -57 -50q-51 -41 -87 -41q-30 0 -30 26q0 15 15 38q30 47 75 86z" />
    <glyph glyph-name="icircumflex" unicode="&#xee;" horiz-adv-x="162" 
d="M191 321h1q3 0 5 -7q21 -46 34 -66q4 -5 2 -7q-3 -3 -11 3q-25 17 -43 42q-55 -32 -105 -47q-8 -3 -9 1q-1 1 7 6q75 45 109 70q7 5 10 5zM81 143q-11 -5 -44 -31q-25 -20 -35 -29q-12 -10 -15 -8q-3 3 11 16q36 32 71 56q32 22 58 22q16 0 18 -3t-7 -13q-16 -18 -53 -64
q-26 -31 -36 -49q-9 -16 -3 -22q7 -6 24 3q19 10 44 30l46 40q13 12 16 9q2 -2 -11 -16q-22 -22 -57 -50q-51 -41 -87 -41q-30 0 -30 26q0 15 15 38q30 47 75 86z" />
    <glyph glyph-name="idieresis" unicode="&#xef;" horiz-adv-x="162" 
d="M118 298h1q10 0 12.5 -6.5t-4.5 -16.5q-18 -24 -43 -24q-9 11 0 30q6 17 34 17zM218 298h1q10 0 12.5 -6.5t-5.5 -16.5q-18 -24 -43 -24q-7 9 0 30q6 17 35 17zM81 143q-11 -5 -44 -31q-25 -20 -35 -29q-12 -10 -15 -8q-3 3 11 16q36 32 71 56q32 22 58 22q16 0 18 -3
t-7 -13q-16 -18 -53 -64q-26 -31 -36 -49q-9 -16 -3 -22q7 -6 24 3q19 10 44 30l46 40q13 12 16 9q2 -2 -11 -16q-22 -22 -57 -50q-51 -41 -87 -41q-30 0 -30 26q0 15 15 38q30 47 75 86z" />
    <glyph glyph-name="eth" unicode="&#xf0;" horiz-adv-x="262" 
d="M52 2q40 0 92 60q13 14 27 40t14 41q2 18 -16 18q-31 0 -81 -55q-19 -19 -35 -46t-17 -41q0 -17 16 -17zM159 171h15q14 -3 19.5 -14.5t2.5 -24.5q12 17 25.5 51t14.5 61q0 14 -1 20l-88 -30q-9 -2 -11 0q-3 5 9 10l88 35q-7 32 -27.5 53t-50.5 22h-10t-6 -0.5t-2 0.5
q-1 2 1 3.5t6.5 3t10.5 1.5q35 3 64 -17.5t44 -54.5q5 2 21.5 8l24.5 9q12 6 16 -3q1 -4 -3 -7t-10 -5q-37 -14 -44 -16q5 -20 5 -37q0 -55 -34.5 -109.5t-70.5 -84.5q-69 -54 -125 -54q-22 0 -35.5 11.5t-13.5 31.5q0 34 28 65l-1 1l-18 -16q-10 -9 -13 -6q-2 3 7 12
q11 11 31 25q23 16 48 29q49 26 83 27z" />
    <glyph glyph-name="ntilde" unicode="&#xf1;" horiz-adv-x="352" 
d="M279 251h-1q-12 0 -32 13t-31 14q-21 2 -40 -22q-5 -7 -8 -6q-4 2 1 12q24 41 59 40q13 -1 31.5 -14t30.5 -14q20 -1 40 24q4 6 8 5t-1 -11q-8 -15 -23 -28t-34 -13zM207 -6q-15 0 -23 6.5t-7 19.5q1 20 42 70l42 49q8 10 1 14q-6 4 -26 -6q-35 -18 -78 -51l-112 -91
q-12 -9 -26 -9q-12 0 -15 3t2 13q17 32 44 67l40 52q10 13 7 17q-4 5 -15 -1q-17 -8 -39 -27l-43 -38q-14 -12 -17 -9q-2 3 15 19q40 37 52 46q42 33 68 33q25 0 25 -22q0 -14 -21 -43l-47 -63l1 -1l92 75q73 54 109 54q34 0 31 -27q-2 -14 -40 -61q-21 -25 -33 -44
q-11 -17 -4 -22q6 -5 24 4q22 11 48 31q18 14 48 41q10 9 13 6t-8 -13q-26 -26 -60 -52q-53 -40 -90 -40z" />
    <glyph glyph-name="ograve" unicode="&#xf2;" horiz-adv-x="249" 
d="M166 349h1q7 0 11 -10q19 -44 50 -86q5 -7 2 -9q-2 -1 -10 4q-52 43 -66 67q-5 7 -5 15q0 7 5.5 13t11.5 6zM21 100l-18 -16q-10 -9 -13 -6q-2 3 7 12q11 11 31 25q23 16 48 29q49 26 83 27q15 0 15 -4q0 -1 -11 -6q-29 -13 -72 -55q-55 -55 -58 -88q-2 -17 14 -17
t42.5 17.5t50.5 43.5q2 21 18 42q13 18 32 26q3 7 3 23q0 4 -0.5 7t-1 4.5t-0.5 2.5t1 2q5 3 14 -6q15 -15 12 -35q-4 -33 -57 -81q6 -3 19 0q15 3 34 17q14 10 32 26q14 13 17 10t-13 -18q-20 -17 -32 -26q-21 -15 -38 -18q-18 -4 -27 2q-64 -49 -114 -49q-24 0 -37 11.5
t-12 32.5q2 32 32 64z" />
    <glyph glyph-name="oacute" unicode="&#xf3;" horiz-adv-x="249" 
d="M264 344h1q4 0 7 -5q10 -16 -7 -33q-25 -25 -83 -57q-10 -5 -12 -3q-2 3 5 10q42 40 75 79q7 9 14 9zM21 100l-18 -16q-10 -9 -13 -6q-2 3 7 12q11 11 31 25q23 16 48 29q49 26 83 27q15 0 15 -4q0 -1 -11 -6q-29 -13 -72 -55q-55 -55 -58 -88q-2 -17 14 -17t42.5 17.5
t50.5 43.5q2 21 18 42q13 18 32 26q3 7 3 23q0 4 -0.5 7t-1 4.5t-0.5 2.5t1 2q5 3 14 -6q15 -15 12 -35q-4 -33 -57 -81q6 -3 19 0q15 3 34 17q14 10 32 26q14 13 17 10t-13 -18q-20 -17 -32 -26q-21 -15 -38 -18q-18 -4 -27 2q-64 -49 -114 -49q-24 0 -37 11.5t-12 32.5
q2 32 32 64z" />
    <glyph glyph-name="ocircumflex" unicode="&#xf4;" horiz-adv-x="249" 
d="M225 321h1q3 0 5 -7q21 -46 34 -66q4 -5 2 -7q-3 -3 -11 3q-25 17 -43 42q-55 -32 -105 -47q-8 -3 -9 1q0 1 0.5 2t3.5 2l3 2q75 45 109 70q7 5 10 5zM21 100l-18 -16q-10 -9 -13 -6q-2 3 7 12q11 11 31 25q23 16 48 29q49 26 83 27q15 0 15 -4q0 -1 -11 -6
q-29 -13 -72 -55q-55 -55 -58 -88q-2 -17 14 -17t42.5 17.5t50.5 43.5q2 21 18 42q13 18 32 26q3 7 3 23q0 4 -0.5 7t-1 4.5t-0.5 2.5t1 2q5 3 14 -6q15 -15 12 -35q-4 -33 -57 -81q6 -3 19 0q15 3 34 17q14 10 32 26q14 13 17 10t-13 -18q-20 -17 -32 -26q-21 -15 -38 -18
q-18 -4 -27 2q-64 -49 -114 -49q-24 0 -37 11.5t-12 32.5q2 32 32 64z" />
    <glyph glyph-name="otilde" unicode="&#xf5;" horiz-adv-x="249" 
d="M230 251h-1q-12 0 -32 13t-31 14q-21 2 -40 -22q-5 -7 -8 -6q-4 2 1 12q24 41 59 40q13 -1 31.5 -14t30.5 -14q20 -1 40 24q4 6 8 5t-1 -11q-21 -41 -57 -41zM21 100l-18 -16q-10 -9 -13 -6q-2 3 7 12q11 11 31 25q23 16 48 29q49 26 83 27q15 0 15 -4q0 -1 -11 -6
q-29 -13 -72 -55q-55 -55 -58 -88q-2 -17 14 -17t42.5 17.5t50.5 43.5q2 21 18 42q13 18 32 26q3 7 3 23q0 4 -0.5 7t-1 4.5t-0.5 2.5t1 2q5 3 14 -6q15 -15 12 -35q-4 -33 -57 -81q6 -3 19 0q15 3 34 17q14 10 32 26q14 13 17 10t-13 -18q-20 -17 -32 -26q-21 -15 -38 -18
q-18 -4 -27 2q-64 -49 -114 -49q-24 0 -37 11.5t-12 32.5q2 32 32 64z" />
    <glyph glyph-name="odieresis" unicode="&#xf6;" horiz-adv-x="249" 
d="M170 298h1q10 0 12.5 -6.5t-4.5 -16.5q-18 -24 -43 -24q-9 11 0 30q6 17 34 17zM270 298h1q10 0 12.5 -6.5t-5.5 -16.5q-18 -24 -43 -24q-7 9 0 30q6 17 35 17zM21 100l-18 -16q-10 -9 -13 -6q-2 3 7 12q11 11 31 25q23 16 48 29q49 26 83 27q15 0 15 -4q0 -1 -11 -6
q-29 -13 -72 -55q-55 -55 -58 -88q-2 -17 14 -17t42.5 17.5t50.5 43.5q2 21 18 42q13 18 32 26q3 7 3 23q0 4 -0.5 7t-1 4.5t-0.5 2.5t1 2q5 3 14 -6q15 -15 12 -35q-4 -33 -57 -81q6 -3 19 0q15 3 34 17q14 10 32 26q14 13 17 10t-13 -18q-20 -17 -32 -26q-21 -15 -38 -18
q-18 -4 -27 2q-64 -49 -114 -49q-24 0 -37 11.5t-12 32.5q2 32 32 64z" />
    <glyph glyph-name="divide" unicode="&#xf7;" horiz-adv-x="319" 
d="M217 215h1q10 0 12.5 -7t-4.5 -17q-7 -9 -21 -16.5t-22 -7.5q-8 12 0 31q7 17 34 17zM311 129v-1q0 -5 -16 -5q-37 -1 -235 -3q-17 0 -12 12t22 12q169 -7 225 -9q16 0 16 -6zM167 90h1q10 0 12.5 -7t-4.5 -17q-7 -9 -21 -16t-22 -7q-8 10 0 30q7 17 34 17z" />
    <glyph glyph-name="oslash" unicode="&#xf8;" horiz-adv-x="249" 
d="M179 166h-1q-28 0 -87 -59q-36 -34 -53 -73q-5 -12 -5 -19l156 148q-3 3 -10 3zM46 1h1q17 0 43.5 17.5t49.5 43.5q2 21 18 42q13 18 32 26q5 11 3 23l-157 -147q3 -5 10 -5zM28 115q23 16 48 29q45 24 89 28q18 2 30 -3l30 29q23 22 27 19q5 -4 -16 -24l-4 -3
l-11.5 -11.5t-15.5 -14.5q16 -13 13 -36q-4 -33 -57 -81q6 -3 19 0q15 3 34 17q14 10 32 26q14 13 17 10t-13 -18q-20 -17 -32 -26q-21 -15 -38 -18q-18 -4 -27 2q-64 -49 -113 -49q-12 0 -17 2q-34 -32 -38 -36q-9 -9 -12 -5q-3 2 6 11l34 33q-25 9 -23 39q2 32 32 64l-1 1
l-18 -16q-10 -9 -13 -6q-2 3 7 12q11 11 31 25z" />
    <glyph glyph-name="ugrave" unicode="&#xf9;" horiz-adv-x="322" 
d="M167 342h1q7 0 11 -10q19 -44 50 -86q5 -7 2 -9q-2 -1 -10 4q-52 43 -66 67q-5 8 -5 15t5.5 13t11.5 6zM81 143q-12 -5 -43 -30q-24 -19 -36 -30q-12 -10 -15 -8q-3 3 11 16q36 32 71 56q32 22 58 22q16 0 18 -3t-7 -13q-17 -19 -52 -62q-31 -41 -37 -54t-1 -18
q6 -6 23 2q27 14 75 52l108 87q15 11 29 11q15 0 18.5 -2.5t-3.5 -13.5l-22.5 -27l-30.5 -37q-26 -32 -37 -51q-10 -17 -3 -22t23 3q21 10 45 30q24 19 48 41q11 11 14 7q3 -2 -8 -13q-18 -18 -61 -52q-51 -40 -86 -40q-31 0 -31 24q0 18 16 41q11 16 47 52l-1 1l-80 -63
q-73 -55 -107 -55q-16 0 -25 7.5t-8 20.5q1 17 19 41q33 44 71 80z" />
    <glyph glyph-name="uacute" unicode="&#xfa;" horiz-adv-x="322" 
d="M290 344h1q4 0 7 -5q10 -16 -7 -33q-25 -25 -83 -57q-10 -5 -12 -3q-2 3 5 10q42 40 75 79q7 9 14 9zM81 143q-12 -5 -43 -30q-24 -19 -36 -30q-12 -10 -15 -8q-3 3 11 16q36 32 71 56q32 22 58 22q16 0 18 -3t-7 -13q-17 -19 -52 -62q-31 -41 -37 -54t-1 -18q6 -6 23 2
q27 14 75 52l108 87q15 11 29 11q15 0 18.5 -2.5t-3.5 -13.5l-22.5 -27l-30.5 -37q-26 -32 -37 -51q-10 -17 -3 -22t23 3q21 10 45 30q24 19 48 41q11 11 14 7q3 -2 -8 -13q-18 -18 -61 -52q-51 -40 -86 -40q-31 0 -31 24q0 18 16 41q11 16 47 52l-1 1l-80 -63
q-73 -55 -107 -55q-16 0 -25 7.5t-8 20.5q1 17 19 41q33 44 71 80z" />
    <glyph glyph-name="ucircumflex" unicode="&#xfb;" horiz-adv-x="322" 
d="M264 326h1q3 0 5 -7q21 -46 34 -66q4 -5 2 -7q-3 -3 -11 3q-25 17 -43 42q-55 -32 -105 -47q-8 -3 -9 1q0 1 0.5 2t3.5 3l3 1q75 45 109 70q7 5 10 5zM81 143q-12 -5 -43 -30q-24 -19 -36 -30q-12 -10 -15 -8q-3 3 11 16q36 32 71 56q32 22 58 22q16 0 18 -3t-7 -13
q-17 -19 -52 -62q-31 -41 -37 -54t-1 -18q6 -6 23 2q27 14 75 52l108 87q15 11 29 11q15 0 18.5 -2.5t-3.5 -13.5l-22.5 -27l-30.5 -37q-26 -32 -37 -51q-10 -17 -3 -22t23 3q21 10 45 30q24 19 48 41q11 11 14 7q3 -2 -8 -13q-18 -18 -61 -52q-51 -40 -86 -40q-31 0 -31 24
q0 18 16 41q11 16 47 52l-1 1l-80 -63q-73 -55 -107 -55q-16 0 -25 7.5t-8 20.5q1 17 19 41q33 44 71 80z" />
    <glyph glyph-name="udieresis" unicode="&#xfc;" horiz-adv-x="322" 
d="M206 298h1q10 0 12.5 -6.5t-4.5 -16.5q-18 -24 -43 -24q-9 11 0 30q6 17 34 17zM306 298h1q10 0 12.5 -6.5t-5.5 -16.5q-18 -24 -43 -24q-7 9 0 30q6 17 35 17zM81 143q-12 -5 -43 -30q-24 -19 -36 -30q-12 -10 -15 -8q-3 3 11 16q36 32 71 56q32 22 58 22q16 0 18 -3
t-7 -13q-17 -19 -52 -62q-31 -41 -37 -54t-1 -18q6 -6 23 2q27 14 75 52l108 87q15 11 29 11q15 0 18.5 -2.5t-3.5 -13.5l-22.5 -27l-30.5 -37q-26 -32 -37 -51q-10 -17 -3 -22t23 3q21 10 45 30q24 19 48 41q11 11 14 7q3 -2 -8 -13q-18 -18 -61 -52q-51 -40 -86 -40
q-31 0 -31 24q0 18 16 41q11 16 47 52l-1 1l-80 -63q-73 -55 -107 -55q-16 0 -25 7.5t-8 20.5q1 17 19 41q33 44 71 80z" />
    <glyph glyph-name="yacute" unicode="&#xfd;" horiz-adv-x="315" 
d="M289 339h1q4 0 7 -5q10 -16 -7 -33q-25 -25 -83 -57q-10 -5 -12 -3q-2 3 5 10q42 40 75 79q7 9 14 9zM213 112l-1 1q-21 -18 -81 -64q-73 -55 -107 -55q-16 0 -24.5 7.5t-7.5 21.5q2 18 18 40q32 42 71 80q-11 -5 -44 -31q-25 -20 -35 -29q-12 -10 -15 -8q-3 3 11 16
q36 32 71 56q32 22 58 22q16 0 18 -3t-7 -13q-17 -19 -52 -62q-28 -35 -37 -54q-6 -13 -1 -18q6 -6 23 3q31 17 75 51l108 87q15 11 29 11t17.5 -2.5t-3.5 -12.5l-59 -78l-132 -177q-135 -184 -177 -256q-10 -17 -5 -20t15 8t73 101q82 114 113 154q67 85 128 146
q22 22 61 58q10 10 14 7q2 -3 -11 -16l-58 -56q-63 -65 -126 -145q-66 -87 -119 -164q-65 -92 -85 -110q-16 -14 -29 -13q-19 2 -19 21t41 85q48 75 135 196z" />
    <glyph glyph-name="thorn" unicode="&#xfe;" horiz-adv-x="327" 
d="M67 155q38 34 69 65l15.5 18.5l25.5 30l25 29.5q59 70 119 124q17 17 37 17q14 0 14 -7q-66 -68 -176 -199q-89 -104 -257 -331q-109 -148 -179 -257q-10 -16 -6 -20q4 -3 13 6q20 23 78 108l115 155q73 96 121 153q48 55 88 85q55 39 86 39q16 0 24 -7t6 -19
q-2 -14 -41 -60q-28 -32 -35 -43q-11 -17 -3 -23t27 3q21 10 46 30q23 18 48 41q9 9 13 6q2 -3 -8 -13q-29 -30 -61 -52q-53 -40 -90 -40q-18 0 -26 8.5t-6 20.5q3 24 44 67q38 42 43 50q7 10 0 13q-6 3 -22 -5q-48 -22 -104 -83q-55 -60 -145 -181q-99 -133 -121 -165
q-65 -96 -86 -113q-15 -13 -29 -10q-17 3 -17 21q0 27 38 84l140 197q99 136 211 275l-100 -91q-13 -11 -16 -8t10 15z" />
    <glyph glyph-name="ydieresis" unicode="&#xff;" horiz-adv-x="315" 
d="M198 298h1q10 0 12.5 -6.5t-4.5 -16.5q-18 -24 -43 -24q-9 11 0 30q6 17 34 17zM298 298h1q10 0 12.5 -6.5t-5.5 -16.5q-18 -24 -43 -24q-7 9 0 30q6 17 35 17zM213 112l-1 1q-21 -18 -81 -64q-73 -55 -107 -55q-16 0 -24.5 7.5t-7.5 21.5q2 18 18 40q32 42 71 80
q-11 -5 -44 -31q-25 -20 -35 -29q-12 -10 -15 -8q-3 3 11 16q36 32 71 56q32 22 58 22q16 0 18 -3t-7 -13q-17 -19 -52 -62q-28 -35 -37 -54q-6 -13 -1 -18q6 -6 23 3q31 17 75 51l108 87q15 11 29 11t17.5 -2.5t-3.5 -12.5l-59 -78l-132 -177q-135 -184 -177 -256
q-10 -17 -5 -20t15 8t73 101q82 114 113 154q67 85 128 146q22 22 61 58q10 10 14 7q2 -3 -11 -16l-58 -56q-63 -65 -126 -145q-66 -87 -119 -164q-65 -92 -85 -110q-16 -14 -29 -13q-19 2 -19 21t41 85q48 75 135 196z" />
    <glyph glyph-name="Amacron" unicode="&#x100;" horiz-adv-x="690" 
d="M21 56v1q0 25 16 42.5t36 18.5q17 1 27 -7t10 -23q0 -18 -23 -34q-18 -13 -18 -25q0 -17 26 -27t72 -6q94 8 208 87q-19 17 -37 48t-18 65q1 46 33.5 76t85.5 29q37 -1 65 -24t39 -48q11 11 47 44q93 84 150 115q69 38 120 38q22 0 35 -10q12 -10 7 -14q-1 0 -11 7
q-8 6 -22 6q-18 0 -32 -11q-36 -29 -81 -94q-95 -131 -187 -282q25 2 56 17q32 17 63 46q6 7 10 3q2 -2 -8 -13q-31 -29 -62 -45t-64 -18q-20 -21 -39 -25q-13 -3 -20 -0.5t-6 6.5l2 8q2 3 4.5 8l3.5 7q-29 3 -65 18q-38 15 -59 35q-119 -84 -221 -92q-61 -5 -102 14t-41 59
zM558 99q59 92 121 172q82 107 161 145v1q-36 -3 -95 -35q-50 -28 -134 -103l-63 -59q11 -30 13 -65q2 -29 -3 -56zM440 286h-1q-37 0 -58.5 -27t-23.5 -65q-1 -28 9.5 -55.5t23.5 -43.5l73 62l71 64q-35 65 -94 65zM397 86q15 -17 52 -35q36 -16 65 -19q4 8 16 26.5
l14 21.5q10 20 6 74q-3 39 -11 58l-70 -64zM783 491q-8 0 -9.5 0.5t1.5 5.5q14 18 29 19q51 6 124 4q15 0 15 -8q0 -5 -6 -11q-11 -12 -20 -12q-95 4 -134 2z" />
    <glyph glyph-name="amacron" unicode="&#x101;" horiz-adv-x="287" 
d="M290 277v-1q0 -2 -4 -6q-12 -11 -20 -11q-78 2 -134 0q-7 0 -8.5 0.5t0.5 5.5q8 10 29 13q62 7 124 4q13 -1 13 -5zM195 133q36 38 57 38q15 1 18 -3t-5 -13q-40 -46 -56 -66q-24 -30 -35 -49q-10 -18 -3 -23q6 -5 23 4q18 9 45 31q26 21 48 41q11 10 14 7t-13 -18
q-28 -26 -56 -48q-50 -40 -86 -40q-27 0 -29 21q-2 17 14 36l-1 1q-63 -56 -110 -58q-19 -1 -31.5 8.5t-9.5 31.5q3 23 28 52l-1 1q-7 -7 -13 -12q-7 -5 -9 -3q-3 4 14 19q10 10 30 24q22 15 46 28q65 33 100 28q14 -2 20 -13.5t1 -24.5zM170 161q-29 0 -92 -63
q-59 -58 -56 -79q1 -10 13 -10q14 0 38.5 14t45.5 33q25 22 46.5 48.5t22.5 38.5q1 18 -18 18z" />
    <glyph glyph-name="Abreve" unicode="&#x102;" horiz-adv-x="690" 
d="M21 56v1q0 25 16 42.5t36 18.5q17 1 27 -7t10 -23q0 -18 -23 -34q-18 -13 -18 -25q0 -17 26 -27t72 -6q94 8 208 87q-19 17 -37 48t-18 65q1 46 33.5 76t85.5 29q37 -1 65 -24t39 -48q11 11 47 44q93 84 150 115q69 38 120 38q22 0 35 -10q12 -10 7 -14q-1 0 -11 7
q-8 6 -22 6q-18 0 -32 -11q-36 -29 -81 -94q-95 -131 -187 -282q25 2 56 17q32 17 63 46q6 7 10 3q2 -2 -8 -13q-31 -29 -62 -45t-64 -18q-20 -21 -39 -25q-13 -3 -20 -0.5t-6 6.5l2 8q2 3 4.5 8l3.5 7q-29 3 -65 18q-38 15 -59 35q-119 -84 -221 -92q-61 -5 -102 14t-41 59
zM558 99q59 92 121 172q82 107 161 145v1q-36 -3 -95 -35q-50 -28 -134 -103l-63 -59q11 -30 13 -65q2 -29 -3 -56zM440 286h-1q-37 0 -58.5 -27t-23.5 -65q-1 -28 9.5 -55.5t23.5 -43.5l73 62l71 64q-35 65 -94 65zM397 86q15 -17 52 -35q36 -16 65 -19q4 8 16 26.5
l14 21.5q10 20 6 74q-3 39 -11 58l-70 -64zM841 481q-21 2 -35 18t-14 36q0 11 5 11q1 0 1.5 -1.5t1.5 -3.5t2 -3q14 -23 46 -26q53 -4 90 28q6 6 9 4t-2 -9q-44 -61 -104 -54z" />
    <glyph glyph-name="abreve" unicode="&#x103;" horiz-adv-x="287" 
d="M173 314h1v-1q1 -1 1.5 -3t1.5 -4q10 -28 47 -31q27 -3 46 6t43 28q6 5 9 4q4 -3 -1 -10q-46 -61 -104 -54q-21 2 -35.5 18t-14.5 36q0 11 6 11zM195 133q36 38 57 38q15 1 18 -3t-5 -13q-40 -46 -56 -66q-24 -30 -35 -49q-10 -18 -3 -23q6 -5 23 4q18 9 45 31
q26 21 48 41q11 10 14 7t-13 -18q-28 -26 -56 -48q-50 -40 -86 -40q-27 0 -29 21q-2 17 14 36l-1 1q-63 -56 -110 -58q-19 -1 -31.5 8.5t-9.5 31.5q3 23 28 52l-1 1q-7 -7 -13 -12q-7 -5 -9 -3q-3 4 14 19q10 10 30 24q22 15 46 28q65 33 100 28q14 -2 20 -13.5t1 -24.5z
M170 161q-29 0 -92 -63q-59 -58 -56 -79q1 -10 13 -10q14 0 38.5 14t45.5 33q25 22 46.5 48.5t22.5 38.5q1 18 -18 18z" />
    <glyph glyph-name="Aogonek" unicode="&#x104;" horiz-adv-x="690" 
d="M440 286h-1q-37 0 -58.5 -27t-23.5 -65q-1 -28 9.5 -55.5t23.5 -43.5l73 62q45 39 71 64q-35 65 -94 65zM558 99q59 92 121 172q82 107 161 145v1q-36 -3 -95 -35q-52 -28 -134 -103l-63 -59q10 -25 13 -65q2 -29 -3 -56zM397 86q18 -20 52 -35q37 -16 65 -19
q4 8 16 26.5l14 21.5q10 19 6 74q-4 40 -11 58q-67 -61 -70 -64zM564 18q-18 -18 -31 -23q-56 -32 -66 -62q-7 -21 14 -23q18 -1 45 15q8 6 10 3t-4 -9q-36 -34 -73 -31q-16 2 -25 13t-4 27q10 32 80 64q-16 1 -9 15q2 3 4.5 8l3.5 7q-29 3 -65 18q-36 14 -59 35
q-119 -84 -221 -92q-61 -5 -102 14t-41 59v1q0 25 16 42.5t36 18.5q17 1 27 -7t10 -23q0 -18 -23 -34q-18 -13 -18 -25q0 -17 26 -27t72 -6q94 8 208 87q-19 17 -37 48t-18 65q1 46 33.5 76t85.5 29q37 -1 65 -24t39 -48l47 44q91 82 150 115q70 38 120 38q22 0 35 -10
q12 -10 7 -14q-1 0 -11 7q-8 6 -22 6q-18 0 -32 -11q-36 -29 -81 -94q-95 -131 -187 -282q25 2 56 17q32 17 63 46q6 7 10 3q2 -2 -8 -13q-31 -29 -62 -45t-64 -18z" />
    <glyph glyph-name="aogonek" unicode="&#x105;" horiz-adv-x="287" 
d="M170 161h-1q-28 0 -91 -63q-59 -58 -56 -79q1 -10 13 -10q14 0 38.5 14t45.5 33q25 22 46.5 48.5t22.5 38.5q1 18 -18 18zM28 115q25 17 46 28q64 34 100 28q15 -3 20.5 -14t0.5 -24q36 38 57 38q15 1 18 -3t-5 -13q-40 -46 -56 -66q-23 -27 -35 -49q-10 -18 -3 -23
q6 -5 23 4q16 7 45 31q26 21 48 41q11 10 14 7t-13 -18q-28 -26 -56 -48q-31 -25 -58 -35q-61 -32 -73 -66q-7 -21 14 -23q18 -1 45 15q8 6 10 3t-4 -9q-36 -34 -73 -31q-16 2 -25 13t-4 27q12 34 86 66h-4q-27 0 -29 21q-2 17 14 36l-1 1q-63 -56 -110 -58
q-19 -1 -31.5 8.5t-9.5 31.5q3 23 28 52l-1 1q-7 -7 -13 -12q-7 -5 -9 -3q-3 4 14 19q10 10 30 24z" />
    <glyph glyph-name="Cacute" unicode="&#x106;" horiz-adv-x="390" 
d="M266 466q36 0 69.5 -17t53.5 -46q26 8 53 9q54 3 89 -15t27 -60q-8 -43 -67.5 -67.5t-124.5 -24.5q-98 0 -151 40q-57 -51 -93.5 -113.5t-36.5 -110.5q0 -81 86 -81q67 0 145 52q30 21 62 50q19 17 22 14q2 -2 -8 -13q-46 -43 -72 -60q-75 -53 -151 -57
q-65 -2 -103.5 22.5t-40.5 78.5q-2 61 46 126.5t118 116.5q-25 32 -25 63q0 41 30 67t72 26zM368 255q56 0 100.5 24t52.5 60q7 33 -13.5 50t-61.5 16q-29 0 -53 -10q14 -24 17 -55q3 -25 -3 -25q-1 0 -1 2t-1 7t-2 11q-6 31 -24 55q-82 -31 -156 -98q50 -37 145 -37z
M258 453q-34 0 -57.5 -22.5t-23.5 -58.5q0 -30 20 -56q86 57 176 83q-49 54 -115 54zM424 480q-1 3 8 8q48 20 120 66q7 4 13 4q8 0 10 -11q3 -17 -21 -30q-42 -20 -118 -37q-11 -4 -12 0z" />
    <glyph glyph-name="cacute" unicode="&#x107;" horiz-adv-x="214" 
d="M260 334h1q4 0 7 -5q10 -16 -7 -33q-25 -25 -83 -57q-10 -5 -12 -3q-2 3 5 10q42 40 75 79q7 9 14 9zM40 -9h-1q-56 0 -53 42q3 29 29 60l-1 1q-5 -5 -17 -15q-10 -9 -13 -6q-2 3 6 11q15 14 37 30q23 17 48 30q60 32 92 27q34 -6 27 -38q-3 -14 -13.5 -24t-20.5 -10
q-25 0 -8 29q18 31 3 33q-18 3 -62 -42q-51 -51 -56 -89q-3 -23 23 -23q39 0 92 36q24 16 60 48q8 7 11 4q2 -3 -8 -13q-34 -31 -59 -48q-63 -43 -116 -43z" />
    <glyph glyph-name="Ccaron" unicode="&#x10c;" horiz-adv-x="390" 
d="M266 466q36 0 69.5 -17t53.5 -46q26 8 53 9q54 3 89 -15t27 -60q-8 -43 -67.5 -67.5t-124.5 -24.5q-98 0 -151 40q-57 -51 -93.5 -113.5t-36.5 -110.5q0 -81 86 -81q67 0 145 52q30 21 62 50q19 17 22 14q2 -2 -8 -13q-46 -43 -72 -60q-75 -53 -151 -57
q-65 -2 -103.5 22.5t-40.5 78.5q-2 61 46 126.5t118 116.5q-25 32 -25 63q0 41 30 67t72 26zM368 255q56 0 100.5 24t52.5 60q7 33 -13.5 50t-61.5 16q-29 0 -53 -10q14 -24 17 -55q3 -25 -3 -25q-1 0 -1 2t-1 7t-2 11q-6 31 -24 55q-82 -31 -156 -98q50 -37 145 -37z
M258 453q-34 0 -57.5 -22.5t-23.5 -58.5q0 -30 20 -56q86 57 176 83q-49 54 -115 54zM461 472q-3 0 -6 6q-14 31 -34 66q-4 7 -3 8q3 2 12 -3q21 -13 43 -36q37 19 103 41q9 2 10 -1t-6 -7q-82 -49 -109 -70q-5 -4 -10 -4z" />
    <glyph glyph-name="ccaron" unicode="&#x10d;" horiz-adv-x="214" 
d="M172 240h-1q-3 0 -5 7q-21 46 -34 66q-4 5 -2 7q3 3 11 -3q25 -17 43 -42q55 32 105 47q8 3 9 -1q0 -1 -0.5 -2t-3.5 -3l-3 -1q-75 -45 -109 -70q-7 -5 -10 -5zM40 -9h-1q-56 0 -53 42q3 29 29 60l-1 1q-5 -5 -17 -15q-10 -9 -13 -6q-2 3 6 11q15 14 37 30q23 17 48 30
q60 32 92 27q34 -6 27 -38q-3 -14 -13.5 -24t-20.5 -10q-25 0 -8 29q18 31 3 33q-18 3 -62 -42q-51 -51 -56 -89q-3 -23 23 -23q39 0 92 36q24 16 60 48q8 7 11 4q2 -3 -8 -13q-34 -31 -59 -48q-63 -43 -116 -43z" />
    <glyph glyph-name="Dcaron" unicode="&#x10e;" horiz-adv-x="673" 
d="M356 272v1q0 21 -12 33t-32 13q-38 1 -65 -26q-4 -4 -7 -7.5t-4.5 -5.5t-2.5 -4t-2 -2.5t-2 -0.5q-1 1 -0.5 3.5t4 8t8.5 11.5q30 35 74 32q24 -1 40 -16t16 -41q0 -58 -60 -108q-67 -55 -154 -51q-56 3 -86.5 27.5t-29.5 70.5q1 58 52 107.5t130 77t164 27.5
q146 0 222 -67q34 23 65 35q49 20 98 20q35 0 56 -15q14 -10 9 -15q-1 0 -2 0.5t-4 3.5t-8 6q-18 11 -51 11q-44 0 -93 -21q-39 -17 -60 -36q44 -48 45.5 -114t-34.5 -117q-40 -59 -119 -90t-161 -31q-70 0 -137 5q-56 -6 -99 -6q-132 0 -151 9q-7 4 -7 9q3 24 145 19
q55 -2 134 -15q29 8 59.5 30.5t43 35.5t50 58.5l41.5 50.5q90 107 165 157q-32 33 -90 50.5t-117 17.5q-119 0 -211 -63.5t-93 -147.5q0 -34 19 -56t56 -24q78 -4 141 52q57 52 57 98zM250 11q42 -9 84 -9q158 0 254 132q36 50 41 106t-24 94q-20 -19 -65.5 -82.5
l-57.5 -79.5q-56 -68 -110 -104.5t-122 -56.5zM640 452q-3 0 -6 6q-14 31 -34 66q-4 7 -3 8q3 2 12 -3q21 -13 43 -36q37 19 103 41q9 2 10 -1t-6 -7q-82 -49 -109 -70q-5 -4 -10 -4z" />
    <glyph glyph-name="dcaron" unicode="&#x10f;" horiz-adv-x="287" 
d="M170 161q-29 0 -92 -63q-59 -58 -56 -79q1 -10 13 -10q14 0 38.5 14t45.5 33q25 22 46.5 48.5t22.5 38.5q1 18 -18 18zM74 143q64 33 100 28q14 -2 19.5 -12t2.5 -22h1q44 64 128 161q55 65 119 124q17 17 37 17q13 0 15 -7q-43 -41 -114 -124q-52 -60 -125 -153
q-67 -86 -83 -115q-10 -18 -3 -23q6 -5 23 4q18 9 45 31q26 21 48 41q11 10 14 7t-13 -18q-28 -26 -56 -48q-50 -40 -86 -40q-27 0 -29 21q-2 17 14 36l-1 1q-63 -56 -110 -58q-19 -1 -31.5 8.5t-9.5 31.5q3 23 28 52l-1 1q-7 -7 -13 -12q-7 -5 -9 -3q-3 4 16 21q8 8 28 22
q25 17 46 28zM489 346q-2 2 7 11q23 23 33 44q2 4 1 10.5t0 9.5q6 17 43 19q14 0 14 -9q0 -7 -7 -15q-24 -28 -78 -64q-11 -8 -13 -6z" />
    <glyph glyph-name="Dcroat" unicode="&#x110;" horiz-adv-x="673" 
d="M482 173q40 0 65 -1q10 0 10 -4q0 -3 -10 -3q-30 -1 -73 -1q-53 -64 -105 -98t-119 -55q42 -9 84 -9q158 0 254 132q36 50 41 106t-24 94q-20 -19 -64 -80.5t-59 -80.5zM407 161h-35q-16 0 -16 6q0 7 15 7h46q2 2 6 6.5t6 7.5q90 107 165 157q-32 33 -90 50.5t-117 17.5
q-119 0 -211 -63.5t-93 -147.5q0 -34 19 -56t56 -24q76 -6 141 52q57 52 57 98q0 21 -12 33.5t-32 13.5q-38 1 -65 -26q-5 -5 -9 -11t-6 -7.5t-3 -1.5q-1 1 -0.5 3.5t4 8t8.5 11.5q30 35 74 32q24 -1 40 -16t16 -41q0 -58 -60 -108q-67 -55 -154 -51q-56 3 -86.5 27.5
t-29.5 70.5q1 58 52 107.5t130 77t164 27.5q146 0 222 -67q34 23 65 35q56 20 98 20q35 0 56 -15q14 -10 9 -15q-1 0 -2 0.5t-4 3.5t-8 6q-18 11 -51 11q-44 0 -93 -21q-39 -17 -60 -36q44 -48 45.5 -114t-34.5 -117q-40 -59 -119 -90t-161 -31q-92 0 -137 5q-56 -6 -99 -6
q-132 0 -151 9q-7 4 -7 9q3 24 145 19q55 -2 134 -15q13 4 26.5 10.5t23 12t23.5 18t20 17t21.5 22l18.5 21l20.5 24.5t18.5 23z" />
    <glyph glyph-name="dcroat" unicode="&#x111;" horiz-adv-x="287" 
d="M394 322q-63 -72 -137 -167q-67 -86 -83 -115q-10 -18 -3 -23q6 -5 23 4q18 9 45 31q26 21 48 41q11 10 14 7t-13 -18q-28 -26 -56 -48q-50 -40 -86 -40q-27 0 -29 21q-2 17 14 36l-1 1q-63 -56 -110 -58q-19 -1 -31.5 8.5t-9.5 31.5q3 23 28 52l-1 1q-7 -7 -13 -12
q-7 -5 -9 -3q-3 4 16 21q8 8 28 22q25 17 46 28q64 33 100 28q14 -2 19.5 -12t2.5 -22h1q49 70 149 185q-14 0 -41 -0.5t-41 -0.5q-16 0 -16 6q0 7 15 7q64 -2 92 -2q34 39 89 90q17 17 37 17q13 0 15 -7q-42 -40 -93 -100q67 0 86 -1q10 0 10 -4q0 -3 -10 -3
q-16 0 -47.5 -1t-47.5 -1zM170 161q-29 0 -92 -63q-59 -58 -56 -79q1 -10 13 -10q14 0 38.5 14t45.5 33q25 22 46.5 48.5t22.5 38.5q1 18 -18 18z" />
    <glyph glyph-name="Emacron" unicode="&#x112;" horiz-adv-x="390" 
d="M225 263q0 28 22 59q-43 33 -43 74q0 30 20.5 48t53.5 20q31 2 65 -13t57 -42q41 7 74 6q49 -2 76 -20t27 -43q0 -33 -44.5 -57t-105.5 -24q-84 0 -140 28q-9 -13 -15 -30q-6 -18 -3 -32q26 5 49 3q57 -2 54 -25q-3 -19 -55 -19q-59 0 -80 27q-47 -17 -91 -60
q-56 -53 -59 -110q-1 -34 21.5 -53.5t60.5 -19.5q69 0 147 52q32 22 71 58q10 9 13 6t-9 -14q-44 -41 -71 -59q-75 -53 -151 -57q-66 -3 -104.5 20t-38.5 69q-1 55 56 104.5t150 70.5q-7 11 -7 33zM425 281q52 0 89.5 19.5t38.5 51.5q2 21 -16.5 37t-59.5 18q-33 0 -68 -12
q10 -20 13 -44q3 -26 -2 -26q-1 0 -1.5 1.5t-1 7t-2.5 11.5q-5 22 -22 44q-36 -17 -73 -51q-14 -12 -28 -31q52 -26 133 -26zM381 405q-19 23 -48 37t-57 13q-27 -2 -45 -17t-18 -41q0 -34 40 -67q8 11 21 22q42 36 107 53zM271 230q6 -23 47 -25q36 -2 36 13q0 12 -36 14
q-21 2 -47 -2zM423 491q-8 0 -9.5 0.5t1.5 5.5q14 18 29 19q51 6 124 4q15 0 15 -8q0 -5 -6 -11q-11 -12 -20 -12q-95 4 -134 2z" />
    <glyph glyph-name="emacron" unicode="&#x113;" horiz-adv-x="213" 
d="M262 277v-1q0 -2 -4 -6q-12 -11 -20 -11q-78 2 -134 0q-7 0 -8.5 0.5t0.5 5.5q8 10 29 13q62 7 124 4q13 -1 13 -5zM59 6q37 0 91 37q31 21 61 48q8 7 11 4q3 -4 -8 -13q-31 -29 -63 -50q-61 -41 -113 -41q-27 0 -40.5 10t-12.5 30q1 28 30 62l-1 1q-8 -8 -20 -18
q-7 -6 -10 -3q-2 3 6 11q15 14 37 30q21 15 49 30q54 28 86 28h1q15 0 22.5 -8t6.5 -19q-2 -30 -64 -61q-43 -21 -86 -32q-6 -12 -6 -23q0 -23 23 -23zM48 63q37 9 68 30q39 27 41 52q2 14 -12 14q-13 0 -44 -29q-29 -27 -53 -67z" />
    <glyph glyph-name="Ebreve" unicode="&#x114;" horiz-adv-x="390" 
d="M225 263q0 28 22 59q-43 33 -43 74q0 30 20.5 48t53.5 20q31 2 65 -13t57 -42q41 7 74 6q49 -2 76 -20t27 -43q0 -33 -44.5 -57t-105.5 -24q-84 0 -140 28q-9 -13 -15 -30q-6 -18 -3 -32q26 5 49 3q57 -2 54 -25q-3 -19 -55 -19q-59 0 -80 27q-47 -17 -91 -60
q-56 -53 -59 -110q-1 -34 21.5 -53.5t60.5 -19.5q69 0 147 52q32 22 71 58q10 9 13 6t-9 -14q-44 -41 -71 -59q-75 -53 -151 -57q-66 -3 -104.5 20t-38.5 69q-1 55 56 104.5t150 70.5q-7 11 -7 33zM425 281q52 0 89.5 19.5t38.5 51.5q2 21 -16.5 37t-59.5 18q-33 0 -68 -12
q10 -20 13 -44q3 -26 -2 -26q-1 0 -1.5 1.5t-1 7t-2.5 11.5q-5 22 -22 44q-36 -17 -73 -51q-14 -12 -28 -31q52 -26 133 -26zM381 405q-19 23 -48 37t-57 13q-27 -2 -45 -17t-18 -41q0 -34 40 -67q8 11 21 22q42 36 107 53zM271 230q6 -23 47 -25q36 -2 36 13q0 12 -36 14
q-21 2 -47 -2zM471 481q-21 2 -35 18t-14 36q0 11 5 11q1 0 1.5 -1.5t1.5 -3.5t2 -3q14 -23 46 -26q53 -4 90 28q6 6 9 4t-2 -9q-44 -61 -104 -54z" />
    <glyph glyph-name="ebreve" unicode="&#x115;" horiz-adv-x="213" 
d="M122 314h1l1 -1q0 -1 0.5 -3t1.5 -4q10 -28 47 -31q27 -3 46 6t43 28q6 5 9 4q4 -3 -1 -10q-46 -61 -104 -54q-21 2 -35.5 18t-14.5 36q0 11 6 11zM59 6q37 0 91 37q31 21 61 48q8 7 11 4q3 -4 -8 -13q-31 -29 -63 -50q-61 -41 -113 -41q-27 0 -40.5 10t-12.5 30
q1 28 30 62l-1 1q-8 -8 -20 -18q-7 -6 -10 -3q-2 3 6 11q15 14 37 30q21 15 49 30q54 28 86 28h1q15 0 22.5 -8t6.5 -19q-2 -30 -64 -61q-43 -21 -86 -32q-6 -12 -6 -23q0 -23 23 -23zM48 63q37 9 68 30q39 27 41 52q2 14 -12 14q-13 0 -44 -29q-29 -27 -53 -67z" />
    <glyph glyph-name="Edotaccent" unicode="&#x116;" horiz-adv-x="390" 
d="M225 263q0 28 22 59q-43 33 -43 74q0 30 20.5 48t53.5 20q31 2 65 -13t57 -42q41 7 74 6q49 -2 76 -20t27 -43q0 -33 -44.5 -57t-105.5 -24q-84 0 -140 28q-9 -13 -15 -30q-6 -18 -3 -32q26 5 49 3q57 -2 54 -25q-3 -19 -55 -19q-59 0 -80 27q-47 -17 -91 -60
q-56 -53 -59 -110q-1 -34 21.5 -53.5t60.5 -19.5q69 0 147 52q32 22 71 58q10 9 13 6t-9 -14q-44 -41 -71 -59q-75 -53 -151 -57q-66 -3 -104.5 20t-38.5 69q-1 55 56 104.5t150 70.5q-7 11 -7 33zM425 281q52 0 89.5 19.5t38.5 51.5q2 21 -16.5 37t-59.5 18q-33 0 -68 -12
q10 -20 13 -44q3 -26 -2 -26q-1 0 -1.5 1.5t-1 7t-2.5 11.5q-5 22 -22 44q-36 -17 -73 -51q-14 -12 -28 -31q52 -26 133 -26zM381 405q-19 23 -48 37t-57 13q-27 -2 -45 -17t-18 -41q0 -34 40 -67q8 11 21 22q42 36 107 53zM271 230q6 -23 47 -25q36 -2 36 13q0 12 -36 14
q-21 2 -47 -2zM483 484q-10 10 -2 34q9 21 42 21q12 0 15 -8t-6 -19t-24.5 -19t-24.5 -9z" />
    <glyph glyph-name="edotaccent" unicode="&#x117;" horiz-adv-x="213" 
d="M201 300h1q11 0 14 -6.5t-5 -16.5t-22 -17.5t-21 -7.5q-9 9 -2 31q6 17 35 17zM59 6q37 0 91 37q31 21 61 48q8 7 11 4q3 -4 -8 -13q-31 -29 -63 -50q-61 -41 -113 -41q-27 0 -40.5 10t-12.5 30q1 28 30 62l-1 1q-8 -8 -20 -18q-7 -6 -10 -3q-2 3 6 11q15 14 37 30
q21 15 49 30q54 28 86 28h1q15 0 22.5 -8t6.5 -19q-2 -30 -64 -61q-43 -21 -86 -32q-6 -12 -6 -23q0 -23 23 -23zM48 63q37 9 68 30q39 27 41 52q2 14 -12 14q-13 0 -44 -29q-29 -27 -53 -67z" />
    <glyph glyph-name="Eogonek" unicode="&#x118;" horiz-adv-x="390" 
d="M425 281h1q51 0 88.5 19.5t38.5 51.5q2 21 -16.5 37t-59.5 18q-33 0 -68 -12q10 -20 13 -44q3 -26 -2 -26q-1 0 -1.5 1.5t-1 7t-2.5 11.5q-5 22 -22 44q-39 -19 -73 -51q-15 -14 -28 -31q52 -26 133 -26zM381 405q-19 23 -48 37t-57 13q-27 -2 -44.5 -17t-17.5 -41
q0 -35 39 -67q8 11 21 22q42 36 107 53zM271 230q8 -23 47 -25q36 -2 36 13q0 12 -36 14q-21 2 -47 -2zM320 23q-73 -52 -147 -57q-58 -33 -68 -64q-7 -21 14 -23q18 -1 45 15q8 6 10 3t-4 -9q-36 -34 -73 -31q-16 2 -25 13t-4 27q12 35 92 69q-63 -2 -98.5 21t-35.5 68
q-1 55 56 104.5t150 70.5q-8 14 -7 33q1 30 22 59q-44 33 -44 74q0 29 21 47.5t54 20.5q31 2 65 -13t57 -42q41 7 74 6q49 -2 76 -20t27 -43q0 -33 -44.5 -57t-105.5 -24q-84 0 -140 28q-8 -12 -15 -30q-6 -18 -3 -32q26 5 49 3q57 -2 54 -25q-3 -19 -55 -19q-59 0 -80 27
q-47 -17 -91 -60q-56 -53 -59 -110q-1 -34 21.5 -53.5t60.5 -19.5q69 0 147 52q32 22 71 58q10 9 13 6t-9 -14q-44 -41 -71 -59z" />
    <glyph glyph-name="eogonek" unicode="&#x119;" horiz-adv-x="213" 
d="M155 34q-38 -25 -67 -34q-64 -34 -75 -67q-7 -21 14 -23q18 -1 45 15q8 6 10 3t-4 -9q-36 -34 -73 -31q-16 2 -25 13t-4 27q12 33 84 65q-12 -2 -22 -2q-27 0 -40.5 10t-12.5 30q1 28 30 62l-1 1q-8 -8 -20 -18q-7 -6 -10 -3q-2 3 6 11q15 14 37 30q21 15 49 30
q54 28 86 28h1q15 0 22.5 -8t6.5 -19q-2 -30 -64 -61q-43 -21 -86 -32q-6 -12 -6 -23q0 -23 23 -23q37 0 91 37q28 19 61 48q8 7 11 4q3 -4 -8 -13q-34 -31 -59 -48zM48 63q37 9 68 30q39 27 41 52q2 14 -12 14q-13 0 -44 -29q-29 -27 -53 -67z" />
    <glyph glyph-name="Ecaron" unicode="&#x11a;" horiz-adv-x="390" 
d="M225 263q0 28 22 59q-43 33 -43 74q0 30 20.5 48t53.5 20q31 2 65 -13t57 -42q41 7 74 6q49 -2 76 -20t27 -43q0 -33 -44.5 -57t-105.5 -24q-84 0 -140 28q-9 -13 -15 -30q-6 -18 -3 -32q26 5 49 3q57 -2 54 -25q-3 -19 -55 -19q-59 0 -80 27q-47 -17 -91 -60
q-56 -53 -59 -110q-1 -34 21.5 -53.5t60.5 -19.5q69 0 147 52q32 22 71 58q10 9 13 6t-9 -14q-44 -41 -71 -59q-75 -53 -151 -57q-66 -3 -104.5 20t-38.5 69q-1 55 56 104.5t150 70.5q-7 11 -7 33zM425 281q52 0 89.5 19.5t38.5 51.5q2 21 -16.5 37t-59.5 18q-33 0 -68 -12
q10 -20 13 -44q3 -26 -2 -26q-1 0 -1.5 1.5t-1 7t-2.5 11.5q-5 22 -22 44q-36 -17 -73 -51q-14 -12 -28 -31q52 -26 133 -26zM381 405q-19 23 -48 37t-57 13q-27 -2 -45 -17t-18 -41q0 -34 40 -67q8 11 21 22q42 36 107 53zM271 230q6 -23 47 -25q36 -2 36 13q0 12 -36 14
q-21 2 -47 -2zM500 472q-3 0 -6 6q-14 31 -34 66q-4 7 -3 8q3 2 12 -3q21 -13 43 -36q37 19 103 41q9 2 10 -1t-6 -7q-82 -49 -109 -70q-5 -4 -10 -4z" />
    <glyph glyph-name="ecaron" unicode="&#x11b;" horiz-adv-x="213" 
d="M162 240h-1q-3 0 -5 7q-21 46 -34 66q-4 5 -2 7q3 3 11 -3q25 -17 43 -42q55 32 105 47q8 3 9 -1q0 -1 -0.5 -2t-3 -2.5t-3.5 -1.5q-75 -45 -109 -70q-7 -5 -10 -5zM59 6q37 0 91 37q31 21 61 48q8 7 11 4q3 -4 -8 -13q-31 -29 -63 -50q-61 -41 -113 -41q-27 0 -40.5 10
t-12.5 30q1 28 30 62l-1 1q-8 -8 -20 -18q-7 -6 -10 -3q-2 3 6 11q15 14 37 30q21 15 49 30q54 28 86 28h1q15 0 22.5 -8t6.5 -19q-2 -30 -64 -61q-43 -21 -86 -32q-6 -12 -6 -23q0 -23 23 -23zM48 63q37 9 68 30q39 27 41 52q2 14 -12 14q-13 0 -44 -29q-29 -27 -53 -67z
" />
    <glyph glyph-name="Gbreve" unicode="&#x11e;" horiz-adv-x="449" 
d="M577 367q0 -39 -35 -78.5t-89 -68.5q-85 -43 -189 -43q-50 0 -90 14q-47 -69 -53 -127q-2 -26 10.5 -42.5t35.5 -17.5q67 -1 164 101q31 31 48 31q14 0 17 -3.5t-4 -12.5q-17 -20 -50 -66l-59 -78v-1q49 27 95 61q35 26 70 56q11 10 14 7t-13 -18q-23 -21 -60 -48
q-48 -37 -117 -74q-59 -85 -124 -161q-59 -69 -127 -115.5t-109 -46.5q-19 0 -31.5 9.5t-10.5 32.5q6 64 155 158q45 28 99 58t93 54l83 115q-68 -68 -134 -73q-45 -4 -73 14t-31 58q-5 69 63 153q-55 36 -55 95q0 57 45.5 91t110.5 34q78 0 124 -49q88 39 148 39
q32 0 55.5 -13.5t23.5 -44.5zM565 369q0 45 -67 45q-61 0 -136 -44q17 -25 23 -54t0 -29q-1 0 -2 2t-2.5 9t-3.5 14q-9 28 -29 50q-54 -36 -104 -86q-36 -36 -64 -78q39 -12 83 -12q91 0 178 47q49 26 86.5 66t37.5 70zM219 423q-56 0 -97.5 -30.5t-41.5 -82.5q0 -53 51 -88
q45 52 89 85q58 44 113 71q-49 45 -114 45zM206 -68q-25 -16 -78.5 -46t-103.5 -63q-48 -31 -88.5 -73.5t-39.5 -73.5q0 -23 23 -26q24 -3 62 20q59 36 128 129q71 94 97 133zM454 481q-21 2 -35 18t-14 36q0 11 5 11q1 0 1.5 -1.5t1.5 -3.5t2 -3q14 -23 46 -26q53 -4 90 28
q6 6 9 4t-2 -9q-44 -61 -104 -54z" />
    <glyph glyph-name="gbreve" unicode="&#x11f;" horiz-adv-x="284" 
d="M141 314h1v-1q1 -1 1.5 -3t1.5 -4q10 -28 47 -31q27 -3 46 6t43 28q6 5 9 4q4 -3 -1 -10q-46 -61 -104 -54q-21 2 -35.5 18t-14.5 36q0 11 6 11zM53 -62q-24 -16 -86.5 -53.5t-113.5 -71.5q-68 -46 -113.5 -93t-48.5 -84q-1 -22 15 -27q24 -8 63 16q80 48 183 180z
M170 161q-29 0 -92 -63q-59 -58 -56 -79q1 -10 13 -10q14 0 38.5 14t45.5 33q25 22 46.5 48.5t22.5 38.5q1 18 -18 18zM74 143q64 34 100 28q27 -4 23 -34h1q30 34 48 34q28 0 13 -16q-12 -14 -52 -66l-82 -111q60 36 96 63q39 30 62 51q9 8 12 5t-10 -15q-19 -18 -59 -49
q-49 -37 -110 -71q-77 -113 -137 -179q-103 -114 -206 -168q-39 -21 -69 -21q-53 0 -47 42q9 69 202 195l203 124l67 94l-1 1q-63 -54 -108 -56q-19 -1 -31 8t-10 32q3 23 28 52l-1 1q-7 -7 -13 -12q-7 -5 -9 -3q-3 4 16 21q8 8 28 22q25 17 46 28z" />
    <glyph glyph-name="Gcommaaccent" unicode="&#x122;" horiz-adv-x="449" 
d="M577 367q0 -39 -35 -78.5t-89 -68.5q-85 -43 -189 -43q-50 0 -90 14q-47 -69 -53 -127q-2 -26 10.5 -42.5t35.5 -17.5q67 -1 164 101q31 31 48 31q14 0 17 -3.5t-4 -12.5q-17 -20 -50 -66l-59 -78v-1q49 27 95 61q35 26 70 56q11 10 14 7t-13 -18q-23 -21 -60 -48
q-48 -37 -117 -74q-59 -85 -124 -161q-59 -69 -127 -115.5t-109 -46.5q-19 0 -31.5 9.5t-10.5 32.5q6 64 155 158q45 28 99 58t93 54l83 115q-68 -68 -134 -73q-45 -4 -73 14t-31 58q-5 69 63 153q-55 36 -55 95q0 57 45.5 91t110.5 34q78 0 124 -49q88 39 148 39
q32 0 55.5 -13.5t23.5 -44.5zM565 369q0 45 -67 45q-61 0 -136 -44q17 -25 23 -54t0 -29q-1 0 -2 2t-2.5 9t-3.5 14q-9 28 -29 50q-54 -36 -104 -86q-36 -36 -64 -78q39 -12 83 -12q91 0 178 47q49 26 86.5 66t37.5 70zM219 423q-56 0 -97.5 -30.5t-41.5 -82.5q0 -53 51 -88
q45 52 89 85q58 44 113 71q-49 45 -114 45zM206 -68q-25 -16 -78.5 -46t-103.5 -63q-48 -31 -88.5 -73.5t-39.5 -73.5q0 -23 23 -26q24 -3 62 20q59 36 128 129q71 94 97 133zM45 -124q-2 2 7 11q23 23 33 44q2 4 1 10.5t0 9.5q6 17 43 19q14 0 14 -9q0 -7 -7 -15
q-24 -28 -78 -64q-11 -8 -13 -6z" />
    <glyph glyph-name="gcommaaccent" unicode="&#x123;" horiz-adv-x="284" 
d="M53 -62q-24 -16 -86.5 -53.5t-113.5 -71.5q-68 -46 -113.5 -93t-48.5 -84q-1 -22 15 -27q24 -8 63 16q80 48 183 180zM170 161q-29 0 -92 -63q-59 -58 -56 -79q1 -10 13 -10q14 0 38.5 14t45.5 33q25 22 46.5 48.5t22.5 38.5q1 18 -18 18zM74 143q64 34 100 28
q27 -4 23 -34h1q30 34 48 34q28 0 13 -16q-12 -14 -52 -66l-82 -111q60 36 96 63q39 30 62 51q9 8 12 5t-10 -15q-19 -18 -59 -49q-49 -37 -110 -71q-77 -113 -137 -179q-103 -114 -206 -168q-39 -21 -69 -21q-53 0 -47 42q9 69 202 195l203 124l67 94l-1 1
q-63 -54 -108 -56q-19 -1 -31 8t-10 32q3 23 28 52l-1 1q-7 -7 -13 -12q-7 -5 -9 -3q-3 4 16 21q8 8 28 22q25 17 46 28zM273 322q2 -2 -7 -11q-23 -23 -33 -44q-2 -5 -1.5 -10t-0.5 -10q-6 -17 -42 -19q-13 0 -13 9q0 8 7 16q34 40 78 64q11 6 12 5z" />
    <glyph glyph-name="Imacron" unicode="&#x12a;" horiz-adv-x="440" 
d="M613 413q-11 -3 -39.5 -9.5t-43.5 -10.5q-96 -25 -147 -55q-25 -15 -45 -37.5t-20 -43.5q0 -26 27 -26q14 0 27 9q9 6 10 5q2 -3 -5 -10q-14 -14 -36 -14t-34.5 12t-12.5 30q0 53 87 93q51 25 147 47q86 20 92 23q16 7 20 6q6 -2 5 -8t-7 -8q-40 -18 -93 -92
q-6 -8 -40 -59t-50 -73q-164 -210 -351 -210q-50 0 -86 19t-36 59q0 22 15.5 41t40.5 19q16 0 25.5 -9.5t8.5 -25.5q-2 -16 -19 -30q-1 -1 -5 -4.5t-5.5 -5.5t-4 -5t-3.5 -7t-1 -8q0 -14 18.5 -23.5t48.5 -9.5q76 0 147.5 52t148.5 149q5 6 45.5 57.5l56.5 70.5q25 29 57 55
t57 37zM550 491q-8 0 -9.5 0.5t1.5 5.5q14 18 29 19q51 6 124 4q15 0 15 -8q0 -5 -6 -11q-11 -12 -20 -12q-95 4 -134 2z" />
    <glyph glyph-name="imacron" unicode="&#x12b;" horiz-adv-x="162" 
d="M226 277v-1q0 -2 -4 -6q-12 -11 -20 -11q-78 2 -134 0q-7 0 -8.5 0.5t0.5 5.5q8 10 29 13q62 7 124 4q13 -1 13 -5zM81 143q-11 -5 -44 -31q-25 -20 -35 -29q-12 -10 -15 -8q-3 3 11 16q36 32 71 56q32 22 58 22q16 0 18 -3t-7 -13q-16 -18 -53 -64q-26 -31 -36 -49
q-9 -16 -3 -22q7 -6 24 3q19 10 44 30l46 40q13 12 16 9q2 -2 -11 -16q-22 -22 -57 -50q-51 -41 -87 -41q-30 0 -30 26q0 15 15 38q30 47 75 86z" />
    <glyph glyph-name="Iogonek" unicode="&#x12e;" horiz-adv-x="440" 
d="M499 321q25 29 57 55t57 37q-11 -3 -39.5 -9.5t-43.5 -10.5q-96 -25 -147 -55q-25 -15 -45 -37.5t-20 -43.5q0 -26 27 -26q14 0 27 9q9 6 10 5q2 -3 -5 -10q-14 -14 -36 -14t-34.5 12t-12.5 30q0 53 87 93q51 25 147 47q86 20 92 23q16 7 20 6q6 -2 5 -8t-7 -8
q-40 -18 -93 -92q-6 -8 -40 -59t-50 -73q-116 -150 -241 -192q-64 -34 -75 -67q-7 -21 14 -23q18 -1 45 15q8 6 10 3t-4 -9q-36 -34 -73 -31q-16 2 -25 13t-4 27q10 32 78 63q-38 -9 -76 -9q-50 0 -86 19t-36 59q0 22 15.5 41t40.5 19q16 0 25.5 -9.5t8.5 -25.5
q-2 -16 -19 -30q-1 -1 -5 -4.5t-5.5 -5.5t-4 -5t-3.5 -7t-1 -8q0 -14 18.5 -23.5t48.5 -9.5q76 0 147.5 52t148.5 149q5 6 45.5 57.5z" />
    <glyph glyph-name="iogonek" unicode="&#x12f;" horiz-adv-x="162" 
d="M210 284h1q10 0 12.5 -7.5t-5.5 -18.5t-23 -19t-24 -8q-10 12 -1 34q8 19 40 19zM69 147q32 22 58 22q16 0 18 -3t-7 -13q-25 -28 -54 -64q-22 -27 -35 -49q-9 -16 -3 -22q7 -6 24 3q19 10 44 30l46 40q13 12 16 9q2 -2 -11 -16q-22 -22 -57 -50q-34 -27 -58 -35
q-60 -34 -72 -66q-7 -21 14 -23q18 -1 45 15q8 6 10 3t-4 -9q-36 -34 -73 -31q-16 2 -25 13t-4 27q12 33 84 65h-4q-30 0 -30 26q0 15 15 38q30 47 75 86q-11 -5 -44 -31q-25 -20 -35 -29q-12 -10 -15 -8q-3 3 11 16q36 32 71 56z" />
    <glyph glyph-name="Idotaccent" unicode="&#x130;" horiz-adv-x="440" 
d="M613 413q-11 -3 -39.5 -9.5t-43.5 -10.5q-96 -25 -147 -55q-25 -15 -45 -37.5t-20 -43.5q0 -26 27 -26q14 0 27 9q9 6 10 5q2 -3 -5 -10q-14 -14 -36 -14t-34.5 12t-12.5 30q0 53 87 93q51 25 147 47q86 20 92 23q16 7 20 6q6 -2 5 -8t-7 -8q-40 -18 -93 -92
q-6 -8 -40 -59t-50 -73q-164 -210 -351 -210q-50 0 -86 19t-36 59q0 22 15.5 41t40.5 19q16 0 25.5 -9.5t8.5 -25.5q-2 -16 -19 -30q-1 -1 -5 -4.5t-5.5 -5.5t-4 -5t-3.5 -7t-1 -8q0 -14 18.5 -23.5t48.5 -9.5q76 0 147.5 52t148.5 149q5 6 45.5 57.5l56.5 70.5q25 29 57 55
t57 37zM630 494q-10 10 -2 34q9 21 42 21q12 0 15 -8t-6 -19t-24.5 -19t-24.5 -9z" />
    <glyph glyph-name="dotlessi" unicode="&#x131;" horiz-adv-x="162" 
d="M81 143q-11 -5 -44 -31q-25 -20 -35 -29q-12 -10 -15 -8q-3 3 11 16q36 32 71 56q32 22 58 22q16 0 18 -3t-7 -13q-16 -18 -53 -64q-26 -31 -36 -49q-9 -16 -3 -22q7 -6 24 3q19 10 44 30l46 40q13 12 16 9q2 -2 -11 -16q-22 -22 -57 -50q-51 -41 -87 -41q-30 0 -30 26
q0 15 15 38q30 47 75 86z" />
    <glyph glyph-name="Kcommaaccent" unicode="&#x136;" horiz-adv-x="606" 
d="M834 367q0 -34 -39.5 -57.5t-84.5 -19.5q-21 2 -36 10q-4 3 -3 6q1 1 6 -1q15 -6 32 -7q41 -4 78.5 17t37.5 52q0 19 -14 30.5t-35 11.5q-9 0 -17.5 -2t-15.5 -4t-15.5 -7.5t-13.5 -9t-13.5 -12t-13 -12.5t-13.5 -15t-12 -15l-13 -17t-13 -16q-62 -81 -151 -108
q20 -13 25 -36q7 -28 -16 -62q-4 -5 -11 -15.5t-10 -16t-7.5 -13t-6 -13.5t-1.5 -12q0 -17 18 -17q23 0 72 38q29 22 46 38q17 14 19 12q3 -3 -7 -13q-26 -24 -55 -47q-54 -44 -94 -44q-46 0 -48 39q0 29 35 78q3 5 15 20t16.5 23.5t4.5 16.5q0 11 -7 20q-12 -6 -30 -6
q-11 0 -20 3.5t-8 10.5q1 15 32 13q17 -2 30 -10q18 7 35.5 21t28.5 27l29.5 36l29.5 36q89 100 174 100q26 0 43 -13.5t17 -37.5zM-21 60q0 20 15 36t37 15q36 -2 33 -36q-1 -17 -17 -31q-13 -13 -13 -25q0 -14 16 -21.5t34 -7.5q26 0 54 12.5t48.5 27t48.5 43t41 43.5
t38.5 48t29.5 37q77 98 128 132v1q-35 -23 -74 -33.5t-63 -10.5q-51 -1 -82 16.5t-25 51.5q4 32 36 53q15 10 28 10q14 0 0 -12q-22 -20 -26 -52q-2 -26 16 -41.5t54 -15.5q46 0 99.5 24t95.5 60q20 20 26 16q5 -5 -9 -19q-23 -23 -62 -73q-15 -19 -42 -56t-37 -49
q-35 -44 -58 -70.5t-57.5 -59t-64 -50t-68.5 -30t-80 -12.5t-70.5 19.5t-29.5 59.5zM442 188h1q11 0 23 5q-6 6 -21 8q-21 2 -21 -6q0 -7 18 -7zM247 -94q-2 2 7 11q23 23 33 44q2 4 1 10.5t0 9.5q6 17 43 19q14 0 14 -9q0 -7 -7 -15q-24 -28 -78 -64q-11 -8 -13 -6z" />
    <glyph glyph-name="kcommaaccent" unicode="&#x137;" horiz-adv-x="312" 
d="M43 119v1l-38 -34q-8 -7 -11 -3q-1 3 5 9q5 5 64 56q69 91 122 150q50 58 120.5 129t111.5 102q55 40 85 40q18 0 25.5 -10.5t5.5 -25.5q-3 -17 -19.5 -39.5t-50.5 -54.5l-59.5 -54.5l-75.5 -63.5q-18 -15 -94 -73.5t-110 -89.5q-20 -22 -80 -110l2 -1q64 57 86 74
q37 29 66 41q26 11 50 9q20 -1 30 -13.5t3 -26.5q-9 -16 -47 -21q-37 -6 -43 -14q-9 -14 -8 -41q3 -34 17 -37q9 -1 26 8q19 11 38 26q28 23 48 41q10 9 13 6q2 -3 -10 -15q-33 -30 -59 -51q-49 -39 -86 -39q-35 0 -34 47q1 34 22 55q13 13 41 17q22 4 31 14q5 6 6 15t-7 14
q-10 4 -31 -5q-32 -15 -76 -50q-20 -16 -60 -52t-50 -43q-14 -10 -26 -10t-15 3t1 13q9 20 41 67zM140 184l108.5 90.5t70.5 57.5l93 83t63.5 66.5t32.5 57.5q1 19 -17 19q-23 0 -65 -40q-81 -81 -133 -143zM0 -110q-2 2 7 11q23 23 33 44q2 5 1.5 10t0.5 10q6 17 42 19
q13 0 13 -9q0 -8 -7 -16q-34 -40 -78 -64q-11 -6 -12 -5z" />
    <glyph glyph-name="Lacute" unicode="&#x139;" horiz-adv-x="599" 
d="M252 350q0 40 39.5 69t107.5 29q95 0 159 -52q48 19 90 19q42 2 69.5 -17.5t20.5 -52.5q-9 -43 -72 -70.5t-123 -34.5q-58 -7 -110 0q-84 -123 -177 -185q18 -3 75 -18q72 -18 103 -18q44 0 80.5 16t82.5 56q11 9 13 7q3 -3 -9 -15q-61 -57 -94 -77t-79 -20
q-57 0 -108 20l-32 13t-32.5 13.5t-18.5 6.5q-63 -50 -135 -51q-62 -2 -60 23q1 23 50.5 37.5t98.5 13.5q23 0 47 -4q31 29 75 97.5t63 93.5q-53 11 -88.5 38t-35.5 63zM438 249q47 -6 106 2q53 7 104 34.5t61 67.5q5 25 -12 40t-49 14q-41 0 -79 -24q12 -15 19 -34
q4 -12 5.5 -21t0.5 -12.5t-2 -3.5t-1.5 3t-4 12t-9.5 20q-9 16 -23 28q-46 -26 -116 -126zM261 353q0 -34 34.5 -59t86.5 -36q35 44 79.5 81t79.5 51q-65 44 -147 44q-61 0 -97 -24t-36 -57zM224 44q-31 8 -57 7q-31 -1 -55 -11.5t-25 -24.5q-1 -9 8.5 -13t23.5 -3
q23 0 54.5 13t50.5 32zM599 480q-1 3 8 8q48 20 120 66q7 4 13 4q8 0 10 -11q3 -17 -21 -30q-42 -20 -118 -37q-11 -4 -12 0z" />
    <glyph glyph-name="lacute" unicode="&#x13a;" horiz-adv-x="168" 
d="M47 122l-1 1l-41 -37q-8 -7 -11 -3q-1 3 5 9q11 11 73 63q66 84 118 143q59 70 119 124q19 17 36 17q15 0 15 -7q-60 -60 -149 -166q-133 -161 -160 -220q-9 -21 -2 -27q9 -6 31 6q17 9 41 28q25 19 44 37q11 12 15 8q2 -2 -7 -12q-25 -25 -61 -52q-53 -40 -90 -40
q-15 0 -23.5 7t-7.5 20q1 32 56 101zM313 480q-1 3 8 8q48 20 120 66q7 4 13 4q8 0 10 -11q3 -17 -21 -30q-42 -20 -118 -37q-11 -4 -12 0z" />
    <glyph glyph-name="Lcommaaccent" unicode="&#x13b;" horiz-adv-x="599" 
d="M252 350q0 40 39.5 69t107.5 29q95 0 159 -52q48 19 90 19q42 2 69.5 -17.5t20.5 -52.5q-9 -43 -72 -70.5t-123 -34.5q-58 -7 -110 0q-84 -123 -177 -185q18 -3 75 -18q72 -18 103 -18q44 0 80.5 16t82.5 56q11 9 13 7q3 -3 -9 -15q-61 -57 -94 -77t-79 -20
q-57 0 -108 20l-32 13t-32.5 13.5t-18.5 6.5q-63 -50 -135 -51q-62 -2 -60 23q1 23 50.5 37.5t98.5 13.5q23 0 47 -4q31 29 75 97.5t63 93.5q-53 11 -88.5 38t-35.5 63zM438 249q47 -6 106 2q53 7 104 34.5t61 67.5q5 25 -12 40t-49 14q-41 0 -79 -24q12 -15 19 -34
q4 -12 5.5 -21t0.5 -12.5t-2 -3.5t-1.5 3t-4 12t-9.5 20q-9 16 -23 28q-46 -26 -116 -126zM261 353q0 -34 34.5 -59t86.5 -36q35 44 79.5 81t79.5 51q-65 44 -147 44q-61 0 -97 -24t-36 -57zM224 44q-31 8 -57 7q-31 -1 -55 -11.5t-25 -24.5q-1 -9 8.5 -13t23.5 -3
q23 0 54.5 13t50.5 32zM194 -124q-2 2 7 11q23 23 33 44q2 4 1 10.5t0 9.5q6 17 43 19q14 0 14 -9q0 -7 -7 -15q-24 -28 -78 -64q-11 -8 -13 -6z" />
    <glyph glyph-name="lcommaaccent" unicode="&#x13c;" horiz-adv-x="168" 
d="M47 122l-1 1l-41 -37q-8 -7 -11 -3q-1 3 5 9q11 11 73 63q66 84 118 143q59 70 119 124q19 17 36 17q15 0 15 -7q-60 -60 -149 -166q-133 -161 -160 -220q-9 -21 -2 -27q9 -6 31 6q17 9 41 28q25 19 44 37q11 12 15 8q2 -2 -7 -12q-25 -25 -61 -52q-53 -40 -90 -40
q-15 0 -23.5 7t-7.5 20q1 32 56 101zM-77 -130q-2 2 7 11q23 23 33 44q2 5 1.5 10t0.5 10q6 17 42 19q13 0 13 -9q0 -8 -7 -16q-34 -40 -78 -64q-11 -6 -12 -5z" />
    <glyph glyph-name="Lcaron" unicode="&#x13d;" horiz-adv-x="599" 
d="M252 350q0 40 39.5 69t107.5 29q95 0 159 -52q48 19 90 19q42 2 69.5 -17.5t20.5 -52.5q-9 -43 -72 -70.5t-123 -34.5q-58 -7 -110 0q-84 -123 -177 -185q18 -3 75 -18q72 -18 103 -18q44 0 80.5 16t82.5 56q11 9 13 7q3 -3 -9 -15q-61 -57 -94 -77t-79 -20
q-57 0 -108 20l-32 13t-32.5 13.5t-18.5 6.5q-63 -50 -135 -51q-62 -2 -60 23q1 23 50.5 37.5t98.5 13.5q23 0 47 -4q31 29 75 97.5t63 93.5q-53 11 -88.5 38t-35.5 63zM438 249q47 -6 106 2q53 7 104 34.5t61 67.5q5 25 -12 40t-49 14q-41 0 -79 -24q12 -15 19 -34
q4 -12 5.5 -21t0.5 -12.5t-2 -3.5t-1.5 3t-4 12t-9.5 20q-9 16 -23 28q-46 -26 -116 -126zM261 353q0 -34 34.5 -59t86.5 -36q35 44 79.5 81t79.5 51q-65 44 -147 44q-61 0 -97 -24t-36 -57zM224 44q-31 8 -57 7q-31 -1 -55 -11.5t-25 -24.5q-1 -9 8.5 -13t23.5 -3
q23 0 54.5 13t50.5 32zM764 316q-2 2 7 11q23 23 33 44q2 4 1 10.5t0 9.5q6 17 43 19q14 0 14 -9q0 -7 -7 -15q-24 -28 -78 -64q-11 -8 -13 -6z" />
    <glyph glyph-name="lcaron" unicode="&#x13e;" horiz-adv-x="168" 
d="M47 122l-1 1l-41 -37q-8 -7 -11 -3q-1 3 5 9q11 11 73 63q66 84 118 143q59 70 119 124q19 17 36 17q15 0 15 -7q-60 -60 -149 -166q-133 -161 -160 -220q-9 -21 -2 -27q9 -6 31 6q17 9 41 28q25 19 44 37q11 12 15 8q2 -2 -7 -12q-25 -25 -61 -52q-53 -40 -90 -40
q-15 0 -23.5 7t-7.5 20q1 32 56 101zM358 346q-2 2 7 11q23 23 33 44q2 4 1 10.5t0 9.5q6 17 43 19q14 0 14 -9q0 -7 -7 -15q-24 -28 -78 -64q-11 -8 -13 -6z" />
    <glyph glyph-name="Lslash" unicode="&#x141;" horiz-adv-x="599" 
d="M256 55q18 -3 75 -18q72 -18 103 -18q44 0 80.5 16t82.5 56q12 9 13 7q4 -2 -6 -12q-62 -57 -96.5 -78.5t-79.5 -21.5q-57 0 -108 20l-32 13t-32.5 13.5t-18.5 6.5q-63 -50 -135 -51q-62 -2 -60 23q1 23 50.5 37.5t98.5 13.5q33 0 47 -4q29 27 65 82l-22 -8l-18 -6.5
t-9 -3.5q-17 -6 -19 -1q-1 4 2.5 7t11.5 6l64 21q38 62 63 94q-53 11 -88.5 38t-35.5 63q0 40 39.5 69t107.5 29q95 0 159 -52q48 19 90 19q42 2 69.5 -17.5t20.5 -52.5q-9 -43 -72 -70.5t-123 -34.5q-65 -6 -110 0q-19 -28 -49 -66q25 7 69 21q11 3 12 1t-2 -4t-7 -4
q-33 -13 -85 -30q-51 -60 -115 -103zM438 249q41 -5 106 2q51 6 103 34t62 68q5 25 -12 40t-49 14q-41 0 -79 -24q12 -15 19 -34q4 -12 5.5 -21t0.5 -12.5t-2 -3.5t-1.5 2t-4 11.5t-9.5 21.5q-9 16 -23 28q-46 -26 -116 -126zM261 353q0 -34 34.5 -59t86.5 -36
q35 44 79.5 81t79.5 51q-65 44 -147 44q-61 0 -97 -24t-36 -57zM224 44q-31 8 -57 7q-31 -1 -55 -11.5t-25 -24.5q-1 -9 8.5 -13t23.5 -3q23 0 54.5 13t50.5 32z" />
    <glyph glyph-name="lslash" unicode="&#x142;" horiz-adv-x="168" 
d="M177 322q-14 -3 -16 2q-1 4 3 7.5t12 5.5q36 10 64 17q27 29 69 68q19 17 36 17q13 0 15 -7q-6 -6 -60 -64l86 19q10 2 11 -1q1 -2 -1 -3t-8 -3l-102 -28q-43 -45 -117 -138q-94 -118 -118 -169q-8 -21 -2 -26q8 -7 31 6q16 9 39 27q31 24 51 43q8 7 11 4t-6 -11
q-35 -33 -63 -54q-50 -40 -90 -40q-15 0 -23.5 7t-7.5 20q1 30 55 101h-1q-28 -24 -40 -36q-7 -8 -11 -4q-2 3 7 12l71 61q79 102 150 179z" />
    <glyph glyph-name="Nacute" unicode="&#x143;" horiz-adv-x="645" 
d="M-88 48v1q0 24 17.5 42.5t38.5 18.5q18 0 28.5 -9t10.5 -24q-1 -19 -18 -33q-19 -19 -20 -27q-2 -15 15 -24t53 -9q61 0 137 31t144 84q143 109 217 249q7 14 19 32q22 30 40 31q9 1 11.5 -3t-1.5 -10q-16 -22 -24 -56q-4 -17 -13 -122q-8 -103 -28 -151h1
q119 173 221 281q116 123 195 123q29 0 45 -17t17 -39q0 -10 -3 -10l-5 10q-10 27 -57 27q-85 0 -184 -103q-104 -108 -263 -339q-16 -21 -25 -16q-10 6 -2 27q26 73 33 160q2 18 4 44t3 40.5t3.5 30.5t6.5 27h-1q-29 -55 -85.5 -116.5t-118.5 -108.5q-72 -54 -148.5 -86
t-139.5 -33q-51 -1 -87.5 17.5t-36.5 59.5zM682 480q-1 3 8 8q48 20 120 66q7 4 13 4q8 0 10 -11q3 -17 -21 -30q-42 -20 -118 -37q-11 -4 -12 0z" />
    <glyph glyph-name="nacute" unicode="&#x144;" horiz-adv-x="352" 
d="M300 334h1q4 0 7 -5q10 -16 -7 -33q-25 -25 -83 -57q-10 -5 -12 -3q-2 3 5 10q42 40 75 79q7 9 14 9zM207 -6q-15 0 -23 6.5t-7 19.5q1 20 42 70l42 49q8 10 1 14q-6 4 -26 -6q-35 -18 -78 -51l-112 -91q-12 -9 -26 -9q-12 0 -15 3t2 13q17 32 44 67l40 52q10 13 7 17
q-4 5 -15 -1q-17 -8 -39 -27l-43 -38q-14 -12 -17 -9q-2 3 15 19q40 37 52 46q42 33 68 33q25 0 25 -22q0 -14 -21 -43l-47 -63l1 -1l92 75q73 54 109 54q34 0 31 -27q-2 -14 -40 -61q-21 -25 -33 -44q-11 -17 -4 -22q6 -5 24 4q22 11 48 31q18 14 48 41q10 9 13 6t-8 -13
q-26 -26 -60 -52q-53 -40 -90 -40z" />
    <glyph glyph-name="Ncommaaccent" unicode="&#x145;" horiz-adv-x="645" 
d="M-88 48v1q0 24 17.5 42.5t38.5 18.5q18 0 28.5 -9t10.5 -24q-1 -19 -18 -33q-19 -19 -20 -27q-2 -15 15 -24t53 -9q61 0 137 31t144 84q143 109 217 249q7 14 19 32q22 30 40 31q9 1 11.5 -3t-1.5 -10q-16 -22 -24 -56q-4 -17 -13 -122q-8 -103 -28 -151h1
q119 173 221 281q116 123 195 123q29 0 45 -17t17 -39q0 -10 -3 -10l-5 10q-10 27 -57 27q-85 0 -184 -103q-104 -108 -263 -339q-16 -21 -25 -16q-10 6 -2 27q26 73 33 160q2 18 4 44t3 40.5t3.5 30.5t6.5 27h-1q-29 -55 -85.5 -116.5t-118.5 -108.5q-72 -54 -148.5 -86
t-139.5 -33q-51 -1 -87.5 17.5t-36.5 59.5zM287 -93q-2 2 7 11q23 23 33 44q2 4 1 10.5t0 9.5q6 17 43 19q14 0 14 -9q0 -7 -7 -15q-24 -28 -78 -64q-11 -8 -13 -6z" />
    <glyph glyph-name="ncommaaccent" unicode="&#x146;" horiz-adv-x="352" 
d="M207 -6q-15 0 -23 6.5t-7 19.5q1 20 42 70l42 49q8 10 1 14q-6 4 -26 -6q-35 -18 -78 -51l-112 -91q-12 -9 -26 -9q-12 0 -15 3t2 13q17 32 44 67l40 52q10 13 7 17q-4 5 -15 -1q-17 -8 -39 -27l-43 -38q-14 -12 -17 -9q-2 3 15 19q40 37 52 46q42 33 68 33q25 0 25 -22
q0 -14 -21 -43l-47 -63l1 -1l92 75q73 54 109 54q34 0 31 -27q-2 -14 -40 -61q-21 -25 -33 -44q-11 -17 -4 -22q6 -5 24 4q22 11 48 31q18 14 48 41q10 9 13 6t-8 -13q-26 -26 -60 -52q-53 -40 -90 -40zM31 -114q-2 2 7 11q23 23 33 44q2 5 1.5 10t0.5 10q6 17 42 19
q13 0 13 -9q0 -8 -7 -16q-34 -40 -78 -64q-11 -6 -12 -5z" />
    <glyph glyph-name="Ncaron" unicode="&#x147;" horiz-adv-x="645" 
d="M-88 48v1q0 24 17.5 42.5t38.5 18.5q18 0 28.5 -9t10.5 -24q-1 -19 -18 -33q-19 -19 -20 -27q-2 -15 15 -24t53 -9q61 0 137 31t144 84q143 109 217 249q7 14 19 32q22 30 40 31q9 1 11.5 -3t-1.5 -10q-16 -22 -24 -56q-4 -17 -13 -122q-8 -103 -28 -151h1
q119 173 221 281q116 123 195 123q29 0 45 -17t17 -39q0 -10 -3 -10l-5 10q-10 27 -57 27q-85 0 -184 -103q-104 -108 -263 -339q-16 -21 -25 -16q-10 6 -2 27q26 73 33 160q2 18 4 44t3 40.5t3.5 30.5t6.5 27h-1q-29 -55 -85.5 -116.5t-118.5 -108.5q-72 -54 -148.5 -86
t-139.5 -33q-51 -1 -87.5 17.5t-36.5 59.5zM729 472q-3 0 -6 6q-14 31 -34 66q-4 7 -3 8q3 2 12 -3q21 -13 43 -36q37 19 103 41q9 2 10 -1t-6 -7q-82 -49 -109 -70q-5 -4 -10 -4z" />
    <glyph glyph-name="ncaron" unicode="&#x148;" horiz-adv-x="352" 
d="M242 240h-1q-3 0 -5 7q-21 46 -34 66q-4 5 -2 7q3 3 11 -3q25 -17 43 -42q55 32 105 47q8 3 9 -1q0 -1 -0.5 -2t-3 -2.5t-3.5 -1.5q-75 -45 -109 -70q-7 -5 -10 -5zM207 -6q-15 0 -23 6.5t-7 19.5q1 20 42 70l42 49q8 10 1 14q-6 4 -26 -6q-35 -18 -78 -51l-112 -91
q-12 -9 -26 -9q-12 0 -15 3t2 13q17 32 44 67l40 52q10 13 7 17q-4 5 -15 -1q-17 -8 -39 -27l-43 -38q-14 -12 -17 -9q-2 3 15 19q40 37 52 46q42 33 68 33q25 0 25 -22q0 -14 -21 -43l-47 -63l1 -1l92 75q73 54 109 54q34 0 31 -27q-2 -14 -40 -61q-21 -25 -33 -44
q-11 -17 -4 -22q6 -5 24 4q22 11 48 31q18 14 48 41q10 9 13 6t-8 -13q-26 -26 -60 -52q-53 -40 -90 -40z" />
    <glyph glyph-name="Omacron" unicode="&#x14c;" horiz-adv-x="407" 
d="M136 52q0 -22 11 -38q5 -6 4 -7q-2 -3 -8 3q-14 14 -17 43q-6 80 65 171q54 66 118.5 106.5t108.5 35.5q47 -5 40 -72q-2 -30 -23 -76.5t-52 -84.5q-53 -65 -128.5 -107.5t-141.5 -40.5q-90 2 -100 81q-5 49 22 109t80 113q60 59 143 96.5t159 33.5q31 -2 51.5 -15.5
t22.5 -39.5q3 -29 -15 -49q-11 -13 -14 -8l8 12q14 21 10 44q-2 19 -20 30.5t-43 12.5q-61 3 -138.5 -44.5t-124.5 -99.5q-49 -56 -74 -116t-19 -101q8 -48 62 -50q103 -4 228 152q81 101 88 172q5 35 -22 38q-38 4 -97 -37t-110 -105q-74 -94 -74 -162zM373 491
q-8 0 -9.5 0.5t1.5 5.5q14 18 29 19q51 6 124 4q15 0 15 -8q0 -5 -6 -11q-11 -12 -20 -12q-95 4 -134 2z" />
    <glyph glyph-name="omacron" unicode="&#x14d;" horiz-adv-x="249" 
d="M280 277v-1q0 -2 -4 -6q-12 -11 -20 -11q-78 2 -134 0q-7 0 -8.5 0.5t0.5 5.5q8 10 29 13q62 7 124 4q13 -1 13 -5zM21 100l-18 -16q-10 -9 -13 -6q-2 3 7 12q11 11 31 25q23 16 48 29q49 26 83 27q15 0 15 -4q0 -1 -11 -6q-29 -13 -72 -55q-55 -55 -58 -88
q-2 -17 14 -17t42.5 17.5t50.5 43.5q2 21 18 42q13 18 32 26q3 7 3 23q0 4 -0.5 7t-1 4.5t-0.5 2.5t1 2q5 3 14 -6q15 -15 12 -35q-4 -33 -57 -81q6 -3 19 0q15 3 34 17q14 10 32 26q14 13 17 10t-13 -18q-20 -17 -32 -26q-21 -15 -38 -18q-18 -4 -27 2q-64 -49 -114 -49
q-24 0 -37 11.5t-12 32.5q2 32 32 64z" />
    <glyph glyph-name="Ohungarumlaut" unicode="&#x150;" horiz-adv-x="407" 
d="M136 52q0 -22 11 -38q5 -6 4 -7q-2 -3 -8 3q-14 14 -17 43q-6 80 65 171q54 66 118.5 106.5t108.5 35.5q47 -5 40 -72q-2 -30 -23 -76.5t-52 -84.5q-53 -65 -128.5 -107.5t-141.5 -40.5q-90 2 -100 81q-5 49 22 109t80 113q60 59 143 96.5t159 33.5q31 -2 51.5 -15.5
t22.5 -39.5q3 -29 -15 -49q-11 -13 -14 -8l8 12q14 21 10 44q-2 19 -20 30.5t-43 12.5q-61 3 -138.5 -44.5t-124.5 -99.5q-49 -56 -74 -116t-19 -101q8 -48 62 -50q103 -4 228 152q81 101 88 172q5 35 -22 38q-38 4 -97 -37t-110 -105q-74 -94 -74 -162zM469 469q-1 2 8 9
q25 18 59 56q11 11 22 11q13 0 14 -10q1 -14 -13 -23q-25 -18 -79 -41q-10 -5 -11 -2zM395 469q-1 2 8 9q23 16 59 56q10 11 22 11q11 0 14 -12q2 -12 -14 -21q-29 -20 -78 -41q-10 -5 -11 -2z" />
    <glyph glyph-name="ohungarumlaut" unicode="&#x151;" horiz-adv-x="249" 
d="M220 314h1q10 0 12 -11q2 -10 -13 -19q-39 -27 -78 -44q-10 -5 -11 -2q-1 2 8 9q32 26 59 56q10 11 22 11zM294 314h1q9 0 11 -11q2 -10 -12 -19q-31 -23 -78 -44q-10 -5 -12 -2q0 1 0.5 2.5t4 3.5t4.5 3q28 23 58 56q11 11 23 11zM21 100l-18 -16q-10 -9 -13 -6
q-2 3 7 12q11 11 31 25q23 16 48 29q49 26 83 27q15 0 15 -4q0 -1 -11 -6q-29 -13 -72 -55q-55 -55 -58 -88q-2 -17 14 -17t42.5 17.5t50.5 43.5q2 21 18 42q13 18 32 26q3 7 3 23q0 4 -0.5 7t-1 4.5t-0.5 2.5t1 2q5 3 14 -6q15 -15 12 -35q-4 -33 -57 -81q6 -3 19 0
q15 3 34 17q14 10 32 26q14 13 17 10t-13 -18q-20 -17 -32 -26q-21 -15 -38 -18q-18 -4 -27 2q-64 -49 -114 -49q-24 0 -37 11.5t-12 32.5q2 32 32 64z" />
    <glyph glyph-name="OE" unicode="&#x152;" horiz-adv-x="675" 
d="M749 406h-1q-48 0 -94 -30q-46 -28 -68 -57q38 -31 106 -31q118 0 129 63q4 23 -13.5 39t-58.5 16zM556 230q6 -23 47 -25q36 -2 36 13q0 12 -36 14q-21 2 -47 -2zM454 -34q-70 -2 -107.5 22t-35.5 76q-102 -82 -198 -79q-90 2 -100 81q-5 49 22 108t80 114
q60 63 142.5 98.5t159.5 31.5q76 -5 81 -55q3 -29 -15 -49q-2 -3 -5.5 -5.5t-6 -3t-3.5 0.5q0 1 0.5 2t3.5 3.5t5 6.5q13 19 11 44q-1 19 -21 30t-50 13q-62 3 -135.5 -41t-127.5 -103q-46 -51 -72.5 -113.5t-20.5 -103.5q8 -48 62 -50q103 -4 228 152q81 101 88 172
q5 37 -22 40q-7 1 -13.5 -0.5t-7.5 -2.5t-3 0q-1 2 2.5 4.5t9.5 4.5t13 2q48 0 40 -72q-3 -39 -32 -96q44 21 91 32q-7 11 -7 33q3 45 39 80q-10 12 -10 34q0 8 1.5 14.5t4 10.5t4.5 3q1 -2 0.5 -2.5t-1.5 -8t-1 -17.5q0 -17 9 -28q39 33 87 49q54 17 101 17q50 0 76.5 -18
t23.5 -46q-4 -33 -49.5 -52.5t-103.5 -19.5q-71 0 -111 33q-17 -23 -23 -43q-5 -17 -3 -32q27 5 50 3q53 -2 53 -25q0 -19 -55 -19q-59 0 -80 27q-43 -15 -91 -60q-56 -53 -59 -110q-1 -34 21.5 -53.5t61.5 -19.5q68 0 146 52q32 22 71 58q10 9 13 6t-9 -14q-44 -41 -71 -59
q-75 -53 -151 -57z" />
    <glyph glyph-name="oe" unicode="&#x153;" horiz-adv-x="364" 
d="M199 63q37 9 68 30q39 27 41 52q2 14 -12 14t-43 -28q-33 -31 -54 -68zM28 115q23 16 48 29q47 25 83 27q15 0 15 -4q0 -1 -11 -6q-34 -16 -72 -55q-53 -53 -58 -88q-2 -17 14 -17q32 0 93 61q40 40 50 68q5 11 3 25q-2 13 -1 14q5 3 14 -6q13 -13 12 -28q1 1 7 5
q50 32 89 32q15 0 22.5 -8t6.5 -19q-2 -30 -64 -61q-43 -21 -86 -32q-6 -12 -6 -23q0 -23 23 -23q37 0 91 37q28 19 61 48q8 7 11 4q3 -4 -8 -13q-34 -31 -59 -48q-64 -43 -118 -43q-52 0 -52 37q-55 -37 -97 -37q-24 0 -37 11.5t-12 32.5q2 32 32 64l-1 1l-18 -16
q-10 -9 -13 -6q-2 3 7 12q11 11 31 25z" />
    <glyph glyph-name="Racute" unicode="&#x154;" horiz-adv-x="659" 
d="M770 439q-39 0 -85 -19q-37 -15 -58 -31q14 -10 26 -23.5t22 -40t-4 -54.5q-15 -35 -55.5 -53.5t-77.5 -18.5v-1q32 -13 35 -42q3 -25 -20 -57q-3 -5 -12.5 -19l-13 -19.5t-7 -15t-3.5 -16.5q0 -17 19 -17q22 0 72 38q25 19 48 40q10 10 14 7q2 -3 -7 -12
q-19 -19 -53 -46q-54 -43 -93 -43q-48 0 -48 40q-1 30 35 77q36 45 35 62q0 14 -18 23q-13 -2 -22 -1q-10 1 -18 5q-17 -24 -28 -38q-49 -60 -92.5 -91t-94.5 -53q27 -6 49 -8q43 -3 73 17q6 4 10 7.5t5 4t2 0.5q1 -1 1 -3t-2.5 -6t-7.5 -8q-37 -33 -94 -33q-29 0 -77 14
q-63 -19 -151 -17q-34 0 -62.5 8t-28.5 25q0 20 28 30.5t75 8.5q28 -2 164 -34q59 29 146 145q121 158 206 214q-44 27 -125 27q-98 0 -183.5 -53t-103.5 -131q-10 -41 3.5 -70.5t48.5 -32.5q7 -1 11.5 -0.5t7.5 1t4.5 1t2 0.5t1.5 -1q1 -2 -2 -4.5t-10.5 -4.5t-16.5 -2
q-47 2 -72.5 33t-16.5 81q15 83 111.5 137.5t214.5 54.5q87 0 139 -26q24 18 64 34q44 19 91 19q55 0 72 -26q2 -4 3 -7.5t1 -5.5t-1 -2t-1.5 0.5t-2.5 3.5t-5 7q-19 21 -67 21zM614 377q-28 -22 -65 -75l-32 -45.5l-31 -44.5q10 0 19 -1q8 -1 20 -5q34 2 64.5 22.5
t43.5 51.5q12 32 6 57.5t-25 39.5zM208 10q-11 2 -38 8.5t-50 11.5t-39 6q-86 9 -86 -16q0 -20 78 -23q85 -2 135 13zM609 490q-1 3 8 8q48 20 120 66q7 4 13 4q8 0 10 -11q3 -17 -21 -30q-42 -20 -118 -37q-11 -4 -12 0z" />
    <glyph glyph-name="racute" unicode="&#x155;" horiz-adv-x="206" 
d="M266 344h1q4 0 7 -5q10 -16 -7 -33q-25 -25 -83 -57q-10 -5 -12 -3q-2 3 5 10q42 40 75 79q7 9 14 9zM171 145v-1q0 -6 -5.5 -14t-20 -23.5t-20.5 -22.5q-25 -30 -34 -47q-8 -14 -1 -19q6 -5 22 4q25 13 45 30q29 23 47 39q12 11 15 8t-12 -17q-30 -27 -57 -48
q-52 -40 -89 -40q-15 0 -23.5 7t-7.5 19q1 26 48 71l26 22.5l27 22.5t12 12q2 7 -7 8h-33q-18 0 -23 2q-13 -14 -38 -38l-40 -37q-12 -11 -15 -8t11 16l39 36q22 21 35 35q-17 11 0 32q14 17 38 17q16 0 18 -10q-10 -7 -17 -14q-19 -20 3 -22q57 -2 57 -20z" />
    <glyph glyph-name="Rcommaaccent" unicode="&#x156;" horiz-adv-x="659" 
d="M770 439q-39 0 -85 -19q-37 -15 -58 -31q14 -10 26 -23.5t22 -40t-4 -54.5q-15 -35 -55.5 -53.5t-77.5 -18.5v-1q32 -13 35 -42q3 -25 -20 -57q-3 -5 -12.5 -19l-13 -19.5t-7 -15t-3.5 -16.5q0 -17 19 -17q22 0 72 38q25 19 48 40q10 10 14 7q2 -3 -7 -12
q-19 -19 -53 -46q-54 -43 -93 -43q-48 0 -48 40q-1 30 35 77q36 45 35 62q0 14 -18 23q-13 -2 -22 -1q-10 1 -18 5q-17 -24 -28 -38q-49 -60 -92.5 -91t-94.5 -53q27 -6 49 -8q43 -3 73 17q6 4 10 7.5t5 4t2 0.5q1 -1 1 -3t-2.5 -6t-7.5 -8q-37 -33 -94 -33q-29 0 -77 14
q-63 -19 -151 -17q-34 0 -62.5 8t-28.5 25q0 20 28 30.5t75 8.5q28 -2 164 -34q59 29 146 145q121 158 206 214q-44 27 -125 27q-98 0 -183.5 -53t-103.5 -131q-10 -41 3.5 -70.5t48.5 -32.5q7 -1 11.5 -0.5t7.5 1t4.5 1t2 0.5t1.5 -1q1 -2 -2 -4.5t-10.5 -4.5t-16.5 -2
q-47 2 -72.5 33t-16.5 81q15 83 111.5 137.5t214.5 54.5q87 0 139 -26q24 18 64 34q44 19 91 19q55 0 72 -26q2 -4 3 -7.5t1 -5.5t-1 -2t-1.5 0.5t-2.5 3.5t-5 7q-19 21 -67 21zM614 377q-28 -22 -65 -75l-32 -45.5l-31 -44.5q10 0 19 -1q8 -1 20 -5q34 2 64.5 22.5
t43.5 51.5q12 32 6 57.5t-25 39.5zM208 10q-11 2 -38 8.5t-50 11.5t-39 6q-86 9 -86 -16q0 -20 78 -23q85 -2 135 13zM314 -114q-2 2 7 11q23 23 33 44q2 4 1 10.5t0 9.5q6 17 43 19q14 0 14 -9q0 -7 -7 -15q-24 -28 -78 -64q-11 -8 -13 -6z" />
    <glyph glyph-name="rcommaaccent" unicode="&#x157;" horiz-adv-x="206" 
d="M171 145v-1q0 -6 -5.5 -14t-20 -23.5t-20.5 -22.5q-25 -30 -34 -47q-8 -14 -1 -19q6 -5 22 4q25 13 45 30q29 23 47 39q12 11 15 8t-12 -17q-30 -27 -57 -48q-52 -40 -89 -40q-15 0 -23.5 7t-7.5 19q1 26 48 71l26 22.5l27 22.5t12 12q2 7 -7 8h-33q-18 0 -23 2
q-13 -14 -38 -38l-40 -37q-12 -11 -15 -8t11 16l39 36q22 21 35 35q-17 11 0 32q14 17 38 17q16 0 18 -10q-10 -7 -17 -14q-19 -20 3 -22q57 -2 57 -20zM-83 -124q-2 2 7 11q23 23 33 44q2 5 1.5 10t0.5 10q6 17 42 19q13 0 13 -9q0 -8 -7 -16q-34 -40 -78 -64
q-11 -6 -12 -5z" />
    <glyph glyph-name="Rcaron" unicode="&#x158;" horiz-adv-x="659" 
d="M770 439q-39 0 -85 -19q-37 -15 -58 -31q14 -10 26 -23.5t22 -40t-4 -54.5q-15 -35 -55.5 -53.5t-77.5 -18.5v-1q32 -13 35 -42q3 -25 -20 -57q-3 -5 -12.5 -19l-13 -19.5t-7 -15t-3.5 -16.5q0 -17 19 -17q22 0 72 38q25 19 48 40q10 10 14 7q2 -3 -7 -12
q-19 -19 -53 -46q-54 -43 -93 -43q-48 0 -48 40q-1 30 35 77q36 45 35 62q0 14 -18 23q-13 -2 -22 -1q-10 1 -18 5q-17 -24 -28 -38q-49 -60 -92.5 -91t-94.5 -53q27 -6 49 -8q43 -3 73 17q6 4 10 7.5t5 4t2 0.5q1 -1 1 -3t-2.5 -6t-7.5 -8q-37 -33 -94 -33q-29 0 -77 14
q-63 -19 -151 -17q-34 0 -62.5 8t-28.5 25q0 20 28 30.5t75 8.5q28 -2 164 -34q59 29 146 145q121 158 206 214q-44 27 -125 27q-98 0 -183.5 -53t-103.5 -131q-10 -41 3.5 -70.5t48.5 -32.5q7 -1 11.5 -0.5t7.5 1t4.5 1t2 0.5t1.5 -1q1 -2 -2 -4.5t-10.5 -4.5t-16.5 -2
q-47 2 -72.5 33t-16.5 81q15 83 111.5 137.5t214.5 54.5q87 0 139 -26q24 18 64 34q44 19 91 19q55 0 72 -26q2 -4 3 -7.5t1 -5.5t-1 -2t-1.5 0.5t-2.5 3.5t-5 7q-19 21 -67 21zM614 377q-28 -22 -65 -75l-32 -45.5l-31 -44.5q10 0 19 -1q8 -1 20 -5q34 2 64.5 22.5
t43.5 51.5q12 32 6 57.5t-25 39.5zM208 10q-11 2 -38 8.5t-50 11.5t-39 6q-86 9 -86 -16q0 -20 78 -23q85 -2 135 13zM636 472q-3 0 -6 6q-14 31 -34 66q-4 7 -3 8q3 2 12 -3q21 -13 43 -36q37 19 103 41q9 2 10 -1t-6 -7q-82 -49 -109 -70q-5 -4 -10 -4z" />
    <glyph glyph-name="rcaron" unicode="&#x159;" horiz-adv-x="206" 
d="M188 250h-1q-3 0 -5 7q-21 46 -34 66q-4 5 -2 7q3 3 11 -3q25 -17 43 -42q55 32 105 47q8 3 9 -1q0 -1 -0.5 -2t-3 -2.5t-3.5 -1.5q-75 -45 -109 -70q-7 -5 -10 -5zM171 145v-1q0 -6 -5.5 -14t-20 -23.5t-20.5 -22.5q-25 -30 -34 -47q-8 -14 -1 -19q6 -5 22 4
q25 13 45 30q29 23 47 39q12 11 15 8t-12 -17q-30 -27 -57 -48q-52 -40 -89 -40q-15 0 -23.5 7t-7.5 19q1 26 48 71l26 22.5l27 22.5t12 12q2 7 -7 8h-33q-18 0 -23 2q-13 -14 -38 -38l-40 -37q-12 -11 -15 -8t11 16l39 36q22 21 35 35q-17 11 0 32q14 17 38 17q16 0 18 -10
q-10 -7 -17 -14q-19 -20 3 -22q57 -2 57 -20z" />
    <glyph glyph-name="Sacute" unicode="&#x15a;" horiz-adv-x="545" 
d="M383 216l156 65q57 86 116 128q34 23 62 24q14 1 24.5 -5.5t9.5 -21.5q-2 -24 -38 -53t-87 -51q-16 -7 -27 -11l-27 -52.5l-24 -46.5q-104 -203 -323 -218q-106 -6 -163 34q-64 -57 -80 -93q-1 -3 -2 -4t-2 -3t-2 -2h-2q-4 1 0 12q15 43 75 100q-41 37 -37 94
q4 46 41.5 82t82 53t85.5 20q46 4 94 -8.5t68 -42.5zM605 305l18 7q46 19 80 45t37 49q1 10 -6 15t-17 3q-21 -3 -46 -28q-28 -27 -66 -91zM249 70q-44 0 -76 21q-36 -24 -60 -42l-33 -26q49 -48 154 -40q78 7 139 58t116 152q32 55 44 73v1q-84 -34 -143 -62q6 -13 6 -31
q-1 -47 -47 -75.5t-100 -28.5zM247 80q45 0 84.5 26.5t41.5 66.5q0 13 -3 24l-67 -31q-65 -32 -122 -69q31 -17 66 -17zM367 208q-16 31 -59 42.5t-87 7.5q-62 -4 -115.5 -41t-58.5 -101q-3 -50 22 -80q13 13 31 26q26 19 58 40q-18 16 -21 38q-2 10 3 10q1 0 3 -8
q5 -19 24 -34q61 37 134 70zM692 490q-1 3 8 8q48 20 120 66q7 4 13 4q8 0 10 -11q3 -17 -21 -30q-42 -20 -118 -37q-11 -4 -12 0z" />
    <glyph glyph-name="sacute" unicode="&#x15b;" horiz-adv-x="229" 
d="M278 374h1q4 0 7 -5q10 -16 -7 -33q-25 -25 -83 -57q-10 -5 -12 -3q-2 3 5 10q42 40 75 79q7 9 14 9zM119 21q21 8 44 22q30 18 66 50q11 8 13 6q3 -3 -11 -16q-24 -22 -51 -40q-29 -20 -63 -34q-41 -18 -84 -18q-36 0 -50 17.5t-10 42.5q3 22 18 37.5t33 14.5
q23 -2 19 -22q-3 -15 -22 -25q-22 -12 -23 -30q-1 -12 7 -18.5t22 -6.5q36 0 67 54q9 15 25.5 55.5t21.5 46.5v1q-14 -14 -48 -38q-23 -17 -38 -24q-8 -4 -10 -1q-1 4 5 8q23 14 42 28q22 16 59 48q4 9 16 17q15 11 29 11q26 0 -1 -19l-4 -2q-3 -2 -12 -7t-12 -8
q-7 -7 -7 -27q2 -56 -9 -82q-12 -28 -32 -41z" />
    <glyph glyph-name="uni015E" unicode="&#x15e;" horiz-adv-x="545" 
d="M168 -120h1q17 0 30 9t14 22q1 11 -7.5 17.5t-24.5 5.5q-5 0 -9 -2t-5.5 -2.5t-3.5 0.5q-3 3 4 9q6 7 35 34q-91 0 -140 35q-64 -57 -80 -93q-1 -3 -2 -4t-2 -3t-2 -2h-2q-4 1 0 12q15 43 75 100q-41 37 -37 94q4 46 41.5 82t82 53t85.5 20q46 4 94 -8.5t68 -42.5l156 65
q57 86 116 128q31 21 62 24q14 1 24.5 -5.5t9.5 -21.5q-2 -24 -38 -53t-87 -51q-16 -7 -27 -11l-27 -52.5l-24 -46.5q-104 -203 -323 -218h-8q-19 -14 -32 -30q6 2 13 2q22 0 35 -10.5t10 -27.5q-3 -19 -24 -31t-50 -11q-40 1 -57 25q-8 11 -3 15q1 0 8 -7q17 -19 51 -19z
M250 70h-1q-44 0 -76 21q-36 -24 -60 -42l-33 -26q49 -48 154 -40q78 7 139 58t116 152q33 57 44 74q-84 -34 -143 -62q6 -13 6 -31q-1 -47 -47 -75.5t-99 -28.5zM367 208q-16 31 -59 42.5t-87 7.5q-62 -4 -115.5 -41t-58.5 -101q-3 -50 22 -80q13 13 31 26q26 19 58 40
q-18 16 -21 38q-1 4 0 7.5t3 2.5q1 0 3 -8q5 -19 24 -34q61 37 134 70zM247 80h1q44 0 83.5 26.5t41.5 66.5q0 13 -3 24l-67 -31q-65 -32 -122 -69q31 -17 66 -17zM605 305q3 1 18 7q46 19 80 45t37 49q1 10 -6 15t-17 3q-21 -3 -46 -28q-28 -27 -66 -91z" />
    <glyph glyph-name="uni015F" unicode="&#x15f;" horiz-adv-x="229" 
d="M117 9q-41 -18 -83 -18q-15 -12 -29 -28q6 2 13 2q22 0 35 -10.5t10 -27.5q-3 -19 -24 -31t-50 -11q-40 1 -57 25q-8 11 -3 15q1 0 8 -7q17 -19 51 -19h1q17 0 30 9t14 22q1 11 -7 17.5t-23 5.5q-4 0 -9 -2t-6.5 -2.5t-4.5 0.5q-3 3 4 9l9.5 10t13 13l11.5 11
q-54 5 -48 59q3 22 18 37.5t33 14.5q23 -2 19 -22q-3 -15 -22 -25q-22 -12 -23 -30q-1 -12 7 -18.5t22 -6.5q36 0 67 54q9 15 25.5 55.5t21.5 46.5v1q-14 -14 -48 -38q-23 -17 -38 -24q-8 -4 -10 -1q-1 4 5 8q23 14 42 28q22 16 59 48q4 9 16 17q15 11 29 11q26 0 -1 -19
l-4 -2q-3 -2 -12 -7t-12 -8q-7 -7 -7 -27q2 -56 -9 -82q-12 -28 -32 -41q21 8 44 22q30 18 66 50q11 8 13 6q3 -3 -11 -16q-24 -22 -51 -40q-29 -20 -63 -34z" />
    <glyph glyph-name="Scaron" unicode="&#x160;" horiz-adv-x="545" 
d="M383 216l156 65q57 86 116 128q34 23 62 24q14 1 24.5 -5.5t9.5 -21.5q-2 -24 -38 -53t-87 -51q-16 -7 -27 -11l-27 -52.5l-24 -46.5q-104 -203 -323 -218q-106 -6 -163 34q-64 -57 -80 -93q-1 -3 -2 -4t-2 -3t-2 -2h-2q-4 1 0 12q15 43 75 100q-41 37 -37 94
q4 46 41.5 82t82 53t85.5 20q46 4 94 -8.5t68 -42.5zM605 305l18 7q46 19 80 45t37 49q1 10 -6 15t-17 3q-21 -3 -46 -28q-28 -27 -66 -91zM249 70q-44 0 -76 21q-36 -24 -60 -42l-33 -26q49 -48 154 -40q78 7 139 58t116 152q32 55 44 73v1q-84 -34 -143 -62q6 -13 6 -31
q-1 -47 -47 -75.5t-100 -28.5zM247 80q45 0 84.5 26.5t41.5 66.5q0 13 -3 24l-67 -31q-65 -32 -122 -69q31 -17 66 -17zM367 208q-16 31 -59 42.5t-87 7.5q-62 -4 -115.5 -41t-58.5 -101q-3 -50 22 -80q13 13 31 26q26 19 58 40q-18 16 -21 38q-2 10 3 10q1 0 3 -8
q5 -19 24 -34q61 37 134 70zM735 484q-3 0 -6 6q-14 31 -34 66q-4 7 -3 8q3 2 12 -3q21 -13 43 -36q37 19 103 41q9 2 10 -1t-6 -7q-82 -49 -109 -70q-5 -4 -10 -4z" />
    <glyph glyph-name="scaron" unicode="&#x161;" horiz-adv-x="229" 
d="M190 277h-1q-3 0 -5 7q-21 46 -34 66q-4 5 -2 7q3 3 11 -3q25 -17 43 -42q55 32 105 47q8 3 9 -1q0 -1 -0.5 -2t-3.5 -2l-3 -2q-75 -45 -109 -70q-7 -5 -10 -5zM119 21q21 8 44 22q30 18 66 50q11 8 13 6q3 -3 -11 -16q-24 -22 -51 -40q-29 -20 -63 -34q-41 -18 -84 -18
q-36 0 -50 17.5t-10 42.5q3 22 18 37.5t33 14.5q23 -2 19 -22q-3 -15 -22 -25q-22 -12 -23 -30q-1 -12 7 -18.5t22 -6.5q36 0 67 54q9 15 25.5 55.5t21.5 46.5v1q-14 -14 -48 -38q-23 -17 -38 -24q-8 -4 -10 -1q-1 4 5 8q23 14 42 28q22 16 59 48q4 9 16 17q15 11 29 11
q26 0 -1 -19l-4 -2q-3 -2 -12 -7t-12 -8q-7 -7 -7 -27q2 -56 -9 -82q-12 -28 -32 -41z" />
    <glyph glyph-name="Tcommaaccent" unicode="&#x162;" horiz-adv-x="620" 
d="M716 513q-83 0 -127 -51q-10 -11 -15 -27l-5 -14q-4 0 -2 13q2 17 15 34q44 58 135 58q65 0 102.5 -29t27.5 -79q-8 -42 -58 -62.5t-125 -18.5q-22 0 -25 -1q-34 -13 -76 -62q-11 -13 -47 -62t-66 -78q-99 -91 -230 -117v-1q99 -9 159 -9q122 1 195 49q19 12 43 34
q10 8 13 6q3 -3 -8 -13q-26 -23 -45 -37q-83 -58 -212 -58q-94 0 -195 14q-40 -9 -107 -11q-14 -1 -31 -0.5t-32 2t-25 5.5t-9 10q5 25 83 25q53 0 149 -13q28 5 67.5 23t68.5 42q33 28 76.5 80t60.5 69q76 82 154 105v1q-51 5 -136 21q-119 22 -161 24q-70 4 -119.5 -20
t-55.5 -71q-4 -33 24.5 -55t70.5 -24q46 -1 74.5 16.5t30.5 46.5q2 17 -7 29l-4 6q3 3 11 -3q20 -11 20 -34q1 -32 -36.5 -51t-88.5 -19q-49 1 -79.5 26t-26.5 65q5 53 61.5 83.5t136.5 28.5q48 -1 166 -21q96 -16 169 -21q67 -3 110 13.5t49 50.5t-27 58t-91 24zM135 -134
q-2 2 7 11q23 23 33 44q2 4 1 10.5t0 9.5q6 17 43 19q14 0 14 -9q0 -7 -7 -15q-24 -28 -78 -64q-11 -8 -13 -6z" />
    <glyph glyph-name="tcommaaccent" unicode="&#x163;" horiz-adv-x="167" 
d="M44 120q-16 -13 -40 -35q-9 -8 -12 -5t7 12l73 65q-7 0 -18.5 -0.5t-17.5 -0.5h-4.5t-3.5 0.5t-2.5 1.5t-0.5 3q1 4 27 6q13 1 28 1q52 64 94 104q41 41 63 41q13 0 15 -6q-19 -17 -61 -65q-31 -35 -61 -74q23 1 57 1q4 0 7.5 -0.5t5 -2t1.5 -3.5q-1 -5 -18 -5
q-38 0 -61 -1q-40 -48 -72 -110q-13 -23 -1 -29q9 -4 25 4q21 11 45 30q11 8 28 23t19 17q12 9 14 7q2 -3 -7 -12q-27 -27 -61 -53q-53 -41 -92 -41q-16 0 -23.5 8t-6.5 20q3 32 54 99zM-71 -140q-2 2 7 11q23 23 33 44q2 5 1.5 10t0.5 10q6 17 42 19q13 0 13 -9
q0 -8 -7 -16q-34 -40 -78 -64q-11 -6 -12 -5z" />
    <glyph glyph-name="Tcaron" unicode="&#x164;" horiz-adv-x="620" 
d="M716 513q-83 0 -127 -51q-10 -11 -15 -27l-5 -14q-4 0 -2 13q2 17 15 34q44 58 135 58q65 0 102.5 -29t27.5 -79q-8 -42 -58 -62.5t-125 -18.5q-22 0 -25 -1q-34 -13 -76 -62q-11 -13 -47 -62t-66 -78q-99 -91 -230 -117v-1q99 -9 159 -9q122 1 195 49q19 12 43 34
q10 8 13 6q3 -3 -8 -13q-26 -23 -45 -37q-83 -58 -212 -58q-94 0 -195 14q-40 -9 -107 -11q-14 -1 -31 -0.5t-32 2t-25 5.5t-9 10q5 25 83 25q53 0 149 -13q28 5 67.5 23t68.5 42q33 28 76.5 80t60.5 69q76 82 154 105v1q-51 5 -136 21q-119 22 -161 24q-70 4 -119.5 -20
t-55.5 -71q-4 -33 24.5 -55t70.5 -24q46 -1 74.5 16.5t30.5 46.5q2 17 -7 29l-4 6q3 3 11 -3q20 -11 20 -34q1 -32 -36.5 -51t-88.5 -19q-49 1 -79.5 26t-26.5 65q5 53 61.5 83.5t136.5 28.5q48 -1 166 -21q96 -16 169 -21q67 -3 110 13.5t49 50.5t-27 58t-91 24zM667 392
q-3 0 -6 6q-14 31 -34 66q-4 7 -3 8q3 2 12 -3q21 -13 43 -36q37 19 103 41q9 2 10 -1t-6 -7q-82 -49 -109 -70q-5 -4 -10 -4z" />
    <glyph glyph-name="tcaron" unicode="&#x165;" horiz-adv-x="167" 
d="M44 120q-16 -13 -40 -35q-9 -8 -12 -5t7 12l73 65q-7 0 -18.5 -0.5t-17.5 -0.5h-4.5t-3.5 0.5t-2.5 1.5t-0.5 3q1 4 27 6q13 1 28 1q52 64 94 104q41 41 63 41q13 0 15 -6q-19 -17 -61 -65q-31 -35 -61 -74q23 1 57 1q4 0 7.5 -0.5t5 -2t1.5 -3.5q-1 -5 -18 -5
q-38 0 -61 -1q-40 -48 -72 -110q-13 -23 -1 -29q9 -4 25 4q21 11 45 30q11 8 28 23t19 17q12 9 14 7q2 -3 -7 -12q-27 -27 -61 -53q-53 -41 -92 -41q-16 0 -23.5 8t-6.5 20q3 32 54 99zM258 239q-2 2 7 11q23 23 33 44q2 5 1.5 10t0.5 10q6 17 42 19q13 0 13 -9q0 -8 -7 -16
q-34 -40 -78 -64q-11 -6 -12 -5z" />
    <glyph glyph-name="Umacron" unicode="&#x16a;" horiz-adv-x="553" 
d="M407 134q-51 -51 -118.5 -97t-111.5 -46q-50 0 -44 46q4 29 33 68.5t94 112.5q99 113 111 153q6 21 -7.5 30.5t-35.5 9.5q-39 0 -86 -23t-88 -64q-80 -78 -80 -130q0 -41 36 -41q20 0 36 10q5 3 10 7q3 4 5 3t-2 -6.5t-10 -9.5q-19 -13 -41 -13q-45 2 -50 49
q-2 34 18.5 74t58.5 75q42 39 96.5 58.5t96.5 19.5q37 0 59.5 -14.5t21.5 -42.5q-1 -48 -97 -157q-66 -73 -95 -111t-32 -61q-4 -22 14 -24q31 -4 110 54q75 55 147 140q98 112 183 178q57 43 81 41q13 -3 10.5 -15.5t-16.5 -29.5q-23 -25 -75 -63q-68 -51 -91 -70
q-8 -9 -32 -39l-39.5 -52.5l-32 -45t-28.5 -48.5t-8 -32q0 -17 20 -17q22 0 64 31q26 18 49 40q17 15 20 12q2 -3 -10 -15q-21 -20 -53 -45q-52 -40 -88 -40q-47 0 -47 44q0 35 44 96zM574 277q11 9 33 24.5t26 18.5q36 24 66 54q10 11 15.5 19.5t6 13t-2.5 6.5
q-14 5 -54 -38q-53 -55 -90 -98zM496 481q-8 0 -9.5 0.5t1.5 5.5q14 18 29 19q51 6 124 4q15 0 15 -8q0 -5 -6 -11q-11 -12 -20 -12q-95 4 -134 2z" />
    <glyph glyph-name="umacron" unicode="&#x16b;" horiz-adv-x="322" 
d="M326 277v-1q0 -2 -4 -6q-12 -11 -20 -11q-78 2 -134 0q-7 0 -8.5 0.5t0.5 5.5q8 10 29 13q62 7 124 4q13 -1 13 -5zM81 143q-12 -5 -43 -30q-24 -19 -36 -30q-12 -10 -15 -8q-3 3 11 16q36 32 71 56q32 22 58 22q16 0 18 -3t-7 -13q-17 -19 -52 -62q-31 -41 -37 -54
t-1 -18q6 -6 23 2q27 14 75 52l108 87q15 11 29 11q15 0 18.5 -2.5t-3.5 -13.5l-22.5 -27l-30.5 -37q-26 -32 -37 -51q-10 -17 -3 -22t23 3q21 10 45 30q24 19 48 41q11 11 14 7q3 -2 -8 -13q-18 -18 -61 -52q-51 -40 -86 -40q-31 0 -31 24q0 18 16 41q11 16 47 52l-1 1
l-80 -63q-73 -55 -107 -55q-16 0 -25 7.5t-8 20.5q1 17 19 41q33 44 71 80z" />
    <glyph glyph-name="Uring" unicode="&#x16e;" horiz-adv-x="553" 
d="M407 134q-51 -51 -118.5 -97t-111.5 -46q-50 0 -44 46q4 29 33 68.5t94 112.5q99 113 111 153q6 21 -7.5 30.5t-35.5 9.5q-39 0 -86 -23t-88 -64q-80 -78 -80 -130q0 -41 36 -41q20 0 36 10q5 3 10 7q3 4 5 3t-2 -6.5t-10 -9.5q-19 -13 -41 -13q-45 2 -50 49
q-2 34 18.5 74t58.5 75q42 39 96.5 58.5t96.5 19.5q37 0 59.5 -14.5t21.5 -42.5q-1 -48 -97 -157q-66 -73 -95 -111t-32 -61q-4 -22 14 -24q31 -4 110 54q75 55 147 140q98 112 183 178q57 43 81 41q13 -3 10.5 -15.5t-16.5 -29.5q-23 -25 -75 -63q-68 -51 -91 -70
q-8 -9 -32 -39l-39.5 -52.5l-32 -45t-28.5 -48.5t-8 -32q0 -17 20 -17q22 0 64 31q26 18 49 40q17 15 20 12q2 -3 -10 -15q-21 -20 -53 -45q-52 -40 -88 -40q-47 0 -47 44q0 35 44 96zM574 277q11 9 33 24.5t26 18.5q36 24 66 54q10 11 15.5 19.5t6 13t-2.5 6.5
q-14 5 -54 -38q-53 -55 -90 -98zM559 448q-19 0 -31 12.5t-12 31.5q0 18 12.5 31.5t30.5 13.5t31 -13.5t13 -31.5q0 -19 -13 -31.5t-31 -12.5zM559 468q11 0 18 7t7 18q0 9 -7.5 16.5t-17.5 7.5q-11 0 -17.5 -7t-6.5 -17q0 -25 24 -25z" />
    <glyph glyph-name="uring" unicode="&#x16f;" horiz-adv-x="322" 
d="M237 335h1q17 0 30 -14t13 -31q0 -19 -13 -31.5t-31 -12.5q-19 0 -31.5 12.5t-12.5 31.5q0 18 13 31.5t31 13.5zM237 317h-1q-11 0 -18 -8t-7 -19t7 -18.5t19 -7.5q11 0 18.5 7.5t7.5 18.5t-7.5 19t-18.5 8zM81 143q-12 -5 -43 -30q-24 -19 -36 -30q-12 -10 -15 -8
q-3 3 11 16q36 32 71 56q32 22 58 22q16 0 18 -3t-7 -13q-17 -19 -52 -62q-31 -41 -37 -54t-1 -18q6 -6 23 2q27 14 75 52l108 87q15 11 29 11q15 0 18.5 -2.5t-3.5 -13.5l-22.5 -27l-30.5 -37q-26 -32 -37 -51q-10 -17 -3 -22t23 3q21 10 45 30q24 19 48 41q11 11 14 7
q3 -2 -8 -13q-18 -18 -61 -52q-51 -40 -86 -40q-31 0 -31 24q0 18 16 41q11 16 47 52l-1 1l-80 -63q-73 -55 -107 -55q-16 0 -25 7.5t-8 20.5q1 17 19 41q33 44 71 80z" />
    <glyph glyph-name="Uhungarumlaut" unicode="&#x170;" horiz-adv-x="553" 
d="M407 134q-51 -51 -118.5 -97t-111.5 -46q-50 0 -44 46q4 29 33 68.5t94 112.5q99 113 111 153q6 21 -7.5 30.5t-35.5 9.5q-39 0 -86 -23t-88 -64q-80 -78 -80 -130q0 -41 36 -41q20 0 36 10q5 3 10 7q3 4 5 3t-2 -6.5t-10 -9.5q-19 -13 -41 -13q-45 2 -50 49
q-2 34 18.5 74t58.5 75q42 39 96.5 58.5t96.5 19.5q37 0 59.5 -14.5t21.5 -42.5q-1 -48 -97 -157q-66 -73 -95 -111t-32 -61q-4 -22 14 -24q31 -4 110 54q75 55 147 140q98 112 183 178q57 43 81 41q13 -3 10.5 -15.5t-16.5 -29.5q-23 -25 -75 -63q-68 -51 -91 -70
q-8 -9 -32 -39l-39.5 -52.5l-32 -45t-28.5 -48.5t-8 -32q0 -17 20 -17q22 0 64 31q26 18 49 40q17 15 20 12q2 -3 -10 -15q-21 -20 -53 -45q-52 -40 -88 -40q-47 0 -47 44q0 35 44 96zM574 277q11 9 33 24.5t26 18.5q36 24 66 54q10 11 15.5 19.5t6 13t-2.5 6.5
q-14 5 -54 -38q-53 -55 -90 -98zM562 459q-1 2 8 9q25 18 59 56q11 11 22 11q13 0 14 -10q1 -14 -13 -23q-25 -18 -79 -41q-10 -5 -11 -2zM488 459q-1 2 8 9q23 16 59 56q10 11 22 11q11 0 14 -12q2 -12 -14 -21q-29 -20 -78 -41q-10 -5 -11 -2z" />
    <glyph glyph-name="uhungarumlaut" unicode="&#x171;" horiz-adv-x="322" 
d="M256 314h1q10 0 12 -11q2 -10 -13 -19q-39 -27 -78 -44q-10 -5 -11 -2q-1 2 8 9q32 26 59 56q10 11 22 11zM330 314h1q9 0 11 -11q2 -10 -12 -19q-31 -23 -78 -44q-10 -5 -12 -2q0 1 0.5 2.5t4 3.5t4.5 3q28 23 58 56q11 11 23 11zM81 143q-12 -5 -43 -30
q-24 -19 -36 -30q-12 -10 -15 -8q-3 3 11 16q36 32 71 56q32 22 58 22q16 0 18 -3t-7 -13q-17 -19 -52 -62q-31 -41 -37 -54t-1 -18q6 -6 23 2q27 14 75 52l108 87q15 11 29 11q15 0 18.5 -2.5t-3.5 -13.5l-22.5 -27l-30.5 -37q-26 -32 -37 -51q-10 -17 -3 -22t23 3
q21 10 45 30q24 19 48 41q11 11 14 7q3 -2 -8 -13q-18 -18 -61 -52q-51 -40 -86 -40q-31 0 -31 24q0 18 16 41q11 16 47 52l-1 1l-80 -63q-73 -55 -107 -55q-16 0 -25 7.5t-8 20.5q1 17 19 41q33 44 71 80z" />
    <glyph glyph-name="Uogonek" unicode="&#x172;" horiz-adv-x="553" 
d="M574 277q11 9 33 24.5t26 18.5q36 24 66 54q10 11 15.5 19.5t6 13t-2.5 6.5q-14 5 -54 -38q-53 -55 -90 -98zM498 34q-32 -26 -59 -35q-61 -32 -73 -66q-7 -21 14 -23q18 -1 45 15q8 6 10 3t-4 -9q-36 -34 -73 -31q-16 2 -25 13t-4 27q12 34 86 66h-5q-47 0 -47 44
q0 35 44 96q-51 -51 -118.5 -97t-111.5 -46q-50 0 -44 46q4 29 33 68.5t94 112.5q99 113 111 153q6 21 -7.5 30.5t-35.5 9.5q-39 0 -86 -23t-88 -64q-80 -78 -80 -130q0 -41 36 -41q20 0 36 10q5 3 10 7q3 4 5 3t-2 -6.5t-10 -9.5q-19 -13 -41 -13q-45 2 -50 49
q-2 34 18.5 74t58.5 75q42 39 96.5 58.5t96.5 19.5q37 0 59.5 -14.5t21.5 -42.5q-1 -48 -97 -157q-66 -73 -95 -111t-32 -61q-4 -22 14 -24q31 -4 110 54q75 55 147 140q98 112 183 178q57 43 81 41q13 -3 10.5 -15.5t-16.5 -29.5q-23 -25 -75 -63q-68 -51 -91 -70
q-8 -9 -32 -39l-39.5 -52.5l-32 -45t-28.5 -48.5t-8 -32q0 -17 20 -17q22 0 64 31q26 18 49 40q17 15 20 12q2 -3 -10 -15q-21 -20 -53 -45z" />
    <glyph glyph-name="uogonek" unicode="&#x173;" horiz-adv-x="322" 
d="M266 34q-32 -25 -56 -34q-29 -15 -49.5 -33.5t-25.5 -33.5q-7 -21 14 -23q18 -1 45 15q9 5 10 3q2 -3 -4 -9q-36 -34 -73 -31q-16 2 -25 13t-4 27q12 34 86 66h-4q-31 0 -31 24q0 18 16 41q11 16 47 52l-1 1l-80 -63q-73 -55 -107 -55q-16 0 -25 7.5t-8 20.5q1 17 19 41
q33 44 71 80q-11 -5 -44 -31q-25 -20 -35 -29q-12 -10 -15 -8q-3 3 11 16q36 32 71 56q32 22 58 22q16 0 18 -3t-7 -13q-17 -19 -52 -62q-31 -41 -37 -54t-1 -18q6 -6 23 2q27 14 75 52l108 87q15 11 29 11q15 0 18.5 -2.5t-3.5 -13.5l-22.5 -27l-30.5 -37q-26 -32 -37 -51
q-10 -17 -3 -22t23 3q21 10 45 30q24 19 48 41q11 11 14 7q3 -2 -8 -13q-18 -18 -61 -52z" />
    <glyph glyph-name="Ydieresis" unicode="&#x178;" horiz-adv-x="499" 
d="M421 148q-55 -58 -127 -107.5t-117 -49.5q-50 0 -44 46q4 29 33 68.5t94 112.5q99 113 111 153q6 21 -7.5 30.5t-35.5 9.5q-39 0 -86 -23t-88 -64q-80 -78 -80 -130q0 -41 36 -41q22 0 36 10q2 1 4.5 3t3.5 3.5t2.5 2.5t2.5 1h2q2 -1 -2 -6.5t-10 -9.5q-19 -13 -41 -13
q-21 0 -35 13.5t-15 35.5q-2 34 19 75t58 74q42 38 96.5 58t96.5 20q37 0 59.5 -14.5t21.5 -42.5q-1 -48 -97 -157q-66 -73 -95 -111t-32 -61q-4 -22 14 -24q31 -4 110 54q79 59 147 140q96 116 157 178q46 44 74 41q14 -1 14.5 -15.5t-11.5 -29.5q-22 -28 -66 -63
q-51 -40 -81 -70l-130 -178l-87 -123q76 2 116.5 -31t31.5 -90q-2 -8 -5 -14.5t-6 -5.5q-1 0 -1 0.5t0.5 2t1 3.5t1 5.5t1.5 7.5q6 54 -33 85t-113 27q-39 -56 -107 -136q-59 -69 -126.5 -115.5t-109.5 -46.5q-17 0 -30.5 9.5t-11.5 32.5q3 39 50.5 89.5t97.5 85.5
q98 65 192 84zM566 278l51 42q41 33 58 54q27 34 13 39t-48 -38q-18 -21 -74 -97zM269 -74q-86 -19 -178 -82q-43 -29 -85 -81.5t-42 -86.5q0 -24 21 -26q24 -3 62 20q58 36 128 129zM593 482q-8 12 0 33q8 19 38 19q12 0 15.5 -7.5t-5.5 -18.5t-23.5 -18.5t-24.5 -7.5z
M484 482q-9 11 -1 33q8 19 37 19q12 0 15 -7.5t-5 -18.5q-8 -10 -23 -18t-23 -8z" />
    <glyph glyph-name="Zacute" unicode="&#x179;" horiz-adv-x="457" 
d="M433 324q-74 -40 -129 -40q-35 0 -60 13t-22 43q4 34 46 58t86 26q15 0 15 -4q0 -1 -15 -3q-27 -2 -49 -19.5t-24 -43.5q-1 -19 10 -29t28 -12q57 -6 129 31q32 34 55 53q28 23 47 20q6 -1 5.5 -7t-7.5 -14q-24 -26 -74 -54q-39 -39 -115 -102q-73 -61 -106 -83v-1h12
q55 0 88.5 -28.5t35.5 -83.5q33 17 68 49q9 8 12 5q3 -2 -10 -15q-29 -29 -69 -50q-4 -106 -139 -220q-87 -73 -190 -123t-169 -49q-59 2 -63 46q-7 79 211 190q51 27 146.5 68.5t146.5 71.5q15 72 -13 104q-28 30 -85 22q-33 -25 -61 -43q-61 -40 -73 -21q-5 9 11.5 24.5
t45.5 28.5q37 16 72 22q49 35 104 82q51 41 99 88zM330 3q-48 -28 -144 -71t-140 -67q-123 -66 -161 -99q-48 -41 -45 -79q3 -36 51 -36q61 0 150.5 47.5t159.5 119.5q105 108 129 185zM215 140q-24 -4 -52 -17q-21 -9 -34 -19.5t-11 -15.5q5 -9 49 20q30 19 48 32zM428 480
q-1 3 8 8q48 20 120 66q7 4 13 4q8 0 10 -11q3 -17 -21 -30q-42 -20 -118 -37q-11 -4 -12 0z" />
    <glyph glyph-name="zacute" unicode="&#x17a;" horiz-adv-x="244" 
d="M246 334h1q4 0 7 -5q10 -16 -7 -33q-25 -25 -83 -57q-10 -5 -12 -3q-2 3 5 10q42 40 75 79q7 9 14 9zM50 36q14 3 26 2q37 -4 48 -34q26 14 59 39q34 25 61 50q11 9 14 6t-13 -17q-22 -20 -56 -46q-31 -22 -63 -41q2 -6 2 -15q0 -48 -52 -116.5t-110 -119.5
q-68 -60 -141.5 -104.5t-115.5 -44.5t-42 35q0 61 155 179q80 60 195 129l76 47q2 20 -5.5 32t-21.5 12q-33 0 -72 -37q-8 -8 -12 -5q-6 6 3 17q9 12 42 30q17 9 48.5 24t49.5 25q50 30 73 56q6 6 4 9q-1 2 -6 0q-48 -27 -90 -27q-37 0 -49 19q-29 -33 -53 -55q-8 -7 -11 -4
t6 11q28 26 54 57q-2 16 10 31t33 15q17 0 17 -10q-13 -7 -16 -16q-2 -8 4.5 -14t23.5 -6q42 0 81 17q16 6 20 1q6 -6 -6 -23q-26 -35 -86 -68q-18 -9 -45.5 -21.5t-38.5 -18.5zM-287 -394h1q39 0 101.5 46t123.5 111q47 49 94.5 112.5t57.5 98.5l-69 -44
q-120 -75 -194 -131q-130 -98 -137 -166q-2 -27 22 -27z" />
    <glyph glyph-name="Zdotaccent" unicode="&#x17b;" horiz-adv-x="457" 
d="M433 324q-74 -40 -129 -40q-35 0 -60 13t-22 43q4 34 46 58t86 26q15 0 15 -4q0 -1 -15 -3q-27 -2 -49 -19.5t-24 -43.5q-1 -19 10 -29t28 -12q57 -6 129 31q32 34 55 53q28 23 47 20q6 -1 5.5 -7t-7.5 -14q-24 -26 -74 -54q-39 -39 -115 -102q-73 -61 -106 -83v-1h12
q55 0 88.5 -28.5t35.5 -83.5q33 17 68 49q9 8 12 5q3 -2 -10 -15q-29 -29 -69 -50q-4 -106 -139 -220q-87 -73 -190 -123t-169 -49q-59 2 -63 46q-7 79 211 190q51 27 146.5 68.5t146.5 71.5q15 72 -13 104q-28 30 -85 22q-33 -25 -61 -43q-61 -40 -73 -21q-5 9 11.5 24.5
t45.5 28.5q37 16 72 22q49 35 104 82q51 41 99 88zM330 3q-48 -28 -144 -71t-140 -67q-123 -66 -161 -99q-48 -41 -45 -79q3 -36 51 -36q61 0 150.5 47.5t159.5 119.5q105 108 129 185zM215 140q-24 -4 -52 -17q-21 -9 -34 -19.5t-11 -15.5q5 -9 49 20q30 19 48 32zM458 484
q-10 10 -2 34q9 21 42 21q12 0 15 -8t-6 -19t-24.5 -19t-24.5 -9z" />
    <glyph glyph-name="zdotaccent" unicode="&#x17c;" horiz-adv-x="244" 
d="M207 300h1q11 0 14 -6.5t-5 -16.5t-22 -17.5t-21 -7.5q-9 9 -2 31q6 17 35 17zM50 36q14 3 26 2q37 -4 48 -34q26 14 59 39q34 25 61 50q11 9 14 6t-13 -17q-22 -20 -56 -46q-31 -22 -63 -41q2 -6 2 -15q0 -48 -52 -116.5t-110 -119.5q-68 -60 -141.5 -104.5
t-115.5 -44.5t-42 35q0 61 155 179q80 60 195 129l76 47q2 20 -5.5 32t-21.5 12q-33 0 -72 -37q-8 -8 -12 -5q-6 6 3 17q9 12 42 30q17 9 48.5 24t49.5 25q50 30 73 56q6 6 4 9q-1 2 -6 0q-48 -27 -90 -27q-37 0 -49 19q-29 -33 -53 -55q-8 -7 -11 -4t6 11q28 26 54 57
q-2 16 10 31t33 15q17 0 17 -10q-13 -7 -16 -16q-2 -8 4.5 -14t23.5 -6q42 0 81 17q16 6 20 1q6 -6 -6 -23q-26 -35 -86 -68q-18 -9 -45.5 -21.5t-38.5 -18.5zM-287 -394h1q39 0 101.5 46t123.5 111q47 49 94.5 112.5t57.5 98.5l-69 -44q-120 -75 -194 -131
q-130 -98 -137 -166q-2 -27 22 -27z" />
    <glyph glyph-name="Zcaron" unicode="&#x17d;" horiz-adv-x="457" 
d="M433 324q-74 -40 -129 -40q-35 0 -60 13t-22 43q4 34 46 58t86 26q15 0 15 -4q0 -1 -15 -3q-27 -2 -49 -19.5t-24 -43.5q-1 -19 10 -29t28 -12q57 -6 129 31q32 34 55 53q28 23 47 20q6 -1 5.5 -7t-7.5 -14q-24 -26 -74 -54q-39 -39 -115 -102q-73 -61 -106 -83v-1h12
q55 0 88.5 -28.5t35.5 -83.5q33 17 68 49q9 8 12 5q3 -2 -10 -15q-29 -29 -69 -50q-4 -106 -139 -220q-87 -73 -190 -123t-169 -49q-59 2 -63 46q-7 79 211 190q51 27 146.5 68.5t146.5 71.5q15 72 -13 104q-28 30 -85 22q-33 -25 -61 -43q-61 -40 -73 -21q-5 9 11.5 24.5
t45.5 28.5q37 16 72 22q49 35 104 82q51 41 99 88zM330 3q-48 -28 -144 -71t-140 -67q-123 -66 -161 -99q-48 -41 -45 -79q3 -36 51 -36q61 0 150.5 47.5t159.5 119.5q105 108 129 185zM215 140q-24 -4 -52 -17q-21 -9 -34 -19.5t-11 -15.5q5 -9 49 20q30 19 48 32zM445 466
q-3 0 -6 6q-14 31 -34 66q-4 7 -3 8q3 2 12 -3q21 -13 43 -36q37 19 103 41q9 2 10 -1t-6 -7q-82 -49 -109 -70q-5 -4 -10 -4z" />
    <glyph glyph-name="zcaron" unicode="&#x17e;" horiz-adv-x="244" 
d="M171 250h-1q-3 0 -5 7q-21 46 -34 66q-4 5 -2 7q3 3 11 -3q25 -17 43 -42q55 32 105 47q8 3 9 -1q1 -1 -7 -6q-75 -45 -109 -70q-7 -5 -10 -5zM50 36q14 3 26 2q37 -4 48 -34q26 14 59 39q34 25 61 50q11 9 14 6t-13 -17q-22 -20 -56 -46q-31 -22 -63 -41q2 -6 2 -15
q0 -48 -52 -116.5t-110 -119.5q-68 -60 -141.5 -104.5t-115.5 -44.5t-42 35q0 61 155 179q80 60 195 129l76 47q2 20 -5.5 32t-21.5 12q-33 0 -72 -37q-8 -8 -12 -5q-6 6 3 17q9 12 42 30q17 9 48.5 24t49.5 25q50 30 73 56q6 6 4 9q-1 2 -6 0q-48 -27 -90 -27q-37 0 -49 19
q-29 -33 -53 -55q-8 -7 -11 -4t6 11q28 26 54 57q-2 16 10 31t33 15q17 0 17 -10q-13 -7 -16 -16q-2 -8 4.5 -14t23.5 -6q42 0 81 17q16 6 20 1q6 -6 -6 -23q-26 -35 -86 -68q-18 -9 -45.5 -21.5t-38.5 -18.5zM-287 -394h1q39 0 101.5 46t123.5 111q47 49 94.5 112.5
t57.5 98.5l-69 -44q-120 -75 -194 -131q-130 -98 -137 -166q-2 -27 22 -27z" />
    <glyph glyph-name="longs" unicode="&#x17f;" horiz-adv-x="172" 
d="M-404 -403h1q52 0 180 155q38 46 123 163q-135 -75 -210 -133q-127 -97 -127 -152q0 -33 33 -33zM89 172l82 102q74 87 138 136q82 63 142 63q30 0 51.5 -14t21.5 -39q0 -30 -33.5 -58.5t-81.5 -41.5q-14 -4 -14 0q0 2 12 6q38 13 61.5 41.5t23.5 51.5q0 45 -44 45
q-49 0 -124 -70q-66 -62 -193 -233l-146 -202q46 23 96 58q42 29 91 76q7 7 10 4t-3 -9q-47 -47 -94 -80q-56 -39 -114 -67l-28 -38q-88 -118 -128 -165q-63 -72 -124 -111t-96 -39h-1q-44 0 -44 41q0 61 133 162q80 61 230 142l146 199l-1 1q-16 -12 -53 -47q-8 -7 -11 -4
q-2 2 6 11q23 22 89 79z" />
    <glyph glyph-name="florin" unicode="&#x192;" horiz-adv-x="281" 
d="M460 352v-1q0 -11 -5 -11q-1 0 -3 12q-3 15 -16.5 21.5t-25.5 6.5q-62 0 -120 -68q-34 -38 -86 -114q-15 -21 -22 -32q18 -1 56 -1.5t58 -0.5q11 0 11 -4t-11 -4q-85 0 -121 -1q-50 -67 -67 -88q-64 -77 -137 -124q-75 -47 -150 -47q-46 0 -60 31q-6 11 0 13q2 0 6 -7
q14 -25 54 -25q71 0 139 54q42 33 119 134q10 12 42 58h-35q-19 0 -19 6q0 7 17 7h45q54 72 89 113q100 112 192 110q20 0 35 -10t15 -28z" />
    <glyph glyph-name="uni0218" unicode="&#x218;" horiz-adv-x="545" 
d="M383 216l156 65q57 86 116 128q34 23 62 24q14 1 24.5 -5.5t9.5 -21.5q-2 -24 -38 -53t-87 -51q-16 -7 -27 -11l-27 -52.5l-24 -46.5q-104 -203 -323 -218q-106 -6 -163 34q-64 -57 -80 -93q-1 -3 -2 -4t-2 -3t-2 -2h-2q-4 1 0 12q15 43 75 100q-41 37 -37 94
q4 46 41.5 82t82 53t85.5 20q46 4 94 -8.5t68 -42.5zM605 305l18 7q46 19 80 45t37 49q1 10 -6 15t-17 3q-21 -3 -46 -28q-28 -27 -66 -91zM249 70q-44 0 -76 21q-36 -24 -60 -42l-33 -26q49 -48 154 -40q78 7 139 58t116 152q32 55 44 73v1q-84 -34 -143 -62q6 -13 6 -31
q-1 -47 -47 -75.5t-100 -28.5zM247 80q45 0 84.5 26.5t41.5 66.5q0 13 -3 24l-67 -31q-65 -32 -122 -69q31 -17 66 -17zM367 208q-16 31 -59 42.5t-87 7.5q-62 -4 -115.5 -41t-58.5 -101q-3 -50 22 -80q13 13 31 26q26 19 58 40q-18 16 -21 38q-2 10 3 10q1 0 3 -8
q5 -19 24 -34q61 37 134 70zM107 -144q-2 2 7 11q23 23 33 44q2 4 1 10.5t0 9.5q6 17 43 19q14 0 14 -9q0 -7 -7 -15q-24 -28 -78 -64q-11 -8 -13 -6z" />
    <glyph glyph-name="uni0219" unicode="&#x219;" horiz-adv-x="229" 
d="M119 21q21 8 44 22q30 18 66 50q11 8 13 6q3 -3 -11 -16q-24 -22 -51 -40q-29 -20 -63 -34q-41 -18 -84 -18q-36 0 -50 17.5t-10 42.5q3 22 18 37.5t33 14.5q23 -2 19 -22q-3 -15 -22 -25q-22 -12 -23 -30q-1 -12 7 -18.5t22 -6.5q36 0 67 54q9 15 25.5 55.5t21.5 46.5v1
q-14 -14 -48 -38q-23 -17 -38 -24q-8 -4 -10 -1q-1 4 5 8q23 14 42 28q22 16 59 48q4 9 16 17q15 11 29 11q26 0 -1 -19l-4 -2q-3 -2 -12 -7t-12 -8q-7 -7 -7 -27q2 -56 -9 -82q-12 -28 -32 -41zM-66 -140q-2 2 7 11q23 23 33 44q2 5 1.5 10t0.5 10q6 17 42 19q13 0 13 -9
q0 -8 -7 -16q-34 -40 -78 -64q-11 -6 -12 -5z" />
    <glyph glyph-name="circumflex" unicode="&#x2c6;" horiz-adv-x="307" 
d="M264 321h1q3 0 5 -7q21 -46 34 -66q4 -5 2 -7q-3 -3 -11 3q-25 17 -43 42q-55 -32 -105 -47q-8 -3 -9 1q0 1 0.5 2t3.5 2l3 2q75 45 109 70q7 5 10 5z" />
    <glyph glyph-name="caron" unicode="&#x2c7;" horiz-adv-x="307" 
d="M229 240h-1q-3 0 -5 7q-21 46 -34 66q-4 5 -2 7q3 3 11 -3q25 -17 43 -42q55 32 105 47q8 3 9 -1q1 -1 -7 -6q-75 -45 -109 -70q-7 -5 -10 -5z" />
    </font>
</defs>
</svg>
